M48
; DRILL file {KiCad (5.1.2-1)-1} date Sunday, 09 February 2020 at 18:59:39
; FORMAT={3:3/ absolute / metric / suppress leading zeros}
; #@! TF.CreationDate,2020-02-09T18:59:39+00:00
; #@! TF.GenerationSoftware,Kicad,Pcbnew,(5.1.2-1)-1
FMAT,2
METRIC,TZ
T1C0.300
T2C0.400
T3C0.800
T4C1.016
%
G90
G05
T1
X82340Y-63588
X85190Y-45059
X86513Y-36316
X87493Y-46676
X89995Y-45443
X92143Y-68369
X93108Y-69544
X96413Y-113688
X97939Y-49455
X97939Y-62947
X98550Y-50063
X99233Y-41092
X99408Y-22596
X100392Y-51200
X105000Y-76416
X105692Y-42457
X108865Y-85126
X109152Y-38577
X109265Y-85939
X110188Y-65460
X111385Y-58551
X112273Y-97269
X112305Y-85098
X112489Y-78967
X112513Y-82787
X113053Y-34521
X113146Y-42200
X113275Y-43154
X113328Y-32379
X113422Y-59592
X113504Y-57776
X114083Y-23321
X114565Y-45439
X114829Y-36493
X114831Y-29225
X115538Y-63213
X115540Y-86182
X115546Y-64498
X115548Y-106003
X115565Y-65650
X115871Y-104815
X115976Y-103918
X115996Y-37277
X116190Y-82430
X116719Y-52222
X117003Y-117430
X117285Y-51656
X117398Y-120296
X117604Y-68529
X117933Y-23314
X118375Y-78561
X118474Y-68514
X119310Y-68510
X119686Y-106609
X120558Y-114931
X120625Y-68991
X121506Y-112051
X121696Y-70277
X121707Y-98363
X121731Y-76919
X121735Y-69460
X121813Y-75202
X121928Y-101550
X122762Y-50088
X124294Y-49483
X124841Y-114300
X124916Y-106780
X124943Y-118700
X124944Y-100457
X124945Y-81821
X124960Y-116178
X124962Y-83354
X124998Y-105006
X125019Y-107750
X125437Y-110101
X125455Y-79786
X125650Y-108586
X125721Y-101685
X125818Y-105639
X126152Y-88224
X126256Y-77132
X126335Y-80583
X129211Y-102004
X130034Y-101603
X130034Y-113760
X131933Y-71843
X131984Y-115516
X132226Y-65664
X132322Y-73409
X132626Y-84776
X132808Y-117370
X133108Y-69953
X133267Y-109202
X133612Y-72050
X133663Y-86233
X133674Y-118788
X133679Y-85052
X133683Y-82526
X133688Y-64411
X133700Y-63075
X133808Y-115576
X136455Y-95025
X136711Y-116801
X136907Y-110791
X137711Y-102754
X137748Y-103593
X138104Y-104370
X138563Y-109598
X139118Y-91035
X139122Y-61857
X139505Y-86110
X139907Y-85236
X139961Y-116632
X140519Y-86884
X140593Y-115006
X140991Y-112054
X141254Y-82015
X142097Y-107396
X142181Y-85191
X142477Y-106640
X142543Y-103427
X142555Y-99872
X142589Y-105807
X143000Y-85246
X143032Y-74151
X143059Y-71298
X143075Y-86126
X143096Y-101789
X143126Y-110606
X143206Y-98945
X143230Y-102887
X143249Y-116813
X144259Y-92016
X146116Y-84071
X146303Y-79709
X146379Y-67208
X146620Y-98074
X146660Y-86910
X146765Y-65451
X147818Y-67356
X148203Y-73280
X149102Y-98722
T2
X133563Y-68353
X142996Y-77107
T3
X127762Y-93166
X127762Y-100666
X80140Y-48260
X80140Y-50800
X80140Y-53340
X80140Y-55880
X80140Y-58420
X80140Y-60960
X80140Y-63500
X80140Y-66040
X80140Y-68580
X80140Y-71120
X80140Y-73660
X80140Y-76200
X80140Y-78740
X80140Y-81280
X80140Y-83820
X80140Y-86360
X80140Y-88900
X80140Y-91440
X80140Y-93980
X80140Y-96520
X80140Y-99060
X80140Y-101600
X80140Y-104140
X80140Y-106680
X80140Y-109220
X80140Y-111760
X80140Y-114300
X80140Y-116840
X80140Y-119380
X80140Y-121920
X80140Y-124460
X80140Y-127000
X103000Y-48260
X103000Y-50800
X103000Y-53340
X103000Y-55880
X103000Y-58420
X103000Y-60960
X103000Y-63500
X103000Y-66040
X103000Y-68580
X103000Y-71120
X103000Y-73660
X103000Y-76200
X103000Y-78740
X103000Y-81280
X103000Y-83820
X103000Y-86360
X103000Y-88900
X103000Y-91440
X103000Y-93980
X103000Y-96520
X103000Y-99060
X103000Y-101600
X103000Y-104140
X103000Y-106680
X103000Y-109220
X103000Y-111760
X103000Y-114300
X103000Y-116840
X103000Y-119380
X103000Y-121920
X103000Y-124460
X103000Y-127000
X136232Y-126940
X143732Y-126940
X137971Y-29379
X137971Y-36999
X79932Y-34713
X79932Y-42213
X114542Y-89999
X122042Y-89999
X111028Y-24465
X111028Y-27005
X111028Y-29545
X111028Y-32085
X111028Y-34625
X111028Y-37165
X111028Y-39705
X111028Y-42245
X118648Y-24465
X118648Y-27005
X118648Y-29545
X118648Y-32085
X118648Y-34625
X118648Y-37165
X118648Y-39705
X118648Y-42245
X114722Y-126940
X122222Y-126940
X136144Y-59309
X143644Y-59309
X114808Y-48260
X114808Y-55880
X117348Y-48260
X117348Y-55880
X119888Y-48260
X119888Y-55880
X122428Y-48260
X122428Y-55880
X79932Y-24553
X79932Y-32053
X134796Y-24299
X134796Y-31919
X136052Y-93174
X143552Y-93174
X88187Y-26966
X88187Y-29506
X88187Y-32046
X88187Y-34586
X88187Y-37126
X88187Y-39666
X90727Y-24426
X90727Y-26966
X90727Y-29506
X90727Y-32046
X90727Y-34586
X90727Y-37126
X90727Y-39666
X90727Y-42206
X93267Y-24426
X93267Y-26966
X93267Y-39666
X93267Y-42206
X95807Y-24426
X95807Y-26966
X95807Y-39666
X95807Y-42206
X98347Y-24426
X98347Y-26966
X98347Y-39666
X98347Y-42206
X100887Y-24426
X100887Y-26966
X100887Y-39666
X100887Y-42206
X103427Y-24426
X103427Y-26966
X103427Y-29506
X103427Y-32046
X103427Y-34586
X103427Y-37126
X103427Y-39666
X103427Y-42206
X105967Y-26966
X105967Y-29506
X105967Y-32046
X105967Y-34586
X105967Y-37126
X105967Y-39666
X136232Y-123766
X143732Y-123766
X114808Y-59309
X122308Y-59309
X114722Y-123766
X122222Y-123766
X84140Y-48260
X84140Y-50800
X84140Y-53340
X84140Y-55880
X84140Y-58420
X84140Y-60960
X84140Y-63500
X84140Y-66040
X84140Y-68580
X84140Y-71120
X84140Y-73660
X84140Y-76200
X84140Y-78740
X84140Y-81280
X84140Y-83820
X84140Y-86360
X84140Y-88900
X84140Y-91440
X84140Y-93980
X84140Y-96520
X84140Y-99060
X84140Y-101600
X84140Y-104140
X84140Y-106680
X84140Y-109220
X84140Y-111760
X84140Y-114300
X84140Y-116840
X84140Y-119380
X84140Y-121920
X84140Y-124460
X84140Y-127000
X107000Y-48260
X107000Y-50800
X107000Y-53340
X107000Y-55880
X107000Y-58420
X107000Y-60960
X107000Y-63500
X107000Y-66040
X107000Y-68580
X107000Y-71120
X107000Y-73660
X107000Y-76200
X107000Y-78740
X107000Y-81280
X107000Y-83820
X107000Y-86360
X107000Y-88900
X107000Y-91440
X107000Y-93980
X107000Y-96520
X107000Y-99060
X107000Y-101600
X107000Y-104140
X107000Y-106680
X107000Y-109220
X107000Y-111760
X107000Y-114300
X107000Y-116840
X107000Y-119380
X107000Y-121920
X107000Y-124460
X107000Y-127000
X125730Y-48317
X125730Y-55817
X83107Y-24553
X83107Y-32053
X114542Y-93174
X122042Y-93174
X122748Y-24308
X122748Y-26848
X122748Y-29388
X122748Y-31928
X122748Y-34468
X122748Y-37008
X122748Y-39548
X122748Y-42088
X130368Y-24308
X130368Y-26848
X130368Y-29388
X130368Y-31928
X130368Y-34468
X130368Y-37008
X130368Y-39548
X130368Y-42088
X130937Y-93167
X130937Y-100667
X134796Y-34459
X134796Y-42079
X136052Y-89999
X143552Y-89999
X83107Y-34713
X83107Y-42213
T4
X143460Y-26840
X143460Y-29380
X143460Y-31920
X143460Y-34460
X143460Y-37000
X146000Y-26840
X146000Y-29380
X146000Y-31920
X146000Y-34460
X146000Y-37000
T0
M30
