M48
; DRILL file {KiCad (5.1.2-1)-1} date Wednesday, 02 October 2019 at 20:18:42
; FORMAT={3:3/ absolute / metric / suppress leading zeros}
; #@! TF.CreationDate,2019-10-02T20:18:42+01:00
; #@! TF.GenerationSoftware,Kicad,Pcbnew,(5.1.2-1)-1
FMAT,2
METRIC,TZ
T1C0.300
T2C0.400
T3C0.800
T4C1.016
%
G90
G05
T1
X83083Y-30445
X85955Y-59180
X85955Y-82266
X85974Y-32103
X86143Y-40328
X88377Y-44382
X88796Y-45193
X89474Y-46471
X90090Y-47236
X90699Y-60246
X91344Y-82656
X92642Y-50172
X95462Y-36146
X95592Y-66000
X95604Y-38433
X98367Y-65338
X98633Y-46210
X100437Y-44543
X101089Y-46866
X101623Y-29970
X101839Y-36550
X103427Y-44031
X104296Y-110450
X104360Y-36257
X104697Y-29264
X105391Y-64866
X105514Y-103884
X105970Y-49462
X107036Y-38171
X107041Y-31047
X108463Y-35349
X108484Y-38004
X109827Y-93065
X110090Y-80965
X110128Y-43228
X111017Y-58267
X111134Y-63517
X111818Y-61691
X111924Y-71628
X111985Y-79119
X112127Y-65028
X112186Y-43150
X112943Y-40748
X114021Y-57110
X114501Y-94875
X114969Y-115527
X114998Y-106608
X115309Y-94829
X115559Y-82435
X115617Y-119567
X115678Y-110114
X115717Y-97788
X115741Y-30117
X115761Y-59385
X115779Y-117043
X116086Y-73219
X116138Y-68558
X116371Y-83882
X116742Y-41749
X116785Y-69238
X117212Y-61416
X117220Y-76700
X117355Y-44311
X117379Y-77916
X117623Y-69112
X118623Y-69546
X119002Y-65203
X119814Y-75878
X119818Y-70080
X120401Y-78325
X121265Y-63861
X121342Y-97244
X121344Y-73270
X121352Y-71147
X121353Y-72000
X122309Y-44708
X122771Y-94244
X123372Y-93705
X124103Y-95039
X124298Y-44433
X124381Y-80274
X124401Y-75211
X124403Y-71324
X124548Y-32610
X124566Y-77156
X124722Y-110228
X124724Y-90310
X124769Y-86522
X124815Y-81091
X124888Y-98790
X124922Y-45106
X124942Y-81990
X125134Y-85439
X125715Y-105700
X125799Y-42759
X125801Y-82591
X126091Y-89318
X126239Y-108361
X126313Y-111935
X126550Y-90032
X126684Y-38532
X127523Y-111512
X127923Y-103483
X127997Y-109575
X128095Y-24328
X128251Y-105959
X129441Y-113359
X129884Y-83191
X130314Y-81112
X130965Y-110835
X131009Y-84925
X131197Y-112512
X131698Y-78670
X131858Y-69335
X131971Y-64596
X132090Y-88561
X132655Y-102864
X132699Y-83693
X132928Y-70002
X132994Y-71316
X133148Y-90984
X133300Y-72860
X133309Y-79831
X133989Y-93610
X135937Y-88430
X136342Y-97745
X136439Y-121838
X136507Y-110309
X136523Y-102562
X136531Y-119037
X136541Y-116248
X136546Y-63070
X136570Y-103467
X136590Y-109084
X136758Y-80826
X136905Y-115373
X136958Y-76462
X136961Y-105959
X136979Y-66860
X137354Y-65151
X137398Y-86902
X138400Y-94902
X138889Y-101532
X138979Y-82744
X139216Y-81915
X139303Y-73870
X139383Y-77215
X139592Y-109998
X140158Y-76551
X140173Y-71994
X140208Y-111534
X140269Y-107659
X140797Y-74927
X140835Y-106834
X141391Y-72953
X141998Y-71314
X142080Y-115309
X142185Y-77829
X142263Y-72640
X142276Y-106427
X142556Y-111877
X142675Y-73942
X142862Y-76478
X142870Y-71385
X145070Y-88071
X145761Y-81541
X145800Y-82744
X145936Y-64241
X145939Y-83734
X145940Y-74255
X145946Y-96872
X146010Y-88407
X146246Y-85252
X146462Y-79681
T2
X117447Y-92969
X124675Y-112115
T3
X111028Y-24465
X111028Y-27005
X111028Y-29545
X111028Y-32085
X111028Y-34625
X111028Y-37165
X111028Y-39705
X111028Y-42245
X118648Y-24465
X118648Y-27005
X118648Y-29545
X118648Y-32085
X118648Y-34625
X118648Y-37165
X118648Y-39705
X118648Y-42245
X125730Y-58420
X133230Y-58420
X79932Y-24553
X79932Y-32053
X80010Y-48220
X80010Y-50760
X80010Y-53300
X80010Y-55840
X80010Y-58380
X80010Y-60920
X80010Y-63460
X80010Y-66000
X80010Y-68540
X80010Y-71080
X80010Y-73620
X80010Y-76160
X80010Y-78700
X80010Y-81240
X80010Y-83780
X80010Y-86320
X80010Y-88860
X80010Y-91400
X80010Y-93940
X80010Y-96480
X80010Y-99020
X80010Y-101560
X80010Y-104100
X80010Y-106640
X80010Y-109180
X80010Y-111720
X80010Y-114260
X80010Y-116800
X80010Y-119340
X80010Y-121880
X80010Y-124420
X80010Y-126960
X102870Y-48220
X102870Y-50760
X102870Y-53300
X102870Y-55840
X102870Y-58380
X102870Y-60920
X102870Y-63460
X102870Y-66000
X102870Y-68540
X102870Y-71080
X102870Y-73620
X102870Y-76160
X102870Y-78700
X102870Y-81240
X102870Y-83780
X102870Y-86320
X102870Y-88860
X102870Y-91400
X102870Y-93940
X102870Y-96480
X102870Y-99020
X102870Y-101560
X102870Y-104100
X102870Y-106640
X102870Y-109180
X102870Y-111720
X102870Y-114260
X102870Y-116800
X102870Y-119340
X102870Y-121880
X102870Y-124420
X102870Y-126960
X130619Y-94500
X130619Y-102000
X113538Y-58420
X121038Y-58420
X88187Y-26966
X88187Y-29506
X88187Y-32046
X88187Y-34586
X88187Y-37126
X88187Y-39666
X90727Y-24426
X90727Y-26966
X90727Y-29506
X90727Y-32046
X90727Y-34586
X90727Y-37126
X90727Y-39666
X90727Y-42206
X93267Y-24426
X93267Y-26966
X93267Y-39666
X93267Y-42206
X95807Y-24426
X95807Y-26966
X95807Y-39666
X95807Y-42206
X98347Y-24426
X98347Y-26966
X98347Y-39666
X98347Y-42206
X100887Y-24426
X100887Y-26966
X100887Y-39666
X100887Y-42206
X103427Y-24426
X103427Y-26966
X103427Y-29506
X103427Y-32046
X103427Y-34586
X103427Y-37126
X103427Y-39666
X103427Y-42206
X105967Y-26966
X105967Y-29506
X105967Y-32046
X105967Y-34586
X105967Y-37126
X105967Y-39666
X113538Y-46990
X113538Y-54610
X116078Y-46990
X116078Y-54610
X118618Y-46990
X118618Y-54610
X121158Y-46990
X121158Y-54610
X83107Y-24553
X83107Y-32053
X84455Y-48220
X84455Y-50760
X84455Y-53300
X84455Y-55840
X84455Y-58380
X84455Y-60920
X84455Y-63460
X84455Y-66000
X84455Y-68540
X84455Y-71080
X84455Y-73620
X84455Y-76160
X84455Y-78700
X84455Y-81240
X84455Y-83780
X84455Y-86320
X84455Y-88860
X84455Y-91400
X84455Y-93940
X84455Y-96480
X84455Y-99020
X84455Y-101560
X84455Y-104100
X84455Y-106640
X84455Y-109180
X84455Y-111720
X84455Y-114260
X84455Y-116800
X84455Y-119340
X84455Y-121880
X84455Y-124420
X84455Y-126960
X107315Y-48220
X107315Y-50760
X107315Y-53300
X107315Y-55840
X107315Y-58380
X107315Y-60920
X107315Y-63460
X107315Y-66000
X107315Y-68540
X107315Y-71080
X107315Y-73620
X107315Y-76160
X107315Y-78700
X107315Y-81240
X107315Y-83780
X107315Y-86320
X107315Y-88860
X107315Y-91400
X107315Y-93940
X107315Y-96480
X107315Y-99020
X107315Y-101560
X107315Y-104100
X107315Y-106640
X107315Y-109180
X107315Y-111720
X107315Y-114260
X107315Y-116800
X107315Y-119340
X107315Y-121880
X107315Y-124420
X107315Y-126960
X114161Y-92920
X121661Y-92920
X114151Y-124083
X121651Y-124083
X135661Y-127258
X143161Y-127258
X114151Y-127258
X121651Y-127258
X135671Y-89745
X143171Y-89745
X83107Y-34713
X83107Y-42213
X127254Y-94500
X127254Y-102000
X135661Y-124083
X143161Y-124083
X128270Y-46990
X128270Y-54490
X137971Y-29379
X137971Y-36999
X135671Y-92920
X143171Y-92920
X79932Y-34713
X79932Y-42213
X122748Y-24308
X122748Y-26848
X122748Y-29388
X122748Y-31928
X122748Y-34468
X122748Y-37008
X122748Y-39548
X122748Y-42088
X130368Y-24308
X130368Y-26848
X130368Y-29388
X130368Y-31928
X130368Y-34468
X130368Y-37008
X130368Y-39548
X130368Y-42088
X114161Y-89745
X121661Y-89745
X134796Y-34459
X134796Y-42079
X134796Y-24299
X134796Y-31919
T4
X143460Y-26840
X143460Y-29380
X143460Y-31920
X143460Y-34460
X143460Y-37000
X146000Y-26840
X146000Y-29380
X146000Y-31920
X146000Y-34460
X146000Y-37000
T0
M30
