G04 #@! TF.GenerationSoftware,KiCad,Pcbnew,(5.1.2-1)-1*
G04 #@! TF.CreationDate,2020-02-09T18:59:33+00:00*
G04 #@! TF.ProjectId,A500 FastRAM,41353030-2046-4617-9374-52414d2e6b69,rev?*
G04 #@! TF.SameCoordinates,Original*
G04 #@! TF.FileFunction,Copper,L2,Bot*
G04 #@! TF.FilePolarity,Positive*
%FSLAX46Y46*%
G04 Gerber Fmt 4.6, Leading zero omitted, Abs format (unit mm)*
G04 Created by KiCad (PCBNEW (5.1.2-1)-1) date 2020-02-09 18:59:33*
%MOMM*%
%LPD*%
G04 APERTURE LIST*
%ADD10C,1.600000*%
%ADD11O,1.600000X1.600000*%
%ADD12R,1.727200X1.727200*%
%ADD13O,1.727200X1.727200*%
%ADD14R,1.422400X1.422400*%
%ADD15C,1.422400*%
%ADD16R,1.600000X1.600000*%
%ADD17O,2.400000X1.600000*%
%ADD18R,2.400000X1.600000*%
%ADD19C,0.800000*%
%ADD20C,0.600000*%
%ADD21C,0.381000*%
%ADD22C,0.200000*%
%ADD23C,0.254000*%
G04 APERTURE END LIST*
D10*
X79932000Y-34713000D03*
D11*
X79932000Y-42213000D03*
X83107000Y-32053000D03*
D10*
X83107000Y-24553000D03*
D11*
X79932000Y-32053000D03*
D10*
X79932000Y-24553000D03*
X83107000Y-34713000D03*
D11*
X83107000Y-42213000D03*
D10*
X114808000Y-59309000D03*
D11*
X122308000Y-59309000D03*
X122042000Y-89999000D03*
D10*
X114542000Y-89999000D03*
X114542000Y-93174000D03*
D11*
X122042000Y-93174000D03*
X143644000Y-59309000D03*
D10*
X136144000Y-59309000D03*
X136052000Y-89999000D03*
D11*
X143552000Y-89999000D03*
X143552000Y-93174000D03*
D10*
X136052000Y-93174000D03*
X127762000Y-100666000D03*
D11*
X127762000Y-93166000D03*
X122222000Y-123766000D03*
D10*
X114722000Y-123766000D03*
X114722000Y-126940000D03*
D11*
X122222000Y-126940000D03*
X130937000Y-100667200D03*
D10*
X130937000Y-93167200D03*
X136232000Y-123766000D03*
D11*
X143732000Y-123766000D03*
X143732000Y-126940000D03*
D10*
X136232000Y-126940000D03*
D12*
X146000000Y-37000000D03*
D13*
X143460000Y-37000000D03*
X146000000Y-34460000D03*
X143460000Y-34460000D03*
X146000000Y-31920000D03*
X143460000Y-31920000D03*
X146000000Y-29380000D03*
X143460000Y-29380000D03*
X146000000Y-26840000D03*
X143460000Y-26840000D03*
D10*
X134796000Y-42079000D03*
D11*
X134796000Y-34459000D03*
X134796000Y-24299000D03*
D10*
X134796000Y-31919000D03*
X137971000Y-36999000D03*
D11*
X137971000Y-29379000D03*
D10*
X125730000Y-55816500D03*
D11*
X125730000Y-48316500D03*
D14*
X98347000Y-26966000D03*
D15*
X95807000Y-26966000D03*
X93267000Y-26966000D03*
X100887000Y-26966000D03*
X103427000Y-26966000D03*
X95807000Y-24426000D03*
X93267000Y-24426000D03*
X90727000Y-24426000D03*
X98347000Y-24426000D03*
X100887000Y-24426000D03*
X90727000Y-26966000D03*
X90727000Y-29506000D03*
X90727000Y-32046000D03*
X90727000Y-34586000D03*
X90727000Y-37126000D03*
X88187000Y-26966000D03*
X88187000Y-29506000D03*
X88187000Y-32046000D03*
X88187000Y-34586000D03*
X88187000Y-37126000D03*
X88187000Y-39666000D03*
X90727000Y-39666000D03*
X93267000Y-39666000D03*
X95807000Y-39666000D03*
X98347000Y-39666000D03*
X100887000Y-39666000D03*
X105967000Y-39666000D03*
X90727000Y-42206000D03*
X93267000Y-42206000D03*
X95807000Y-42206000D03*
X98347000Y-42206000D03*
X100887000Y-42206000D03*
X103427000Y-42206000D03*
X103427000Y-39666000D03*
X103427000Y-37126000D03*
X103427000Y-34586000D03*
X103427000Y-32046000D03*
X103427000Y-29506000D03*
X103427000Y-24426000D03*
X105967000Y-37126000D03*
X105967000Y-34586000D03*
X105967000Y-32046000D03*
X105967000Y-29506000D03*
X105967000Y-26966000D03*
D16*
X111028000Y-24465000D03*
D11*
X118648000Y-42245000D03*
X111028000Y-27005000D03*
X118648000Y-39705000D03*
X111028000Y-29545000D03*
X118648000Y-37165000D03*
X111028000Y-32085000D03*
X118648000Y-34625000D03*
X111028000Y-34625000D03*
X118648000Y-32085000D03*
X111028000Y-37165000D03*
X118648000Y-29545000D03*
X111028000Y-39705000D03*
X118648000Y-27005000D03*
X111028000Y-42245000D03*
X118648000Y-24465000D03*
X130368000Y-24308000D03*
X122748000Y-42088000D03*
X130368000Y-26848000D03*
X122748000Y-39548000D03*
X130368000Y-29388000D03*
X122748000Y-37008000D03*
X130368000Y-31928000D03*
X122748000Y-34468000D03*
X130368000Y-34468000D03*
X122748000Y-31928000D03*
X130368000Y-37008000D03*
X122748000Y-29388000D03*
X130368000Y-39548000D03*
X122748000Y-26848000D03*
X130368000Y-42088000D03*
D16*
X122748000Y-24308000D03*
X122428000Y-48260000D03*
D11*
X114808000Y-55880000D03*
X119888000Y-48260000D03*
X117348000Y-55880000D03*
X117348000Y-48260000D03*
X119888000Y-55880000D03*
X114808000Y-48260000D03*
X122428000Y-55880000D03*
D17*
X80140000Y-127000000D03*
X103000000Y-48260000D03*
X80140000Y-124460000D03*
X103000000Y-50800000D03*
X80140000Y-121920000D03*
X103000000Y-53340000D03*
X80140000Y-119380000D03*
X103000000Y-55880000D03*
X80140000Y-116840000D03*
X103000000Y-58420000D03*
X80140000Y-114300000D03*
X103000000Y-60960000D03*
X80140000Y-111760000D03*
X103000000Y-63500000D03*
X80140000Y-109220000D03*
X103000000Y-66040000D03*
X80140000Y-106680000D03*
X103000000Y-68580000D03*
X80140000Y-104140000D03*
X103000000Y-71120000D03*
X80140000Y-101600000D03*
X103000000Y-73660000D03*
X80140000Y-99060000D03*
X103000000Y-76200000D03*
X80140000Y-96520000D03*
X103000000Y-78740000D03*
X80140000Y-93980000D03*
X103000000Y-81280000D03*
X80140000Y-91440000D03*
X103000000Y-83820000D03*
X80140000Y-88900000D03*
X103000000Y-86360000D03*
X80140000Y-86360000D03*
X103000000Y-88900000D03*
X80140000Y-83820000D03*
X103000000Y-91440000D03*
X80140000Y-81280000D03*
X103000000Y-93980000D03*
X80140000Y-78740000D03*
X103000000Y-96520000D03*
X80140000Y-76200000D03*
X103000000Y-99060000D03*
X80140000Y-73660000D03*
X103000000Y-101600000D03*
X80140000Y-71120000D03*
X103000000Y-104140000D03*
X80140000Y-68580000D03*
X103000000Y-106680000D03*
X80140000Y-66040000D03*
X103000000Y-109220000D03*
X80140000Y-63500000D03*
X103000000Y-111760000D03*
X80140000Y-60960000D03*
X103000000Y-114300000D03*
X80140000Y-58420000D03*
X103000000Y-116840000D03*
X80140000Y-55880000D03*
X103000000Y-119380000D03*
X80140000Y-53340000D03*
X103000000Y-121920000D03*
X80140000Y-50800000D03*
X103000000Y-124460000D03*
X80140000Y-48260000D03*
D18*
X103000000Y-127000000D03*
X107000000Y-127000000D03*
D17*
X84140000Y-48260000D03*
X107000000Y-124460000D03*
X84140000Y-50800000D03*
X107000000Y-121920000D03*
X84140000Y-53340000D03*
X107000000Y-119380000D03*
X84140000Y-55880000D03*
X107000000Y-116840000D03*
X84140000Y-58420000D03*
X107000000Y-114300000D03*
X84140000Y-60960000D03*
X107000000Y-111760000D03*
X84140000Y-63500000D03*
X107000000Y-109220000D03*
X84140000Y-66040000D03*
X107000000Y-106680000D03*
X84140000Y-68580000D03*
X107000000Y-104140000D03*
X84140000Y-71120000D03*
X107000000Y-101600000D03*
X84140000Y-73660000D03*
X107000000Y-99060000D03*
X84140000Y-76200000D03*
X107000000Y-96520000D03*
X84140000Y-78740000D03*
X107000000Y-93980000D03*
X84140000Y-81280000D03*
X107000000Y-91440000D03*
X84140000Y-83820000D03*
X107000000Y-88900000D03*
X84140000Y-86360000D03*
X107000000Y-86360000D03*
X84140000Y-88900000D03*
X107000000Y-83820000D03*
X84140000Y-91440000D03*
X107000000Y-81280000D03*
X84140000Y-93980000D03*
X107000000Y-78740000D03*
X84140000Y-96520000D03*
X107000000Y-76200000D03*
X84140000Y-99060000D03*
X107000000Y-73660000D03*
X84140000Y-101600000D03*
X107000000Y-71120000D03*
X84140000Y-104140000D03*
X107000000Y-68580000D03*
X84140000Y-106680000D03*
X107000000Y-66040000D03*
X84140000Y-109220000D03*
X107000000Y-63500000D03*
X84140000Y-111760000D03*
X107000000Y-60960000D03*
X84140000Y-114300000D03*
X107000000Y-58420000D03*
X84140000Y-116840000D03*
X107000000Y-55880000D03*
X84140000Y-119380000D03*
X107000000Y-53340000D03*
X84140000Y-121920000D03*
X107000000Y-50800000D03*
X84140000Y-124460000D03*
X107000000Y-48260000D03*
X84140000Y-127000000D03*
D19*
X142995500Y-77106700D03*
X133562900Y-68353000D03*
D20*
X133107600Y-69953100D03*
X120624800Y-68990800D03*
X132807500Y-117370400D03*
X99408500Y-22596200D03*
X136711100Y-116800700D03*
X113053400Y-34520600D03*
X109151700Y-38577200D03*
X98550000Y-50062900D03*
X132225600Y-65664400D03*
X115564800Y-65650000D03*
X133266500Y-109201900D03*
X117932700Y-23314100D03*
X86512600Y-36316100D03*
X131933200Y-71843300D03*
X133688300Y-64410700D03*
X115546400Y-64497700D03*
X85190000Y-45059000D03*
X112272700Y-97269300D03*
X136454900Y-95024600D03*
X133699800Y-63074900D03*
X115538000Y-63212900D03*
X117284800Y-51656400D03*
X116718900Y-52222400D03*
X115870600Y-104815300D03*
X137748300Y-103593100D03*
X87493500Y-46675800D03*
X124293900Y-49483100D03*
X114829200Y-36492700D03*
X111384600Y-58551400D03*
X92142500Y-68368500D03*
X113146200Y-42199600D03*
X93107900Y-69543600D03*
X113327800Y-32379300D03*
X113275400Y-43153600D03*
X89994500Y-45443400D03*
X146660100Y-86910200D03*
X146764900Y-65450600D03*
X144258500Y-92016000D03*
X126151700Y-88224400D03*
X121707000Y-98363200D03*
X143206100Y-98944600D03*
X147817900Y-67356000D03*
X125721400Y-101684500D03*
X146379200Y-67207900D03*
X142555100Y-99872400D03*
X124943600Y-100457100D03*
X143096200Y-101788900D03*
X121927900Y-101549900D03*
X125818000Y-105639400D03*
X121734900Y-69460000D03*
X143059000Y-71298000D03*
X148202700Y-73280300D03*
X143229800Y-102887200D03*
X119685600Y-106608600D03*
X142543300Y-103427000D03*
X124998200Y-105005900D03*
X146619500Y-98074400D03*
X142588800Y-105806500D03*
X124916000Y-106780400D03*
X142476600Y-106640200D03*
X125019200Y-107750100D03*
X136906800Y-110791100D03*
X121506200Y-112050900D03*
X105691900Y-42456600D03*
X132321800Y-73409400D03*
X121695800Y-70276800D03*
X96412800Y-113687500D03*
X138103800Y-104369600D03*
X115547500Y-106002800D03*
X137711300Y-102754200D03*
X115976300Y-103918200D03*
X99233200Y-41092200D03*
X113421500Y-59591700D03*
X114083300Y-23320800D03*
X125436900Y-110100800D03*
X143126300Y-110606100D03*
X121731400Y-76918700D03*
X143032400Y-74151000D03*
X138563400Y-109598000D03*
X149102400Y-98722000D03*
X112489200Y-78967100D03*
X105000000Y-76415700D03*
X133611900Y-72050200D03*
X139122400Y-61857000D03*
X118374900Y-78560600D03*
X110187600Y-65460100D03*
X142999900Y-85246100D03*
X118473900Y-68514100D03*
X114831200Y-29225400D03*
X125649700Y-108586100D03*
X142096700Y-107395800D03*
X121813300Y-75201800D03*
X100391500Y-51199600D03*
X113503900Y-57776300D03*
X114565300Y-45438600D03*
X126334800Y-80583300D03*
X139504700Y-86110000D03*
X143074700Y-86125900D03*
X133678700Y-85051900D03*
X117398100Y-120295900D03*
X133674100Y-118787900D03*
X112304600Y-85097600D03*
X108864700Y-85125700D03*
X142181400Y-85191200D03*
X117604300Y-68528800D03*
X115995600Y-37277400D03*
X125455200Y-79785900D03*
X124942600Y-118700000D03*
X139960700Y-116632000D03*
X139906900Y-85236200D03*
X109265000Y-85939400D03*
X115539700Y-86182300D03*
X139117700Y-91035400D03*
X133663100Y-86232600D03*
X140518600Y-86883500D03*
X124945200Y-81821200D03*
X122761900Y-50087700D03*
X124959800Y-116177600D03*
X140593100Y-115005900D03*
X129211300Y-102003700D03*
X146303400Y-79708600D03*
X143249400Y-116813200D03*
X130033800Y-113760400D03*
X124962100Y-83353800D03*
X130033800Y-101603400D03*
X146115500Y-84071400D03*
X141254200Y-82014500D03*
X126256100Y-77132400D03*
X119309700Y-68509900D03*
X124841100Y-114299900D03*
X140990500Y-112054000D03*
X116190300Y-82430000D03*
X133682600Y-82526000D03*
X133807600Y-115576200D03*
X120558000Y-114930700D03*
X97938800Y-62946900D03*
X97938800Y-49454600D03*
X117003400Y-117430000D03*
X131983800Y-115516100D03*
X82340200Y-63587600D03*
X132625500Y-84776100D03*
X112513300Y-82786700D03*
D21*
X121557200Y-42088000D02*
X120513900Y-41044700D01*
X120513900Y-41044700D02*
X113324200Y-41044700D01*
X113324200Y-41044700D02*
X112218800Y-42150100D01*
X112218800Y-42150100D02*
X112218800Y-42245000D01*
X86790000Y-26715300D02*
X86790000Y-27190600D01*
X86790000Y-27190600D02*
X87835400Y-28236000D01*
X87835400Y-28236000D02*
X89457000Y-28236000D01*
X89457000Y-28236000D02*
X90727000Y-29506000D01*
X100887000Y-24426000D02*
X99784900Y-23323900D01*
X99784900Y-23323900D02*
X90181400Y-23323900D01*
X90181400Y-23323900D02*
X86790000Y-26715300D01*
X83107000Y-24553000D02*
X85269300Y-26715300D01*
X85269300Y-26715300D02*
X86790000Y-26715300D01*
X79932000Y-24553000D02*
X83107000Y-24553000D01*
X122042000Y-89999000D02*
X120851200Y-89999000D01*
X108590800Y-88900000D02*
X108683200Y-88807600D01*
X108683200Y-88807600D02*
X119659800Y-88807600D01*
X119659800Y-88807600D02*
X120851200Y-89999000D01*
X85730800Y-99060000D02*
X89552600Y-95238200D01*
X89552600Y-95238200D02*
X107838000Y-95238200D01*
X107838000Y-95238200D02*
X108590800Y-94485400D01*
X108590800Y-94485400D02*
X108590800Y-88900000D01*
X84140000Y-99060000D02*
X85730800Y-99060000D01*
X80140000Y-99060000D02*
X84140000Y-99060000D01*
X107000000Y-88900000D02*
X108590800Y-88900000D01*
X143780800Y-77106700D02*
X142995500Y-77106700D01*
X143644000Y-60499800D02*
X143780800Y-60636600D01*
X143780800Y-60636600D02*
X143780800Y-77106700D01*
X143780800Y-77106700D02*
X143780800Y-88579400D01*
X143780800Y-88579400D02*
X143552000Y-88808200D01*
X143644000Y-59309000D02*
X143644000Y-60499800D01*
X143552000Y-89999000D02*
X143552000Y-88808200D01*
X127762000Y-93166000D02*
X126571200Y-93166000D01*
X122042000Y-93174000D02*
X126563200Y-93174000D01*
X126563200Y-93174000D02*
X126571200Y-93166000D01*
X95807000Y-42206000D02*
X98148800Y-44547800D01*
X98148800Y-44547800D02*
X107534400Y-44547800D01*
X107534400Y-44547800D02*
X109837200Y-42245000D01*
X84297800Y-42213000D02*
X85431300Y-41079500D01*
X85431300Y-41079500D02*
X94680500Y-41079500D01*
X94680500Y-41079500D02*
X95807000Y-42206000D01*
X125730000Y-48316500D02*
X124539200Y-48316500D01*
X122428000Y-48260000D02*
X124482700Y-48260000D01*
X124482700Y-48260000D02*
X124539200Y-48316500D01*
X126969600Y-58118100D02*
X138900100Y-58118100D01*
X138900100Y-58118100D02*
X140091000Y-59309000D01*
X140091000Y-59309000D02*
X142453200Y-59309000D01*
X123498800Y-59309000D02*
X124689700Y-58118100D01*
X124689700Y-58118100D02*
X126969600Y-58118100D01*
X126969600Y-58118100D02*
X126969600Y-50746900D01*
X126969600Y-50746900D02*
X125730000Y-49507300D01*
X125730000Y-48316500D02*
X125730000Y-49507300D01*
X143644000Y-59309000D02*
X142453200Y-59309000D01*
X130368000Y-26848000D02*
X131558800Y-26848000D01*
X131558800Y-26848000D02*
X142197600Y-26848000D01*
X142197600Y-26848000D02*
X142205600Y-26840000D01*
X130368000Y-26848000D02*
X129177200Y-26848000D01*
X118648000Y-27005000D02*
X119985000Y-27005000D01*
X119985000Y-27005000D02*
X121378900Y-25611100D01*
X121378900Y-25611100D02*
X127940300Y-25611100D01*
X127940300Y-25611100D02*
X129177200Y-26848000D01*
X122308000Y-59309000D02*
X123498800Y-59309000D01*
X142361200Y-93174000D02*
X139621000Y-93174000D01*
X139621000Y-93174000D02*
X132127800Y-100667200D01*
X130937000Y-100667200D02*
X132127800Y-100667200D01*
X143552000Y-93174000D02*
X142361200Y-93174000D01*
X122222000Y-126940000D02*
X123412800Y-126940000D01*
X143732000Y-126940000D02*
X142541200Y-126940000D01*
X142541200Y-126940000D02*
X141318300Y-128162900D01*
X141318300Y-128162900D02*
X124635700Y-128162900D01*
X124635700Y-128162900D02*
X123412800Y-126940000D01*
X111028000Y-42245000D02*
X109837200Y-42245000D01*
X111623400Y-42245000D02*
X111028000Y-42245000D01*
X111623400Y-42245000D02*
X112218800Y-42245000D01*
X83107000Y-42213000D02*
X84297800Y-42213000D01*
X122748000Y-42088000D02*
X121557200Y-42088000D01*
X143460000Y-26840000D02*
X142205600Y-26840000D01*
X103000000Y-88900000D02*
X107000000Y-88900000D01*
X114808000Y-55880000D02*
X114808000Y-59309000D01*
X117348000Y-55880000D02*
X114808000Y-55880000D01*
X119888000Y-55880000D02*
X118538800Y-55880000D01*
X119888000Y-55880000D02*
X119888000Y-58616200D01*
X119888000Y-58616200D02*
X121833300Y-60561500D01*
X121833300Y-60561500D02*
X134437400Y-60561500D01*
X117348000Y-55880000D02*
X118538800Y-55880000D01*
X134437400Y-60561500D02*
X134891500Y-60561500D01*
X134891500Y-60561500D02*
X136144000Y-59309000D01*
X134437400Y-60561500D02*
X134437400Y-67478500D01*
X134437400Y-67478500D02*
X133562900Y-68353000D01*
X136232000Y-123766000D02*
X135024200Y-122558200D01*
X135024200Y-122558200D02*
X115929800Y-122558200D01*
X115929800Y-122558200D02*
X114722000Y-123766000D01*
X114542000Y-93174000D02*
X114542000Y-89999000D01*
X127762000Y-96342200D02*
X117710200Y-96342200D01*
X117710200Y-96342200D02*
X114542000Y-93174000D01*
X95807000Y-38274300D02*
X95807000Y-39666000D01*
X105967000Y-32046000D02*
X104861400Y-30940400D01*
X104861400Y-30940400D02*
X102877100Y-30940400D01*
X102877100Y-30940400D02*
X95807000Y-38010500D01*
X95807000Y-38010500D02*
X95807000Y-38274300D01*
X95807000Y-38274300D02*
X89335300Y-38274300D01*
X89335300Y-38274300D02*
X88187000Y-37126000D01*
X138913300Y-36036300D02*
X140629300Y-36036300D01*
X140629300Y-36036300D02*
X142205600Y-34460000D01*
X134796000Y-31919000D02*
X138913300Y-36036300D01*
X137971000Y-36999000D02*
X138913300Y-36056700D01*
X138913300Y-36056700D02*
X138913300Y-36036300D01*
X143460000Y-34460000D02*
X142205600Y-34460000D01*
X127762000Y-96342200D02*
X127762000Y-100666000D01*
X130937000Y-93167200D02*
X127762000Y-96342200D01*
X136052000Y-93174000D02*
X136045200Y-93167200D01*
X136045200Y-93167200D02*
X130937000Y-93167200D01*
X79932000Y-32053000D02*
X83107000Y-32053000D01*
X88187000Y-37126000D02*
X85520000Y-37126000D01*
X85520000Y-37126000D02*
X83107000Y-34713000D01*
D22*
X103427000Y-37126000D02*
X104439000Y-36114000D01*
X104439000Y-36114000D02*
X108376300Y-36114000D01*
X108376300Y-36114000D02*
X110579600Y-38317300D01*
X110579600Y-38317300D02*
X119067100Y-38317300D01*
X119067100Y-38317300D02*
X120619500Y-36764900D01*
X120619500Y-36764900D02*
X120619500Y-32421500D01*
X120619500Y-32421500D02*
X122250600Y-30790400D01*
X122250600Y-30790400D02*
X131126000Y-30790400D01*
X131126000Y-30790400D02*
X134794600Y-34459000D01*
X146000000Y-37000000D02*
X144836100Y-37000000D01*
X134794600Y-34459000D02*
X134794600Y-35437200D01*
X134794600Y-35437200D02*
X137521300Y-38163900D01*
X137521300Y-38163900D02*
X143963300Y-38163900D01*
X143963300Y-38163900D02*
X144836100Y-37291100D01*
X144836100Y-37291100D02*
X144836100Y-37000000D01*
X134796000Y-34459000D02*
X134794600Y-34459000D01*
X146000000Y-34460000D02*
X144836100Y-34460000D01*
X103427000Y-29506000D02*
X104500100Y-28432900D01*
X104500100Y-28432900D02*
X112884200Y-28432900D01*
X112884200Y-28432900D02*
X114284300Y-29833000D01*
X114284300Y-29833000D02*
X115116000Y-29833000D01*
X115116000Y-29833000D02*
X116673000Y-28276000D01*
X116673000Y-28276000D02*
X133693100Y-28276000D01*
X133693100Y-28276000D02*
X138607100Y-33190000D01*
X138607100Y-33190000D02*
X143837400Y-33190000D01*
X143837400Y-33190000D02*
X144836100Y-34188700D01*
X144836100Y-34188700D02*
X144836100Y-34460000D01*
X88187000Y-34586000D02*
X89198500Y-33574500D01*
X89198500Y-33574500D02*
X95735500Y-33574500D01*
X95735500Y-33574500D02*
X102415400Y-26894600D01*
X102415400Y-26894600D02*
X102415400Y-26516900D01*
X102415400Y-26516900D02*
X103236300Y-25696000D01*
X103236300Y-25696000D02*
X103866200Y-25696000D01*
X103866200Y-25696000D02*
X107015700Y-22546500D01*
X107015700Y-22546500D02*
X131943200Y-22546500D01*
X131943200Y-22546500D02*
X133695700Y-24299000D01*
X134796000Y-24299000D02*
X133695700Y-24299000D01*
X137971000Y-29379000D02*
X139071300Y-29379000D01*
X139071300Y-29379000D02*
X140340300Y-28110000D01*
X140340300Y-28110000D02*
X143863600Y-28110000D01*
X143863600Y-28110000D02*
X144836100Y-27137500D01*
X144836100Y-27137500D02*
X144836100Y-26840000D01*
X146000000Y-26840000D02*
X144836100Y-26840000D01*
X88187000Y-26966000D02*
X89715400Y-25437600D01*
X89715400Y-25437600D02*
X101309500Y-25437600D01*
X101309500Y-25437600D02*
X102157000Y-24590100D01*
X102157000Y-24590100D02*
X102157000Y-24222600D01*
X102157000Y-24222600D02*
X104265400Y-22114200D01*
X104265400Y-22114200D02*
X140381600Y-22114200D01*
X140381600Y-22114200D02*
X144836100Y-26568700D01*
X144836100Y-26568700D02*
X144836100Y-26840000D01*
X133107600Y-69953100D02*
X131972100Y-68817600D01*
X131972100Y-68817600D02*
X120798000Y-68817600D01*
X120798000Y-68817600D02*
X120624800Y-68990800D01*
X107000000Y-127000000D02*
X109812500Y-127000000D01*
X109812500Y-127000000D02*
X119442100Y-117370400D01*
X119442100Y-117370400D02*
X132807500Y-117370400D01*
X103000000Y-127000000D02*
X107000000Y-127000000D01*
X98347000Y-39666000D02*
X98347000Y-37649100D01*
X98347000Y-37649100D02*
X102873900Y-33122200D01*
X102873900Y-33122200D02*
X110134400Y-33122200D01*
X110134400Y-33122200D02*
X110534800Y-33522600D01*
X110534800Y-33522600D02*
X111535300Y-33522600D01*
X111535300Y-33522600D02*
X112453100Y-34440400D01*
X112453100Y-34440400D02*
X112453100Y-34965500D01*
X112453100Y-34965500D02*
X115404600Y-37917000D01*
X115404600Y-37917000D02*
X116795700Y-37917000D01*
X116795700Y-37917000D02*
X117547700Y-37165000D01*
X118648000Y-37165000D02*
X117547700Y-37165000D01*
X80140000Y-48260000D02*
X78639700Y-48260000D01*
X78639700Y-48260000D02*
X78009400Y-47629700D01*
X78009400Y-47629700D02*
X78009400Y-24849200D01*
X78009400Y-24849200D02*
X80262400Y-22596200D01*
X80262400Y-22596200D02*
X99408500Y-22596200D01*
X84140000Y-48260000D02*
X80140000Y-48260000D01*
X136711100Y-116800700D02*
X136680500Y-116770100D01*
X136680500Y-116770100D02*
X131864300Y-116770100D01*
X131864300Y-116770100D02*
X131807200Y-116827200D01*
X131807200Y-116827200D02*
X119419200Y-116827200D01*
X119419200Y-116827200D02*
X111786400Y-124460000D01*
X111786400Y-124460000D02*
X107000000Y-124460000D01*
X107000000Y-124460000D02*
X103000000Y-124460000D01*
X117547700Y-29545000D02*
X117547700Y-30026300D01*
X117547700Y-30026300D02*
X113053400Y-34520600D01*
X98347000Y-42206000D02*
X99797700Y-43656700D01*
X99797700Y-43656700D02*
X105341000Y-43656700D01*
X105341000Y-43656700D02*
X109151700Y-39846000D01*
X109151700Y-39846000D02*
X109151700Y-38577200D01*
X118648000Y-29545000D02*
X117547700Y-29545000D01*
X85640300Y-50800000D02*
X97812900Y-50800000D01*
X97812900Y-50800000D02*
X98550000Y-50062900D01*
X84140000Y-50800000D02*
X85640300Y-50800000D01*
X80140000Y-50800000D02*
X84140000Y-50800000D01*
X132225600Y-65664400D02*
X132211200Y-65650000D01*
X132211200Y-65650000D02*
X115564800Y-65650000D01*
X133266500Y-109201900D02*
X123299900Y-109201900D01*
X123299900Y-109201900D02*
X110581800Y-121920000D01*
X110581800Y-121920000D02*
X107000000Y-121920000D01*
X103000000Y-121920000D02*
X107000000Y-121920000D01*
X86512600Y-36316100D02*
X87129000Y-35699700D01*
X87129000Y-35699700D02*
X94789400Y-35699700D01*
X94789400Y-35699700D02*
X102449500Y-28039600D01*
X102449500Y-28039600D02*
X103840700Y-28039600D01*
X103840700Y-28039600D02*
X104697000Y-27183300D01*
X104697000Y-27183300D02*
X104697000Y-26715100D01*
X104697000Y-26715100D02*
X108047500Y-23364600D01*
X108047500Y-23364600D02*
X112098900Y-23364600D01*
X112098900Y-23364600D02*
X112672900Y-23938600D01*
X112672900Y-23938600D02*
X117308200Y-23938600D01*
X117308200Y-23938600D02*
X117932700Y-23314100D01*
X80140000Y-53340000D02*
X84140000Y-53340000D01*
X132840000Y-64895600D02*
X132840000Y-68622000D01*
X132840000Y-68622000D02*
X133707900Y-69489900D01*
X133707900Y-69489900D02*
X133707900Y-70204200D01*
X133707900Y-70204200D02*
X132068800Y-71843300D01*
X132068800Y-71843300D02*
X131933200Y-71843300D01*
X132840000Y-64895600D02*
X115944300Y-64895600D01*
X115944300Y-64895600D02*
X115546400Y-64497700D01*
X133688300Y-64410700D02*
X133203400Y-64895600D01*
X133203400Y-64895600D02*
X132840000Y-64895600D01*
X107000000Y-119380000D02*
X103000000Y-119380000D01*
X122748000Y-34468000D02*
X122748000Y-35568300D01*
X122748000Y-35568300D02*
X122610500Y-35568300D01*
X122610500Y-35568300D02*
X121641500Y-36537300D01*
X121641500Y-36537300D02*
X121641500Y-40085300D01*
X121641500Y-40085300D02*
X122374200Y-40818000D01*
X122374200Y-40818000D02*
X123100800Y-40818000D01*
X123100800Y-40818000D02*
X123903700Y-41620900D01*
X123903700Y-41620900D02*
X123903700Y-42545000D01*
X123903700Y-42545000D02*
X123185500Y-43263200D01*
X123185500Y-43263200D02*
X121147800Y-43263200D01*
X121147800Y-43263200D02*
X118357600Y-46053400D01*
X118357600Y-46053400D02*
X86184400Y-46053400D01*
X86184400Y-46053400D02*
X85190000Y-45059000D01*
X80140000Y-55880000D02*
X84140000Y-55880000D01*
X112272700Y-97269300D02*
X122788700Y-97269300D01*
X122788700Y-97269300D02*
X127338800Y-101819400D01*
X127338800Y-101819400D02*
X128215400Y-101819400D01*
X128215400Y-101819400D02*
X135010200Y-95024600D01*
X135010200Y-95024600D02*
X136454900Y-95024600D01*
X115538000Y-63212900D02*
X133561800Y-63212900D01*
X133561800Y-63212900D02*
X133699800Y-63074900D01*
X107000000Y-116840000D02*
X103000000Y-116840000D01*
X84140000Y-58420000D02*
X85640300Y-58420000D01*
X85640300Y-58420000D02*
X92260300Y-51800000D01*
X92260300Y-51800000D02*
X100671900Y-51800000D01*
X100671900Y-51800000D02*
X101298200Y-51173700D01*
X101298200Y-51173700D02*
X101298200Y-50544400D01*
X101298200Y-50544400D02*
X102161300Y-49681300D01*
X102161300Y-49681300D02*
X117484200Y-49681300D01*
X117484200Y-49681300D02*
X118618000Y-48547500D01*
X118618000Y-48547500D02*
X118618000Y-47971200D01*
X118618000Y-47971200D02*
X121371300Y-45217900D01*
X121371300Y-45217900D02*
X122363400Y-45217900D01*
X122363400Y-45217900D02*
X129473000Y-38108300D01*
X129473000Y-38108300D02*
X130368000Y-38108300D01*
X80140000Y-58420000D02*
X84140000Y-58420000D01*
X130368000Y-37008000D02*
X130368000Y-38108300D01*
X117284800Y-51656400D02*
X117250400Y-51622000D01*
X117250400Y-51622000D02*
X108568500Y-51622000D01*
X108568500Y-51622000D02*
X107950900Y-52239600D01*
X107950900Y-52239600D02*
X94360700Y-52239600D01*
X94360700Y-52239600D02*
X85640300Y-60960000D01*
X84140000Y-60960000D02*
X85640300Y-60960000D01*
X80140000Y-60960000D02*
X84140000Y-60960000D01*
X85640300Y-63500000D02*
X94530300Y-54610000D01*
X94530300Y-54610000D02*
X108500400Y-54610000D01*
X108500400Y-54610000D02*
X110888000Y-52222400D01*
X110888000Y-52222400D02*
X116718900Y-52222400D01*
X84140000Y-63500000D02*
X85640300Y-63500000D01*
X84140000Y-63500000D02*
X83576200Y-62936200D01*
X83576200Y-62936200D02*
X82090100Y-62936200D01*
X82090100Y-62936200D02*
X81640300Y-63386000D01*
X81640300Y-63386000D02*
X81640300Y-63500000D01*
X80140000Y-63500000D02*
X81640300Y-63500000D01*
X129267700Y-39548000D02*
X129095300Y-39548000D01*
X129095300Y-39548000D02*
X121283400Y-47359900D01*
X121283400Y-47359900D02*
X121283400Y-48537700D01*
X121283400Y-48537700D02*
X116876100Y-52945000D01*
X116876100Y-52945000D02*
X114252000Y-52945000D01*
X114252000Y-52945000D02*
X110020600Y-57176400D01*
X110020600Y-57176400D02*
X94503900Y-57176400D01*
X94503900Y-57176400D02*
X85640300Y-66040000D01*
X80140000Y-66040000D02*
X81640300Y-66040000D01*
X84140000Y-66040000D02*
X82639700Y-66040000D01*
X82639700Y-66040000D02*
X81640300Y-66040000D01*
X84140000Y-66040000D02*
X85640300Y-66040000D01*
X130368000Y-39548000D02*
X129267700Y-39548000D01*
X137748300Y-103593100D02*
X137136100Y-104205300D01*
X137136100Y-104205300D02*
X125717100Y-104205300D01*
X125717100Y-104205300D02*
X125515300Y-104003500D01*
X125515300Y-104003500D02*
X119938500Y-104003500D01*
X119938500Y-104003500D02*
X119126700Y-104815300D01*
X119126700Y-104815300D02*
X115870600Y-104815300D01*
X115870600Y-104815300D02*
X114005900Y-106680000D01*
X114005900Y-106680000D02*
X107000000Y-106680000D01*
X107000000Y-106680000D02*
X103000000Y-106680000D01*
X87493500Y-46675800D02*
X87692700Y-46476600D01*
X87692700Y-46476600D02*
X118970100Y-46476600D01*
X118970100Y-46476600D02*
X121783100Y-43663600D01*
X121783100Y-43663600D02*
X123351400Y-43663600D01*
X123351400Y-43663600D02*
X124304100Y-42710900D01*
X124304100Y-42710900D02*
X124304100Y-39526900D01*
X124304100Y-39526900D02*
X122885500Y-38108300D01*
X122885500Y-38108300D02*
X122748000Y-38108300D01*
X122748000Y-37008000D02*
X122748000Y-38108300D01*
X84140000Y-68580000D02*
X80140000Y-68580000D01*
X124293900Y-49483100D02*
X121439400Y-49483100D01*
X121439400Y-49483100D02*
X117577200Y-53345300D01*
X117577200Y-53345300D02*
X114417800Y-53345300D01*
X114417800Y-53345300D02*
X108073100Y-59690000D01*
X108073100Y-59690000D02*
X97070300Y-59690000D01*
X97070300Y-59690000D02*
X85640300Y-71120000D01*
X84140000Y-71120000D02*
X85640300Y-71120000D01*
X80140000Y-71120000D02*
X84140000Y-71120000D01*
X118648000Y-33185300D02*
X118136600Y-33185300D01*
X118136600Y-33185300D02*
X114829200Y-36492700D01*
X85640300Y-73660000D02*
X97070300Y-62230000D01*
X97070300Y-62230000D02*
X107706000Y-62230000D01*
X107706000Y-62230000D02*
X111384600Y-58551400D01*
X84140000Y-73660000D02*
X85640300Y-73660000D01*
X118648000Y-32085000D02*
X118648000Y-33185300D01*
X81640300Y-73660000D02*
X84140000Y-73660000D01*
X80140000Y-73660000D02*
X81640300Y-73660000D01*
X93267000Y-39666000D02*
X93961300Y-39666000D01*
X93961300Y-39666000D02*
X95489700Y-41194400D01*
X95489700Y-41194400D02*
X96229500Y-41194400D01*
X96229500Y-41194400D02*
X97077000Y-42041900D01*
X97077000Y-42041900D02*
X97077000Y-42408100D01*
X97077000Y-42408100D02*
X98725900Y-44057000D01*
X98725900Y-44057000D02*
X105640600Y-44057000D01*
X105640600Y-44057000D02*
X108581000Y-41116600D01*
X108581000Y-41116600D02*
X111565600Y-41116600D01*
X111565600Y-41116600D02*
X112977200Y-39705000D01*
X112977200Y-39705000D02*
X118648000Y-39705000D01*
X84140000Y-76200000D02*
X85640300Y-76200000D01*
X85640300Y-76200000D02*
X85640300Y-74870700D01*
X85640300Y-74870700D02*
X92142500Y-68368500D01*
X80140000Y-76200000D02*
X84140000Y-76200000D01*
X93267000Y-42206000D02*
X96099600Y-45038600D01*
X96099600Y-45038600D02*
X110307200Y-45038600D01*
X110307200Y-45038600D02*
X113146200Y-42199600D01*
X85640300Y-78740000D02*
X85640300Y-77011200D01*
X85640300Y-77011200D02*
X93107900Y-69543600D01*
X84140000Y-78740000D02*
X85640300Y-78740000D01*
X84140000Y-78740000D02*
X80140000Y-78740000D01*
X111028000Y-29545000D02*
X111028000Y-30645300D01*
X113275400Y-43153600D02*
X110985700Y-45443300D01*
X110985700Y-45443300D02*
X89994500Y-45443300D01*
X89994500Y-45443300D02*
X89994500Y-45443400D01*
X111028000Y-30645300D02*
X111593800Y-30645300D01*
X111593800Y-30645300D02*
X113327800Y-32379300D01*
X84140000Y-81280000D02*
X80140000Y-81280000D01*
X107000000Y-91440000D02*
X103000000Y-91440000D01*
X84140000Y-83820000D02*
X80140000Y-83820000D01*
X84140000Y-86360000D02*
X80140000Y-86360000D01*
X84140000Y-91440000D02*
X80140000Y-91440000D01*
X84140000Y-93980000D02*
X80140000Y-93980000D01*
X84140000Y-96520000D02*
X80140000Y-96520000D01*
X146660100Y-86910200D02*
X147567900Y-86002400D01*
X147567900Y-86002400D02*
X147567900Y-74379100D01*
X147567900Y-74379100D02*
X147202100Y-74013300D01*
X147202100Y-74013300D02*
X147202100Y-65887800D01*
X147202100Y-65887800D02*
X146764900Y-65450600D01*
X144258500Y-92016000D02*
X129943300Y-92016000D01*
X129943300Y-92016000D02*
X126151700Y-88224400D01*
X78639700Y-101600000D02*
X78639700Y-88429700D01*
X78639700Y-88429700D02*
X79290800Y-87778600D01*
X79290800Y-87778600D02*
X125705900Y-87778600D01*
X125705900Y-87778600D02*
X126151700Y-88224400D01*
X80140000Y-101600000D02*
X78639700Y-101600000D01*
X80140000Y-101600000D02*
X84140000Y-101600000D01*
X143206100Y-98944600D02*
X147985400Y-94165300D01*
X147985400Y-94165300D02*
X147985400Y-74230300D01*
X147985400Y-74230300D02*
X147602400Y-73847300D01*
X147602400Y-73847300D02*
X147602400Y-67571500D01*
X147602400Y-67571500D02*
X147817900Y-67356000D01*
X84140000Y-104140000D02*
X85640300Y-104140000D01*
X85640300Y-104140000D02*
X91829500Y-97950800D01*
X91829500Y-97950800D02*
X121294600Y-97950800D01*
X121294600Y-97950800D02*
X121707000Y-98363200D01*
X125721400Y-101684500D02*
X127041300Y-103004400D01*
X127041300Y-103004400D02*
X133446800Y-103004400D01*
X133446800Y-103004400D02*
X135978500Y-100472700D01*
X135978500Y-100472700D02*
X142803800Y-100472700D01*
X142803800Y-100472700D02*
X143206100Y-100070400D01*
X143206100Y-100070400D02*
X143206100Y-98944600D01*
X142430200Y-99747500D02*
X142430200Y-97928300D01*
X142430200Y-97928300D02*
X145845700Y-94512800D01*
X145845700Y-94512800D02*
X145845700Y-86834200D01*
X145845700Y-86834200D02*
X147159700Y-85520200D01*
X147159700Y-85520200D02*
X147159700Y-79466200D01*
X147159700Y-79466200D02*
X146379200Y-78685700D01*
X146379200Y-78685700D02*
X146379200Y-67207900D01*
X142430200Y-99747500D02*
X142555100Y-99872400D01*
X124943600Y-100457100D02*
X125343000Y-100457100D01*
X125343000Y-100457100D02*
X127490000Y-102604100D01*
X127490000Y-102604100D02*
X133176600Y-102604100D01*
X133176600Y-102604100D02*
X136033200Y-99747500D01*
X136033200Y-99747500D02*
X142430200Y-99747500D01*
X85640300Y-106680000D02*
X91863200Y-100457100D01*
X91863200Y-100457100D02*
X124943600Y-100457100D01*
X84140000Y-106680000D02*
X85640300Y-106680000D01*
X80140000Y-106680000D02*
X84140000Y-106680000D01*
X143096200Y-101788900D02*
X135428300Y-101788900D01*
X135428300Y-101788900D02*
X133812500Y-103404700D01*
X133812500Y-103404700D02*
X126048700Y-103404700D01*
X126048700Y-103404700D02*
X124193900Y-101549900D01*
X124193900Y-101549900D02*
X121927900Y-101549900D01*
X121927900Y-101549900D02*
X120466200Y-103011600D01*
X120466200Y-103011600D02*
X91848700Y-103011600D01*
X91848700Y-103011600D02*
X85640300Y-109220000D01*
X84140000Y-109220000D02*
X85640300Y-109220000D01*
X80140000Y-109220000D02*
X84140000Y-109220000D01*
X143229800Y-102887200D02*
X143806500Y-102310500D01*
X143806500Y-102310500D02*
X143806500Y-99867400D01*
X143806500Y-99867400D02*
X148415000Y-95258900D01*
X148415000Y-95258900D02*
X148415000Y-73492600D01*
X148415000Y-73492600D02*
X148202700Y-73280300D01*
X143229800Y-102887200D02*
X143229800Y-103637900D01*
X143229800Y-103637900D02*
X141228300Y-105639400D01*
X141228300Y-105639400D02*
X125818000Y-105639400D01*
X80140000Y-111760000D02*
X78589800Y-113310200D01*
X78589800Y-113310200D02*
X78589800Y-114779100D01*
X78589800Y-114779100D02*
X79281800Y-115471100D01*
X79281800Y-115471100D02*
X114243300Y-115471100D01*
X114243300Y-115471100D02*
X124075000Y-105639400D01*
X124075000Y-105639400D02*
X125818000Y-105639400D01*
X80140000Y-111760000D02*
X84140000Y-111760000D01*
X143059000Y-71298000D02*
X141689200Y-72667800D01*
X141689200Y-72667800D02*
X124942700Y-72667800D01*
X124942700Y-72667800D02*
X121734900Y-69460000D01*
X142543300Y-103427000D02*
X140964400Y-105005900D01*
X140964400Y-105005900D02*
X124998200Y-105005900D01*
X119685600Y-106608600D02*
X121807200Y-106608600D01*
X121807200Y-106608600D02*
X123409900Y-105005900D01*
X123409900Y-105005900D02*
X124998200Y-105005900D01*
X84140000Y-114300000D02*
X99554100Y-114300000D01*
X99554100Y-114300000D02*
X100824100Y-113030000D01*
X100824100Y-113030000D02*
X113264200Y-113030000D01*
X113264200Y-113030000D02*
X119685600Y-106608600D01*
X80140000Y-114300000D02*
X84140000Y-114300000D01*
X124916000Y-106780400D02*
X127446200Y-106780400D01*
X127446200Y-106780400D02*
X128186800Y-106039800D01*
X128186800Y-106039800D02*
X142355500Y-106039800D01*
X142355500Y-106039800D02*
X142588800Y-105806500D01*
X142588800Y-105806500D02*
X146619500Y-101775800D01*
X146619500Y-101775800D02*
X146619500Y-98074400D01*
X85640300Y-116840000D02*
X86751500Y-117951200D01*
X86751500Y-117951200D02*
X112852200Y-117951200D01*
X112852200Y-117951200D02*
X124023000Y-106780400D01*
X124023000Y-106780400D02*
X124916000Y-106780400D01*
X84140000Y-116840000D02*
X85640300Y-116840000D01*
X80140000Y-116840000D02*
X84140000Y-116840000D01*
X107000000Y-55880000D02*
X103000000Y-55880000D01*
X125019200Y-107750100D02*
X127042700Y-107750100D01*
X127042700Y-107750100D02*
X128152600Y-106640200D01*
X128152600Y-106640200D02*
X142476600Y-106640200D01*
X85640300Y-119380000D02*
X86782600Y-120522300D01*
X86782600Y-120522300D02*
X110847200Y-120522300D01*
X110847200Y-120522300D02*
X123619400Y-107750100D01*
X123619400Y-107750100D02*
X125019200Y-107750100D01*
X84140000Y-119380000D02*
X85640300Y-119380000D01*
X80140000Y-119380000D02*
X84140000Y-119380000D01*
X107000000Y-53340000D02*
X103000000Y-53340000D01*
X121506200Y-112050900D02*
X135647000Y-112050900D01*
X135647000Y-112050900D02*
X136906800Y-110791100D01*
X85640300Y-121920000D02*
X86787500Y-123067200D01*
X86787500Y-123067200D02*
X110489900Y-123067200D01*
X110489900Y-123067200D02*
X121506200Y-112050900D01*
X84140000Y-121920000D02*
X85640300Y-121920000D01*
X80140000Y-121920000D02*
X84140000Y-121920000D01*
X105691900Y-42456600D02*
X104913900Y-43234600D01*
X104913900Y-43234600D02*
X100482700Y-43234600D01*
X100482700Y-43234600D02*
X99833500Y-42585400D01*
X99833500Y-42585400D02*
X99833500Y-40719500D01*
X99833500Y-40719500D02*
X100887000Y-39666000D01*
X107000000Y-50800000D02*
X103000000Y-50800000D01*
X121695800Y-70276800D02*
X124828400Y-73409400D01*
X124828400Y-73409400D02*
X132321800Y-73409400D01*
X115547500Y-106002800D02*
X111060200Y-110490100D01*
X111060200Y-110490100D02*
X99610200Y-110490100D01*
X99610200Y-110490100D02*
X96412800Y-113687500D01*
X138103800Y-104369600D02*
X137867800Y-104605600D01*
X137867800Y-104605600D02*
X125551300Y-104605600D01*
X125551300Y-104605600D02*
X125349500Y-104403800D01*
X125349500Y-104403800D02*
X122416100Y-104403800D01*
X122416100Y-104403800D02*
X120817100Y-106002800D01*
X120817100Y-106002800D02*
X115547500Y-106002800D01*
X111028000Y-34625000D02*
X109927700Y-34625000D01*
X100887000Y-42206000D02*
X102071500Y-41021500D01*
X102071500Y-41021500D02*
X102071500Y-37046200D01*
X102071500Y-37046200D02*
X103404100Y-35713600D01*
X103404100Y-35713600D02*
X108839100Y-35713600D01*
X108839100Y-35713600D02*
X109927700Y-34625000D01*
X107000000Y-48260000D02*
X103000000Y-48260000D01*
X115976300Y-103918200D02*
X115635500Y-103918200D01*
X115635500Y-103918200D02*
X114143700Y-105410000D01*
X114143700Y-105410000D02*
X94897200Y-105410000D01*
X94897200Y-105410000D02*
X89986800Y-110320400D01*
X89986800Y-110320400D02*
X79617400Y-110320400D01*
X79617400Y-110320400D02*
X78189400Y-111748400D01*
X78189400Y-111748400D02*
X78189400Y-126549700D01*
X78189400Y-126549700D02*
X78639700Y-127000000D01*
X137711300Y-102754200D02*
X136660500Y-103805000D01*
X136660500Y-103805000D02*
X125882900Y-103805000D01*
X125882900Y-103805000D02*
X125681100Y-103603200D01*
X125681100Y-103603200D02*
X116291300Y-103603200D01*
X116291300Y-103603200D02*
X115976300Y-103918200D01*
X80140000Y-127000000D02*
X78639700Y-127000000D01*
X80140000Y-127000000D02*
X84140000Y-127000000D01*
X111028000Y-24465000D02*
X112128300Y-24465000D01*
X122748000Y-24308000D02*
X121647700Y-24308000D01*
X121647700Y-24308000D02*
X120390400Y-25565300D01*
X120390400Y-25565300D02*
X113228600Y-25565300D01*
X113228600Y-25565300D02*
X112128300Y-24465000D01*
X107000000Y-114300000D02*
X103000000Y-114300000D01*
X107000000Y-111760000D02*
X104500300Y-111760000D01*
X103000000Y-111760000D02*
X104500300Y-111760000D01*
X99233200Y-41092200D02*
X99421500Y-40903900D01*
X99421500Y-40903900D02*
X99421500Y-37143200D01*
X99421500Y-37143200D02*
X102996500Y-33568200D01*
X102996500Y-33568200D02*
X104949200Y-33568200D01*
X104949200Y-33568200D02*
X105967000Y-34586000D01*
X107000000Y-109220000D02*
X103000000Y-109220000D01*
X116961500Y-67908200D02*
X119631500Y-67908200D01*
X119631500Y-67908200D02*
X120011700Y-68288400D01*
X120011700Y-68288400D02*
X120011700Y-69493200D01*
X120011700Y-69493200D02*
X124669500Y-74151000D01*
X124669500Y-74151000D02*
X143032400Y-74151000D01*
X121731400Y-76918700D02*
X116961500Y-72148800D01*
X116961500Y-72148800D02*
X116961500Y-67908200D01*
X113421500Y-59591700D02*
X113421500Y-64368200D01*
X113421500Y-64368200D02*
X116961500Y-67908200D01*
X103427000Y-26966000D02*
X107428800Y-22964200D01*
X107428800Y-22964200D02*
X113726700Y-22964200D01*
X113726700Y-22964200D02*
X114083300Y-23320800D01*
X125436900Y-110100800D02*
X137182600Y-110100800D01*
X137182600Y-110100800D02*
X137687900Y-110606100D01*
X137687900Y-110606100D02*
X143126300Y-110606100D01*
X149102400Y-98722000D02*
X149102400Y-101242900D01*
X149102400Y-101242900D02*
X140747300Y-109598000D01*
X140747300Y-109598000D02*
X138563400Y-109598000D01*
X105000000Y-76415700D02*
X106054300Y-77470000D01*
X106054300Y-77470000D02*
X110992100Y-77470000D01*
X110992100Y-77470000D02*
X112489200Y-78967100D01*
X139122400Y-61857000D02*
X139122400Y-66539700D01*
X139122400Y-66539700D02*
X133611900Y-72050200D01*
X110187600Y-65460100D02*
X110187700Y-65460100D01*
X110187700Y-65460100D02*
X110187700Y-70373400D01*
X110187700Y-70373400D02*
X118374900Y-78560600D01*
X121813300Y-75201800D02*
X118473900Y-71862400D01*
X118473900Y-71862400D02*
X118473900Y-68514100D01*
X121813300Y-75201800D02*
X125261500Y-78650000D01*
X125261500Y-78650000D02*
X136497200Y-78650000D01*
X136497200Y-78650000D02*
X142999900Y-85152700D01*
X142999900Y-85152700D02*
X142999900Y-85246100D01*
X105967000Y-26966000D02*
X107060400Y-25872600D01*
X107060400Y-25872600D02*
X111478400Y-25872600D01*
X111478400Y-25872600D02*
X114831200Y-29225400D01*
X125649700Y-108586100D02*
X140906400Y-108586100D01*
X140906400Y-108586100D02*
X142096700Y-107395800D01*
X100391500Y-51199600D02*
X100391500Y-50970900D01*
X100391500Y-50970900D02*
X98018100Y-48597500D01*
X98018100Y-48597500D02*
X87054700Y-48597500D01*
X87054700Y-48597500D02*
X81943200Y-43486000D01*
X81943200Y-43486000D02*
X79596300Y-43486000D01*
X79596300Y-43486000D02*
X78810200Y-42699900D01*
X78810200Y-42699900D02*
X78810200Y-34241600D01*
X78810200Y-34241600D02*
X79877700Y-33174100D01*
X79877700Y-33174100D02*
X91127400Y-33174100D01*
X91127400Y-33174100D02*
X97335500Y-26966000D01*
X98347000Y-26966000D02*
X97335500Y-26966000D01*
D21*
X130368000Y-24308000D02*
X129177200Y-24308000D01*
X118648000Y-24465000D02*
X119838800Y-24465000D01*
X119838800Y-24465000D02*
X121186700Y-23117100D01*
X121186700Y-23117100D02*
X127986300Y-23117100D01*
X127986300Y-23117100D02*
X129177200Y-24308000D01*
X84140000Y-88900000D02*
X85730800Y-88900000D01*
X85730800Y-88900000D02*
X90810800Y-93980000D01*
X90810800Y-93980000D02*
X103000000Y-93980000D01*
X80140000Y-88900000D02*
X84140000Y-88900000D01*
X79932000Y-34713000D02*
X81519500Y-36300500D01*
X81519500Y-36300500D02*
X81519500Y-42368000D01*
X81519500Y-42368000D02*
X86518100Y-47366600D01*
X86518100Y-47366600D02*
X92499300Y-47366600D01*
X92499300Y-47366600D02*
X92841700Y-47024200D01*
X92841700Y-47024200D02*
X112381400Y-47024200D01*
X112381400Y-47024200D02*
X113617200Y-48260000D01*
X114808000Y-48260000D02*
X113617200Y-48260000D01*
X117348000Y-48260000D02*
X114808000Y-48260000D01*
X107000000Y-93980000D02*
X103000000Y-93980000D01*
D22*
X117547700Y-42245000D02*
X117547700Y-42456200D01*
X117547700Y-42456200D02*
X114565300Y-45438600D01*
X118648000Y-42245000D02*
X117547700Y-42245000D01*
X126334800Y-80583300D02*
X124528400Y-80583300D01*
X124528400Y-80583300D02*
X112734900Y-68789800D01*
X112734900Y-68789800D02*
X112734900Y-58545300D01*
X112734900Y-58545300D02*
X113503900Y-57776300D01*
X126334800Y-80583300D02*
X133978000Y-80583300D01*
X133978000Y-80583300D02*
X139504700Y-86110000D01*
X139504700Y-86110000D02*
X143058800Y-86110000D01*
X143058800Y-86110000D02*
X143074700Y-86125900D01*
X112304600Y-85097600D02*
X112276500Y-85125700D01*
X112276500Y-85125700D02*
X108864700Y-85125700D01*
X112304600Y-85097600D02*
X112613100Y-85406100D01*
X112613100Y-85406100D02*
X133324500Y-85406100D01*
X133324500Y-85406100D02*
X133678700Y-85051900D01*
X117398100Y-120295900D02*
X132166100Y-120295900D01*
X132166100Y-120295900D02*
X133674100Y-118787900D01*
X142181400Y-85191200D02*
X139951900Y-85191200D01*
X139951900Y-85191200D02*
X139906900Y-85236200D01*
X125455200Y-79785900D02*
X134456600Y-79785900D01*
X134456600Y-79785900D02*
X139906900Y-85236200D01*
X125455200Y-79785900D02*
X117614900Y-71945600D01*
X117614900Y-71945600D02*
X117614900Y-68539300D01*
X117614900Y-68539300D02*
X117614800Y-68539300D01*
X117614800Y-68539300D02*
X117604300Y-68528800D01*
X118648000Y-34625000D02*
X117547700Y-34625000D01*
X117547700Y-34625000D02*
X117547700Y-35725300D01*
X117547700Y-35725300D02*
X115995600Y-37277400D01*
X124942600Y-118700000D02*
X125671900Y-117970700D01*
X125671900Y-117970700D02*
X138622000Y-117970700D01*
X138622000Y-117970700D02*
X139960700Y-116632000D01*
X115539700Y-86182300D02*
X115296800Y-85939400D01*
X115296800Y-85939400D02*
X109265000Y-85939400D01*
X133663100Y-86232600D02*
X115590000Y-86232600D01*
X115590000Y-86232600D02*
X115539700Y-86182300D01*
X133663100Y-86232600D02*
X134314900Y-86232600D01*
X134314900Y-86232600D02*
X139117700Y-91035400D01*
X124945200Y-81821200D02*
X134215400Y-81821200D01*
X134215400Y-81821200D02*
X139277700Y-86883500D01*
X139277700Y-86883500D02*
X140518600Y-86883500D01*
X122761900Y-50087700D02*
X119016500Y-53833100D01*
X119016500Y-53833100D02*
X115217600Y-53833100D01*
X115217600Y-53833100D02*
X112288100Y-56762600D01*
X112288100Y-56762600D02*
X112288100Y-69164100D01*
X112288100Y-69164100D02*
X124945200Y-81821200D01*
X140593100Y-115005900D02*
X139421400Y-116177600D01*
X139421400Y-116177600D02*
X124959800Y-116177600D01*
X130368000Y-34468000D02*
X139255200Y-43355200D01*
X139255200Y-43355200D02*
X139255200Y-55741600D01*
X139255200Y-55741600D02*
X140965200Y-57451600D01*
X140965200Y-57451600D02*
X143922100Y-57451600D01*
X143922100Y-57451600D02*
X145778900Y-59308400D01*
X145778900Y-59308400D02*
X145778900Y-79184100D01*
X145778900Y-79184100D02*
X146303400Y-79708600D01*
X146303400Y-79708600D02*
X146743100Y-80148300D01*
X146743100Y-80148300D02*
X146743100Y-84846100D01*
X146743100Y-84846100D02*
X145259200Y-86330000D01*
X145259200Y-86330000D02*
X145259200Y-93589900D01*
X145259200Y-93589900D02*
X143256300Y-95592800D01*
X143256300Y-95592800D02*
X138489600Y-95592800D01*
X138489600Y-95592800D02*
X131878600Y-102203800D01*
X131878600Y-102203800D02*
X129411400Y-102203800D01*
X129411400Y-102203800D02*
X129211300Y-102003700D01*
X143249400Y-116813200D02*
X140196600Y-113760400D01*
X140196600Y-113760400D02*
X130033800Y-113760400D01*
X123848300Y-31928000D02*
X127658300Y-35738000D01*
X127658300Y-35738000D02*
X130683000Y-35738000D01*
X130683000Y-35738000D02*
X138854400Y-43909400D01*
X138854400Y-43909400D02*
X138854400Y-55956000D01*
X138854400Y-55956000D02*
X140984900Y-58086500D01*
X140984900Y-58086500D02*
X143987600Y-58086500D01*
X143987600Y-58086500D02*
X145378600Y-59477500D01*
X145378600Y-59477500D02*
X145378600Y-83334500D01*
X145378600Y-83334500D02*
X146115500Y-84071400D01*
X144816900Y-91099400D02*
X144858900Y-91141400D01*
X144858900Y-91141400D02*
X144858900Y-93423900D01*
X144858900Y-93423900D02*
X143138800Y-95144000D01*
X143138800Y-95144000D02*
X138372000Y-95144000D01*
X138372000Y-95144000D02*
X131735700Y-101780300D01*
X131735700Y-101780300D02*
X130210700Y-101780300D01*
X130210700Y-101780300D02*
X130033800Y-101603400D01*
X144816900Y-91099400D02*
X141267500Y-91099400D01*
X141267500Y-91099400D02*
X133521900Y-83353800D01*
X133521900Y-83353800D02*
X124962100Y-83353800D01*
X146115500Y-84071400D02*
X144816900Y-85370000D01*
X144816900Y-85370000D02*
X144816900Y-91099400D01*
X122748000Y-31928000D02*
X123848300Y-31928000D01*
X126256100Y-77132400D02*
X119309700Y-70186000D01*
X119309700Y-70186000D02*
X119309700Y-68509900D01*
X141254200Y-82014500D02*
X136372100Y-77132400D01*
X136372100Y-77132400D02*
X126256100Y-77132400D01*
X140990500Y-112054000D02*
X140101200Y-112943300D01*
X140101200Y-112943300D02*
X126197700Y-112943300D01*
X126197700Y-112943300D02*
X124841100Y-114299900D01*
X133807600Y-115576200D02*
X133147100Y-114915700D01*
X133147100Y-114915700D02*
X120573000Y-114915700D01*
X120573000Y-114915700D02*
X120558000Y-114930700D01*
X97938800Y-62946900D02*
X102301900Y-67310000D01*
X102301900Y-67310000D02*
X107687300Y-67310000D01*
X107687300Y-67310000D02*
X109002200Y-68624900D01*
X109002200Y-68624900D02*
X109002200Y-74133200D01*
X109002200Y-74133200D02*
X116190300Y-81321300D01*
X116190300Y-81321300D02*
X116190300Y-82430000D01*
X116190300Y-82430000D02*
X116286300Y-82526000D01*
X116286300Y-82526000D02*
X133682600Y-82526000D01*
X93267000Y-26966000D02*
X93267000Y-28466100D01*
X93267000Y-28466100D02*
X91173800Y-30559300D01*
X91173800Y-30559300D02*
X79823000Y-30559300D01*
X79823000Y-30559300D02*
X78409800Y-31972500D01*
X78409800Y-31972500D02*
X78409800Y-42865800D01*
X78409800Y-42865800D02*
X81490400Y-45946400D01*
X81490400Y-45946400D02*
X83837200Y-45946400D01*
X83837200Y-45946400D02*
X87345400Y-49454600D01*
X87345400Y-49454600D02*
X97938800Y-49454600D01*
X132625500Y-84776100D02*
X114502700Y-84776100D01*
X114502700Y-84776100D02*
X112513300Y-82786700D01*
X117003400Y-117430000D02*
X118878800Y-115554600D01*
X118878800Y-115554600D02*
X131945300Y-115554600D01*
X131945300Y-115554600D02*
X131983800Y-115516100D01*
X82340200Y-63587600D02*
X81157800Y-64770000D01*
X81157800Y-64770000D02*
X79426500Y-64770000D01*
X79426500Y-64770000D02*
X78619100Y-65577400D01*
X78619100Y-65577400D02*
X78619100Y-79266500D01*
X78619100Y-79266500D02*
X79193000Y-79840400D01*
X79193000Y-79840400D02*
X109567000Y-79840400D01*
X109567000Y-79840400D02*
X112513300Y-82786700D01*
X107000000Y-104140000D02*
X103000000Y-104140000D01*
X107000000Y-101600000D02*
X103000000Y-101600000D01*
X107000000Y-99060000D02*
X103000000Y-99060000D01*
X107000000Y-96520000D02*
X103000000Y-96520000D01*
X107000000Y-86360000D02*
X103000000Y-86360000D01*
X107000000Y-81280000D02*
X103000000Y-81280000D01*
X107000000Y-78740000D02*
X103000000Y-78740000D01*
X107000000Y-76200000D02*
X106615400Y-75815400D01*
X106615400Y-75815400D02*
X104751400Y-75815400D01*
X104751400Y-75815400D02*
X104366900Y-76199900D01*
X104366900Y-76199900D02*
X104366900Y-76200000D01*
X104366900Y-76200000D02*
X103000000Y-76200000D01*
X107000000Y-73660000D02*
X103000000Y-73660000D01*
X107000000Y-71120000D02*
X103000000Y-71120000D01*
X107000000Y-68580000D02*
X103000000Y-68580000D01*
X107000000Y-66040000D02*
X103000000Y-66040000D01*
X107000000Y-63500000D02*
X103000000Y-63500000D01*
X107000000Y-60960000D02*
X103000000Y-60960000D01*
X107000000Y-58420000D02*
X103000000Y-58420000D01*
D23*
G36*
X149340000Y-128340000D02*
G01*
X143859002Y-128340000D01*
X143859002Y-128210625D01*
X144081040Y-128331909D01*
X144345881Y-128237070D01*
X144587131Y-128092385D01*
X144795519Y-127903414D01*
X144963037Y-127677420D01*
X145083246Y-127423087D01*
X145123904Y-127289039D01*
X145001915Y-127067000D01*
X143859000Y-127067000D01*
X143859000Y-127087000D01*
X143605000Y-127087000D01*
X143605000Y-127067000D01*
X142462085Y-127067000D01*
X142340096Y-127289039D01*
X142380754Y-127423087D01*
X142500963Y-127677420D01*
X142668481Y-127903414D01*
X142876869Y-128092385D01*
X143118119Y-128237070D01*
X143382960Y-128331909D01*
X143604998Y-128210625D01*
X143604998Y-128340000D01*
X136549290Y-128340000D01*
X136650574Y-128319853D01*
X136911727Y-128211680D01*
X137146759Y-128054637D01*
X137346637Y-127854759D01*
X137503680Y-127619727D01*
X137611853Y-127358574D01*
X137667000Y-127081335D01*
X137667000Y-126798665D01*
X137625685Y-126590961D01*
X142340096Y-126590961D01*
X142462085Y-126813000D01*
X143605000Y-126813000D01*
X143605000Y-125669376D01*
X143859000Y-125669376D01*
X143859000Y-126813000D01*
X145001915Y-126813000D01*
X145123904Y-126590961D01*
X145083246Y-126456913D01*
X144963037Y-126202580D01*
X144795519Y-125976586D01*
X144587131Y-125787615D01*
X144345881Y-125642930D01*
X144081040Y-125548091D01*
X143859000Y-125669376D01*
X143605000Y-125669376D01*
X143382960Y-125548091D01*
X143118119Y-125642930D01*
X142876869Y-125787615D01*
X142668481Y-125976586D01*
X142500963Y-126202580D01*
X142380754Y-126456913D01*
X142340096Y-126590961D01*
X137625685Y-126590961D01*
X137611853Y-126521426D01*
X137503680Y-126260273D01*
X137346637Y-126025241D01*
X137146759Y-125825363D01*
X136911727Y-125668320D01*
X136650574Y-125560147D01*
X136373335Y-125505000D01*
X136090665Y-125505000D01*
X135813426Y-125560147D01*
X135552273Y-125668320D01*
X135317241Y-125825363D01*
X135117363Y-126025241D01*
X134960320Y-126260273D01*
X134852147Y-126521426D01*
X134797000Y-126798665D01*
X134797000Y-127081335D01*
X134852147Y-127358574D01*
X134960320Y-127619727D01*
X135117363Y-127854759D01*
X135317241Y-128054637D01*
X135552273Y-128211680D01*
X135813426Y-128319853D01*
X135914710Y-128340000D01*
X122349002Y-128340000D01*
X122349002Y-128210625D01*
X122571040Y-128331909D01*
X122835881Y-128237070D01*
X123077131Y-128092385D01*
X123285519Y-127903414D01*
X123453037Y-127677420D01*
X123573246Y-127423087D01*
X123613904Y-127289039D01*
X123491915Y-127067000D01*
X122349000Y-127067000D01*
X122349000Y-127087000D01*
X122095000Y-127087000D01*
X122095000Y-127067000D01*
X120952085Y-127067000D01*
X120830096Y-127289039D01*
X120870754Y-127423087D01*
X120990963Y-127677420D01*
X121158481Y-127903414D01*
X121366869Y-128092385D01*
X121608119Y-128237070D01*
X121872960Y-128331909D01*
X122094998Y-128210625D01*
X122094998Y-128340000D01*
X115039290Y-128340000D01*
X115140574Y-128319853D01*
X115401727Y-128211680D01*
X115636759Y-128054637D01*
X115836637Y-127854759D01*
X115993680Y-127619727D01*
X116101853Y-127358574D01*
X116157000Y-127081335D01*
X116157000Y-126798665D01*
X116115685Y-126590961D01*
X120830096Y-126590961D01*
X120952085Y-126813000D01*
X122095000Y-126813000D01*
X122095000Y-125669376D01*
X122349000Y-125669376D01*
X122349000Y-126813000D01*
X123491915Y-126813000D01*
X123613904Y-126590961D01*
X123573246Y-126456913D01*
X123453037Y-126202580D01*
X123285519Y-125976586D01*
X123077131Y-125787615D01*
X122835881Y-125642930D01*
X122571040Y-125548091D01*
X122349000Y-125669376D01*
X122095000Y-125669376D01*
X121872960Y-125548091D01*
X121608119Y-125642930D01*
X121366869Y-125787615D01*
X121158481Y-125976586D01*
X120990963Y-126202580D01*
X120870754Y-126456913D01*
X120830096Y-126590961D01*
X116115685Y-126590961D01*
X116101853Y-126521426D01*
X115993680Y-126260273D01*
X115836637Y-126025241D01*
X115636759Y-125825363D01*
X115401727Y-125668320D01*
X115140574Y-125560147D01*
X114863335Y-125505000D01*
X114580665Y-125505000D01*
X114303426Y-125560147D01*
X114042273Y-125668320D01*
X113807241Y-125825363D01*
X113607363Y-126025241D01*
X113450320Y-126260273D01*
X113342147Y-126521426D01*
X113287000Y-126798665D01*
X113287000Y-127081335D01*
X113342147Y-127358574D01*
X113450320Y-127619727D01*
X113607363Y-127854759D01*
X113807241Y-128054637D01*
X114042273Y-128211680D01*
X114303426Y-128319853D01*
X114404710Y-128340000D01*
X108536790Y-128340000D01*
X108554494Y-128330537D01*
X108651185Y-128251185D01*
X108730537Y-128154494D01*
X108789502Y-128044180D01*
X108825812Y-127924482D01*
X108838072Y-127800000D01*
X108838072Y-127735000D01*
X109776395Y-127735000D01*
X109812500Y-127738556D01*
X109848605Y-127735000D01*
X109956585Y-127724365D01*
X110095133Y-127682337D01*
X110222820Y-127614087D01*
X110334738Y-127522238D01*
X110357759Y-127494187D01*
X113437403Y-124414543D01*
X113450320Y-124445727D01*
X113607363Y-124680759D01*
X113807241Y-124880637D01*
X114042273Y-125037680D01*
X114303426Y-125145853D01*
X114580665Y-125201000D01*
X114863335Y-125201000D01*
X115140574Y-125145853D01*
X115401727Y-125037680D01*
X115636759Y-124880637D01*
X115836637Y-124680759D01*
X115993680Y-124445727D01*
X116101853Y-124184574D01*
X116115684Y-124115039D01*
X120830096Y-124115039D01*
X120870754Y-124249087D01*
X120990963Y-124503420D01*
X121158481Y-124729414D01*
X121366869Y-124918385D01*
X121608119Y-125063070D01*
X121872960Y-125157909D01*
X122095000Y-125036624D01*
X122095000Y-123893000D01*
X122349000Y-123893000D01*
X122349000Y-125036624D01*
X122571040Y-125157909D01*
X122835881Y-125063070D01*
X123077131Y-124918385D01*
X123285519Y-124729414D01*
X123453037Y-124503420D01*
X123573246Y-124249087D01*
X123613904Y-124115039D01*
X123491915Y-123893000D01*
X122349000Y-123893000D01*
X122095000Y-123893000D01*
X120952085Y-123893000D01*
X120830096Y-124115039D01*
X116115684Y-124115039D01*
X116157000Y-123907335D01*
X116157000Y-123624665D01*
X116136056Y-123519376D01*
X116271733Y-123383700D01*
X120840184Y-123383700D01*
X120830096Y-123416961D01*
X120952085Y-123639000D01*
X122095000Y-123639000D01*
X122095000Y-123619000D01*
X122349000Y-123619000D01*
X122349000Y-123639000D01*
X123491915Y-123639000D01*
X123613904Y-123416961D01*
X123603816Y-123383700D01*
X134682268Y-123383700D01*
X134817944Y-123519376D01*
X134797000Y-123624665D01*
X134797000Y-123907335D01*
X134852147Y-124184574D01*
X134960320Y-124445727D01*
X135117363Y-124680759D01*
X135317241Y-124880637D01*
X135552273Y-125037680D01*
X135813426Y-125145853D01*
X136090665Y-125201000D01*
X136373335Y-125201000D01*
X136650574Y-125145853D01*
X136911727Y-125037680D01*
X137146759Y-124880637D01*
X137346637Y-124680759D01*
X137503680Y-124445727D01*
X137611853Y-124184574D01*
X137625684Y-124115039D01*
X142340096Y-124115039D01*
X142380754Y-124249087D01*
X142500963Y-124503420D01*
X142668481Y-124729414D01*
X142876869Y-124918385D01*
X143118119Y-125063070D01*
X143382960Y-125157909D01*
X143605000Y-125036624D01*
X143605000Y-123893000D01*
X143859000Y-123893000D01*
X143859000Y-125036624D01*
X144081040Y-125157909D01*
X144345881Y-125063070D01*
X144587131Y-124918385D01*
X144795519Y-124729414D01*
X144963037Y-124503420D01*
X145083246Y-124249087D01*
X145123904Y-124115039D01*
X145001915Y-123893000D01*
X143859000Y-123893000D01*
X143605000Y-123893000D01*
X142462085Y-123893000D01*
X142340096Y-124115039D01*
X137625684Y-124115039D01*
X137667000Y-123907335D01*
X137667000Y-123624665D01*
X137625685Y-123416961D01*
X142340096Y-123416961D01*
X142462085Y-123639000D01*
X143605000Y-123639000D01*
X143605000Y-122495376D01*
X143859000Y-122495376D01*
X143859000Y-123639000D01*
X145001915Y-123639000D01*
X145123904Y-123416961D01*
X145083246Y-123282913D01*
X144963037Y-123028580D01*
X144795519Y-122802586D01*
X144587131Y-122613615D01*
X144345881Y-122468930D01*
X144081040Y-122374091D01*
X143859000Y-122495376D01*
X143605000Y-122495376D01*
X143382960Y-122374091D01*
X143118119Y-122468930D01*
X142876869Y-122613615D01*
X142668481Y-122802586D01*
X142500963Y-123028580D01*
X142380754Y-123282913D01*
X142340096Y-123416961D01*
X137625685Y-123416961D01*
X137611853Y-123347426D01*
X137503680Y-123086273D01*
X137346637Y-122851241D01*
X137146759Y-122651363D01*
X136911727Y-122494320D01*
X136650574Y-122386147D01*
X136373335Y-122331000D01*
X136090665Y-122331000D01*
X135985376Y-122351944D01*
X135636598Y-122003166D01*
X135610741Y-121971659D01*
X135485042Y-121868501D01*
X135341634Y-121791847D01*
X135186026Y-121744644D01*
X135064753Y-121732700D01*
X135064750Y-121732700D01*
X135024200Y-121728706D01*
X134983650Y-121732700D01*
X116119247Y-121732700D01*
X116818685Y-121033262D01*
X116955211Y-121124486D01*
X117125371Y-121194968D01*
X117306011Y-121230900D01*
X117490189Y-121230900D01*
X117670829Y-121194968D01*
X117840989Y-121124486D01*
X117981051Y-121030900D01*
X132129995Y-121030900D01*
X132166100Y-121034456D01*
X132202205Y-121030900D01*
X132310185Y-121020265D01*
X132448733Y-120978237D01*
X132576420Y-120909987D01*
X132688338Y-120818138D01*
X132711358Y-120790088D01*
X133781615Y-119719831D01*
X133946829Y-119686968D01*
X134116989Y-119616486D01*
X134270128Y-119514162D01*
X134400362Y-119383928D01*
X134502686Y-119230789D01*
X134573168Y-119060629D01*
X134609100Y-118879989D01*
X134609100Y-118705700D01*
X138585895Y-118705700D01*
X138622000Y-118709256D01*
X138658105Y-118705700D01*
X138766085Y-118695065D01*
X138904633Y-118653037D01*
X139032320Y-118584787D01*
X139144238Y-118492938D01*
X139167258Y-118464888D01*
X140068215Y-117563932D01*
X140233429Y-117531068D01*
X140403589Y-117460586D01*
X140556728Y-117358262D01*
X140686962Y-117228028D01*
X140789286Y-117074889D01*
X140859768Y-116904729D01*
X140895700Y-116724089D01*
X140895700Y-116539911D01*
X140859768Y-116359271D01*
X140789286Y-116189111D01*
X140686962Y-116035972D01*
X140644718Y-115993728D01*
X140700615Y-115937832D01*
X140865829Y-115904968D01*
X141035989Y-115834486D01*
X141153033Y-115756280D01*
X142317469Y-116920715D01*
X142350332Y-117085929D01*
X142420814Y-117256089D01*
X142523138Y-117409228D01*
X142653372Y-117539462D01*
X142806511Y-117641786D01*
X142976671Y-117712268D01*
X143157311Y-117748200D01*
X143341489Y-117748200D01*
X143522129Y-117712268D01*
X143692289Y-117641786D01*
X143845428Y-117539462D01*
X143975662Y-117409228D01*
X144077986Y-117256089D01*
X144148468Y-117085929D01*
X144184400Y-116905289D01*
X144184400Y-116721111D01*
X144148468Y-116540471D01*
X144077986Y-116370311D01*
X143975662Y-116217172D01*
X143845428Y-116086938D01*
X143692289Y-115984614D01*
X143522129Y-115914132D01*
X143356915Y-115881269D01*
X140779796Y-113304150D01*
X141098015Y-112985932D01*
X141263229Y-112953068D01*
X141433389Y-112882586D01*
X141586528Y-112780262D01*
X141716762Y-112650028D01*
X141819086Y-112496889D01*
X141889568Y-112326729D01*
X141925500Y-112146089D01*
X141925500Y-111961911D01*
X141889568Y-111781271D01*
X141819086Y-111611111D01*
X141716762Y-111457972D01*
X141599890Y-111341100D01*
X142543349Y-111341100D01*
X142683411Y-111434686D01*
X142853571Y-111505168D01*
X143034211Y-111541100D01*
X143218389Y-111541100D01*
X143399029Y-111505168D01*
X143569189Y-111434686D01*
X143722328Y-111332362D01*
X143852562Y-111202128D01*
X143954886Y-111048989D01*
X144025368Y-110878829D01*
X144061300Y-110698189D01*
X144061300Y-110514011D01*
X144025368Y-110333371D01*
X143954886Y-110163211D01*
X143852562Y-110010072D01*
X143722328Y-109879838D01*
X143569189Y-109777514D01*
X143399029Y-109707032D01*
X143218389Y-109671100D01*
X143034211Y-109671100D01*
X142853571Y-109707032D01*
X142683411Y-109777514D01*
X142543349Y-109871100D01*
X141513646Y-109871100D01*
X149340000Y-102044747D01*
X149340000Y-128340000D01*
X149340000Y-128340000D01*
G37*
X149340000Y-128340000D02*
X143859002Y-128340000D01*
X143859002Y-128210625D01*
X144081040Y-128331909D01*
X144345881Y-128237070D01*
X144587131Y-128092385D01*
X144795519Y-127903414D01*
X144963037Y-127677420D01*
X145083246Y-127423087D01*
X145123904Y-127289039D01*
X145001915Y-127067000D01*
X143859000Y-127067000D01*
X143859000Y-127087000D01*
X143605000Y-127087000D01*
X143605000Y-127067000D01*
X142462085Y-127067000D01*
X142340096Y-127289039D01*
X142380754Y-127423087D01*
X142500963Y-127677420D01*
X142668481Y-127903414D01*
X142876869Y-128092385D01*
X143118119Y-128237070D01*
X143382960Y-128331909D01*
X143604998Y-128210625D01*
X143604998Y-128340000D01*
X136549290Y-128340000D01*
X136650574Y-128319853D01*
X136911727Y-128211680D01*
X137146759Y-128054637D01*
X137346637Y-127854759D01*
X137503680Y-127619727D01*
X137611853Y-127358574D01*
X137667000Y-127081335D01*
X137667000Y-126798665D01*
X137625685Y-126590961D01*
X142340096Y-126590961D01*
X142462085Y-126813000D01*
X143605000Y-126813000D01*
X143605000Y-125669376D01*
X143859000Y-125669376D01*
X143859000Y-126813000D01*
X145001915Y-126813000D01*
X145123904Y-126590961D01*
X145083246Y-126456913D01*
X144963037Y-126202580D01*
X144795519Y-125976586D01*
X144587131Y-125787615D01*
X144345881Y-125642930D01*
X144081040Y-125548091D01*
X143859000Y-125669376D01*
X143605000Y-125669376D01*
X143382960Y-125548091D01*
X143118119Y-125642930D01*
X142876869Y-125787615D01*
X142668481Y-125976586D01*
X142500963Y-126202580D01*
X142380754Y-126456913D01*
X142340096Y-126590961D01*
X137625685Y-126590961D01*
X137611853Y-126521426D01*
X137503680Y-126260273D01*
X137346637Y-126025241D01*
X137146759Y-125825363D01*
X136911727Y-125668320D01*
X136650574Y-125560147D01*
X136373335Y-125505000D01*
X136090665Y-125505000D01*
X135813426Y-125560147D01*
X135552273Y-125668320D01*
X135317241Y-125825363D01*
X135117363Y-126025241D01*
X134960320Y-126260273D01*
X134852147Y-126521426D01*
X134797000Y-126798665D01*
X134797000Y-127081335D01*
X134852147Y-127358574D01*
X134960320Y-127619727D01*
X135117363Y-127854759D01*
X135317241Y-128054637D01*
X135552273Y-128211680D01*
X135813426Y-128319853D01*
X135914710Y-128340000D01*
X122349002Y-128340000D01*
X122349002Y-128210625D01*
X122571040Y-128331909D01*
X122835881Y-128237070D01*
X123077131Y-128092385D01*
X123285519Y-127903414D01*
X123453037Y-127677420D01*
X123573246Y-127423087D01*
X123613904Y-127289039D01*
X123491915Y-127067000D01*
X122349000Y-127067000D01*
X122349000Y-127087000D01*
X122095000Y-127087000D01*
X122095000Y-127067000D01*
X120952085Y-127067000D01*
X120830096Y-127289039D01*
X120870754Y-127423087D01*
X120990963Y-127677420D01*
X121158481Y-127903414D01*
X121366869Y-128092385D01*
X121608119Y-128237070D01*
X121872960Y-128331909D01*
X122094998Y-128210625D01*
X122094998Y-128340000D01*
X115039290Y-128340000D01*
X115140574Y-128319853D01*
X115401727Y-128211680D01*
X115636759Y-128054637D01*
X115836637Y-127854759D01*
X115993680Y-127619727D01*
X116101853Y-127358574D01*
X116157000Y-127081335D01*
X116157000Y-126798665D01*
X116115685Y-126590961D01*
X120830096Y-126590961D01*
X120952085Y-126813000D01*
X122095000Y-126813000D01*
X122095000Y-125669376D01*
X122349000Y-125669376D01*
X122349000Y-126813000D01*
X123491915Y-126813000D01*
X123613904Y-126590961D01*
X123573246Y-126456913D01*
X123453037Y-126202580D01*
X123285519Y-125976586D01*
X123077131Y-125787615D01*
X122835881Y-125642930D01*
X122571040Y-125548091D01*
X122349000Y-125669376D01*
X122095000Y-125669376D01*
X121872960Y-125548091D01*
X121608119Y-125642930D01*
X121366869Y-125787615D01*
X121158481Y-125976586D01*
X120990963Y-126202580D01*
X120870754Y-126456913D01*
X120830096Y-126590961D01*
X116115685Y-126590961D01*
X116101853Y-126521426D01*
X115993680Y-126260273D01*
X115836637Y-126025241D01*
X115636759Y-125825363D01*
X115401727Y-125668320D01*
X115140574Y-125560147D01*
X114863335Y-125505000D01*
X114580665Y-125505000D01*
X114303426Y-125560147D01*
X114042273Y-125668320D01*
X113807241Y-125825363D01*
X113607363Y-126025241D01*
X113450320Y-126260273D01*
X113342147Y-126521426D01*
X113287000Y-126798665D01*
X113287000Y-127081335D01*
X113342147Y-127358574D01*
X113450320Y-127619727D01*
X113607363Y-127854759D01*
X113807241Y-128054637D01*
X114042273Y-128211680D01*
X114303426Y-128319853D01*
X114404710Y-128340000D01*
X108536790Y-128340000D01*
X108554494Y-128330537D01*
X108651185Y-128251185D01*
X108730537Y-128154494D01*
X108789502Y-128044180D01*
X108825812Y-127924482D01*
X108838072Y-127800000D01*
X108838072Y-127735000D01*
X109776395Y-127735000D01*
X109812500Y-127738556D01*
X109848605Y-127735000D01*
X109956585Y-127724365D01*
X110095133Y-127682337D01*
X110222820Y-127614087D01*
X110334738Y-127522238D01*
X110357759Y-127494187D01*
X113437403Y-124414543D01*
X113450320Y-124445727D01*
X113607363Y-124680759D01*
X113807241Y-124880637D01*
X114042273Y-125037680D01*
X114303426Y-125145853D01*
X114580665Y-125201000D01*
X114863335Y-125201000D01*
X115140574Y-125145853D01*
X115401727Y-125037680D01*
X115636759Y-124880637D01*
X115836637Y-124680759D01*
X115993680Y-124445727D01*
X116101853Y-124184574D01*
X116115684Y-124115039D01*
X120830096Y-124115039D01*
X120870754Y-124249087D01*
X120990963Y-124503420D01*
X121158481Y-124729414D01*
X121366869Y-124918385D01*
X121608119Y-125063070D01*
X121872960Y-125157909D01*
X122095000Y-125036624D01*
X122095000Y-123893000D01*
X122349000Y-123893000D01*
X122349000Y-125036624D01*
X122571040Y-125157909D01*
X122835881Y-125063070D01*
X123077131Y-124918385D01*
X123285519Y-124729414D01*
X123453037Y-124503420D01*
X123573246Y-124249087D01*
X123613904Y-124115039D01*
X123491915Y-123893000D01*
X122349000Y-123893000D01*
X122095000Y-123893000D01*
X120952085Y-123893000D01*
X120830096Y-124115039D01*
X116115684Y-124115039D01*
X116157000Y-123907335D01*
X116157000Y-123624665D01*
X116136056Y-123519376D01*
X116271733Y-123383700D01*
X120840184Y-123383700D01*
X120830096Y-123416961D01*
X120952085Y-123639000D01*
X122095000Y-123639000D01*
X122095000Y-123619000D01*
X122349000Y-123619000D01*
X122349000Y-123639000D01*
X123491915Y-123639000D01*
X123613904Y-123416961D01*
X123603816Y-123383700D01*
X134682268Y-123383700D01*
X134817944Y-123519376D01*
X134797000Y-123624665D01*
X134797000Y-123907335D01*
X134852147Y-124184574D01*
X134960320Y-124445727D01*
X135117363Y-124680759D01*
X135317241Y-124880637D01*
X135552273Y-125037680D01*
X135813426Y-125145853D01*
X136090665Y-125201000D01*
X136373335Y-125201000D01*
X136650574Y-125145853D01*
X136911727Y-125037680D01*
X137146759Y-124880637D01*
X137346637Y-124680759D01*
X137503680Y-124445727D01*
X137611853Y-124184574D01*
X137625684Y-124115039D01*
X142340096Y-124115039D01*
X142380754Y-124249087D01*
X142500963Y-124503420D01*
X142668481Y-124729414D01*
X142876869Y-124918385D01*
X143118119Y-125063070D01*
X143382960Y-125157909D01*
X143605000Y-125036624D01*
X143605000Y-123893000D01*
X143859000Y-123893000D01*
X143859000Y-125036624D01*
X144081040Y-125157909D01*
X144345881Y-125063070D01*
X144587131Y-124918385D01*
X144795519Y-124729414D01*
X144963037Y-124503420D01*
X145083246Y-124249087D01*
X145123904Y-124115039D01*
X145001915Y-123893000D01*
X143859000Y-123893000D01*
X143605000Y-123893000D01*
X142462085Y-123893000D01*
X142340096Y-124115039D01*
X137625684Y-124115039D01*
X137667000Y-123907335D01*
X137667000Y-123624665D01*
X137625685Y-123416961D01*
X142340096Y-123416961D01*
X142462085Y-123639000D01*
X143605000Y-123639000D01*
X143605000Y-122495376D01*
X143859000Y-122495376D01*
X143859000Y-123639000D01*
X145001915Y-123639000D01*
X145123904Y-123416961D01*
X145083246Y-123282913D01*
X144963037Y-123028580D01*
X144795519Y-122802586D01*
X144587131Y-122613615D01*
X144345881Y-122468930D01*
X144081040Y-122374091D01*
X143859000Y-122495376D01*
X143605000Y-122495376D01*
X143382960Y-122374091D01*
X143118119Y-122468930D01*
X142876869Y-122613615D01*
X142668481Y-122802586D01*
X142500963Y-123028580D01*
X142380754Y-123282913D01*
X142340096Y-123416961D01*
X137625685Y-123416961D01*
X137611853Y-123347426D01*
X137503680Y-123086273D01*
X137346637Y-122851241D01*
X137146759Y-122651363D01*
X136911727Y-122494320D01*
X136650574Y-122386147D01*
X136373335Y-122331000D01*
X136090665Y-122331000D01*
X135985376Y-122351944D01*
X135636598Y-122003166D01*
X135610741Y-121971659D01*
X135485042Y-121868501D01*
X135341634Y-121791847D01*
X135186026Y-121744644D01*
X135064753Y-121732700D01*
X135064750Y-121732700D01*
X135024200Y-121728706D01*
X134983650Y-121732700D01*
X116119247Y-121732700D01*
X116818685Y-121033262D01*
X116955211Y-121124486D01*
X117125371Y-121194968D01*
X117306011Y-121230900D01*
X117490189Y-121230900D01*
X117670829Y-121194968D01*
X117840989Y-121124486D01*
X117981051Y-121030900D01*
X132129995Y-121030900D01*
X132166100Y-121034456D01*
X132202205Y-121030900D01*
X132310185Y-121020265D01*
X132448733Y-120978237D01*
X132576420Y-120909987D01*
X132688338Y-120818138D01*
X132711358Y-120790088D01*
X133781615Y-119719831D01*
X133946829Y-119686968D01*
X134116989Y-119616486D01*
X134270128Y-119514162D01*
X134400362Y-119383928D01*
X134502686Y-119230789D01*
X134573168Y-119060629D01*
X134609100Y-118879989D01*
X134609100Y-118705700D01*
X138585895Y-118705700D01*
X138622000Y-118709256D01*
X138658105Y-118705700D01*
X138766085Y-118695065D01*
X138904633Y-118653037D01*
X139032320Y-118584787D01*
X139144238Y-118492938D01*
X139167258Y-118464888D01*
X140068215Y-117563932D01*
X140233429Y-117531068D01*
X140403589Y-117460586D01*
X140556728Y-117358262D01*
X140686962Y-117228028D01*
X140789286Y-117074889D01*
X140859768Y-116904729D01*
X140895700Y-116724089D01*
X140895700Y-116539911D01*
X140859768Y-116359271D01*
X140789286Y-116189111D01*
X140686962Y-116035972D01*
X140644718Y-115993728D01*
X140700615Y-115937832D01*
X140865829Y-115904968D01*
X141035989Y-115834486D01*
X141153033Y-115756280D01*
X142317469Y-116920715D01*
X142350332Y-117085929D01*
X142420814Y-117256089D01*
X142523138Y-117409228D01*
X142653372Y-117539462D01*
X142806511Y-117641786D01*
X142976671Y-117712268D01*
X143157311Y-117748200D01*
X143341489Y-117748200D01*
X143522129Y-117712268D01*
X143692289Y-117641786D01*
X143845428Y-117539462D01*
X143975662Y-117409228D01*
X144077986Y-117256089D01*
X144148468Y-117085929D01*
X144184400Y-116905289D01*
X144184400Y-116721111D01*
X144148468Y-116540471D01*
X144077986Y-116370311D01*
X143975662Y-116217172D01*
X143845428Y-116086938D01*
X143692289Y-115984614D01*
X143522129Y-115914132D01*
X143356915Y-115881269D01*
X140779796Y-113304150D01*
X141098015Y-112985932D01*
X141263229Y-112953068D01*
X141433389Y-112882586D01*
X141586528Y-112780262D01*
X141716762Y-112650028D01*
X141819086Y-112496889D01*
X141889568Y-112326729D01*
X141925500Y-112146089D01*
X141925500Y-111961911D01*
X141889568Y-111781271D01*
X141819086Y-111611111D01*
X141716762Y-111457972D01*
X141599890Y-111341100D01*
X142543349Y-111341100D01*
X142683411Y-111434686D01*
X142853571Y-111505168D01*
X143034211Y-111541100D01*
X143218389Y-111541100D01*
X143399029Y-111505168D01*
X143569189Y-111434686D01*
X143722328Y-111332362D01*
X143852562Y-111202128D01*
X143954886Y-111048989D01*
X144025368Y-110878829D01*
X144061300Y-110698189D01*
X144061300Y-110514011D01*
X144025368Y-110333371D01*
X143954886Y-110163211D01*
X143852562Y-110010072D01*
X143722328Y-109879838D01*
X143569189Y-109777514D01*
X143399029Y-109707032D01*
X143218389Y-109671100D01*
X143034211Y-109671100D01*
X142853571Y-109707032D01*
X142683411Y-109777514D01*
X142543349Y-109871100D01*
X141513646Y-109871100D01*
X149340000Y-102044747D01*
X149340000Y-128340000D01*
G36*
X149340000Y-45340000D02*
G01*
X140032419Y-45340000D01*
X140000000Y-45336807D01*
X139990200Y-45337772D01*
X139990200Y-43391305D01*
X139993756Y-43355200D01*
X139979565Y-43211115D01*
X139975433Y-43197494D01*
X139937537Y-43072567D01*
X139869287Y-42944880D01*
X139864654Y-42939235D01*
X139800453Y-42861006D01*
X139800450Y-42861003D01*
X139777437Y-42832962D01*
X139749398Y-42809951D01*
X131760479Y-34821033D01*
X131782236Y-34749309D01*
X131809943Y-34468000D01*
X131782236Y-34186691D01*
X131700182Y-33916192D01*
X131566932Y-33666899D01*
X131387608Y-33448392D01*
X131169101Y-33269068D01*
X131036142Y-33198000D01*
X131169101Y-33126932D01*
X131387608Y-32947608D01*
X131566932Y-32729101D01*
X131700182Y-32479808D01*
X131717819Y-32421665D01*
X133403195Y-34107042D01*
X133381764Y-34177691D01*
X133354057Y-34459000D01*
X133381764Y-34740309D01*
X133463818Y-35010808D01*
X133597068Y-35260101D01*
X133776392Y-35478608D01*
X133994899Y-35657932D01*
X134112887Y-35720998D01*
X134180514Y-35847520D01*
X134272363Y-35959438D01*
X134300408Y-35982454D01*
X136976046Y-38658093D01*
X136999062Y-38686138D01*
X137110980Y-38777987D01*
X137238667Y-38846237D01*
X137335186Y-38875516D01*
X137377214Y-38888265D01*
X137391432Y-38889665D01*
X137485195Y-38898900D01*
X137485202Y-38898900D01*
X137521299Y-38902455D01*
X137557396Y-38898900D01*
X143927195Y-38898900D01*
X143963300Y-38902456D01*
X143999405Y-38898900D01*
X144107385Y-38888265D01*
X144245933Y-38846237D01*
X144373620Y-38777987D01*
X144485538Y-38686138D01*
X144508558Y-38658088D01*
X144776745Y-38389901D01*
X144781906Y-38394137D01*
X144892220Y-38453102D01*
X145011918Y-38489412D01*
X145136400Y-38501672D01*
X146863600Y-38501672D01*
X146988082Y-38489412D01*
X147107780Y-38453102D01*
X147218094Y-38394137D01*
X147314785Y-38314785D01*
X147394137Y-38218094D01*
X147453102Y-38107780D01*
X147489412Y-37988082D01*
X147501672Y-37863600D01*
X147501672Y-36136400D01*
X147489412Y-36011918D01*
X147453102Y-35892220D01*
X147394137Y-35781906D01*
X147314785Y-35685215D01*
X147218094Y-35605863D01*
X147107780Y-35546898D01*
X147056735Y-35531414D01*
X147064797Y-35524797D01*
X147252069Y-35296606D01*
X147391225Y-35036264D01*
X147476916Y-34753777D01*
X147505851Y-34460000D01*
X147476916Y-34166223D01*
X147391225Y-33883736D01*
X147252069Y-33623394D01*
X147064797Y-33395203D01*
X146836606Y-33207931D01*
X146803060Y-33190000D01*
X146836606Y-33172069D01*
X147064797Y-32984797D01*
X147252069Y-32756606D01*
X147391225Y-32496264D01*
X147476916Y-32213777D01*
X147505851Y-31920000D01*
X147476916Y-31626223D01*
X147391225Y-31343736D01*
X147252069Y-31083394D01*
X147064797Y-30855203D01*
X146836606Y-30667931D01*
X146803060Y-30650000D01*
X146836606Y-30632069D01*
X147064797Y-30444797D01*
X147252069Y-30216606D01*
X147391225Y-29956264D01*
X147476916Y-29673777D01*
X147505851Y-29380000D01*
X147476916Y-29086223D01*
X147391225Y-28803736D01*
X147252069Y-28543394D01*
X147064797Y-28315203D01*
X146836606Y-28127931D01*
X146803060Y-28110000D01*
X146836606Y-28092069D01*
X147064797Y-27904797D01*
X147252069Y-27676606D01*
X147391225Y-27416264D01*
X147476916Y-27133777D01*
X147505851Y-26840000D01*
X147476916Y-26546223D01*
X147391225Y-26263736D01*
X147252069Y-26003394D01*
X147064797Y-25775203D01*
X146836606Y-25587931D01*
X146576264Y-25448775D01*
X146293777Y-25363084D01*
X146073619Y-25341400D01*
X145926381Y-25341400D01*
X145706223Y-25363084D01*
X145423736Y-25448775D01*
X145163394Y-25587931D01*
X145015858Y-25709011D01*
X140926859Y-21620013D01*
X140903838Y-21591962D01*
X140791920Y-21500113D01*
X140664233Y-21431863D01*
X140525685Y-21389835D01*
X140417705Y-21379200D01*
X140381600Y-21375644D01*
X140345495Y-21379200D01*
X104301505Y-21379200D01*
X104265400Y-21375644D01*
X104229295Y-21379200D01*
X104121315Y-21389835D01*
X103982767Y-21431863D01*
X103855080Y-21500113D01*
X103743162Y-21591962D01*
X103720146Y-21620007D01*
X101662808Y-23677346D01*
X101634763Y-23700362D01*
X101542913Y-23812280D01*
X101474663Y-23939967D01*
X101444209Y-24040362D01*
X101440710Y-24051895D01*
X101066605Y-24426000D01*
X101080748Y-24440143D01*
X100901143Y-24619748D01*
X100887000Y-24605605D01*
X100872858Y-24619748D01*
X100693253Y-24440143D01*
X100707395Y-24426000D01*
X99957727Y-23676332D01*
X99722817Y-23737152D01*
X99614794Y-23968934D01*
X99539987Y-23788335D01*
X99392662Y-23567847D01*
X99356015Y-23531200D01*
X99500589Y-23531200D01*
X99673894Y-23496727D01*
X100137332Y-23496727D01*
X100887000Y-24246395D01*
X101636668Y-23496727D01*
X101575848Y-23261817D01*
X101335491Y-23149798D01*
X101077898Y-23086824D01*
X100812970Y-23075313D01*
X100550887Y-23115709D01*
X100301720Y-23206458D01*
X100198152Y-23261817D01*
X100137332Y-23496727D01*
X99673894Y-23496727D01*
X99681229Y-23495268D01*
X99851389Y-23424786D01*
X100004528Y-23322462D01*
X100134762Y-23192228D01*
X100237086Y-23039089D01*
X100307568Y-22868929D01*
X100343500Y-22688289D01*
X100343500Y-22504111D01*
X100307568Y-22323471D01*
X100237086Y-22153311D01*
X100134762Y-22000172D01*
X100004528Y-21869938D01*
X99851389Y-21767614D01*
X99681229Y-21697132D01*
X99500589Y-21661200D01*
X99316411Y-21661200D01*
X99135771Y-21697132D01*
X98965611Y-21767614D01*
X98825549Y-21861200D01*
X80298496Y-21861200D01*
X80262399Y-21857645D01*
X80226302Y-21861200D01*
X80226295Y-21861200D01*
X80137576Y-21869938D01*
X80118314Y-21871835D01*
X80076286Y-21884584D01*
X79979767Y-21913863D01*
X79852080Y-21982113D01*
X79740162Y-22073962D01*
X79717146Y-22102007D01*
X77515208Y-24303946D01*
X77487163Y-24326962D01*
X77395314Y-24438880D01*
X77362629Y-24500030D01*
X77327064Y-24566567D01*
X77285035Y-24705115D01*
X77270844Y-24849200D01*
X77274401Y-24885315D01*
X77274400Y-47593595D01*
X77270844Y-47629700D01*
X77274400Y-47665804D01*
X77285035Y-47773784D01*
X77327063Y-47912332D01*
X77395313Y-48040019D01*
X77487162Y-48151937D01*
X77515208Y-48174954D01*
X78094446Y-48754193D01*
X78117462Y-48782238D01*
X78229380Y-48874087D01*
X78357067Y-48942337D01*
X78495615Y-48984365D01*
X78500298Y-48984826D01*
X78541068Y-49061101D01*
X78720392Y-49279608D01*
X78938899Y-49458932D01*
X79071858Y-49530000D01*
X78938899Y-49601068D01*
X78720392Y-49780392D01*
X78541068Y-49998899D01*
X78407818Y-50248192D01*
X78325764Y-50518691D01*
X78298057Y-50800000D01*
X78325764Y-51081309D01*
X78407818Y-51351808D01*
X78541068Y-51601101D01*
X78720392Y-51819608D01*
X78938899Y-51998932D01*
X79071858Y-52070000D01*
X78938899Y-52141068D01*
X78720392Y-52320392D01*
X78541068Y-52538899D01*
X78407818Y-52788192D01*
X78325764Y-53058691D01*
X78298057Y-53340000D01*
X78325764Y-53621309D01*
X78407818Y-53891808D01*
X78541068Y-54141101D01*
X78720392Y-54359608D01*
X78938899Y-54538932D01*
X79071858Y-54610000D01*
X78938899Y-54681068D01*
X78720392Y-54860392D01*
X78541068Y-55078899D01*
X78407818Y-55328192D01*
X78325764Y-55598691D01*
X78298057Y-55880000D01*
X78325764Y-56161309D01*
X78407818Y-56431808D01*
X78541068Y-56681101D01*
X78720392Y-56899608D01*
X78938899Y-57078932D01*
X79071858Y-57150000D01*
X78938899Y-57221068D01*
X78720392Y-57400392D01*
X78541068Y-57618899D01*
X78407818Y-57868192D01*
X78325764Y-58138691D01*
X78298057Y-58420000D01*
X78325764Y-58701309D01*
X78407818Y-58971808D01*
X78541068Y-59221101D01*
X78720392Y-59439608D01*
X78938899Y-59618932D01*
X79071858Y-59690000D01*
X78938899Y-59761068D01*
X78720392Y-59940392D01*
X78541068Y-60158899D01*
X78407818Y-60408192D01*
X78325764Y-60678691D01*
X78298057Y-60960000D01*
X78325764Y-61241309D01*
X78407818Y-61511808D01*
X78541068Y-61761101D01*
X78720392Y-61979608D01*
X78938899Y-62158932D01*
X79071858Y-62230000D01*
X78938899Y-62301068D01*
X78720392Y-62480392D01*
X78541068Y-62698899D01*
X78407818Y-62948192D01*
X78325764Y-63218691D01*
X78298057Y-63500000D01*
X78325764Y-63781309D01*
X78407818Y-64051808D01*
X78541068Y-64301101D01*
X78683003Y-64474050D01*
X78124908Y-65032146D01*
X78096862Y-65055163D01*
X78005013Y-65167081D01*
X77936763Y-65294768D01*
X77914545Y-65368011D01*
X77894735Y-65433315D01*
X77880544Y-65577400D01*
X77884100Y-65613505D01*
X77884101Y-79230385D01*
X77880544Y-79266500D01*
X77894735Y-79410585D01*
X77936764Y-79549133D01*
X78005014Y-79676820D01*
X78096863Y-79788738D01*
X78124908Y-79811754D01*
X78647746Y-80334593D01*
X78653621Y-80341752D01*
X78541068Y-80478899D01*
X78407818Y-80728192D01*
X78325764Y-80998691D01*
X78298057Y-81280000D01*
X78325764Y-81561309D01*
X78407818Y-81831808D01*
X78541068Y-82081101D01*
X78720392Y-82299608D01*
X78938899Y-82478932D01*
X79071858Y-82550000D01*
X78938899Y-82621068D01*
X78720392Y-82800392D01*
X78541068Y-83018899D01*
X78407818Y-83268192D01*
X78325764Y-83538691D01*
X78298057Y-83820000D01*
X78325764Y-84101309D01*
X78407818Y-84371808D01*
X78541068Y-84621101D01*
X78720392Y-84839608D01*
X78938899Y-85018932D01*
X79071858Y-85090000D01*
X78938899Y-85161068D01*
X78720392Y-85340392D01*
X78541068Y-85558899D01*
X78407818Y-85808192D01*
X78325764Y-86078691D01*
X78298057Y-86360000D01*
X78325764Y-86641309D01*
X78407818Y-86911808D01*
X78541068Y-87161101D01*
X78688818Y-87341135D01*
X78145508Y-87884446D01*
X78117463Y-87907462D01*
X78025614Y-88019380D01*
X78003243Y-88061234D01*
X77957364Y-88147067D01*
X77915335Y-88285615D01*
X77901144Y-88429700D01*
X77904701Y-88465815D01*
X77904700Y-101563895D01*
X77901144Y-101600000D01*
X77915335Y-101744085D01*
X77957363Y-101882633D01*
X78025613Y-102010320D01*
X78117462Y-102122238D01*
X78204636Y-102193780D01*
X78229380Y-102214087D01*
X78357067Y-102282337D01*
X78495615Y-102324365D01*
X78500298Y-102324826D01*
X78541068Y-102401101D01*
X78720392Y-102619608D01*
X78938899Y-102798932D01*
X79071858Y-102870000D01*
X78938899Y-102941068D01*
X78720392Y-103120392D01*
X78541068Y-103338899D01*
X78407818Y-103588192D01*
X78325764Y-103858691D01*
X78298057Y-104140000D01*
X78325764Y-104421309D01*
X78407818Y-104691808D01*
X78541068Y-104941101D01*
X78720392Y-105159608D01*
X78938899Y-105338932D01*
X79071858Y-105410000D01*
X78938899Y-105481068D01*
X78720392Y-105660392D01*
X78541068Y-105878899D01*
X78407818Y-106128192D01*
X78325764Y-106398691D01*
X78298057Y-106680000D01*
X78325764Y-106961309D01*
X78407818Y-107231808D01*
X78541068Y-107481101D01*
X78720392Y-107699608D01*
X78938899Y-107878932D01*
X79071858Y-107950000D01*
X78938899Y-108021068D01*
X78720392Y-108200392D01*
X78541068Y-108418899D01*
X78407818Y-108668192D01*
X78325764Y-108938691D01*
X78298057Y-109220000D01*
X78325764Y-109501309D01*
X78407818Y-109771808D01*
X78541068Y-110021101D01*
X78692604Y-110205749D01*
X77695208Y-111203146D01*
X77667162Y-111226163D01*
X77575313Y-111338081D01*
X77507063Y-111465768D01*
X77487044Y-111531763D01*
X77465035Y-111604315D01*
X77450844Y-111748400D01*
X77454400Y-111784505D01*
X77454401Y-126513585D01*
X77450844Y-126549700D01*
X77465035Y-126693785D01*
X77496851Y-126798665D01*
X77507064Y-126832333D01*
X77575314Y-126960020D01*
X77667163Y-127071938D01*
X77695208Y-127094954D01*
X78094441Y-127494187D01*
X78117462Y-127522238D01*
X78229380Y-127614087D01*
X78357067Y-127682337D01*
X78495615Y-127724365D01*
X78500298Y-127724826D01*
X78541068Y-127801101D01*
X78720392Y-128019608D01*
X78938899Y-128198932D01*
X79188192Y-128332182D01*
X79213965Y-128340000D01*
X75660000Y-128340000D01*
X75660000Y-19660000D01*
X149340001Y-19660000D01*
X149340000Y-45340000D01*
X149340000Y-45340000D01*
G37*
X149340000Y-45340000D02*
X140032419Y-45340000D01*
X140000000Y-45336807D01*
X139990200Y-45337772D01*
X139990200Y-43391305D01*
X139993756Y-43355200D01*
X139979565Y-43211115D01*
X139975433Y-43197494D01*
X139937537Y-43072567D01*
X139869287Y-42944880D01*
X139864654Y-42939235D01*
X139800453Y-42861006D01*
X139800450Y-42861003D01*
X139777437Y-42832962D01*
X139749398Y-42809951D01*
X131760479Y-34821033D01*
X131782236Y-34749309D01*
X131809943Y-34468000D01*
X131782236Y-34186691D01*
X131700182Y-33916192D01*
X131566932Y-33666899D01*
X131387608Y-33448392D01*
X131169101Y-33269068D01*
X131036142Y-33198000D01*
X131169101Y-33126932D01*
X131387608Y-32947608D01*
X131566932Y-32729101D01*
X131700182Y-32479808D01*
X131717819Y-32421665D01*
X133403195Y-34107042D01*
X133381764Y-34177691D01*
X133354057Y-34459000D01*
X133381764Y-34740309D01*
X133463818Y-35010808D01*
X133597068Y-35260101D01*
X133776392Y-35478608D01*
X133994899Y-35657932D01*
X134112887Y-35720998D01*
X134180514Y-35847520D01*
X134272363Y-35959438D01*
X134300408Y-35982454D01*
X136976046Y-38658093D01*
X136999062Y-38686138D01*
X137110980Y-38777987D01*
X137238667Y-38846237D01*
X137335186Y-38875516D01*
X137377214Y-38888265D01*
X137391432Y-38889665D01*
X137485195Y-38898900D01*
X137485202Y-38898900D01*
X137521299Y-38902455D01*
X137557396Y-38898900D01*
X143927195Y-38898900D01*
X143963300Y-38902456D01*
X143999405Y-38898900D01*
X144107385Y-38888265D01*
X144245933Y-38846237D01*
X144373620Y-38777987D01*
X144485538Y-38686138D01*
X144508558Y-38658088D01*
X144776745Y-38389901D01*
X144781906Y-38394137D01*
X144892220Y-38453102D01*
X145011918Y-38489412D01*
X145136400Y-38501672D01*
X146863600Y-38501672D01*
X146988082Y-38489412D01*
X147107780Y-38453102D01*
X147218094Y-38394137D01*
X147314785Y-38314785D01*
X147394137Y-38218094D01*
X147453102Y-38107780D01*
X147489412Y-37988082D01*
X147501672Y-37863600D01*
X147501672Y-36136400D01*
X147489412Y-36011918D01*
X147453102Y-35892220D01*
X147394137Y-35781906D01*
X147314785Y-35685215D01*
X147218094Y-35605863D01*
X147107780Y-35546898D01*
X147056735Y-35531414D01*
X147064797Y-35524797D01*
X147252069Y-35296606D01*
X147391225Y-35036264D01*
X147476916Y-34753777D01*
X147505851Y-34460000D01*
X147476916Y-34166223D01*
X147391225Y-33883736D01*
X147252069Y-33623394D01*
X147064797Y-33395203D01*
X146836606Y-33207931D01*
X146803060Y-33190000D01*
X146836606Y-33172069D01*
X147064797Y-32984797D01*
X147252069Y-32756606D01*
X147391225Y-32496264D01*
X147476916Y-32213777D01*
X147505851Y-31920000D01*
X147476916Y-31626223D01*
X147391225Y-31343736D01*
X147252069Y-31083394D01*
X147064797Y-30855203D01*
X146836606Y-30667931D01*
X146803060Y-30650000D01*
X146836606Y-30632069D01*
X147064797Y-30444797D01*
X147252069Y-30216606D01*
X147391225Y-29956264D01*
X147476916Y-29673777D01*
X147505851Y-29380000D01*
X147476916Y-29086223D01*
X147391225Y-28803736D01*
X147252069Y-28543394D01*
X147064797Y-28315203D01*
X146836606Y-28127931D01*
X146803060Y-28110000D01*
X146836606Y-28092069D01*
X147064797Y-27904797D01*
X147252069Y-27676606D01*
X147391225Y-27416264D01*
X147476916Y-27133777D01*
X147505851Y-26840000D01*
X147476916Y-26546223D01*
X147391225Y-26263736D01*
X147252069Y-26003394D01*
X147064797Y-25775203D01*
X146836606Y-25587931D01*
X146576264Y-25448775D01*
X146293777Y-25363084D01*
X146073619Y-25341400D01*
X145926381Y-25341400D01*
X145706223Y-25363084D01*
X145423736Y-25448775D01*
X145163394Y-25587931D01*
X145015858Y-25709011D01*
X140926859Y-21620013D01*
X140903838Y-21591962D01*
X140791920Y-21500113D01*
X140664233Y-21431863D01*
X140525685Y-21389835D01*
X140417705Y-21379200D01*
X140381600Y-21375644D01*
X140345495Y-21379200D01*
X104301505Y-21379200D01*
X104265400Y-21375644D01*
X104229295Y-21379200D01*
X104121315Y-21389835D01*
X103982767Y-21431863D01*
X103855080Y-21500113D01*
X103743162Y-21591962D01*
X103720146Y-21620007D01*
X101662808Y-23677346D01*
X101634763Y-23700362D01*
X101542913Y-23812280D01*
X101474663Y-23939967D01*
X101444209Y-24040362D01*
X101440710Y-24051895D01*
X101066605Y-24426000D01*
X101080748Y-24440143D01*
X100901143Y-24619748D01*
X100887000Y-24605605D01*
X100872858Y-24619748D01*
X100693253Y-24440143D01*
X100707395Y-24426000D01*
X99957727Y-23676332D01*
X99722817Y-23737152D01*
X99614794Y-23968934D01*
X99539987Y-23788335D01*
X99392662Y-23567847D01*
X99356015Y-23531200D01*
X99500589Y-23531200D01*
X99673894Y-23496727D01*
X100137332Y-23496727D01*
X100887000Y-24246395D01*
X101636668Y-23496727D01*
X101575848Y-23261817D01*
X101335491Y-23149798D01*
X101077898Y-23086824D01*
X100812970Y-23075313D01*
X100550887Y-23115709D01*
X100301720Y-23206458D01*
X100198152Y-23261817D01*
X100137332Y-23496727D01*
X99673894Y-23496727D01*
X99681229Y-23495268D01*
X99851389Y-23424786D01*
X100004528Y-23322462D01*
X100134762Y-23192228D01*
X100237086Y-23039089D01*
X100307568Y-22868929D01*
X100343500Y-22688289D01*
X100343500Y-22504111D01*
X100307568Y-22323471D01*
X100237086Y-22153311D01*
X100134762Y-22000172D01*
X100004528Y-21869938D01*
X99851389Y-21767614D01*
X99681229Y-21697132D01*
X99500589Y-21661200D01*
X99316411Y-21661200D01*
X99135771Y-21697132D01*
X98965611Y-21767614D01*
X98825549Y-21861200D01*
X80298496Y-21861200D01*
X80262399Y-21857645D01*
X80226302Y-21861200D01*
X80226295Y-21861200D01*
X80137576Y-21869938D01*
X80118314Y-21871835D01*
X80076286Y-21884584D01*
X79979767Y-21913863D01*
X79852080Y-21982113D01*
X79740162Y-22073962D01*
X79717146Y-22102007D01*
X77515208Y-24303946D01*
X77487163Y-24326962D01*
X77395314Y-24438880D01*
X77362629Y-24500030D01*
X77327064Y-24566567D01*
X77285035Y-24705115D01*
X77270844Y-24849200D01*
X77274401Y-24885315D01*
X77274400Y-47593595D01*
X77270844Y-47629700D01*
X77274400Y-47665804D01*
X77285035Y-47773784D01*
X77327063Y-47912332D01*
X77395313Y-48040019D01*
X77487162Y-48151937D01*
X77515208Y-48174954D01*
X78094446Y-48754193D01*
X78117462Y-48782238D01*
X78229380Y-48874087D01*
X78357067Y-48942337D01*
X78495615Y-48984365D01*
X78500298Y-48984826D01*
X78541068Y-49061101D01*
X78720392Y-49279608D01*
X78938899Y-49458932D01*
X79071858Y-49530000D01*
X78938899Y-49601068D01*
X78720392Y-49780392D01*
X78541068Y-49998899D01*
X78407818Y-50248192D01*
X78325764Y-50518691D01*
X78298057Y-50800000D01*
X78325764Y-51081309D01*
X78407818Y-51351808D01*
X78541068Y-51601101D01*
X78720392Y-51819608D01*
X78938899Y-51998932D01*
X79071858Y-52070000D01*
X78938899Y-52141068D01*
X78720392Y-52320392D01*
X78541068Y-52538899D01*
X78407818Y-52788192D01*
X78325764Y-53058691D01*
X78298057Y-53340000D01*
X78325764Y-53621309D01*
X78407818Y-53891808D01*
X78541068Y-54141101D01*
X78720392Y-54359608D01*
X78938899Y-54538932D01*
X79071858Y-54610000D01*
X78938899Y-54681068D01*
X78720392Y-54860392D01*
X78541068Y-55078899D01*
X78407818Y-55328192D01*
X78325764Y-55598691D01*
X78298057Y-55880000D01*
X78325764Y-56161309D01*
X78407818Y-56431808D01*
X78541068Y-56681101D01*
X78720392Y-56899608D01*
X78938899Y-57078932D01*
X79071858Y-57150000D01*
X78938899Y-57221068D01*
X78720392Y-57400392D01*
X78541068Y-57618899D01*
X78407818Y-57868192D01*
X78325764Y-58138691D01*
X78298057Y-58420000D01*
X78325764Y-58701309D01*
X78407818Y-58971808D01*
X78541068Y-59221101D01*
X78720392Y-59439608D01*
X78938899Y-59618932D01*
X79071858Y-59690000D01*
X78938899Y-59761068D01*
X78720392Y-59940392D01*
X78541068Y-60158899D01*
X78407818Y-60408192D01*
X78325764Y-60678691D01*
X78298057Y-60960000D01*
X78325764Y-61241309D01*
X78407818Y-61511808D01*
X78541068Y-61761101D01*
X78720392Y-61979608D01*
X78938899Y-62158932D01*
X79071858Y-62230000D01*
X78938899Y-62301068D01*
X78720392Y-62480392D01*
X78541068Y-62698899D01*
X78407818Y-62948192D01*
X78325764Y-63218691D01*
X78298057Y-63500000D01*
X78325764Y-63781309D01*
X78407818Y-64051808D01*
X78541068Y-64301101D01*
X78683003Y-64474050D01*
X78124908Y-65032146D01*
X78096862Y-65055163D01*
X78005013Y-65167081D01*
X77936763Y-65294768D01*
X77914545Y-65368011D01*
X77894735Y-65433315D01*
X77880544Y-65577400D01*
X77884100Y-65613505D01*
X77884101Y-79230385D01*
X77880544Y-79266500D01*
X77894735Y-79410585D01*
X77936764Y-79549133D01*
X78005014Y-79676820D01*
X78096863Y-79788738D01*
X78124908Y-79811754D01*
X78647746Y-80334593D01*
X78653621Y-80341752D01*
X78541068Y-80478899D01*
X78407818Y-80728192D01*
X78325764Y-80998691D01*
X78298057Y-81280000D01*
X78325764Y-81561309D01*
X78407818Y-81831808D01*
X78541068Y-82081101D01*
X78720392Y-82299608D01*
X78938899Y-82478932D01*
X79071858Y-82550000D01*
X78938899Y-82621068D01*
X78720392Y-82800392D01*
X78541068Y-83018899D01*
X78407818Y-83268192D01*
X78325764Y-83538691D01*
X78298057Y-83820000D01*
X78325764Y-84101309D01*
X78407818Y-84371808D01*
X78541068Y-84621101D01*
X78720392Y-84839608D01*
X78938899Y-85018932D01*
X79071858Y-85090000D01*
X78938899Y-85161068D01*
X78720392Y-85340392D01*
X78541068Y-85558899D01*
X78407818Y-85808192D01*
X78325764Y-86078691D01*
X78298057Y-86360000D01*
X78325764Y-86641309D01*
X78407818Y-86911808D01*
X78541068Y-87161101D01*
X78688818Y-87341135D01*
X78145508Y-87884446D01*
X78117463Y-87907462D01*
X78025614Y-88019380D01*
X78003243Y-88061234D01*
X77957364Y-88147067D01*
X77915335Y-88285615D01*
X77901144Y-88429700D01*
X77904701Y-88465815D01*
X77904700Y-101563895D01*
X77901144Y-101600000D01*
X77915335Y-101744085D01*
X77957363Y-101882633D01*
X78025613Y-102010320D01*
X78117462Y-102122238D01*
X78204636Y-102193780D01*
X78229380Y-102214087D01*
X78357067Y-102282337D01*
X78495615Y-102324365D01*
X78500298Y-102324826D01*
X78541068Y-102401101D01*
X78720392Y-102619608D01*
X78938899Y-102798932D01*
X79071858Y-102870000D01*
X78938899Y-102941068D01*
X78720392Y-103120392D01*
X78541068Y-103338899D01*
X78407818Y-103588192D01*
X78325764Y-103858691D01*
X78298057Y-104140000D01*
X78325764Y-104421309D01*
X78407818Y-104691808D01*
X78541068Y-104941101D01*
X78720392Y-105159608D01*
X78938899Y-105338932D01*
X79071858Y-105410000D01*
X78938899Y-105481068D01*
X78720392Y-105660392D01*
X78541068Y-105878899D01*
X78407818Y-106128192D01*
X78325764Y-106398691D01*
X78298057Y-106680000D01*
X78325764Y-106961309D01*
X78407818Y-107231808D01*
X78541068Y-107481101D01*
X78720392Y-107699608D01*
X78938899Y-107878932D01*
X79071858Y-107950000D01*
X78938899Y-108021068D01*
X78720392Y-108200392D01*
X78541068Y-108418899D01*
X78407818Y-108668192D01*
X78325764Y-108938691D01*
X78298057Y-109220000D01*
X78325764Y-109501309D01*
X78407818Y-109771808D01*
X78541068Y-110021101D01*
X78692604Y-110205749D01*
X77695208Y-111203146D01*
X77667162Y-111226163D01*
X77575313Y-111338081D01*
X77507063Y-111465768D01*
X77487044Y-111531763D01*
X77465035Y-111604315D01*
X77450844Y-111748400D01*
X77454400Y-111784505D01*
X77454401Y-126513585D01*
X77450844Y-126549700D01*
X77465035Y-126693785D01*
X77496851Y-126798665D01*
X77507064Y-126832333D01*
X77575314Y-126960020D01*
X77667163Y-127071938D01*
X77695208Y-127094954D01*
X78094441Y-127494187D01*
X78117462Y-127522238D01*
X78229380Y-127614087D01*
X78357067Y-127682337D01*
X78495615Y-127724365D01*
X78500298Y-127724826D01*
X78541068Y-127801101D01*
X78720392Y-128019608D01*
X78938899Y-128198932D01*
X79188192Y-128332182D01*
X79213965Y-128340000D01*
X75660000Y-128340000D01*
X75660000Y-19660000D01*
X149340001Y-19660000D01*
X149340000Y-45340000D01*
G36*
X90198411Y-94535045D02*
G01*
X90224259Y-94566541D01*
X90255755Y-94592389D01*
X90255758Y-94592392D01*
X90349957Y-94669699D01*
X90475237Y-94736663D01*
X90493366Y-94746353D01*
X90648974Y-94793556D01*
X90770247Y-94805500D01*
X90770249Y-94805500D01*
X90810800Y-94809494D01*
X90851350Y-94805500D01*
X101421092Y-94805500D01*
X101580392Y-94999608D01*
X101798899Y-95178932D01*
X101931858Y-95250000D01*
X101798899Y-95321068D01*
X101580392Y-95500392D01*
X101401068Y-95718899D01*
X101267818Y-95968192D01*
X101185764Y-96238691D01*
X101158057Y-96520000D01*
X101185764Y-96801309D01*
X101267818Y-97071808D01*
X101344783Y-97215800D01*
X91865605Y-97215800D01*
X91829500Y-97212244D01*
X91685415Y-97226435D01*
X91546866Y-97268463D01*
X91448388Y-97321101D01*
X91419180Y-97336713D01*
X91307262Y-97428562D01*
X91284246Y-97456607D01*
X85587038Y-103153816D01*
X85559608Y-103120392D01*
X85341101Y-102941068D01*
X85208142Y-102870000D01*
X85341101Y-102798932D01*
X85559608Y-102619608D01*
X85738932Y-102401101D01*
X85872182Y-102151808D01*
X85954236Y-101881309D01*
X85981943Y-101600000D01*
X85954236Y-101318691D01*
X85872182Y-101048192D01*
X85738932Y-100798899D01*
X85559608Y-100580392D01*
X85341101Y-100401068D01*
X85213259Y-100332735D01*
X85442839Y-100182601D01*
X85644500Y-99984895D01*
X85803715Y-99751646D01*
X85914367Y-99491818D01*
X85931904Y-99409039D01*
X85809915Y-99187000D01*
X84267000Y-99187000D01*
X84267000Y-99207000D01*
X84013000Y-99207000D01*
X84013000Y-99187000D01*
X82470085Y-99187000D01*
X82348096Y-99409039D01*
X82365633Y-99491818D01*
X82476285Y-99751646D01*
X82635500Y-99984895D01*
X82837161Y-100182601D01*
X83066741Y-100332735D01*
X82938899Y-100401068D01*
X82720392Y-100580392D01*
X82541068Y-100798899D01*
X82505736Y-100865000D01*
X81774264Y-100865000D01*
X81738932Y-100798899D01*
X81559608Y-100580392D01*
X81341101Y-100401068D01*
X81213259Y-100332735D01*
X81442839Y-100182601D01*
X81644500Y-99984895D01*
X81803715Y-99751646D01*
X81914367Y-99491818D01*
X81931904Y-99409039D01*
X81809915Y-99187000D01*
X80267000Y-99187000D01*
X80267000Y-99207000D01*
X80013000Y-99207000D01*
X80013000Y-99187000D01*
X79993000Y-99187000D01*
X79993000Y-98933000D01*
X80013000Y-98933000D01*
X80013000Y-98913000D01*
X80267000Y-98913000D01*
X80267000Y-98933000D01*
X81809915Y-98933000D01*
X81931904Y-98710961D01*
X81914367Y-98628182D01*
X81803715Y-98368354D01*
X81644500Y-98135105D01*
X81442839Y-97937399D01*
X81213259Y-97787265D01*
X81341101Y-97718932D01*
X81559608Y-97539608D01*
X81738932Y-97321101D01*
X81774264Y-97255000D01*
X82505736Y-97255000D01*
X82541068Y-97321101D01*
X82720392Y-97539608D01*
X82938899Y-97718932D01*
X83066741Y-97787265D01*
X82837161Y-97937399D01*
X82635500Y-98135105D01*
X82476285Y-98368354D01*
X82365633Y-98628182D01*
X82348096Y-98710961D01*
X82470085Y-98933000D01*
X84013000Y-98933000D01*
X84013000Y-98913000D01*
X84267000Y-98913000D01*
X84267000Y-98933000D01*
X85809915Y-98933000D01*
X85931904Y-98710961D01*
X85914367Y-98628182D01*
X85803715Y-98368354D01*
X85644500Y-98135105D01*
X85442839Y-97937399D01*
X85213259Y-97787265D01*
X85341101Y-97718932D01*
X85559608Y-97539608D01*
X85738932Y-97321101D01*
X85872182Y-97071808D01*
X85954236Y-96801309D01*
X85981943Y-96520000D01*
X85954236Y-96238691D01*
X85872182Y-95968192D01*
X85738932Y-95718899D01*
X85559608Y-95500392D01*
X85341101Y-95321068D01*
X85208142Y-95250000D01*
X85341101Y-95178932D01*
X85559608Y-94999608D01*
X85738932Y-94781101D01*
X85872182Y-94531808D01*
X85954236Y-94261309D01*
X85981943Y-93980000D01*
X85954236Y-93698691D01*
X85872182Y-93428192D01*
X85738932Y-93178899D01*
X85559608Y-92960392D01*
X85341101Y-92781068D01*
X85208142Y-92710000D01*
X85341101Y-92638932D01*
X85559608Y-92459608D01*
X85738932Y-92241101D01*
X85872182Y-91991808D01*
X85954236Y-91721309D01*
X85981943Y-91440000D01*
X85954236Y-91158691D01*
X85872182Y-90888192D01*
X85738932Y-90638899D01*
X85559608Y-90420392D01*
X85341101Y-90241068D01*
X85208142Y-90170000D01*
X85341101Y-90098932D01*
X85559608Y-89919608D01*
X85570141Y-89906773D01*
X90198411Y-94535045D01*
X90198411Y-94535045D01*
G37*
X90198411Y-94535045D02*
X90224259Y-94566541D01*
X90255755Y-94592389D01*
X90255758Y-94592392D01*
X90349957Y-94669699D01*
X90475237Y-94736663D01*
X90493366Y-94746353D01*
X90648974Y-94793556D01*
X90770247Y-94805500D01*
X90770249Y-94805500D01*
X90810800Y-94809494D01*
X90851350Y-94805500D01*
X101421092Y-94805500D01*
X101580392Y-94999608D01*
X101798899Y-95178932D01*
X101931858Y-95250000D01*
X101798899Y-95321068D01*
X101580392Y-95500392D01*
X101401068Y-95718899D01*
X101267818Y-95968192D01*
X101185764Y-96238691D01*
X101158057Y-96520000D01*
X101185764Y-96801309D01*
X101267818Y-97071808D01*
X101344783Y-97215800D01*
X91865605Y-97215800D01*
X91829500Y-97212244D01*
X91685415Y-97226435D01*
X91546866Y-97268463D01*
X91448388Y-97321101D01*
X91419180Y-97336713D01*
X91307262Y-97428562D01*
X91284246Y-97456607D01*
X85587038Y-103153816D01*
X85559608Y-103120392D01*
X85341101Y-102941068D01*
X85208142Y-102870000D01*
X85341101Y-102798932D01*
X85559608Y-102619608D01*
X85738932Y-102401101D01*
X85872182Y-102151808D01*
X85954236Y-101881309D01*
X85981943Y-101600000D01*
X85954236Y-101318691D01*
X85872182Y-101048192D01*
X85738932Y-100798899D01*
X85559608Y-100580392D01*
X85341101Y-100401068D01*
X85213259Y-100332735D01*
X85442839Y-100182601D01*
X85644500Y-99984895D01*
X85803715Y-99751646D01*
X85914367Y-99491818D01*
X85931904Y-99409039D01*
X85809915Y-99187000D01*
X84267000Y-99187000D01*
X84267000Y-99207000D01*
X84013000Y-99207000D01*
X84013000Y-99187000D01*
X82470085Y-99187000D01*
X82348096Y-99409039D01*
X82365633Y-99491818D01*
X82476285Y-99751646D01*
X82635500Y-99984895D01*
X82837161Y-100182601D01*
X83066741Y-100332735D01*
X82938899Y-100401068D01*
X82720392Y-100580392D01*
X82541068Y-100798899D01*
X82505736Y-100865000D01*
X81774264Y-100865000D01*
X81738932Y-100798899D01*
X81559608Y-100580392D01*
X81341101Y-100401068D01*
X81213259Y-100332735D01*
X81442839Y-100182601D01*
X81644500Y-99984895D01*
X81803715Y-99751646D01*
X81914367Y-99491818D01*
X81931904Y-99409039D01*
X81809915Y-99187000D01*
X80267000Y-99187000D01*
X80267000Y-99207000D01*
X80013000Y-99207000D01*
X80013000Y-99187000D01*
X79993000Y-99187000D01*
X79993000Y-98933000D01*
X80013000Y-98933000D01*
X80013000Y-98913000D01*
X80267000Y-98913000D01*
X80267000Y-98933000D01*
X81809915Y-98933000D01*
X81931904Y-98710961D01*
X81914367Y-98628182D01*
X81803715Y-98368354D01*
X81644500Y-98135105D01*
X81442839Y-97937399D01*
X81213259Y-97787265D01*
X81341101Y-97718932D01*
X81559608Y-97539608D01*
X81738932Y-97321101D01*
X81774264Y-97255000D01*
X82505736Y-97255000D01*
X82541068Y-97321101D01*
X82720392Y-97539608D01*
X82938899Y-97718932D01*
X83066741Y-97787265D01*
X82837161Y-97937399D01*
X82635500Y-98135105D01*
X82476285Y-98368354D01*
X82365633Y-98628182D01*
X82348096Y-98710961D01*
X82470085Y-98933000D01*
X84013000Y-98933000D01*
X84013000Y-98913000D01*
X84267000Y-98913000D01*
X84267000Y-98933000D01*
X85809915Y-98933000D01*
X85931904Y-98710961D01*
X85914367Y-98628182D01*
X85803715Y-98368354D01*
X85644500Y-98135105D01*
X85442839Y-97937399D01*
X85213259Y-97787265D01*
X85341101Y-97718932D01*
X85559608Y-97539608D01*
X85738932Y-97321101D01*
X85872182Y-97071808D01*
X85954236Y-96801309D01*
X85981943Y-96520000D01*
X85954236Y-96238691D01*
X85872182Y-95968192D01*
X85738932Y-95718899D01*
X85559608Y-95500392D01*
X85341101Y-95321068D01*
X85208142Y-95250000D01*
X85341101Y-95178932D01*
X85559608Y-94999608D01*
X85738932Y-94781101D01*
X85872182Y-94531808D01*
X85954236Y-94261309D01*
X85981943Y-93980000D01*
X85954236Y-93698691D01*
X85872182Y-93428192D01*
X85738932Y-93178899D01*
X85559608Y-92960392D01*
X85341101Y-92781068D01*
X85208142Y-92710000D01*
X85341101Y-92638932D01*
X85559608Y-92459608D01*
X85738932Y-92241101D01*
X85872182Y-91991808D01*
X85954236Y-91721309D01*
X85981943Y-91440000D01*
X85954236Y-91158691D01*
X85872182Y-90888192D01*
X85738932Y-90638899D01*
X85559608Y-90420392D01*
X85341101Y-90241068D01*
X85208142Y-90170000D01*
X85341101Y-90098932D01*
X85559608Y-89919608D01*
X85570141Y-89906773D01*
X90198411Y-94535045D01*
G36*
X131064000Y-100540200D02*
G01*
X131084000Y-100540200D01*
X131084000Y-100794200D01*
X131064000Y-100794200D01*
X131064000Y-100814200D01*
X130810000Y-100814200D01*
X130810000Y-100794200D01*
X130790000Y-100794200D01*
X130790000Y-100540200D01*
X130810000Y-100540200D01*
X130810000Y-100520200D01*
X131064000Y-100520200D01*
X131064000Y-100540200D01*
X131064000Y-100540200D01*
G37*
X131064000Y-100540200D02*
X131084000Y-100540200D01*
X131084000Y-100794200D01*
X131064000Y-100794200D01*
X131064000Y-100814200D01*
X130810000Y-100814200D01*
X130810000Y-100794200D01*
X130790000Y-100794200D01*
X130790000Y-100540200D01*
X130810000Y-100540200D01*
X130810000Y-100520200D01*
X131064000Y-100520200D01*
X131064000Y-100540200D01*
G36*
X101208096Y-88550961D02*
G01*
X101330085Y-88773000D01*
X102873000Y-88773000D01*
X102873000Y-88753000D01*
X103127000Y-88753000D01*
X103127000Y-88773000D01*
X104669915Y-88773000D01*
X104791904Y-88550961D01*
X104783989Y-88513600D01*
X105216011Y-88513600D01*
X105208096Y-88550961D01*
X105330085Y-88773000D01*
X106873000Y-88773000D01*
X106873000Y-88753000D01*
X107127000Y-88753000D01*
X107127000Y-88773000D01*
X108669915Y-88773000D01*
X108791904Y-88550961D01*
X108783989Y-88513600D01*
X125259454Y-88513600D01*
X125323114Y-88667289D01*
X125425438Y-88820428D01*
X125555672Y-88950662D01*
X125708811Y-89052986D01*
X125878971Y-89123468D01*
X126044186Y-89156332D01*
X129398046Y-92510193D01*
X129421062Y-92538238D01*
X129532980Y-92630087D01*
X129592966Y-92662150D01*
X129557147Y-92748626D01*
X129502000Y-93025865D01*
X129502000Y-93308535D01*
X129522944Y-93413824D01*
X128902206Y-94034562D01*
X128914385Y-94021131D01*
X129059070Y-93779881D01*
X129153909Y-93515040D01*
X129032624Y-93293000D01*
X127889000Y-93293000D01*
X127889000Y-94435915D01*
X128111039Y-94557904D01*
X128245087Y-94517246D01*
X128499420Y-94397037D01*
X128655209Y-94281558D01*
X127420068Y-95516700D01*
X118052133Y-95516700D01*
X116058472Y-93523039D01*
X120650096Y-93523039D01*
X120690754Y-93657087D01*
X120810963Y-93911420D01*
X120978481Y-94137414D01*
X121186869Y-94326385D01*
X121428119Y-94471070D01*
X121692960Y-94565909D01*
X121915000Y-94444624D01*
X121915000Y-93301000D01*
X122169000Y-93301000D01*
X122169000Y-94444624D01*
X122391040Y-94565909D01*
X122655881Y-94471070D01*
X122897131Y-94326385D01*
X123105519Y-94137414D01*
X123273037Y-93911420D01*
X123393246Y-93657087D01*
X123433904Y-93523039D01*
X123429510Y-93515040D01*
X126370091Y-93515040D01*
X126464930Y-93779881D01*
X126609615Y-94021131D01*
X126798586Y-94229519D01*
X127024580Y-94397037D01*
X127278913Y-94517246D01*
X127412961Y-94557904D01*
X127635000Y-94435915D01*
X127635000Y-93293000D01*
X126491376Y-93293000D01*
X126370091Y-93515040D01*
X123429510Y-93515040D01*
X123311915Y-93301000D01*
X122169000Y-93301000D01*
X121915000Y-93301000D01*
X120772085Y-93301000D01*
X120650096Y-93523039D01*
X116058472Y-93523039D01*
X115956056Y-93420624D01*
X115977000Y-93315335D01*
X115977000Y-93032665D01*
X115935685Y-92824961D01*
X120650096Y-92824961D01*
X120772085Y-93047000D01*
X121915000Y-93047000D01*
X121915000Y-91903376D01*
X122169000Y-91903376D01*
X122169000Y-93047000D01*
X123311915Y-93047000D01*
X123433904Y-92824961D01*
X123431478Y-92816960D01*
X126370091Y-92816960D01*
X126491376Y-93039000D01*
X127635000Y-93039000D01*
X127635000Y-91896085D01*
X127889000Y-91896085D01*
X127889000Y-93039000D01*
X129032624Y-93039000D01*
X129153909Y-92816960D01*
X129059070Y-92552119D01*
X128914385Y-92310869D01*
X128725414Y-92102481D01*
X128499420Y-91934963D01*
X128245087Y-91814754D01*
X128111039Y-91774096D01*
X127889000Y-91896085D01*
X127635000Y-91896085D01*
X127412961Y-91774096D01*
X127278913Y-91814754D01*
X127024580Y-91934963D01*
X126798586Y-92102481D01*
X126609615Y-92310869D01*
X126464930Y-92552119D01*
X126370091Y-92816960D01*
X123431478Y-92816960D01*
X123393246Y-92690913D01*
X123273037Y-92436580D01*
X123105519Y-92210586D01*
X122897131Y-92021615D01*
X122655881Y-91876930D01*
X122391040Y-91782091D01*
X122169000Y-91903376D01*
X121915000Y-91903376D01*
X121692960Y-91782091D01*
X121428119Y-91876930D01*
X121186869Y-92021615D01*
X120978481Y-92210586D01*
X120810963Y-92436580D01*
X120690754Y-92690913D01*
X120650096Y-92824961D01*
X115935685Y-92824961D01*
X115921853Y-92755426D01*
X115813680Y-92494273D01*
X115656637Y-92259241D01*
X115456759Y-92059363D01*
X115367500Y-91999722D01*
X115367500Y-91173278D01*
X115456759Y-91113637D01*
X115656637Y-90913759D01*
X115813680Y-90678727D01*
X115921853Y-90417574D01*
X115935684Y-90348039D01*
X120650096Y-90348039D01*
X120690754Y-90482087D01*
X120810963Y-90736420D01*
X120978481Y-90962414D01*
X121186869Y-91151385D01*
X121428119Y-91296070D01*
X121692960Y-91390909D01*
X121915000Y-91269624D01*
X121915000Y-90126000D01*
X122169000Y-90126000D01*
X122169000Y-91269624D01*
X122391040Y-91390909D01*
X122655881Y-91296070D01*
X122897131Y-91151385D01*
X123105519Y-90962414D01*
X123273037Y-90736420D01*
X123393246Y-90482087D01*
X123433904Y-90348039D01*
X123311915Y-90126000D01*
X122169000Y-90126000D01*
X121915000Y-90126000D01*
X120772085Y-90126000D01*
X120650096Y-90348039D01*
X115935684Y-90348039D01*
X115977000Y-90140335D01*
X115977000Y-89857665D01*
X115935685Y-89649961D01*
X120650096Y-89649961D01*
X120772085Y-89872000D01*
X121915000Y-89872000D01*
X121915000Y-88728376D01*
X122169000Y-88728376D01*
X122169000Y-89872000D01*
X123311915Y-89872000D01*
X123433904Y-89649961D01*
X123393246Y-89515913D01*
X123273037Y-89261580D01*
X123105519Y-89035586D01*
X122897131Y-88846615D01*
X122655881Y-88701930D01*
X122391040Y-88607091D01*
X122169000Y-88728376D01*
X121915000Y-88728376D01*
X121692960Y-88607091D01*
X121428119Y-88701930D01*
X121186869Y-88846615D01*
X120978481Y-89035586D01*
X120810963Y-89261580D01*
X120690754Y-89515913D01*
X120650096Y-89649961D01*
X115935685Y-89649961D01*
X115921853Y-89580426D01*
X115813680Y-89319273D01*
X115656637Y-89084241D01*
X115456759Y-88884363D01*
X115221727Y-88727320D01*
X114960574Y-88619147D01*
X114683335Y-88564000D01*
X114400665Y-88564000D01*
X114123426Y-88619147D01*
X113862273Y-88727320D01*
X113627241Y-88884363D01*
X113427363Y-89084241D01*
X113270320Y-89319273D01*
X113162147Y-89580426D01*
X113107000Y-89857665D01*
X113107000Y-90140335D01*
X113162147Y-90417574D01*
X113270320Y-90678727D01*
X113427363Y-90913759D01*
X113627241Y-91113637D01*
X113716501Y-91173278D01*
X113716500Y-91999722D01*
X113627241Y-92059363D01*
X113427363Y-92259241D01*
X113270320Y-92494273D01*
X113162147Y-92755426D01*
X113107000Y-93032665D01*
X113107000Y-93315335D01*
X113162147Y-93592574D01*
X113270320Y-93853727D01*
X113427363Y-94088759D01*
X113627241Y-94288637D01*
X113862273Y-94445680D01*
X114123426Y-94553853D01*
X114400665Y-94609000D01*
X114683335Y-94609000D01*
X114788624Y-94588056D01*
X116734867Y-96534300D01*
X112855651Y-96534300D01*
X112715589Y-96440714D01*
X112545429Y-96370232D01*
X112364789Y-96334300D01*
X112180611Y-96334300D01*
X111999971Y-96370232D01*
X111829811Y-96440714D01*
X111676672Y-96543038D01*
X111546438Y-96673272D01*
X111444114Y-96826411D01*
X111373632Y-96996571D01*
X111337700Y-97177211D01*
X111337700Y-97215800D01*
X108655217Y-97215800D01*
X108732182Y-97071808D01*
X108814236Y-96801309D01*
X108841943Y-96520000D01*
X108814236Y-96238691D01*
X108732182Y-95968192D01*
X108598932Y-95718899D01*
X108419608Y-95500392D01*
X108201101Y-95321068D01*
X108068142Y-95250000D01*
X108201101Y-95178932D01*
X108419608Y-94999608D01*
X108598932Y-94781101D01*
X108732182Y-94531808D01*
X108814236Y-94261309D01*
X108841943Y-93980000D01*
X108814236Y-93698691D01*
X108732182Y-93428192D01*
X108598932Y-93178899D01*
X108419608Y-92960392D01*
X108201101Y-92781068D01*
X108068142Y-92710000D01*
X108201101Y-92638932D01*
X108419608Y-92459608D01*
X108598932Y-92241101D01*
X108732182Y-91991808D01*
X108814236Y-91721309D01*
X108841943Y-91440000D01*
X108814236Y-91158691D01*
X108732182Y-90888192D01*
X108598932Y-90638899D01*
X108419608Y-90420392D01*
X108201101Y-90241068D01*
X108073259Y-90172735D01*
X108302839Y-90022601D01*
X108504500Y-89824895D01*
X108663715Y-89591646D01*
X108774367Y-89331818D01*
X108791904Y-89249039D01*
X108669915Y-89027000D01*
X107127000Y-89027000D01*
X107127000Y-89047000D01*
X106873000Y-89047000D01*
X106873000Y-89027000D01*
X105330085Y-89027000D01*
X105208096Y-89249039D01*
X105225633Y-89331818D01*
X105336285Y-89591646D01*
X105495500Y-89824895D01*
X105697161Y-90022601D01*
X105926741Y-90172735D01*
X105798899Y-90241068D01*
X105580392Y-90420392D01*
X105401068Y-90638899D01*
X105365736Y-90705000D01*
X104634264Y-90705000D01*
X104598932Y-90638899D01*
X104419608Y-90420392D01*
X104201101Y-90241068D01*
X104073259Y-90172735D01*
X104302839Y-90022601D01*
X104504500Y-89824895D01*
X104663715Y-89591646D01*
X104774367Y-89331818D01*
X104791904Y-89249039D01*
X104669915Y-89027000D01*
X103127000Y-89027000D01*
X103127000Y-89047000D01*
X102873000Y-89047000D01*
X102873000Y-89027000D01*
X101330085Y-89027000D01*
X101208096Y-89249039D01*
X101225633Y-89331818D01*
X101336285Y-89591646D01*
X101495500Y-89824895D01*
X101697161Y-90022601D01*
X101926741Y-90172735D01*
X101798899Y-90241068D01*
X101580392Y-90420392D01*
X101401068Y-90638899D01*
X101267818Y-90888192D01*
X101185764Y-91158691D01*
X101158057Y-91440000D01*
X101185764Y-91721309D01*
X101267818Y-91991808D01*
X101401068Y-92241101D01*
X101580392Y-92459608D01*
X101798899Y-92638932D01*
X101931858Y-92710000D01*
X101798899Y-92781068D01*
X101580392Y-92960392D01*
X101421092Y-93154500D01*
X91152734Y-93154500D01*
X86511832Y-88513600D01*
X101216011Y-88513600D01*
X101208096Y-88550961D01*
X101208096Y-88550961D01*
G37*
X101208096Y-88550961D02*
X101330085Y-88773000D01*
X102873000Y-88773000D01*
X102873000Y-88753000D01*
X103127000Y-88753000D01*
X103127000Y-88773000D01*
X104669915Y-88773000D01*
X104791904Y-88550961D01*
X104783989Y-88513600D01*
X105216011Y-88513600D01*
X105208096Y-88550961D01*
X105330085Y-88773000D01*
X106873000Y-88773000D01*
X106873000Y-88753000D01*
X107127000Y-88753000D01*
X107127000Y-88773000D01*
X108669915Y-88773000D01*
X108791904Y-88550961D01*
X108783989Y-88513600D01*
X125259454Y-88513600D01*
X125323114Y-88667289D01*
X125425438Y-88820428D01*
X125555672Y-88950662D01*
X125708811Y-89052986D01*
X125878971Y-89123468D01*
X126044186Y-89156332D01*
X129398046Y-92510193D01*
X129421062Y-92538238D01*
X129532980Y-92630087D01*
X129592966Y-92662150D01*
X129557147Y-92748626D01*
X129502000Y-93025865D01*
X129502000Y-93308535D01*
X129522944Y-93413824D01*
X128902206Y-94034562D01*
X128914385Y-94021131D01*
X129059070Y-93779881D01*
X129153909Y-93515040D01*
X129032624Y-93293000D01*
X127889000Y-93293000D01*
X127889000Y-94435915D01*
X128111039Y-94557904D01*
X128245087Y-94517246D01*
X128499420Y-94397037D01*
X128655209Y-94281558D01*
X127420068Y-95516700D01*
X118052133Y-95516700D01*
X116058472Y-93523039D01*
X120650096Y-93523039D01*
X120690754Y-93657087D01*
X120810963Y-93911420D01*
X120978481Y-94137414D01*
X121186869Y-94326385D01*
X121428119Y-94471070D01*
X121692960Y-94565909D01*
X121915000Y-94444624D01*
X121915000Y-93301000D01*
X122169000Y-93301000D01*
X122169000Y-94444624D01*
X122391040Y-94565909D01*
X122655881Y-94471070D01*
X122897131Y-94326385D01*
X123105519Y-94137414D01*
X123273037Y-93911420D01*
X123393246Y-93657087D01*
X123433904Y-93523039D01*
X123429510Y-93515040D01*
X126370091Y-93515040D01*
X126464930Y-93779881D01*
X126609615Y-94021131D01*
X126798586Y-94229519D01*
X127024580Y-94397037D01*
X127278913Y-94517246D01*
X127412961Y-94557904D01*
X127635000Y-94435915D01*
X127635000Y-93293000D01*
X126491376Y-93293000D01*
X126370091Y-93515040D01*
X123429510Y-93515040D01*
X123311915Y-93301000D01*
X122169000Y-93301000D01*
X121915000Y-93301000D01*
X120772085Y-93301000D01*
X120650096Y-93523039D01*
X116058472Y-93523039D01*
X115956056Y-93420624D01*
X115977000Y-93315335D01*
X115977000Y-93032665D01*
X115935685Y-92824961D01*
X120650096Y-92824961D01*
X120772085Y-93047000D01*
X121915000Y-93047000D01*
X121915000Y-91903376D01*
X122169000Y-91903376D01*
X122169000Y-93047000D01*
X123311915Y-93047000D01*
X123433904Y-92824961D01*
X123431478Y-92816960D01*
X126370091Y-92816960D01*
X126491376Y-93039000D01*
X127635000Y-93039000D01*
X127635000Y-91896085D01*
X127889000Y-91896085D01*
X127889000Y-93039000D01*
X129032624Y-93039000D01*
X129153909Y-92816960D01*
X129059070Y-92552119D01*
X128914385Y-92310869D01*
X128725414Y-92102481D01*
X128499420Y-91934963D01*
X128245087Y-91814754D01*
X128111039Y-91774096D01*
X127889000Y-91896085D01*
X127635000Y-91896085D01*
X127412961Y-91774096D01*
X127278913Y-91814754D01*
X127024580Y-91934963D01*
X126798586Y-92102481D01*
X126609615Y-92310869D01*
X126464930Y-92552119D01*
X126370091Y-92816960D01*
X123431478Y-92816960D01*
X123393246Y-92690913D01*
X123273037Y-92436580D01*
X123105519Y-92210586D01*
X122897131Y-92021615D01*
X122655881Y-91876930D01*
X122391040Y-91782091D01*
X122169000Y-91903376D01*
X121915000Y-91903376D01*
X121692960Y-91782091D01*
X121428119Y-91876930D01*
X121186869Y-92021615D01*
X120978481Y-92210586D01*
X120810963Y-92436580D01*
X120690754Y-92690913D01*
X120650096Y-92824961D01*
X115935685Y-92824961D01*
X115921853Y-92755426D01*
X115813680Y-92494273D01*
X115656637Y-92259241D01*
X115456759Y-92059363D01*
X115367500Y-91999722D01*
X115367500Y-91173278D01*
X115456759Y-91113637D01*
X115656637Y-90913759D01*
X115813680Y-90678727D01*
X115921853Y-90417574D01*
X115935684Y-90348039D01*
X120650096Y-90348039D01*
X120690754Y-90482087D01*
X120810963Y-90736420D01*
X120978481Y-90962414D01*
X121186869Y-91151385D01*
X121428119Y-91296070D01*
X121692960Y-91390909D01*
X121915000Y-91269624D01*
X121915000Y-90126000D01*
X122169000Y-90126000D01*
X122169000Y-91269624D01*
X122391040Y-91390909D01*
X122655881Y-91296070D01*
X122897131Y-91151385D01*
X123105519Y-90962414D01*
X123273037Y-90736420D01*
X123393246Y-90482087D01*
X123433904Y-90348039D01*
X123311915Y-90126000D01*
X122169000Y-90126000D01*
X121915000Y-90126000D01*
X120772085Y-90126000D01*
X120650096Y-90348039D01*
X115935684Y-90348039D01*
X115977000Y-90140335D01*
X115977000Y-89857665D01*
X115935685Y-89649961D01*
X120650096Y-89649961D01*
X120772085Y-89872000D01*
X121915000Y-89872000D01*
X121915000Y-88728376D01*
X122169000Y-88728376D01*
X122169000Y-89872000D01*
X123311915Y-89872000D01*
X123433904Y-89649961D01*
X123393246Y-89515913D01*
X123273037Y-89261580D01*
X123105519Y-89035586D01*
X122897131Y-88846615D01*
X122655881Y-88701930D01*
X122391040Y-88607091D01*
X122169000Y-88728376D01*
X121915000Y-88728376D01*
X121692960Y-88607091D01*
X121428119Y-88701930D01*
X121186869Y-88846615D01*
X120978481Y-89035586D01*
X120810963Y-89261580D01*
X120690754Y-89515913D01*
X120650096Y-89649961D01*
X115935685Y-89649961D01*
X115921853Y-89580426D01*
X115813680Y-89319273D01*
X115656637Y-89084241D01*
X115456759Y-88884363D01*
X115221727Y-88727320D01*
X114960574Y-88619147D01*
X114683335Y-88564000D01*
X114400665Y-88564000D01*
X114123426Y-88619147D01*
X113862273Y-88727320D01*
X113627241Y-88884363D01*
X113427363Y-89084241D01*
X113270320Y-89319273D01*
X113162147Y-89580426D01*
X113107000Y-89857665D01*
X113107000Y-90140335D01*
X113162147Y-90417574D01*
X113270320Y-90678727D01*
X113427363Y-90913759D01*
X113627241Y-91113637D01*
X113716501Y-91173278D01*
X113716500Y-91999722D01*
X113627241Y-92059363D01*
X113427363Y-92259241D01*
X113270320Y-92494273D01*
X113162147Y-92755426D01*
X113107000Y-93032665D01*
X113107000Y-93315335D01*
X113162147Y-93592574D01*
X113270320Y-93853727D01*
X113427363Y-94088759D01*
X113627241Y-94288637D01*
X113862273Y-94445680D01*
X114123426Y-94553853D01*
X114400665Y-94609000D01*
X114683335Y-94609000D01*
X114788624Y-94588056D01*
X116734867Y-96534300D01*
X112855651Y-96534300D01*
X112715589Y-96440714D01*
X112545429Y-96370232D01*
X112364789Y-96334300D01*
X112180611Y-96334300D01*
X111999971Y-96370232D01*
X111829811Y-96440714D01*
X111676672Y-96543038D01*
X111546438Y-96673272D01*
X111444114Y-96826411D01*
X111373632Y-96996571D01*
X111337700Y-97177211D01*
X111337700Y-97215800D01*
X108655217Y-97215800D01*
X108732182Y-97071808D01*
X108814236Y-96801309D01*
X108841943Y-96520000D01*
X108814236Y-96238691D01*
X108732182Y-95968192D01*
X108598932Y-95718899D01*
X108419608Y-95500392D01*
X108201101Y-95321068D01*
X108068142Y-95250000D01*
X108201101Y-95178932D01*
X108419608Y-94999608D01*
X108598932Y-94781101D01*
X108732182Y-94531808D01*
X108814236Y-94261309D01*
X108841943Y-93980000D01*
X108814236Y-93698691D01*
X108732182Y-93428192D01*
X108598932Y-93178899D01*
X108419608Y-92960392D01*
X108201101Y-92781068D01*
X108068142Y-92710000D01*
X108201101Y-92638932D01*
X108419608Y-92459608D01*
X108598932Y-92241101D01*
X108732182Y-91991808D01*
X108814236Y-91721309D01*
X108841943Y-91440000D01*
X108814236Y-91158691D01*
X108732182Y-90888192D01*
X108598932Y-90638899D01*
X108419608Y-90420392D01*
X108201101Y-90241068D01*
X108073259Y-90172735D01*
X108302839Y-90022601D01*
X108504500Y-89824895D01*
X108663715Y-89591646D01*
X108774367Y-89331818D01*
X108791904Y-89249039D01*
X108669915Y-89027000D01*
X107127000Y-89027000D01*
X107127000Y-89047000D01*
X106873000Y-89047000D01*
X106873000Y-89027000D01*
X105330085Y-89027000D01*
X105208096Y-89249039D01*
X105225633Y-89331818D01*
X105336285Y-89591646D01*
X105495500Y-89824895D01*
X105697161Y-90022601D01*
X105926741Y-90172735D01*
X105798899Y-90241068D01*
X105580392Y-90420392D01*
X105401068Y-90638899D01*
X105365736Y-90705000D01*
X104634264Y-90705000D01*
X104598932Y-90638899D01*
X104419608Y-90420392D01*
X104201101Y-90241068D01*
X104073259Y-90172735D01*
X104302839Y-90022601D01*
X104504500Y-89824895D01*
X104663715Y-89591646D01*
X104774367Y-89331818D01*
X104791904Y-89249039D01*
X104669915Y-89027000D01*
X103127000Y-89027000D01*
X103127000Y-89047000D01*
X102873000Y-89047000D01*
X102873000Y-89027000D01*
X101330085Y-89027000D01*
X101208096Y-89249039D01*
X101225633Y-89331818D01*
X101336285Y-89591646D01*
X101495500Y-89824895D01*
X101697161Y-90022601D01*
X101926741Y-90172735D01*
X101798899Y-90241068D01*
X101580392Y-90420392D01*
X101401068Y-90638899D01*
X101267818Y-90888192D01*
X101185764Y-91158691D01*
X101158057Y-91440000D01*
X101185764Y-91721309D01*
X101267818Y-91991808D01*
X101401068Y-92241101D01*
X101580392Y-92459608D01*
X101798899Y-92638932D01*
X101931858Y-92710000D01*
X101798899Y-92781068D01*
X101580392Y-92960392D01*
X101421092Y-93154500D01*
X91152734Y-93154500D01*
X86511832Y-88513600D01*
X101216011Y-88513600D01*
X101208096Y-88550961D01*
G36*
X142160096Y-92824961D02*
G01*
X142282085Y-93047000D01*
X143425000Y-93047000D01*
X143425000Y-93027000D01*
X143679000Y-93027000D01*
X143679000Y-93047000D01*
X143699000Y-93047000D01*
X143699000Y-93301000D01*
X143679000Y-93301000D01*
X143679000Y-93321000D01*
X143425000Y-93321000D01*
X143425000Y-93301000D01*
X142282085Y-93301000D01*
X142160096Y-93523039D01*
X142200754Y-93657087D01*
X142320963Y-93911420D01*
X142488481Y-94137414D01*
X142696869Y-94326385D01*
X142834455Y-94408899D01*
X142834354Y-94409000D01*
X138408094Y-94409000D01*
X138371999Y-94405445D01*
X138335904Y-94409000D01*
X138335895Y-94409000D01*
X138227915Y-94419635D01*
X138089367Y-94461663D01*
X137961680Y-94529913D01*
X137849762Y-94621762D01*
X137826746Y-94649807D01*
X137389900Y-95086653D01*
X137389900Y-94932511D01*
X137353968Y-94751871D01*
X137283486Y-94581711D01*
X137181162Y-94428572D01*
X137050928Y-94298338D01*
X136994657Y-94260739D01*
X137166637Y-94088759D01*
X137323680Y-93853727D01*
X137431853Y-93592574D01*
X137487000Y-93315335D01*
X137487000Y-93032665D01*
X137431853Y-92755426D01*
X137430020Y-92751000D01*
X142182529Y-92751000D01*
X142160096Y-92824961D01*
X142160096Y-92824961D01*
G37*
X142160096Y-92824961D02*
X142282085Y-93047000D01*
X143425000Y-93047000D01*
X143425000Y-93027000D01*
X143679000Y-93027000D01*
X143679000Y-93047000D01*
X143699000Y-93047000D01*
X143699000Y-93301000D01*
X143679000Y-93301000D01*
X143679000Y-93321000D01*
X143425000Y-93321000D01*
X143425000Y-93301000D01*
X142282085Y-93301000D01*
X142160096Y-93523039D01*
X142200754Y-93657087D01*
X142320963Y-93911420D01*
X142488481Y-94137414D01*
X142696869Y-94326385D01*
X142834455Y-94408899D01*
X142834354Y-94409000D01*
X138408094Y-94409000D01*
X138371999Y-94405445D01*
X138335904Y-94409000D01*
X138335895Y-94409000D01*
X138227915Y-94419635D01*
X138089367Y-94461663D01*
X137961680Y-94529913D01*
X137849762Y-94621762D01*
X137826746Y-94649807D01*
X137389900Y-95086653D01*
X137389900Y-94932511D01*
X137353968Y-94751871D01*
X137283486Y-94581711D01*
X137181162Y-94428572D01*
X137050928Y-94298338D01*
X136994657Y-94260739D01*
X137166637Y-94088759D01*
X137323680Y-93853727D01*
X137431853Y-93592574D01*
X137487000Y-93315335D01*
X137487000Y-93032665D01*
X137431853Y-92755426D01*
X137430020Y-92751000D01*
X142182529Y-92751000D01*
X142160096Y-92824961D01*
G36*
X134566993Y-40661439D02*
G01*
X134377426Y-40699147D01*
X134116273Y-40807320D01*
X133881241Y-40964363D01*
X133681363Y-41164241D01*
X133524320Y-41399273D01*
X133416147Y-41660426D01*
X133361000Y-41937665D01*
X133361000Y-42220335D01*
X133416147Y-42497574D01*
X133524320Y-42758727D01*
X133681363Y-42993759D01*
X133881241Y-43193637D01*
X134116273Y-43350680D01*
X134377426Y-43458853D01*
X134654665Y-43514000D01*
X134937335Y-43514000D01*
X135214574Y-43458853D01*
X135475727Y-43350680D01*
X135710759Y-43193637D01*
X135910637Y-42993759D01*
X136067680Y-42758727D01*
X136175853Y-42497574D01*
X136213561Y-42308007D01*
X138119400Y-44213847D01*
X138119401Y-55919885D01*
X138115844Y-55956000D01*
X138130035Y-56100085D01*
X138159566Y-56197434D01*
X138172064Y-56238633D01*
X138240314Y-56366320D01*
X138332163Y-56478238D01*
X138360208Y-56501254D01*
X140439646Y-58580693D01*
X140462662Y-58608738D01*
X140574580Y-58700587D01*
X140702267Y-58768837D01*
X140798786Y-58798116D01*
X140840814Y-58810865D01*
X140984900Y-58825056D01*
X141021005Y-58821500D01*
X142294840Y-58821500D01*
X142292754Y-58825913D01*
X142252096Y-58959961D01*
X142374085Y-59182000D01*
X143517000Y-59182000D01*
X143517000Y-59162000D01*
X143771000Y-59162000D01*
X143771000Y-59182000D01*
X143791000Y-59182000D01*
X143791000Y-59436000D01*
X143771000Y-59436000D01*
X143771000Y-60579624D01*
X143993040Y-60700909D01*
X144257881Y-60606070D01*
X144499131Y-60461385D01*
X144643600Y-60330377D01*
X144643601Y-83298385D01*
X144640044Y-83334500D01*
X144654235Y-83478585D01*
X144675645Y-83549162D01*
X144696264Y-83617133D01*
X144764514Y-83744820D01*
X144856363Y-83856738D01*
X144884408Y-83879754D01*
X145076054Y-84071400D01*
X144322708Y-84824746D01*
X144294662Y-84847763D01*
X144202813Y-84959681D01*
X144134563Y-85087368D01*
X144107980Y-85175000D01*
X144092535Y-85225915D01*
X144078344Y-85370000D01*
X144081900Y-85406100D01*
X144081901Y-88671857D01*
X143901040Y-88607091D01*
X143679000Y-88728376D01*
X143679000Y-89872000D01*
X143699000Y-89872000D01*
X143699000Y-90126000D01*
X143679000Y-90126000D01*
X143679000Y-90146000D01*
X143425000Y-90146000D01*
X143425000Y-90126000D01*
X142282085Y-90126000D01*
X142160096Y-90348039D01*
X142165058Y-90364400D01*
X141571947Y-90364400D01*
X140857508Y-89649961D01*
X142160096Y-89649961D01*
X142282085Y-89872000D01*
X143425000Y-89872000D01*
X143425000Y-88728376D01*
X143202960Y-88607091D01*
X142938119Y-88701930D01*
X142696869Y-88846615D01*
X142488481Y-89035586D01*
X142320963Y-89261580D01*
X142200754Y-89515913D01*
X142160096Y-89649961D01*
X140857508Y-89649961D01*
X134369218Y-83161672D01*
X134408862Y-83122028D01*
X134436067Y-83081313D01*
X138732446Y-87377693D01*
X138755462Y-87405738D01*
X138867380Y-87497587D01*
X138995067Y-87565837D01*
X139133615Y-87607865D01*
X139241595Y-87618500D01*
X139241604Y-87618500D01*
X139277699Y-87622055D01*
X139313794Y-87618500D01*
X139935649Y-87618500D01*
X140075711Y-87712086D01*
X140245871Y-87782568D01*
X140426511Y-87818500D01*
X140610689Y-87818500D01*
X140791329Y-87782568D01*
X140961489Y-87712086D01*
X141114628Y-87609762D01*
X141244862Y-87479528D01*
X141347186Y-87326389D01*
X141417668Y-87156229D01*
X141453600Y-86975589D01*
X141453600Y-86845000D01*
X142471510Y-86845000D01*
X142478672Y-86852162D01*
X142631811Y-86954486D01*
X142801971Y-87024968D01*
X142982611Y-87060900D01*
X143166789Y-87060900D01*
X143347429Y-87024968D01*
X143517589Y-86954486D01*
X143670728Y-86852162D01*
X143800962Y-86721928D01*
X143903286Y-86568789D01*
X143973768Y-86398629D01*
X144009700Y-86217989D01*
X144009700Y-86033811D01*
X143973768Y-85853171D01*
X143903286Y-85683011D01*
X143858639Y-85616192D01*
X143898968Y-85518829D01*
X143934900Y-85338189D01*
X143934900Y-85154011D01*
X143898968Y-84973371D01*
X143828486Y-84803211D01*
X143726162Y-84650072D01*
X143595928Y-84519838D01*
X143442789Y-84417514D01*
X143272629Y-84347032D01*
X143224007Y-84337360D01*
X141716657Y-82830011D01*
X141850228Y-82740762D01*
X141980462Y-82610528D01*
X142082786Y-82457389D01*
X142153268Y-82287229D01*
X142189200Y-82106589D01*
X142189200Y-81922411D01*
X142153268Y-81741771D01*
X142082786Y-81571611D01*
X141980462Y-81418472D01*
X141850228Y-81288238D01*
X141697089Y-81185914D01*
X141526929Y-81115432D01*
X141361715Y-81082569D01*
X136917359Y-76638213D01*
X136894338Y-76610162D01*
X136782420Y-76518313D01*
X136654733Y-76450063D01*
X136516185Y-76408035D01*
X136408205Y-76397400D01*
X136372100Y-76393844D01*
X136335995Y-76397400D01*
X126839051Y-76397400D01*
X126698989Y-76303814D01*
X126528829Y-76233332D01*
X126363615Y-76200469D01*
X125049147Y-74886000D01*
X142449449Y-74886000D01*
X142589511Y-74979586D01*
X142759671Y-75050068D01*
X142940311Y-75086000D01*
X143124489Y-75086000D01*
X143305129Y-75050068D01*
X143475289Y-74979586D01*
X143628428Y-74877262D01*
X143758662Y-74747028D01*
X143860986Y-74593889D01*
X143931468Y-74423729D01*
X143967400Y-74243089D01*
X143967400Y-74058911D01*
X143931468Y-73878271D01*
X143860986Y-73708111D01*
X143758662Y-73554972D01*
X143628428Y-73424738D01*
X143475289Y-73322414D01*
X143305129Y-73251932D01*
X143124489Y-73216000D01*
X142940311Y-73216000D01*
X142759671Y-73251932D01*
X142589511Y-73322414D01*
X142449449Y-73416000D01*
X133256800Y-73416000D01*
X133256800Y-73402800D01*
X141653095Y-73402800D01*
X141689200Y-73406356D01*
X141725305Y-73402800D01*
X141833285Y-73392165D01*
X141971833Y-73350137D01*
X142099520Y-73281887D01*
X142211438Y-73190038D01*
X142234458Y-73161988D01*
X143166515Y-72229931D01*
X143331729Y-72197068D01*
X143501889Y-72126586D01*
X143655028Y-72024262D01*
X143785262Y-71894028D01*
X143887586Y-71740889D01*
X143958068Y-71570729D01*
X143994000Y-71390089D01*
X143994000Y-71205911D01*
X143958068Y-71025271D01*
X143887586Y-70855111D01*
X143785262Y-70701972D01*
X143655028Y-70571738D01*
X143501889Y-70469414D01*
X143331729Y-70398932D01*
X143151089Y-70363000D01*
X142966911Y-70363000D01*
X142786271Y-70398932D01*
X142616111Y-70469414D01*
X142462972Y-70571738D01*
X142332738Y-70701972D01*
X142230414Y-70855111D01*
X142159932Y-71025271D01*
X142127069Y-71190485D01*
X141384754Y-71932800D01*
X134768746Y-71932800D01*
X139616593Y-67084954D01*
X139644638Y-67061938D01*
X139736487Y-66950020D01*
X139804737Y-66822333D01*
X139846765Y-66683785D01*
X139857400Y-66575805D01*
X139860956Y-66539700D01*
X139857400Y-66503595D01*
X139857400Y-62439951D01*
X139950986Y-62299889D01*
X140021468Y-62129729D01*
X140057400Y-61949089D01*
X140057400Y-61764911D01*
X140021468Y-61584271D01*
X139950986Y-61414111D01*
X139848662Y-61260972D01*
X139718428Y-61130738D01*
X139565289Y-61028414D01*
X139395129Y-60957932D01*
X139214489Y-60922000D01*
X139030311Y-60922000D01*
X138849671Y-60957932D01*
X138679511Y-61028414D01*
X138526372Y-61130738D01*
X138396138Y-61260972D01*
X138293814Y-61414111D01*
X138223332Y-61584271D01*
X138187400Y-61764911D01*
X138187400Y-61949089D01*
X138223332Y-62129729D01*
X138293814Y-62299889D01*
X138387400Y-62439951D01*
X138387401Y-66235252D01*
X134443944Y-70178709D01*
X134442900Y-70168106D01*
X134442900Y-69526005D01*
X134446456Y-69489900D01*
X134432265Y-69345815D01*
X134422019Y-69312038D01*
X134390237Y-69207267D01*
X134321987Y-69079580D01*
X134312090Y-69067521D01*
X134366837Y-69012774D01*
X134480105Y-68843256D01*
X134558126Y-68654898D01*
X134590328Y-68493005D01*
X134992444Y-68090889D01*
X135023941Y-68065041D01*
X135049789Y-68033545D01*
X135049792Y-68033542D01*
X135127099Y-67939343D01*
X135203753Y-67795934D01*
X135211212Y-67771344D01*
X135250956Y-67640326D01*
X135262900Y-67519053D01*
X135262900Y-67519051D01*
X135266894Y-67478500D01*
X135262900Y-67437950D01*
X135262900Y-61299007D01*
X135352342Y-61251199D01*
X135478041Y-61148041D01*
X135503898Y-61116534D01*
X135897376Y-60723056D01*
X136002665Y-60744000D01*
X136285335Y-60744000D01*
X136562574Y-60688853D01*
X136823727Y-60580680D01*
X137058759Y-60423637D01*
X137258637Y-60223759D01*
X137415680Y-59988727D01*
X137523853Y-59727574D01*
X137537684Y-59658039D01*
X142252096Y-59658039D01*
X142292754Y-59792087D01*
X142412963Y-60046420D01*
X142580481Y-60272414D01*
X142788869Y-60461385D01*
X143030119Y-60606070D01*
X143294960Y-60700909D01*
X143517000Y-60579624D01*
X143517000Y-59436000D01*
X142374085Y-59436000D01*
X142252096Y-59658039D01*
X137537684Y-59658039D01*
X137579000Y-59450335D01*
X137579000Y-59167665D01*
X137523853Y-58890426D01*
X137415680Y-58629273D01*
X137258637Y-58394241D01*
X137058759Y-58194363D01*
X136823727Y-58037320D01*
X136562574Y-57929147D01*
X136285335Y-57874000D01*
X136002665Y-57874000D01*
X135725426Y-57929147D01*
X135464273Y-58037320D01*
X135229241Y-58194363D01*
X135029363Y-58394241D01*
X134872320Y-58629273D01*
X134764147Y-58890426D01*
X134709000Y-59167665D01*
X134709000Y-59450335D01*
X134729944Y-59555624D01*
X134549568Y-59736000D01*
X134477953Y-59736000D01*
X134437400Y-59732006D01*
X134396847Y-59736000D01*
X123676258Y-59736000D01*
X123699904Y-59658039D01*
X123577915Y-59436000D01*
X122435000Y-59436000D01*
X122435000Y-59456000D01*
X122181000Y-59456000D01*
X122181000Y-59436000D01*
X122161000Y-59436000D01*
X122161000Y-59182000D01*
X122181000Y-59182000D01*
X122181000Y-58038376D01*
X122435000Y-58038376D01*
X122435000Y-59182000D01*
X123577915Y-59182000D01*
X123699904Y-58959961D01*
X123659246Y-58825913D01*
X123539037Y-58571580D01*
X123371519Y-58345586D01*
X123163131Y-58156615D01*
X122921881Y-58011930D01*
X122657040Y-57917091D01*
X122435000Y-58038376D01*
X122181000Y-58038376D01*
X121958960Y-57917091D01*
X121694119Y-58011930D01*
X121452869Y-58156615D01*
X121244481Y-58345586D01*
X121076963Y-58571580D01*
X121055732Y-58616499D01*
X120713500Y-58274268D01*
X120713500Y-57058908D01*
X120907608Y-56899608D01*
X121086932Y-56681101D01*
X121158000Y-56548142D01*
X121229068Y-56681101D01*
X121408392Y-56899608D01*
X121626899Y-57078932D01*
X121876192Y-57212182D01*
X122146691Y-57294236D01*
X122357508Y-57315000D01*
X122498492Y-57315000D01*
X122709309Y-57294236D01*
X122979808Y-57212182D01*
X123229101Y-57078932D01*
X123447608Y-56899608D01*
X123626932Y-56681101D01*
X123760182Y-56431808D01*
X123842236Y-56161309D01*
X123869943Y-55880000D01*
X123849769Y-55675165D01*
X124295000Y-55675165D01*
X124295000Y-55957835D01*
X124350147Y-56235074D01*
X124458320Y-56496227D01*
X124615363Y-56731259D01*
X124815241Y-56931137D01*
X125050273Y-57088180D01*
X125311426Y-57196353D01*
X125588665Y-57251500D01*
X125871335Y-57251500D01*
X126148574Y-57196353D01*
X126409727Y-57088180D01*
X126644759Y-56931137D01*
X126844637Y-56731259D01*
X127001680Y-56496227D01*
X127109853Y-56235074D01*
X127165000Y-55957835D01*
X127165000Y-55675165D01*
X127109853Y-55397926D01*
X127001680Y-55136773D01*
X126844637Y-54901741D01*
X126644759Y-54701863D01*
X126409727Y-54544820D01*
X126148574Y-54436647D01*
X125871335Y-54381500D01*
X125588665Y-54381500D01*
X125311426Y-54436647D01*
X125050273Y-54544820D01*
X124815241Y-54701863D01*
X124615363Y-54901741D01*
X124458320Y-55136773D01*
X124350147Y-55397926D01*
X124295000Y-55675165D01*
X123849769Y-55675165D01*
X123842236Y-55598691D01*
X123760182Y-55328192D01*
X123626932Y-55078899D01*
X123447608Y-54860392D01*
X123229101Y-54681068D01*
X122979808Y-54547818D01*
X122709309Y-54465764D01*
X122498492Y-54445000D01*
X122357508Y-54445000D01*
X122146691Y-54465764D01*
X121876192Y-54547818D01*
X121626899Y-54681068D01*
X121408392Y-54860392D01*
X121229068Y-55078899D01*
X121158000Y-55211858D01*
X121086932Y-55078899D01*
X120907608Y-54860392D01*
X120689101Y-54681068D01*
X120439808Y-54547818D01*
X120169309Y-54465764D01*
X119958492Y-54445000D01*
X119817508Y-54445000D01*
X119606691Y-54465764D01*
X119336192Y-54547818D01*
X119086899Y-54681068D01*
X118868392Y-54860392D01*
X118709092Y-55054500D01*
X118526908Y-55054500D01*
X118367608Y-54860392D01*
X118149101Y-54681068D01*
X117937753Y-54568100D01*
X118980395Y-54568100D01*
X119016500Y-54571656D01*
X119052605Y-54568100D01*
X119160585Y-54557465D01*
X119299133Y-54515437D01*
X119426820Y-54447187D01*
X119538738Y-54355338D01*
X119561759Y-54327287D01*
X122869415Y-51019631D01*
X123034629Y-50986768D01*
X123204789Y-50916286D01*
X123357928Y-50813962D01*
X123488162Y-50683728D01*
X123590486Y-50530589D01*
X123660968Y-50360429D01*
X123689279Y-50218100D01*
X123710949Y-50218100D01*
X123851011Y-50311686D01*
X124021171Y-50382168D01*
X124201811Y-50418100D01*
X124385989Y-50418100D01*
X124566629Y-50382168D01*
X124736789Y-50311686D01*
X124889928Y-50209362D01*
X125020162Y-50079128D01*
X125122486Y-49925989D01*
X125192968Y-49755829D01*
X125213619Y-49652010D01*
X125246913Y-49667746D01*
X125380961Y-49708404D01*
X125603000Y-49586415D01*
X125603000Y-48443500D01*
X125857000Y-48443500D01*
X125857000Y-49586415D01*
X126079039Y-49708404D01*
X126213087Y-49667746D01*
X126467420Y-49547537D01*
X126693414Y-49380019D01*
X126882385Y-49171631D01*
X127027070Y-48930381D01*
X127121909Y-48665540D01*
X127000624Y-48443500D01*
X125857000Y-48443500D01*
X125603000Y-48443500D01*
X124459376Y-48443500D01*
X124400648Y-48551016D01*
X124385989Y-48548100D01*
X124201811Y-48548100D01*
X124021171Y-48584032D01*
X123863619Y-48649292D01*
X123863000Y-48545750D01*
X123704250Y-48387000D01*
X122555000Y-48387000D01*
X122555000Y-48407000D01*
X122301000Y-48407000D01*
X122301000Y-48387000D01*
X122281000Y-48387000D01*
X122281000Y-48133000D01*
X122301000Y-48133000D01*
X122301000Y-48113000D01*
X122555000Y-48113000D01*
X122555000Y-48133000D01*
X123704250Y-48133000D01*
X123863000Y-47974250D01*
X123863040Y-47967460D01*
X124338091Y-47967460D01*
X124459376Y-48189500D01*
X125603000Y-48189500D01*
X125603000Y-47046585D01*
X125857000Y-47046585D01*
X125857000Y-48189500D01*
X127000624Y-48189500D01*
X127121909Y-47967460D01*
X127027070Y-47702619D01*
X126882385Y-47461369D01*
X126693414Y-47252981D01*
X126467420Y-47085463D01*
X126213087Y-46965254D01*
X126079039Y-46924596D01*
X125857000Y-47046585D01*
X125603000Y-47046585D01*
X125380961Y-46924596D01*
X125246913Y-46965254D01*
X124992580Y-47085463D01*
X124766586Y-47252981D01*
X124577615Y-47461369D01*
X124432930Y-47702619D01*
X124338091Y-47967460D01*
X123863040Y-47967460D01*
X123866072Y-47460000D01*
X123853812Y-47335518D01*
X123817502Y-47215820D01*
X123758537Y-47105506D01*
X123679185Y-47008815D01*
X123582494Y-46929463D01*
X123472180Y-46870498D01*
X123352482Y-46834188D01*
X123228000Y-46821928D01*
X122858612Y-46824135D01*
X129243252Y-40439495D01*
X129348392Y-40567608D01*
X129566899Y-40746932D01*
X129699858Y-40818000D01*
X129566899Y-40889068D01*
X129348392Y-41068392D01*
X129169068Y-41286899D01*
X129035818Y-41536192D01*
X128953764Y-41806691D01*
X128926057Y-42088000D01*
X128953764Y-42369309D01*
X129035818Y-42639808D01*
X129169068Y-42889101D01*
X129348392Y-43107608D01*
X129566899Y-43286932D01*
X129816192Y-43420182D01*
X130086691Y-43502236D01*
X130297508Y-43523000D01*
X130438492Y-43523000D01*
X130649309Y-43502236D01*
X130919808Y-43420182D01*
X131169101Y-43286932D01*
X131387608Y-43107608D01*
X131566932Y-42889101D01*
X131700182Y-42639808D01*
X131782236Y-42369309D01*
X131809943Y-42088000D01*
X131782236Y-41806691D01*
X131700182Y-41536192D01*
X131566932Y-41286899D01*
X131387608Y-41068392D01*
X131169101Y-40889068D01*
X131036142Y-40818000D01*
X131169101Y-40746932D01*
X131387608Y-40567608D01*
X131566932Y-40349101D01*
X131700182Y-40099808D01*
X131782236Y-39829309D01*
X131809943Y-39548000D01*
X131782236Y-39266691D01*
X131700182Y-38996192D01*
X131566932Y-38746899D01*
X131387608Y-38528392D01*
X131169101Y-38349068D01*
X131077835Y-38300285D01*
X131092365Y-38252385D01*
X131092826Y-38247702D01*
X131169101Y-38206932D01*
X131387608Y-38027608D01*
X131566932Y-37809101D01*
X131618388Y-37712834D01*
X134566993Y-40661439D01*
X134566993Y-40661439D01*
G37*
X134566993Y-40661439D02*
X134377426Y-40699147D01*
X134116273Y-40807320D01*
X133881241Y-40964363D01*
X133681363Y-41164241D01*
X133524320Y-41399273D01*
X133416147Y-41660426D01*
X133361000Y-41937665D01*
X133361000Y-42220335D01*
X133416147Y-42497574D01*
X133524320Y-42758727D01*
X133681363Y-42993759D01*
X133881241Y-43193637D01*
X134116273Y-43350680D01*
X134377426Y-43458853D01*
X134654665Y-43514000D01*
X134937335Y-43514000D01*
X135214574Y-43458853D01*
X135475727Y-43350680D01*
X135710759Y-43193637D01*
X135910637Y-42993759D01*
X136067680Y-42758727D01*
X136175853Y-42497574D01*
X136213561Y-42308007D01*
X138119400Y-44213847D01*
X138119401Y-55919885D01*
X138115844Y-55956000D01*
X138130035Y-56100085D01*
X138159566Y-56197434D01*
X138172064Y-56238633D01*
X138240314Y-56366320D01*
X138332163Y-56478238D01*
X138360208Y-56501254D01*
X140439646Y-58580693D01*
X140462662Y-58608738D01*
X140574580Y-58700587D01*
X140702267Y-58768837D01*
X140798786Y-58798116D01*
X140840814Y-58810865D01*
X140984900Y-58825056D01*
X141021005Y-58821500D01*
X142294840Y-58821500D01*
X142292754Y-58825913D01*
X142252096Y-58959961D01*
X142374085Y-59182000D01*
X143517000Y-59182000D01*
X143517000Y-59162000D01*
X143771000Y-59162000D01*
X143771000Y-59182000D01*
X143791000Y-59182000D01*
X143791000Y-59436000D01*
X143771000Y-59436000D01*
X143771000Y-60579624D01*
X143993040Y-60700909D01*
X144257881Y-60606070D01*
X144499131Y-60461385D01*
X144643600Y-60330377D01*
X144643601Y-83298385D01*
X144640044Y-83334500D01*
X144654235Y-83478585D01*
X144675645Y-83549162D01*
X144696264Y-83617133D01*
X144764514Y-83744820D01*
X144856363Y-83856738D01*
X144884408Y-83879754D01*
X145076054Y-84071400D01*
X144322708Y-84824746D01*
X144294662Y-84847763D01*
X144202813Y-84959681D01*
X144134563Y-85087368D01*
X144107980Y-85175000D01*
X144092535Y-85225915D01*
X144078344Y-85370000D01*
X144081900Y-85406100D01*
X144081901Y-88671857D01*
X143901040Y-88607091D01*
X143679000Y-88728376D01*
X143679000Y-89872000D01*
X143699000Y-89872000D01*
X143699000Y-90126000D01*
X143679000Y-90126000D01*
X143679000Y-90146000D01*
X143425000Y-90146000D01*
X143425000Y-90126000D01*
X142282085Y-90126000D01*
X142160096Y-90348039D01*
X142165058Y-90364400D01*
X141571947Y-90364400D01*
X140857508Y-89649961D01*
X142160096Y-89649961D01*
X142282085Y-89872000D01*
X143425000Y-89872000D01*
X143425000Y-88728376D01*
X143202960Y-88607091D01*
X142938119Y-88701930D01*
X142696869Y-88846615D01*
X142488481Y-89035586D01*
X142320963Y-89261580D01*
X142200754Y-89515913D01*
X142160096Y-89649961D01*
X140857508Y-89649961D01*
X134369218Y-83161672D01*
X134408862Y-83122028D01*
X134436067Y-83081313D01*
X138732446Y-87377693D01*
X138755462Y-87405738D01*
X138867380Y-87497587D01*
X138995067Y-87565837D01*
X139133615Y-87607865D01*
X139241595Y-87618500D01*
X139241604Y-87618500D01*
X139277699Y-87622055D01*
X139313794Y-87618500D01*
X139935649Y-87618500D01*
X140075711Y-87712086D01*
X140245871Y-87782568D01*
X140426511Y-87818500D01*
X140610689Y-87818500D01*
X140791329Y-87782568D01*
X140961489Y-87712086D01*
X141114628Y-87609762D01*
X141244862Y-87479528D01*
X141347186Y-87326389D01*
X141417668Y-87156229D01*
X141453600Y-86975589D01*
X141453600Y-86845000D01*
X142471510Y-86845000D01*
X142478672Y-86852162D01*
X142631811Y-86954486D01*
X142801971Y-87024968D01*
X142982611Y-87060900D01*
X143166789Y-87060900D01*
X143347429Y-87024968D01*
X143517589Y-86954486D01*
X143670728Y-86852162D01*
X143800962Y-86721928D01*
X143903286Y-86568789D01*
X143973768Y-86398629D01*
X144009700Y-86217989D01*
X144009700Y-86033811D01*
X143973768Y-85853171D01*
X143903286Y-85683011D01*
X143858639Y-85616192D01*
X143898968Y-85518829D01*
X143934900Y-85338189D01*
X143934900Y-85154011D01*
X143898968Y-84973371D01*
X143828486Y-84803211D01*
X143726162Y-84650072D01*
X143595928Y-84519838D01*
X143442789Y-84417514D01*
X143272629Y-84347032D01*
X143224007Y-84337360D01*
X141716657Y-82830011D01*
X141850228Y-82740762D01*
X141980462Y-82610528D01*
X142082786Y-82457389D01*
X142153268Y-82287229D01*
X142189200Y-82106589D01*
X142189200Y-81922411D01*
X142153268Y-81741771D01*
X142082786Y-81571611D01*
X141980462Y-81418472D01*
X141850228Y-81288238D01*
X141697089Y-81185914D01*
X141526929Y-81115432D01*
X141361715Y-81082569D01*
X136917359Y-76638213D01*
X136894338Y-76610162D01*
X136782420Y-76518313D01*
X136654733Y-76450063D01*
X136516185Y-76408035D01*
X136408205Y-76397400D01*
X136372100Y-76393844D01*
X136335995Y-76397400D01*
X126839051Y-76397400D01*
X126698989Y-76303814D01*
X126528829Y-76233332D01*
X126363615Y-76200469D01*
X125049147Y-74886000D01*
X142449449Y-74886000D01*
X142589511Y-74979586D01*
X142759671Y-75050068D01*
X142940311Y-75086000D01*
X143124489Y-75086000D01*
X143305129Y-75050068D01*
X143475289Y-74979586D01*
X143628428Y-74877262D01*
X143758662Y-74747028D01*
X143860986Y-74593889D01*
X143931468Y-74423729D01*
X143967400Y-74243089D01*
X143967400Y-74058911D01*
X143931468Y-73878271D01*
X143860986Y-73708111D01*
X143758662Y-73554972D01*
X143628428Y-73424738D01*
X143475289Y-73322414D01*
X143305129Y-73251932D01*
X143124489Y-73216000D01*
X142940311Y-73216000D01*
X142759671Y-73251932D01*
X142589511Y-73322414D01*
X142449449Y-73416000D01*
X133256800Y-73416000D01*
X133256800Y-73402800D01*
X141653095Y-73402800D01*
X141689200Y-73406356D01*
X141725305Y-73402800D01*
X141833285Y-73392165D01*
X141971833Y-73350137D01*
X142099520Y-73281887D01*
X142211438Y-73190038D01*
X142234458Y-73161988D01*
X143166515Y-72229931D01*
X143331729Y-72197068D01*
X143501889Y-72126586D01*
X143655028Y-72024262D01*
X143785262Y-71894028D01*
X143887586Y-71740889D01*
X143958068Y-71570729D01*
X143994000Y-71390089D01*
X143994000Y-71205911D01*
X143958068Y-71025271D01*
X143887586Y-70855111D01*
X143785262Y-70701972D01*
X143655028Y-70571738D01*
X143501889Y-70469414D01*
X143331729Y-70398932D01*
X143151089Y-70363000D01*
X142966911Y-70363000D01*
X142786271Y-70398932D01*
X142616111Y-70469414D01*
X142462972Y-70571738D01*
X142332738Y-70701972D01*
X142230414Y-70855111D01*
X142159932Y-71025271D01*
X142127069Y-71190485D01*
X141384754Y-71932800D01*
X134768746Y-71932800D01*
X139616593Y-67084954D01*
X139644638Y-67061938D01*
X139736487Y-66950020D01*
X139804737Y-66822333D01*
X139846765Y-66683785D01*
X139857400Y-66575805D01*
X139860956Y-66539700D01*
X139857400Y-66503595D01*
X139857400Y-62439951D01*
X139950986Y-62299889D01*
X140021468Y-62129729D01*
X140057400Y-61949089D01*
X140057400Y-61764911D01*
X140021468Y-61584271D01*
X139950986Y-61414111D01*
X139848662Y-61260972D01*
X139718428Y-61130738D01*
X139565289Y-61028414D01*
X139395129Y-60957932D01*
X139214489Y-60922000D01*
X139030311Y-60922000D01*
X138849671Y-60957932D01*
X138679511Y-61028414D01*
X138526372Y-61130738D01*
X138396138Y-61260972D01*
X138293814Y-61414111D01*
X138223332Y-61584271D01*
X138187400Y-61764911D01*
X138187400Y-61949089D01*
X138223332Y-62129729D01*
X138293814Y-62299889D01*
X138387400Y-62439951D01*
X138387401Y-66235252D01*
X134443944Y-70178709D01*
X134442900Y-70168106D01*
X134442900Y-69526005D01*
X134446456Y-69489900D01*
X134432265Y-69345815D01*
X134422019Y-69312038D01*
X134390237Y-69207267D01*
X134321987Y-69079580D01*
X134312090Y-69067521D01*
X134366837Y-69012774D01*
X134480105Y-68843256D01*
X134558126Y-68654898D01*
X134590328Y-68493005D01*
X134992444Y-68090889D01*
X135023941Y-68065041D01*
X135049789Y-68033545D01*
X135049792Y-68033542D01*
X135127099Y-67939343D01*
X135203753Y-67795934D01*
X135211212Y-67771344D01*
X135250956Y-67640326D01*
X135262900Y-67519053D01*
X135262900Y-67519051D01*
X135266894Y-67478500D01*
X135262900Y-67437950D01*
X135262900Y-61299007D01*
X135352342Y-61251199D01*
X135478041Y-61148041D01*
X135503898Y-61116534D01*
X135897376Y-60723056D01*
X136002665Y-60744000D01*
X136285335Y-60744000D01*
X136562574Y-60688853D01*
X136823727Y-60580680D01*
X137058759Y-60423637D01*
X137258637Y-60223759D01*
X137415680Y-59988727D01*
X137523853Y-59727574D01*
X137537684Y-59658039D01*
X142252096Y-59658039D01*
X142292754Y-59792087D01*
X142412963Y-60046420D01*
X142580481Y-60272414D01*
X142788869Y-60461385D01*
X143030119Y-60606070D01*
X143294960Y-60700909D01*
X143517000Y-60579624D01*
X143517000Y-59436000D01*
X142374085Y-59436000D01*
X142252096Y-59658039D01*
X137537684Y-59658039D01*
X137579000Y-59450335D01*
X137579000Y-59167665D01*
X137523853Y-58890426D01*
X137415680Y-58629273D01*
X137258637Y-58394241D01*
X137058759Y-58194363D01*
X136823727Y-58037320D01*
X136562574Y-57929147D01*
X136285335Y-57874000D01*
X136002665Y-57874000D01*
X135725426Y-57929147D01*
X135464273Y-58037320D01*
X135229241Y-58194363D01*
X135029363Y-58394241D01*
X134872320Y-58629273D01*
X134764147Y-58890426D01*
X134709000Y-59167665D01*
X134709000Y-59450335D01*
X134729944Y-59555624D01*
X134549568Y-59736000D01*
X134477953Y-59736000D01*
X134437400Y-59732006D01*
X134396847Y-59736000D01*
X123676258Y-59736000D01*
X123699904Y-59658039D01*
X123577915Y-59436000D01*
X122435000Y-59436000D01*
X122435000Y-59456000D01*
X122181000Y-59456000D01*
X122181000Y-59436000D01*
X122161000Y-59436000D01*
X122161000Y-59182000D01*
X122181000Y-59182000D01*
X122181000Y-58038376D01*
X122435000Y-58038376D01*
X122435000Y-59182000D01*
X123577915Y-59182000D01*
X123699904Y-58959961D01*
X123659246Y-58825913D01*
X123539037Y-58571580D01*
X123371519Y-58345586D01*
X123163131Y-58156615D01*
X122921881Y-58011930D01*
X122657040Y-57917091D01*
X122435000Y-58038376D01*
X122181000Y-58038376D01*
X121958960Y-57917091D01*
X121694119Y-58011930D01*
X121452869Y-58156615D01*
X121244481Y-58345586D01*
X121076963Y-58571580D01*
X121055732Y-58616499D01*
X120713500Y-58274268D01*
X120713500Y-57058908D01*
X120907608Y-56899608D01*
X121086932Y-56681101D01*
X121158000Y-56548142D01*
X121229068Y-56681101D01*
X121408392Y-56899608D01*
X121626899Y-57078932D01*
X121876192Y-57212182D01*
X122146691Y-57294236D01*
X122357508Y-57315000D01*
X122498492Y-57315000D01*
X122709309Y-57294236D01*
X122979808Y-57212182D01*
X123229101Y-57078932D01*
X123447608Y-56899608D01*
X123626932Y-56681101D01*
X123760182Y-56431808D01*
X123842236Y-56161309D01*
X123869943Y-55880000D01*
X123849769Y-55675165D01*
X124295000Y-55675165D01*
X124295000Y-55957835D01*
X124350147Y-56235074D01*
X124458320Y-56496227D01*
X124615363Y-56731259D01*
X124815241Y-56931137D01*
X125050273Y-57088180D01*
X125311426Y-57196353D01*
X125588665Y-57251500D01*
X125871335Y-57251500D01*
X126148574Y-57196353D01*
X126409727Y-57088180D01*
X126644759Y-56931137D01*
X126844637Y-56731259D01*
X127001680Y-56496227D01*
X127109853Y-56235074D01*
X127165000Y-55957835D01*
X127165000Y-55675165D01*
X127109853Y-55397926D01*
X127001680Y-55136773D01*
X126844637Y-54901741D01*
X126644759Y-54701863D01*
X126409727Y-54544820D01*
X126148574Y-54436647D01*
X125871335Y-54381500D01*
X125588665Y-54381500D01*
X125311426Y-54436647D01*
X125050273Y-54544820D01*
X124815241Y-54701863D01*
X124615363Y-54901741D01*
X124458320Y-55136773D01*
X124350147Y-55397926D01*
X124295000Y-55675165D01*
X123849769Y-55675165D01*
X123842236Y-55598691D01*
X123760182Y-55328192D01*
X123626932Y-55078899D01*
X123447608Y-54860392D01*
X123229101Y-54681068D01*
X122979808Y-54547818D01*
X122709309Y-54465764D01*
X122498492Y-54445000D01*
X122357508Y-54445000D01*
X122146691Y-54465764D01*
X121876192Y-54547818D01*
X121626899Y-54681068D01*
X121408392Y-54860392D01*
X121229068Y-55078899D01*
X121158000Y-55211858D01*
X121086932Y-55078899D01*
X120907608Y-54860392D01*
X120689101Y-54681068D01*
X120439808Y-54547818D01*
X120169309Y-54465764D01*
X119958492Y-54445000D01*
X119817508Y-54445000D01*
X119606691Y-54465764D01*
X119336192Y-54547818D01*
X119086899Y-54681068D01*
X118868392Y-54860392D01*
X118709092Y-55054500D01*
X118526908Y-55054500D01*
X118367608Y-54860392D01*
X118149101Y-54681068D01*
X117937753Y-54568100D01*
X118980395Y-54568100D01*
X119016500Y-54571656D01*
X119052605Y-54568100D01*
X119160585Y-54557465D01*
X119299133Y-54515437D01*
X119426820Y-54447187D01*
X119538738Y-54355338D01*
X119561759Y-54327287D01*
X122869415Y-51019631D01*
X123034629Y-50986768D01*
X123204789Y-50916286D01*
X123357928Y-50813962D01*
X123488162Y-50683728D01*
X123590486Y-50530589D01*
X123660968Y-50360429D01*
X123689279Y-50218100D01*
X123710949Y-50218100D01*
X123851011Y-50311686D01*
X124021171Y-50382168D01*
X124201811Y-50418100D01*
X124385989Y-50418100D01*
X124566629Y-50382168D01*
X124736789Y-50311686D01*
X124889928Y-50209362D01*
X125020162Y-50079128D01*
X125122486Y-49925989D01*
X125192968Y-49755829D01*
X125213619Y-49652010D01*
X125246913Y-49667746D01*
X125380961Y-49708404D01*
X125603000Y-49586415D01*
X125603000Y-48443500D01*
X125857000Y-48443500D01*
X125857000Y-49586415D01*
X126079039Y-49708404D01*
X126213087Y-49667746D01*
X126467420Y-49547537D01*
X126693414Y-49380019D01*
X126882385Y-49171631D01*
X127027070Y-48930381D01*
X127121909Y-48665540D01*
X127000624Y-48443500D01*
X125857000Y-48443500D01*
X125603000Y-48443500D01*
X124459376Y-48443500D01*
X124400648Y-48551016D01*
X124385989Y-48548100D01*
X124201811Y-48548100D01*
X124021171Y-48584032D01*
X123863619Y-48649292D01*
X123863000Y-48545750D01*
X123704250Y-48387000D01*
X122555000Y-48387000D01*
X122555000Y-48407000D01*
X122301000Y-48407000D01*
X122301000Y-48387000D01*
X122281000Y-48387000D01*
X122281000Y-48133000D01*
X122301000Y-48133000D01*
X122301000Y-48113000D01*
X122555000Y-48113000D01*
X122555000Y-48133000D01*
X123704250Y-48133000D01*
X123863000Y-47974250D01*
X123863040Y-47967460D01*
X124338091Y-47967460D01*
X124459376Y-48189500D01*
X125603000Y-48189500D01*
X125603000Y-47046585D01*
X125857000Y-47046585D01*
X125857000Y-48189500D01*
X127000624Y-48189500D01*
X127121909Y-47967460D01*
X127027070Y-47702619D01*
X126882385Y-47461369D01*
X126693414Y-47252981D01*
X126467420Y-47085463D01*
X126213087Y-46965254D01*
X126079039Y-46924596D01*
X125857000Y-47046585D01*
X125603000Y-47046585D01*
X125380961Y-46924596D01*
X125246913Y-46965254D01*
X124992580Y-47085463D01*
X124766586Y-47252981D01*
X124577615Y-47461369D01*
X124432930Y-47702619D01*
X124338091Y-47967460D01*
X123863040Y-47967460D01*
X123866072Y-47460000D01*
X123853812Y-47335518D01*
X123817502Y-47215820D01*
X123758537Y-47105506D01*
X123679185Y-47008815D01*
X123582494Y-46929463D01*
X123472180Y-46870498D01*
X123352482Y-46834188D01*
X123228000Y-46821928D01*
X122858612Y-46824135D01*
X129243252Y-40439495D01*
X129348392Y-40567608D01*
X129566899Y-40746932D01*
X129699858Y-40818000D01*
X129566899Y-40889068D01*
X129348392Y-41068392D01*
X129169068Y-41286899D01*
X129035818Y-41536192D01*
X128953764Y-41806691D01*
X128926057Y-42088000D01*
X128953764Y-42369309D01*
X129035818Y-42639808D01*
X129169068Y-42889101D01*
X129348392Y-43107608D01*
X129566899Y-43286932D01*
X129816192Y-43420182D01*
X130086691Y-43502236D01*
X130297508Y-43523000D01*
X130438492Y-43523000D01*
X130649309Y-43502236D01*
X130919808Y-43420182D01*
X131169101Y-43286932D01*
X131387608Y-43107608D01*
X131566932Y-42889101D01*
X131700182Y-42639808D01*
X131782236Y-42369309D01*
X131809943Y-42088000D01*
X131782236Y-41806691D01*
X131700182Y-41536192D01*
X131566932Y-41286899D01*
X131387608Y-41068392D01*
X131169101Y-40889068D01*
X131036142Y-40818000D01*
X131169101Y-40746932D01*
X131387608Y-40567608D01*
X131566932Y-40349101D01*
X131700182Y-40099808D01*
X131782236Y-39829309D01*
X131809943Y-39548000D01*
X131782236Y-39266691D01*
X131700182Y-38996192D01*
X131566932Y-38746899D01*
X131387608Y-38528392D01*
X131169101Y-38349068D01*
X131077835Y-38300285D01*
X131092365Y-38252385D01*
X131092826Y-38247702D01*
X131169101Y-38206932D01*
X131387608Y-38027608D01*
X131566932Y-37809101D01*
X131618388Y-37712834D01*
X134566993Y-40661439D01*
G36*
X120015000Y-48133000D02*
G01*
X120035000Y-48133000D01*
X120035000Y-48387000D01*
X120015000Y-48387000D01*
X120015000Y-48407000D01*
X119761000Y-48407000D01*
X119761000Y-48387000D01*
X119741000Y-48387000D01*
X119741000Y-48133000D01*
X119761000Y-48133000D01*
X119761000Y-48113000D01*
X120015000Y-48113000D01*
X120015000Y-48133000D01*
X120015000Y-48133000D01*
G37*
X120015000Y-48133000D02*
X120035000Y-48133000D01*
X120035000Y-48387000D01*
X120015000Y-48387000D01*
X120015000Y-48407000D01*
X119761000Y-48407000D01*
X119761000Y-48387000D01*
X119741000Y-48387000D01*
X119741000Y-48133000D01*
X119761000Y-48133000D01*
X119761000Y-48113000D01*
X120015000Y-48113000D01*
X120015000Y-48133000D01*
G36*
X117449068Y-40506101D02*
G01*
X117628392Y-40724608D01*
X117846899Y-40903932D01*
X117979858Y-40975000D01*
X117846899Y-41046068D01*
X117628392Y-41225392D01*
X117449068Y-41443899D01*
X117408298Y-41520174D01*
X117403615Y-41520635D01*
X117265067Y-41562663D01*
X117137380Y-41630913D01*
X117025462Y-41722762D01*
X116933613Y-41834680D01*
X116865363Y-41962367D01*
X116823335Y-42100915D01*
X116818943Y-42145510D01*
X114457785Y-44506668D01*
X114292571Y-44539532D01*
X114122411Y-44610014D01*
X113969272Y-44712338D01*
X113839038Y-44842572D01*
X113736714Y-44995711D01*
X113666232Y-45165871D01*
X113635892Y-45318400D01*
X112150046Y-45318400D01*
X113382915Y-44085531D01*
X113548129Y-44052668D01*
X113718289Y-43982186D01*
X113871428Y-43879862D01*
X114001662Y-43749628D01*
X114103986Y-43596489D01*
X114174468Y-43426329D01*
X114210400Y-43245689D01*
X114210400Y-43061511D01*
X114174468Y-42880871D01*
X114103986Y-42710711D01*
X114006784Y-42565238D01*
X114045268Y-42472329D01*
X114081200Y-42291689D01*
X114081200Y-42107511D01*
X114045268Y-41926871D01*
X113974786Y-41756711D01*
X113872462Y-41603572D01*
X113742228Y-41473338D01*
X113589089Y-41371014D01*
X113418929Y-41300532D01*
X113238289Y-41264600D01*
X113054111Y-41264600D01*
X112873471Y-41300532D01*
X112703311Y-41371014D01*
X112550172Y-41473338D01*
X112419938Y-41603572D01*
X112352272Y-41704842D01*
X112259037Y-41507580D01*
X112239893Y-41481753D01*
X113281647Y-40440000D01*
X117413736Y-40440000D01*
X117449068Y-40506101D01*
X117449068Y-40506101D01*
G37*
X117449068Y-40506101D02*
X117628392Y-40724608D01*
X117846899Y-40903932D01*
X117979858Y-40975000D01*
X117846899Y-41046068D01*
X117628392Y-41225392D01*
X117449068Y-41443899D01*
X117408298Y-41520174D01*
X117403615Y-41520635D01*
X117265067Y-41562663D01*
X117137380Y-41630913D01*
X117025462Y-41722762D01*
X116933613Y-41834680D01*
X116865363Y-41962367D01*
X116823335Y-42100915D01*
X116818943Y-42145510D01*
X114457785Y-44506668D01*
X114292571Y-44539532D01*
X114122411Y-44610014D01*
X113969272Y-44712338D01*
X113839038Y-44842572D01*
X113736714Y-44995711D01*
X113666232Y-45165871D01*
X113635892Y-45318400D01*
X112150046Y-45318400D01*
X113382915Y-44085531D01*
X113548129Y-44052668D01*
X113718289Y-43982186D01*
X113871428Y-43879862D01*
X114001662Y-43749628D01*
X114103986Y-43596489D01*
X114174468Y-43426329D01*
X114210400Y-43245689D01*
X114210400Y-43061511D01*
X114174468Y-42880871D01*
X114103986Y-42710711D01*
X114006784Y-42565238D01*
X114045268Y-42472329D01*
X114081200Y-42291689D01*
X114081200Y-42107511D01*
X114045268Y-41926871D01*
X113974786Y-41756711D01*
X113872462Y-41603572D01*
X113742228Y-41473338D01*
X113589089Y-41371014D01*
X113418929Y-41300532D01*
X113238289Y-41264600D01*
X113054111Y-41264600D01*
X112873471Y-41300532D01*
X112703311Y-41371014D01*
X112550172Y-41473338D01*
X112419938Y-41603572D01*
X112352272Y-41704842D01*
X112259037Y-41507580D01*
X112239893Y-41481753D01*
X113281647Y-40440000D01*
X117413736Y-40440000D01*
X117449068Y-40506101D01*
G36*
X82427273Y-35984680D02*
G01*
X82688426Y-36092853D01*
X82965665Y-36148000D01*
X83248335Y-36148000D01*
X83353624Y-36127056D01*
X84907606Y-37681039D01*
X84933459Y-37712541D01*
X85059158Y-37815699D01*
X85202566Y-37892353D01*
X85358174Y-37939556D01*
X85479447Y-37951500D01*
X85479449Y-37951500D01*
X85519999Y-37955494D01*
X85560550Y-37951500D01*
X87119520Y-37951500D01*
X87141338Y-37984153D01*
X87328847Y-38171662D01*
X87549335Y-38318987D01*
X87735260Y-38396000D01*
X87549335Y-38473013D01*
X87328847Y-38620338D01*
X87141338Y-38807847D01*
X86994013Y-39028335D01*
X86892533Y-39273328D01*
X86840800Y-39533411D01*
X86840800Y-39798589D01*
X86892533Y-40058672D01*
X86994013Y-40303665D01*
X87141338Y-40524153D01*
X87328847Y-40711662D01*
X87549335Y-40858987D01*
X87794328Y-40960467D01*
X88054411Y-41012200D01*
X88319589Y-41012200D01*
X88579672Y-40960467D01*
X88824665Y-40858987D01*
X89045153Y-40711662D01*
X89232662Y-40524153D01*
X89379987Y-40303665D01*
X89457000Y-40117740D01*
X89534013Y-40303665D01*
X89681338Y-40524153D01*
X89868847Y-40711662D01*
X90089335Y-40858987D01*
X90275260Y-40936000D01*
X90089335Y-41013013D01*
X89868847Y-41160338D01*
X89681338Y-41347847D01*
X89534013Y-41568335D01*
X89432533Y-41813328D01*
X89380800Y-42073411D01*
X89380800Y-42338589D01*
X89432533Y-42598672D01*
X89534013Y-42843665D01*
X89681338Y-43064153D01*
X89868847Y-43251662D01*
X90089335Y-43398987D01*
X90334328Y-43500467D01*
X90594411Y-43552200D01*
X90859589Y-43552200D01*
X91119672Y-43500467D01*
X91364665Y-43398987D01*
X91585153Y-43251662D01*
X91772662Y-43064153D01*
X91919987Y-42843665D01*
X91997000Y-42657740D01*
X92074013Y-42843665D01*
X92221338Y-43064153D01*
X92408847Y-43251662D01*
X92629335Y-43398987D01*
X92874328Y-43500467D01*
X93134411Y-43552200D01*
X93399589Y-43552200D01*
X93544858Y-43523305D01*
X94729853Y-44708300D01*
X90577301Y-44708300D01*
X90437389Y-44614814D01*
X90267229Y-44544332D01*
X90086589Y-44508400D01*
X89902411Y-44508400D01*
X89721771Y-44544332D01*
X89551611Y-44614814D01*
X89398472Y-44717138D01*
X89268238Y-44847372D01*
X89165914Y-45000511D01*
X89095432Y-45170671D01*
X89066046Y-45318400D01*
X86488847Y-45318400D01*
X86121932Y-44951485D01*
X86089068Y-44786271D01*
X86018586Y-44616111D01*
X85916262Y-44462972D01*
X85786028Y-44332738D01*
X85632889Y-44230414D01*
X85462729Y-44159932D01*
X85282089Y-44124000D01*
X85097911Y-44124000D01*
X84917271Y-44159932D01*
X84747111Y-44230414D01*
X84628560Y-44309627D01*
X83789111Y-43470178D01*
X83844420Y-43444037D01*
X84070414Y-43276519D01*
X84259385Y-43068131D01*
X84404070Y-42826881D01*
X84498909Y-42562040D01*
X84377624Y-42340000D01*
X83234000Y-42340000D01*
X83234000Y-42360000D01*
X82980000Y-42360000D01*
X82980000Y-42340000D01*
X82960000Y-42340000D01*
X82960000Y-42086000D01*
X82980000Y-42086000D01*
X82980000Y-40943085D01*
X83234000Y-40943085D01*
X83234000Y-42086000D01*
X84377624Y-42086000D01*
X84498909Y-41863960D01*
X84404070Y-41599119D01*
X84259385Y-41357869D01*
X84070414Y-41149481D01*
X83844420Y-40981963D01*
X83590087Y-40861754D01*
X83456039Y-40821096D01*
X83234000Y-40943085D01*
X82980000Y-40943085D01*
X82757961Y-40821096D01*
X82623913Y-40861754D01*
X82369580Y-40981963D01*
X82345000Y-41000183D01*
X82345000Y-36341050D01*
X82348994Y-36300499D01*
X82344817Y-36258086D01*
X82333056Y-36138674D01*
X82285853Y-35983066D01*
X82276767Y-35966068D01*
X82209199Y-35839657D01*
X82207947Y-35838131D01*
X82427273Y-35984680D01*
X82427273Y-35984680D01*
G37*
X82427273Y-35984680D02*
X82688426Y-36092853D01*
X82965665Y-36148000D01*
X83248335Y-36148000D01*
X83353624Y-36127056D01*
X84907606Y-37681039D01*
X84933459Y-37712541D01*
X85059158Y-37815699D01*
X85202566Y-37892353D01*
X85358174Y-37939556D01*
X85479447Y-37951500D01*
X85479449Y-37951500D01*
X85519999Y-37955494D01*
X85560550Y-37951500D01*
X87119520Y-37951500D01*
X87141338Y-37984153D01*
X87328847Y-38171662D01*
X87549335Y-38318987D01*
X87735260Y-38396000D01*
X87549335Y-38473013D01*
X87328847Y-38620338D01*
X87141338Y-38807847D01*
X86994013Y-39028335D01*
X86892533Y-39273328D01*
X86840800Y-39533411D01*
X86840800Y-39798589D01*
X86892533Y-40058672D01*
X86994013Y-40303665D01*
X87141338Y-40524153D01*
X87328847Y-40711662D01*
X87549335Y-40858987D01*
X87794328Y-40960467D01*
X88054411Y-41012200D01*
X88319589Y-41012200D01*
X88579672Y-40960467D01*
X88824665Y-40858987D01*
X89045153Y-40711662D01*
X89232662Y-40524153D01*
X89379987Y-40303665D01*
X89457000Y-40117740D01*
X89534013Y-40303665D01*
X89681338Y-40524153D01*
X89868847Y-40711662D01*
X90089335Y-40858987D01*
X90275260Y-40936000D01*
X90089335Y-41013013D01*
X89868847Y-41160338D01*
X89681338Y-41347847D01*
X89534013Y-41568335D01*
X89432533Y-41813328D01*
X89380800Y-42073411D01*
X89380800Y-42338589D01*
X89432533Y-42598672D01*
X89534013Y-42843665D01*
X89681338Y-43064153D01*
X89868847Y-43251662D01*
X90089335Y-43398987D01*
X90334328Y-43500467D01*
X90594411Y-43552200D01*
X90859589Y-43552200D01*
X91119672Y-43500467D01*
X91364665Y-43398987D01*
X91585153Y-43251662D01*
X91772662Y-43064153D01*
X91919987Y-42843665D01*
X91997000Y-42657740D01*
X92074013Y-42843665D01*
X92221338Y-43064153D01*
X92408847Y-43251662D01*
X92629335Y-43398987D01*
X92874328Y-43500467D01*
X93134411Y-43552200D01*
X93399589Y-43552200D01*
X93544858Y-43523305D01*
X94729853Y-44708300D01*
X90577301Y-44708300D01*
X90437389Y-44614814D01*
X90267229Y-44544332D01*
X90086589Y-44508400D01*
X89902411Y-44508400D01*
X89721771Y-44544332D01*
X89551611Y-44614814D01*
X89398472Y-44717138D01*
X89268238Y-44847372D01*
X89165914Y-45000511D01*
X89095432Y-45170671D01*
X89066046Y-45318400D01*
X86488847Y-45318400D01*
X86121932Y-44951485D01*
X86089068Y-44786271D01*
X86018586Y-44616111D01*
X85916262Y-44462972D01*
X85786028Y-44332738D01*
X85632889Y-44230414D01*
X85462729Y-44159932D01*
X85282089Y-44124000D01*
X85097911Y-44124000D01*
X84917271Y-44159932D01*
X84747111Y-44230414D01*
X84628560Y-44309627D01*
X83789111Y-43470178D01*
X83844420Y-43444037D01*
X84070414Y-43276519D01*
X84259385Y-43068131D01*
X84404070Y-42826881D01*
X84498909Y-42562040D01*
X84377624Y-42340000D01*
X83234000Y-42340000D01*
X83234000Y-42360000D01*
X82980000Y-42360000D01*
X82980000Y-42340000D01*
X82960000Y-42340000D01*
X82960000Y-42086000D01*
X82980000Y-42086000D01*
X82980000Y-40943085D01*
X83234000Y-40943085D01*
X83234000Y-42086000D01*
X84377624Y-42086000D01*
X84498909Y-41863960D01*
X84404070Y-41599119D01*
X84259385Y-41357869D01*
X84070414Y-41149481D01*
X83844420Y-40981963D01*
X83590087Y-40861754D01*
X83456039Y-40821096D01*
X83234000Y-40943085D01*
X82980000Y-40943085D01*
X82757961Y-40821096D01*
X82623913Y-40861754D01*
X82369580Y-40981963D01*
X82345000Y-41000183D01*
X82345000Y-36341050D01*
X82348994Y-36300499D01*
X82344817Y-36258086D01*
X82333056Y-36138674D01*
X82285853Y-35983066D01*
X82276767Y-35966068D01*
X82209199Y-35839657D01*
X82207947Y-35838131D01*
X82427273Y-35984680D01*
G36*
X120906501Y-40049185D02*
G01*
X120902944Y-40085300D01*
X120917135Y-40229385D01*
X120953451Y-40349101D01*
X120959164Y-40367933D01*
X121027414Y-40495620D01*
X121119263Y-40607538D01*
X121147308Y-40630554D01*
X121666116Y-41149362D01*
X121516963Y-41350580D01*
X121396754Y-41604913D01*
X121356096Y-41738961D01*
X121478085Y-41961000D01*
X122621000Y-41961000D01*
X122621000Y-41941000D01*
X122875000Y-41941000D01*
X122875000Y-41961000D01*
X122895000Y-41961000D01*
X122895000Y-42215000D01*
X122875000Y-42215000D01*
X122875000Y-42235000D01*
X122621000Y-42235000D01*
X122621000Y-42215000D01*
X121478085Y-42215000D01*
X121356096Y-42437039D01*
X121383746Y-42528200D01*
X121183905Y-42528200D01*
X121147800Y-42524644D01*
X121003715Y-42538835D01*
X120865166Y-42580863D01*
X120789131Y-42621505D01*
X120737480Y-42649113D01*
X120625562Y-42740962D01*
X120602546Y-42769007D01*
X118053154Y-45318400D01*
X115724946Y-45318400D01*
X117710969Y-43332377D01*
X117846899Y-43443932D01*
X118096192Y-43577182D01*
X118366691Y-43659236D01*
X118577508Y-43680000D01*
X118718492Y-43680000D01*
X118929309Y-43659236D01*
X119199808Y-43577182D01*
X119449101Y-43443932D01*
X119667608Y-43264608D01*
X119846932Y-43046101D01*
X119980182Y-42796808D01*
X120062236Y-42526309D01*
X120089943Y-42245000D01*
X120062236Y-41963691D01*
X119980182Y-41693192D01*
X119846932Y-41443899D01*
X119667608Y-41225392D01*
X119449101Y-41046068D01*
X119316142Y-40975000D01*
X119449101Y-40903932D01*
X119667608Y-40724608D01*
X119846932Y-40506101D01*
X119980182Y-40256808D01*
X120062236Y-39986309D01*
X120089943Y-39705000D01*
X120062236Y-39423691D01*
X119980182Y-39153192D01*
X119846932Y-38903899D01*
X119699542Y-38724304D01*
X120906500Y-37517347D01*
X120906501Y-40049185D01*
X120906501Y-40049185D01*
G37*
X120906501Y-40049185D02*
X120902944Y-40085300D01*
X120917135Y-40229385D01*
X120953451Y-40349101D01*
X120959164Y-40367933D01*
X121027414Y-40495620D01*
X121119263Y-40607538D01*
X121147308Y-40630554D01*
X121666116Y-41149362D01*
X121516963Y-41350580D01*
X121396754Y-41604913D01*
X121356096Y-41738961D01*
X121478085Y-41961000D01*
X122621000Y-41961000D01*
X122621000Y-41941000D01*
X122875000Y-41941000D01*
X122875000Y-41961000D01*
X122895000Y-41961000D01*
X122895000Y-42215000D01*
X122875000Y-42215000D01*
X122875000Y-42235000D01*
X122621000Y-42235000D01*
X122621000Y-42215000D01*
X121478085Y-42215000D01*
X121356096Y-42437039D01*
X121383746Y-42528200D01*
X121183905Y-42528200D01*
X121147800Y-42524644D01*
X121003715Y-42538835D01*
X120865166Y-42580863D01*
X120789131Y-42621505D01*
X120737480Y-42649113D01*
X120625562Y-42740962D01*
X120602546Y-42769007D01*
X118053154Y-45318400D01*
X115724946Y-45318400D01*
X117710969Y-43332377D01*
X117846899Y-43443932D01*
X118096192Y-43577182D01*
X118366691Y-43659236D01*
X118577508Y-43680000D01*
X118718492Y-43680000D01*
X118929309Y-43659236D01*
X119199808Y-43577182D01*
X119449101Y-43443932D01*
X119667608Y-43264608D01*
X119846932Y-43046101D01*
X119980182Y-42796808D01*
X120062236Y-42526309D01*
X120089943Y-42245000D01*
X120062236Y-41963691D01*
X119980182Y-41693192D01*
X119846932Y-41443899D01*
X119667608Y-41225392D01*
X119449101Y-41046068D01*
X119316142Y-40975000D01*
X119449101Y-40903932D01*
X119667608Y-40724608D01*
X119846932Y-40506101D01*
X119980182Y-40256808D01*
X120062236Y-39986309D01*
X120089943Y-39705000D01*
X120062236Y-39423691D01*
X119980182Y-39153192D01*
X119846932Y-38903899D01*
X119699542Y-38724304D01*
X120906500Y-37517347D01*
X120906501Y-40049185D01*
G36*
X96000748Y-42191858D02*
G01*
X95986605Y-42206000D01*
X96361276Y-42580671D01*
X96394663Y-42690733D01*
X96462913Y-42818420D01*
X96554763Y-42930338D01*
X96582808Y-42953354D01*
X97933053Y-44303600D01*
X96404047Y-44303600D01*
X95646964Y-43546517D01*
X95881030Y-43556687D01*
X96143113Y-43516291D01*
X96392280Y-43425542D01*
X96495848Y-43370183D01*
X96556668Y-43135273D01*
X95807000Y-42385605D01*
X95792858Y-42399748D01*
X95613253Y-42220143D01*
X95627395Y-42206000D01*
X95613253Y-42191858D01*
X95792858Y-42012253D01*
X95807000Y-42026395D01*
X95821143Y-42012253D01*
X96000748Y-42191858D01*
X96000748Y-42191858D01*
G37*
X96000748Y-42191858D02*
X95986605Y-42206000D01*
X96361276Y-42580671D01*
X96394663Y-42690733D01*
X96462913Y-42818420D01*
X96554763Y-42930338D01*
X96582808Y-42953354D01*
X97933053Y-44303600D01*
X96404047Y-44303600D01*
X95646964Y-43546517D01*
X95881030Y-43556687D01*
X96143113Y-43516291D01*
X96392280Y-43425542D01*
X96495848Y-43370183D01*
X96556668Y-43135273D01*
X95807000Y-42385605D01*
X95792858Y-42399748D01*
X95613253Y-42220143D01*
X95627395Y-42206000D01*
X95613253Y-42191858D01*
X95792858Y-42012253D01*
X95807000Y-42026395D01*
X95821143Y-42012253D01*
X96000748Y-42191858D01*
G36*
X109636096Y-41895961D02*
G01*
X109758085Y-42118000D01*
X110901000Y-42118000D01*
X110901000Y-42098000D01*
X111155000Y-42098000D01*
X111155000Y-42118000D01*
X111175000Y-42118000D01*
X111175000Y-42372000D01*
X111155000Y-42372000D01*
X111155000Y-42392000D01*
X110901000Y-42392000D01*
X110901000Y-42372000D01*
X109758085Y-42372000D01*
X109636096Y-42594039D01*
X109676754Y-42728087D01*
X109796963Y-42982420D01*
X109964481Y-43208414D01*
X110172869Y-43397385D01*
X110414119Y-43542070D01*
X110671954Y-43634400D01*
X110002754Y-44303600D01*
X106433446Y-44303600D01*
X108885447Y-41851600D01*
X109649551Y-41851600D01*
X109636096Y-41895961D01*
X109636096Y-41895961D01*
G37*
X109636096Y-41895961D02*
X109758085Y-42118000D01*
X110901000Y-42118000D01*
X110901000Y-42098000D01*
X111155000Y-42098000D01*
X111155000Y-42118000D01*
X111175000Y-42118000D01*
X111175000Y-42372000D01*
X111155000Y-42372000D01*
X111155000Y-42392000D01*
X110901000Y-42392000D01*
X110901000Y-42372000D01*
X109758085Y-42372000D01*
X109636096Y-42594039D01*
X109676754Y-42728087D01*
X109796963Y-42982420D01*
X109964481Y-43208414D01*
X110172869Y-43397385D01*
X110414119Y-43542070D01*
X110671954Y-43634400D01*
X110002754Y-44303600D01*
X106433446Y-44303600D01*
X108885447Y-41851600D01*
X109649551Y-41851600D01*
X109636096Y-41895961D01*
G36*
X79790665Y-36148000D02*
G01*
X80073335Y-36148000D01*
X80178624Y-36127056D01*
X80694000Y-36642433D01*
X80694001Y-41000183D01*
X80669420Y-40981963D01*
X80415087Y-40861754D01*
X80281039Y-40821096D01*
X80059000Y-40943085D01*
X80059000Y-42086000D01*
X80079000Y-42086000D01*
X80079000Y-42340000D01*
X80059000Y-42340000D01*
X80059000Y-42360000D01*
X79805000Y-42360000D01*
X79805000Y-42340000D01*
X79785000Y-42340000D01*
X79785000Y-42086000D01*
X79805000Y-42086000D01*
X79805000Y-40943085D01*
X79582961Y-40821096D01*
X79545200Y-40832549D01*
X79545200Y-36099173D01*
X79790665Y-36148000D01*
X79790665Y-36148000D01*
G37*
X79790665Y-36148000D02*
X80073335Y-36148000D01*
X80178624Y-36127056D01*
X80694000Y-36642433D01*
X80694001Y-41000183D01*
X80669420Y-40981963D01*
X80415087Y-40861754D01*
X80281039Y-40821096D01*
X80059000Y-40943085D01*
X80059000Y-42086000D01*
X80079000Y-42086000D01*
X80079000Y-42340000D01*
X80059000Y-42340000D01*
X80059000Y-42360000D01*
X79805000Y-42360000D01*
X79805000Y-42340000D01*
X79785000Y-42340000D01*
X79785000Y-42086000D01*
X79805000Y-42086000D01*
X79805000Y-40943085D01*
X79582961Y-40821096D01*
X79545200Y-40832549D01*
X79545200Y-36099173D01*
X79790665Y-36148000D01*
G36*
X108897333Y-37674480D02*
G01*
X108878971Y-37678132D01*
X108708811Y-37748614D01*
X108555672Y-37850938D01*
X108425438Y-37981172D01*
X108323114Y-38134311D01*
X108252632Y-38304471D01*
X108216700Y-38485111D01*
X108216700Y-38669289D01*
X108252632Y-38849929D01*
X108323114Y-39020089D01*
X108416701Y-39160151D01*
X108416700Y-39541553D01*
X106251953Y-41706300D01*
X106134789Y-41628014D01*
X105964629Y-41557532D01*
X105783989Y-41521600D01*
X105599811Y-41521600D01*
X105419171Y-41557532D01*
X105249011Y-41628014D01*
X105095872Y-41730338D01*
X104965638Y-41860572D01*
X104863314Y-42013711D01*
X104792832Y-42183871D01*
X104773200Y-42282566D01*
X104773200Y-42073411D01*
X104721467Y-41813328D01*
X104619987Y-41568335D01*
X104472662Y-41347847D01*
X104285153Y-41160338D01*
X104064665Y-41013013D01*
X103876400Y-40935031D01*
X104012280Y-40885542D01*
X104115848Y-40830183D01*
X104176668Y-40595273D01*
X103427000Y-39845605D01*
X103412858Y-39859748D01*
X103233253Y-39680143D01*
X103247395Y-39666000D01*
X103233253Y-39651858D01*
X103412858Y-39472253D01*
X103427000Y-39486395D01*
X104176668Y-38736727D01*
X104115848Y-38501817D01*
X103884066Y-38393794D01*
X104064665Y-38318987D01*
X104285153Y-38171662D01*
X104472662Y-37984153D01*
X104619987Y-37763665D01*
X104697000Y-37577740D01*
X104774013Y-37763665D01*
X104921338Y-37984153D01*
X105108847Y-38171662D01*
X105329335Y-38318987D01*
X105515260Y-38396000D01*
X105329335Y-38473013D01*
X105108847Y-38620338D01*
X104921338Y-38807847D01*
X104774013Y-39028335D01*
X104696031Y-39216600D01*
X104646542Y-39080720D01*
X104591183Y-38977152D01*
X104356273Y-38916332D01*
X103606605Y-39666000D01*
X104356273Y-40415668D01*
X104591183Y-40354848D01*
X104699206Y-40123066D01*
X104774013Y-40303665D01*
X104921338Y-40524153D01*
X105108847Y-40711662D01*
X105329335Y-40858987D01*
X105574328Y-40960467D01*
X105834411Y-41012200D01*
X106099589Y-41012200D01*
X106359672Y-40960467D01*
X106604665Y-40858987D01*
X106825153Y-40711662D01*
X107012662Y-40524153D01*
X107159987Y-40303665D01*
X107261467Y-40058672D01*
X107313200Y-39798589D01*
X107313200Y-39533411D01*
X107261467Y-39273328D01*
X107159987Y-39028335D01*
X107012662Y-38807847D01*
X106825153Y-38620338D01*
X106604665Y-38473013D01*
X106418740Y-38396000D01*
X106604665Y-38318987D01*
X106825153Y-38171662D01*
X107012662Y-37984153D01*
X107159987Y-37763665D01*
X107261467Y-37518672D01*
X107313200Y-37258589D01*
X107313200Y-36993411D01*
X107284475Y-36849000D01*
X108071854Y-36849000D01*
X108897333Y-37674480D01*
X108897333Y-37674480D01*
G37*
X108897333Y-37674480D02*
X108878971Y-37678132D01*
X108708811Y-37748614D01*
X108555672Y-37850938D01*
X108425438Y-37981172D01*
X108323114Y-38134311D01*
X108252632Y-38304471D01*
X108216700Y-38485111D01*
X108216700Y-38669289D01*
X108252632Y-38849929D01*
X108323114Y-39020089D01*
X108416701Y-39160151D01*
X108416700Y-39541553D01*
X106251953Y-41706300D01*
X106134789Y-41628014D01*
X105964629Y-41557532D01*
X105783989Y-41521600D01*
X105599811Y-41521600D01*
X105419171Y-41557532D01*
X105249011Y-41628014D01*
X105095872Y-41730338D01*
X104965638Y-41860572D01*
X104863314Y-42013711D01*
X104792832Y-42183871D01*
X104773200Y-42282566D01*
X104773200Y-42073411D01*
X104721467Y-41813328D01*
X104619987Y-41568335D01*
X104472662Y-41347847D01*
X104285153Y-41160338D01*
X104064665Y-41013013D01*
X103876400Y-40935031D01*
X104012280Y-40885542D01*
X104115848Y-40830183D01*
X104176668Y-40595273D01*
X103427000Y-39845605D01*
X103412858Y-39859748D01*
X103233253Y-39680143D01*
X103247395Y-39666000D01*
X103233253Y-39651858D01*
X103412858Y-39472253D01*
X103427000Y-39486395D01*
X104176668Y-38736727D01*
X104115848Y-38501817D01*
X103884066Y-38393794D01*
X104064665Y-38318987D01*
X104285153Y-38171662D01*
X104472662Y-37984153D01*
X104619987Y-37763665D01*
X104697000Y-37577740D01*
X104774013Y-37763665D01*
X104921338Y-37984153D01*
X105108847Y-38171662D01*
X105329335Y-38318987D01*
X105515260Y-38396000D01*
X105329335Y-38473013D01*
X105108847Y-38620338D01*
X104921338Y-38807847D01*
X104774013Y-39028335D01*
X104696031Y-39216600D01*
X104646542Y-39080720D01*
X104591183Y-38977152D01*
X104356273Y-38916332D01*
X103606605Y-39666000D01*
X104356273Y-40415668D01*
X104591183Y-40354848D01*
X104699206Y-40123066D01*
X104774013Y-40303665D01*
X104921338Y-40524153D01*
X105108847Y-40711662D01*
X105329335Y-40858987D01*
X105574328Y-40960467D01*
X105834411Y-41012200D01*
X106099589Y-41012200D01*
X106359672Y-40960467D01*
X106604665Y-40858987D01*
X106825153Y-40711662D01*
X107012662Y-40524153D01*
X107159987Y-40303665D01*
X107261467Y-40058672D01*
X107313200Y-39798589D01*
X107313200Y-39533411D01*
X107261467Y-39273328D01*
X107159987Y-39028335D01*
X107012662Y-38807847D01*
X106825153Y-38620338D01*
X106604665Y-38473013D01*
X106418740Y-38396000D01*
X106604665Y-38318987D01*
X106825153Y-38171662D01*
X107012662Y-37984153D01*
X107159987Y-37763665D01*
X107261467Y-37518672D01*
X107313200Y-37258589D01*
X107313200Y-36993411D01*
X107284475Y-36849000D01*
X108071854Y-36849000D01*
X108897333Y-37674480D01*
G36*
X94746231Y-41490377D02*
G01*
X94642817Y-41517152D01*
X94534794Y-41748934D01*
X94459987Y-41568335D01*
X94312662Y-41347847D01*
X94125153Y-41160338D01*
X93904665Y-41013013D01*
X93718740Y-40936000D01*
X93904665Y-40858987D01*
X94030656Y-40774803D01*
X94746231Y-41490377D01*
X94746231Y-41490377D01*
G37*
X94746231Y-41490377D02*
X94642817Y-41517152D01*
X94534794Y-41748934D01*
X94459987Y-41568335D01*
X94312662Y-41347847D01*
X94125153Y-41160338D01*
X93904665Y-41013013D01*
X93718740Y-40936000D01*
X93904665Y-40858987D01*
X94030656Y-40774803D01*
X94746231Y-41490377D01*
G36*
X142395203Y-35524797D02*
G01*
X142623394Y-35712069D01*
X142667910Y-35735863D01*
X142571512Y-35793183D01*
X142353146Y-35989707D01*
X142177316Y-36225056D01*
X142050778Y-36490186D01*
X142005042Y-36640974D01*
X142126183Y-36873000D01*
X143333000Y-36873000D01*
X143333000Y-36853000D01*
X143587000Y-36853000D01*
X143587000Y-36873000D01*
X143607000Y-36873000D01*
X143607000Y-37127000D01*
X143587000Y-37127000D01*
X143587000Y-37147000D01*
X143333000Y-37147000D01*
X143333000Y-37127000D01*
X142126183Y-37127000D01*
X142005042Y-37359026D01*
X142026236Y-37428900D01*
X139346162Y-37428900D01*
X139350853Y-37417574D01*
X139406000Y-37140335D01*
X139406000Y-36861800D01*
X140588750Y-36861800D01*
X140629300Y-36865794D01*
X140669850Y-36861800D01*
X140669853Y-36861800D01*
X140791126Y-36849856D01*
X140946734Y-36802653D01*
X141090142Y-36725999D01*
X141215841Y-36622841D01*
X141241698Y-36591334D01*
X142356002Y-35477031D01*
X142395203Y-35524797D01*
X142395203Y-35524797D01*
G37*
X142395203Y-35524797D02*
X142623394Y-35712069D01*
X142667910Y-35735863D01*
X142571512Y-35793183D01*
X142353146Y-35989707D01*
X142177316Y-36225056D01*
X142050778Y-36490186D01*
X142005042Y-36640974D01*
X142126183Y-36873000D01*
X143333000Y-36873000D01*
X143333000Y-36853000D01*
X143587000Y-36853000D01*
X143587000Y-36873000D01*
X143607000Y-36873000D01*
X143607000Y-37127000D01*
X143587000Y-37127000D01*
X143587000Y-37147000D01*
X143333000Y-37147000D01*
X143333000Y-37127000D01*
X142126183Y-37127000D01*
X142005042Y-37359026D01*
X142026236Y-37428900D01*
X139346162Y-37428900D01*
X139350853Y-37417574D01*
X139406000Y-37140335D01*
X139406000Y-36861800D01*
X140588750Y-36861800D01*
X140629300Y-36865794D01*
X140669850Y-36861800D01*
X140669853Y-36861800D01*
X140791126Y-36849856D01*
X140946734Y-36802653D01*
X141090142Y-36725999D01*
X141215841Y-36622841D01*
X141241698Y-36591334D01*
X142356002Y-35477031D01*
X142395203Y-35524797D01*
G36*
X142753138Y-25525185D02*
G01*
X142571512Y-25633183D01*
X142353146Y-25829707D01*
X142177316Y-26065056D01*
X142050778Y-26330186D01*
X142005042Y-26480974D01*
X142126183Y-26713000D01*
X143333000Y-26713000D01*
X143333000Y-26693000D01*
X143587000Y-26693000D01*
X143587000Y-26713000D01*
X143607000Y-26713000D01*
X143607000Y-26967000D01*
X143587000Y-26967000D01*
X143587000Y-26987000D01*
X143333000Y-26987000D01*
X143333000Y-26967000D01*
X142126183Y-26967000D01*
X142005042Y-27199026D01*
X142050778Y-27349814D01*
X142062798Y-27375000D01*
X140376404Y-27375000D01*
X140340299Y-27371444D01*
X140196214Y-27385635D01*
X140157312Y-27397436D01*
X140057667Y-27427663D01*
X139929980Y-27495913D01*
X139818062Y-27587762D01*
X139795046Y-27615807D01*
X139018038Y-28392816D01*
X138990608Y-28359392D01*
X138772101Y-28180068D01*
X138522808Y-28046818D01*
X138252309Y-27964764D01*
X138041492Y-27944000D01*
X137900508Y-27944000D01*
X137689691Y-27964764D01*
X137419192Y-28046818D01*
X137169899Y-28180068D01*
X136951392Y-28359392D01*
X136772068Y-28577899D01*
X136638818Y-28827192D01*
X136556764Y-29097691D01*
X136529057Y-29379000D01*
X136556764Y-29660309D01*
X136638818Y-29930808D01*
X136772068Y-30180101D01*
X136951392Y-30398608D01*
X137169899Y-30577932D01*
X137419192Y-30711182D01*
X137689691Y-30793236D01*
X137900508Y-30814000D01*
X138041492Y-30814000D01*
X138252309Y-30793236D01*
X138522808Y-30711182D01*
X138772101Y-30577932D01*
X138990608Y-30398608D01*
X139169932Y-30180101D01*
X139210702Y-30103826D01*
X139215385Y-30103365D01*
X139353933Y-30061337D01*
X139481620Y-29993087D01*
X139593538Y-29901238D01*
X139616558Y-29873188D01*
X140644747Y-28845000D01*
X142056258Y-28845000D01*
X141983084Y-29086223D01*
X141954149Y-29380000D01*
X141983084Y-29673777D01*
X142068775Y-29956264D01*
X142207931Y-30216606D01*
X142395203Y-30444797D01*
X142623394Y-30632069D01*
X142656940Y-30650000D01*
X142623394Y-30667931D01*
X142395203Y-30855203D01*
X142207931Y-31083394D01*
X142068775Y-31343736D01*
X141983084Y-31626223D01*
X141954149Y-31920000D01*
X141983084Y-32213777D01*
X142056258Y-32455000D01*
X138911547Y-32455000D01*
X134238359Y-27781813D01*
X134215338Y-27753762D01*
X134103420Y-27661913D01*
X133975733Y-27593663D01*
X133837185Y-27551635D01*
X133729205Y-27541000D01*
X133693100Y-27537444D01*
X133656995Y-27541000D01*
X131620032Y-27541000D01*
X131719246Y-27331087D01*
X131759904Y-27197039D01*
X131637915Y-26975000D01*
X130495000Y-26975000D01*
X130495000Y-26995000D01*
X130241000Y-26995000D01*
X130241000Y-26975000D01*
X129098085Y-26975000D01*
X128976096Y-27197039D01*
X129016754Y-27331087D01*
X129115968Y-27541000D01*
X124004713Y-27541000D01*
X124080182Y-27399808D01*
X124162236Y-27129309D01*
X124189943Y-26848000D01*
X124162236Y-26566691D01*
X124080182Y-26296192D01*
X123946932Y-26046899D01*
X123767608Y-25828392D01*
X123654518Y-25735581D01*
X123672482Y-25733812D01*
X123792180Y-25697502D01*
X123902494Y-25638537D01*
X123999185Y-25559185D01*
X124078537Y-25462494D01*
X124137502Y-25352180D01*
X124173812Y-25232482D01*
X124186072Y-25108000D01*
X124186072Y-23942600D01*
X127644368Y-23942600D01*
X128564806Y-24863039D01*
X128590659Y-24894541D01*
X128628800Y-24925842D01*
X128716357Y-24997699D01*
X128793633Y-25039004D01*
X128859766Y-25074353D01*
X129015374Y-25121556D01*
X129136647Y-25133500D01*
X129136649Y-25133500D01*
X129177200Y-25137494D01*
X129191235Y-25136112D01*
X129348392Y-25327608D01*
X129566899Y-25506932D01*
X129704682Y-25580579D01*
X129512869Y-25695615D01*
X129304481Y-25884586D01*
X129136963Y-26110580D01*
X129016754Y-26364913D01*
X128976096Y-26498961D01*
X129098085Y-26721000D01*
X130241000Y-26721000D01*
X130241000Y-26701000D01*
X130495000Y-26701000D01*
X130495000Y-26721000D01*
X131637915Y-26721000D01*
X131759904Y-26498961D01*
X131719246Y-26364913D01*
X131599037Y-26110580D01*
X131431519Y-25884586D01*
X131223131Y-25695615D01*
X131031318Y-25580579D01*
X131169101Y-25506932D01*
X131387608Y-25327608D01*
X131566932Y-25109101D01*
X131700182Y-24859808D01*
X131782236Y-24589309D01*
X131809943Y-24308000D01*
X131782236Y-24026691D01*
X131700182Y-23756192D01*
X131566932Y-23506899D01*
X131387608Y-23288392D01*
X131379210Y-23281500D01*
X131638754Y-23281500D01*
X133150446Y-24793193D01*
X133173462Y-24821238D01*
X133285380Y-24913087D01*
X133413067Y-24981337D01*
X133551615Y-25023365D01*
X133556298Y-25023826D01*
X133597068Y-25100101D01*
X133776392Y-25318608D01*
X133994899Y-25497932D01*
X134244192Y-25631182D01*
X134514691Y-25713236D01*
X134725508Y-25734000D01*
X134866492Y-25734000D01*
X135077309Y-25713236D01*
X135347808Y-25631182D01*
X135597101Y-25497932D01*
X135815608Y-25318608D01*
X135994932Y-25100101D01*
X136128182Y-24850808D01*
X136210236Y-24580309D01*
X136237943Y-24299000D01*
X136210236Y-24017691D01*
X136128182Y-23747192D01*
X135994932Y-23497899D01*
X135815608Y-23279392D01*
X135597101Y-23100068D01*
X135347808Y-22966818D01*
X135077309Y-22884764D01*
X134866492Y-22864000D01*
X134725508Y-22864000D01*
X134514691Y-22884764D01*
X134244192Y-22966818D01*
X133994899Y-23100068D01*
X133776392Y-23279392D01*
X133748962Y-23312815D01*
X133285346Y-22849200D01*
X140077154Y-22849200D01*
X142753138Y-25525185D01*
X142753138Y-25525185D01*
G37*
X142753138Y-25525185D02*
X142571512Y-25633183D01*
X142353146Y-25829707D01*
X142177316Y-26065056D01*
X142050778Y-26330186D01*
X142005042Y-26480974D01*
X142126183Y-26713000D01*
X143333000Y-26713000D01*
X143333000Y-26693000D01*
X143587000Y-26693000D01*
X143587000Y-26713000D01*
X143607000Y-26713000D01*
X143607000Y-26967000D01*
X143587000Y-26967000D01*
X143587000Y-26987000D01*
X143333000Y-26987000D01*
X143333000Y-26967000D01*
X142126183Y-26967000D01*
X142005042Y-27199026D01*
X142050778Y-27349814D01*
X142062798Y-27375000D01*
X140376404Y-27375000D01*
X140340299Y-27371444D01*
X140196214Y-27385635D01*
X140157312Y-27397436D01*
X140057667Y-27427663D01*
X139929980Y-27495913D01*
X139818062Y-27587762D01*
X139795046Y-27615807D01*
X139018038Y-28392816D01*
X138990608Y-28359392D01*
X138772101Y-28180068D01*
X138522808Y-28046818D01*
X138252309Y-27964764D01*
X138041492Y-27944000D01*
X137900508Y-27944000D01*
X137689691Y-27964764D01*
X137419192Y-28046818D01*
X137169899Y-28180068D01*
X136951392Y-28359392D01*
X136772068Y-28577899D01*
X136638818Y-28827192D01*
X136556764Y-29097691D01*
X136529057Y-29379000D01*
X136556764Y-29660309D01*
X136638818Y-29930808D01*
X136772068Y-30180101D01*
X136951392Y-30398608D01*
X137169899Y-30577932D01*
X137419192Y-30711182D01*
X137689691Y-30793236D01*
X137900508Y-30814000D01*
X138041492Y-30814000D01*
X138252309Y-30793236D01*
X138522808Y-30711182D01*
X138772101Y-30577932D01*
X138990608Y-30398608D01*
X139169932Y-30180101D01*
X139210702Y-30103826D01*
X139215385Y-30103365D01*
X139353933Y-30061337D01*
X139481620Y-29993087D01*
X139593538Y-29901238D01*
X139616558Y-29873188D01*
X140644747Y-28845000D01*
X142056258Y-28845000D01*
X141983084Y-29086223D01*
X141954149Y-29380000D01*
X141983084Y-29673777D01*
X142068775Y-29956264D01*
X142207931Y-30216606D01*
X142395203Y-30444797D01*
X142623394Y-30632069D01*
X142656940Y-30650000D01*
X142623394Y-30667931D01*
X142395203Y-30855203D01*
X142207931Y-31083394D01*
X142068775Y-31343736D01*
X141983084Y-31626223D01*
X141954149Y-31920000D01*
X141983084Y-32213777D01*
X142056258Y-32455000D01*
X138911547Y-32455000D01*
X134238359Y-27781813D01*
X134215338Y-27753762D01*
X134103420Y-27661913D01*
X133975733Y-27593663D01*
X133837185Y-27551635D01*
X133729205Y-27541000D01*
X133693100Y-27537444D01*
X133656995Y-27541000D01*
X131620032Y-27541000D01*
X131719246Y-27331087D01*
X131759904Y-27197039D01*
X131637915Y-26975000D01*
X130495000Y-26975000D01*
X130495000Y-26995000D01*
X130241000Y-26995000D01*
X130241000Y-26975000D01*
X129098085Y-26975000D01*
X128976096Y-27197039D01*
X129016754Y-27331087D01*
X129115968Y-27541000D01*
X124004713Y-27541000D01*
X124080182Y-27399808D01*
X124162236Y-27129309D01*
X124189943Y-26848000D01*
X124162236Y-26566691D01*
X124080182Y-26296192D01*
X123946932Y-26046899D01*
X123767608Y-25828392D01*
X123654518Y-25735581D01*
X123672482Y-25733812D01*
X123792180Y-25697502D01*
X123902494Y-25638537D01*
X123999185Y-25559185D01*
X124078537Y-25462494D01*
X124137502Y-25352180D01*
X124173812Y-25232482D01*
X124186072Y-25108000D01*
X124186072Y-23942600D01*
X127644368Y-23942600D01*
X128564806Y-24863039D01*
X128590659Y-24894541D01*
X128628800Y-24925842D01*
X128716357Y-24997699D01*
X128793633Y-25039004D01*
X128859766Y-25074353D01*
X129015374Y-25121556D01*
X129136647Y-25133500D01*
X129136649Y-25133500D01*
X129177200Y-25137494D01*
X129191235Y-25136112D01*
X129348392Y-25327608D01*
X129566899Y-25506932D01*
X129704682Y-25580579D01*
X129512869Y-25695615D01*
X129304481Y-25884586D01*
X129136963Y-26110580D01*
X129016754Y-26364913D01*
X128976096Y-26498961D01*
X129098085Y-26721000D01*
X130241000Y-26721000D01*
X130241000Y-26701000D01*
X130495000Y-26701000D01*
X130495000Y-26721000D01*
X131637915Y-26721000D01*
X131759904Y-26498961D01*
X131719246Y-26364913D01*
X131599037Y-26110580D01*
X131431519Y-25884586D01*
X131223131Y-25695615D01*
X131031318Y-25580579D01*
X131169101Y-25506932D01*
X131387608Y-25327608D01*
X131566932Y-25109101D01*
X131700182Y-24859808D01*
X131782236Y-24589309D01*
X131809943Y-24308000D01*
X131782236Y-24026691D01*
X131700182Y-23756192D01*
X131566932Y-23506899D01*
X131387608Y-23288392D01*
X131379210Y-23281500D01*
X131638754Y-23281500D01*
X133150446Y-24793193D01*
X133173462Y-24821238D01*
X133285380Y-24913087D01*
X133413067Y-24981337D01*
X133551615Y-25023365D01*
X133556298Y-25023826D01*
X133597068Y-25100101D01*
X133776392Y-25318608D01*
X133994899Y-25497932D01*
X134244192Y-25631182D01*
X134514691Y-25713236D01*
X134725508Y-25734000D01*
X134866492Y-25734000D01*
X135077309Y-25713236D01*
X135347808Y-25631182D01*
X135597101Y-25497932D01*
X135815608Y-25318608D01*
X135994932Y-25100101D01*
X136128182Y-24850808D01*
X136210236Y-24580309D01*
X136237943Y-24299000D01*
X136210236Y-24017691D01*
X136128182Y-23747192D01*
X135994932Y-23497899D01*
X135815608Y-23279392D01*
X135597101Y-23100068D01*
X135347808Y-22966818D01*
X135077309Y-22884764D01*
X134866492Y-22864000D01*
X134725508Y-22864000D01*
X134514691Y-22884764D01*
X134244192Y-22966818D01*
X133994899Y-23100068D01*
X133776392Y-23279392D01*
X133748962Y-23312815D01*
X133285346Y-22849200D01*
X140077154Y-22849200D01*
X142753138Y-25525185D01*
G36*
X82293903Y-23560298D02*
G01*
X83107000Y-24373395D01*
X83920097Y-23560298D01*
X83852877Y-23331200D01*
X89942387Y-23331200D01*
X89868847Y-23380338D01*
X89681338Y-23567847D01*
X89534013Y-23788335D01*
X89432533Y-24033328D01*
X89380800Y-24293411D01*
X89380800Y-24558589D01*
X89421155Y-24761470D01*
X89305080Y-24823513D01*
X89193162Y-24915362D01*
X89170146Y-24943407D01*
X88464858Y-25648695D01*
X88319589Y-25619800D01*
X88054411Y-25619800D01*
X87794328Y-25671533D01*
X87549335Y-25773013D01*
X87328847Y-25920338D01*
X87141338Y-26107847D01*
X86994013Y-26328335D01*
X86892533Y-26573328D01*
X86840800Y-26833411D01*
X86840800Y-27098589D01*
X86892533Y-27358672D01*
X86994013Y-27603665D01*
X87141338Y-27824153D01*
X87328847Y-28011662D01*
X87549335Y-28158987D01*
X87735260Y-28236000D01*
X87549335Y-28313013D01*
X87328847Y-28460338D01*
X87141338Y-28647847D01*
X86994013Y-28868335D01*
X86892533Y-29113328D01*
X86840800Y-29373411D01*
X86840800Y-29638589D01*
X86877740Y-29824300D01*
X79859105Y-29824300D01*
X79823000Y-29820744D01*
X79678915Y-29834935D01*
X79540366Y-29876963D01*
X79466737Y-29916319D01*
X79412680Y-29945213D01*
X79300762Y-30037062D01*
X79277746Y-30065107D01*
X78744400Y-30598453D01*
X78744400Y-25545702D01*
X79118903Y-25545702D01*
X79190486Y-25789671D01*
X79445996Y-25910571D01*
X79720184Y-25979300D01*
X80002512Y-25993217D01*
X80282130Y-25951787D01*
X80548292Y-25856603D01*
X80673514Y-25789671D01*
X80745097Y-25545702D01*
X82293903Y-25545702D01*
X82365486Y-25789671D01*
X82620996Y-25910571D01*
X82895184Y-25979300D01*
X83177512Y-25993217D01*
X83457130Y-25951787D01*
X83723292Y-25856603D01*
X83848514Y-25789671D01*
X83920097Y-25545702D01*
X83107000Y-24732605D01*
X82293903Y-25545702D01*
X80745097Y-25545702D01*
X79932000Y-24732605D01*
X79118903Y-25545702D01*
X78744400Y-25545702D01*
X78744400Y-25308912D01*
X78939298Y-25366097D01*
X79752395Y-24553000D01*
X80111605Y-24553000D01*
X80924702Y-25366097D01*
X81168671Y-25294514D01*
X81289571Y-25039004D01*
X81358300Y-24764816D01*
X81365265Y-24623512D01*
X81666783Y-24623512D01*
X81708213Y-24903130D01*
X81803397Y-25169292D01*
X81870329Y-25294514D01*
X82114298Y-25366097D01*
X82927395Y-24553000D01*
X83286605Y-24553000D01*
X84099702Y-25366097D01*
X84343671Y-25294514D01*
X84464571Y-25039004D01*
X84533300Y-24764816D01*
X84547217Y-24482488D01*
X84505787Y-24202870D01*
X84410603Y-23936708D01*
X84343671Y-23811486D01*
X84099702Y-23739903D01*
X83286605Y-24553000D01*
X82927395Y-24553000D01*
X82114298Y-23739903D01*
X81870329Y-23811486D01*
X81749429Y-24066996D01*
X81680700Y-24341184D01*
X81666783Y-24623512D01*
X81365265Y-24623512D01*
X81372217Y-24482488D01*
X81330787Y-24202870D01*
X81235603Y-23936708D01*
X81168671Y-23811486D01*
X80924702Y-23739903D01*
X80111605Y-24553000D01*
X79752395Y-24553000D01*
X79738253Y-24538858D01*
X79917858Y-24359253D01*
X79932000Y-24373395D01*
X80745097Y-23560298D01*
X80677877Y-23331200D01*
X82361123Y-23331200D01*
X82293903Y-23560298D01*
X82293903Y-23560298D01*
G37*
X82293903Y-23560298D02*
X83107000Y-24373395D01*
X83920097Y-23560298D01*
X83852877Y-23331200D01*
X89942387Y-23331200D01*
X89868847Y-23380338D01*
X89681338Y-23567847D01*
X89534013Y-23788335D01*
X89432533Y-24033328D01*
X89380800Y-24293411D01*
X89380800Y-24558589D01*
X89421155Y-24761470D01*
X89305080Y-24823513D01*
X89193162Y-24915362D01*
X89170146Y-24943407D01*
X88464858Y-25648695D01*
X88319589Y-25619800D01*
X88054411Y-25619800D01*
X87794328Y-25671533D01*
X87549335Y-25773013D01*
X87328847Y-25920338D01*
X87141338Y-26107847D01*
X86994013Y-26328335D01*
X86892533Y-26573328D01*
X86840800Y-26833411D01*
X86840800Y-27098589D01*
X86892533Y-27358672D01*
X86994013Y-27603665D01*
X87141338Y-27824153D01*
X87328847Y-28011662D01*
X87549335Y-28158987D01*
X87735260Y-28236000D01*
X87549335Y-28313013D01*
X87328847Y-28460338D01*
X87141338Y-28647847D01*
X86994013Y-28868335D01*
X86892533Y-29113328D01*
X86840800Y-29373411D01*
X86840800Y-29638589D01*
X86877740Y-29824300D01*
X79859105Y-29824300D01*
X79823000Y-29820744D01*
X79678915Y-29834935D01*
X79540366Y-29876963D01*
X79466737Y-29916319D01*
X79412680Y-29945213D01*
X79300762Y-30037062D01*
X79277746Y-30065107D01*
X78744400Y-30598453D01*
X78744400Y-25545702D01*
X79118903Y-25545702D01*
X79190486Y-25789671D01*
X79445996Y-25910571D01*
X79720184Y-25979300D01*
X80002512Y-25993217D01*
X80282130Y-25951787D01*
X80548292Y-25856603D01*
X80673514Y-25789671D01*
X80745097Y-25545702D01*
X82293903Y-25545702D01*
X82365486Y-25789671D01*
X82620996Y-25910571D01*
X82895184Y-25979300D01*
X83177512Y-25993217D01*
X83457130Y-25951787D01*
X83723292Y-25856603D01*
X83848514Y-25789671D01*
X83920097Y-25545702D01*
X83107000Y-24732605D01*
X82293903Y-25545702D01*
X80745097Y-25545702D01*
X79932000Y-24732605D01*
X79118903Y-25545702D01*
X78744400Y-25545702D01*
X78744400Y-25308912D01*
X78939298Y-25366097D01*
X79752395Y-24553000D01*
X80111605Y-24553000D01*
X80924702Y-25366097D01*
X81168671Y-25294514D01*
X81289571Y-25039004D01*
X81358300Y-24764816D01*
X81365265Y-24623512D01*
X81666783Y-24623512D01*
X81708213Y-24903130D01*
X81803397Y-25169292D01*
X81870329Y-25294514D01*
X82114298Y-25366097D01*
X82927395Y-24553000D01*
X83286605Y-24553000D01*
X84099702Y-25366097D01*
X84343671Y-25294514D01*
X84464571Y-25039004D01*
X84533300Y-24764816D01*
X84547217Y-24482488D01*
X84505787Y-24202870D01*
X84410603Y-23936708D01*
X84343671Y-23811486D01*
X84099702Y-23739903D01*
X83286605Y-24553000D01*
X82927395Y-24553000D01*
X82114298Y-23739903D01*
X81870329Y-23811486D01*
X81749429Y-24066996D01*
X81680700Y-24341184D01*
X81666783Y-24623512D01*
X81365265Y-24623512D01*
X81372217Y-24482488D01*
X81330787Y-24202870D01*
X81235603Y-23936708D01*
X81168671Y-23811486D01*
X80924702Y-23739903D01*
X80111605Y-24553000D01*
X79752395Y-24553000D01*
X79738253Y-24538858D01*
X79917858Y-24359253D01*
X79932000Y-24373395D01*
X80745097Y-23560298D01*
X80677877Y-23331200D01*
X82361123Y-23331200D01*
X82293903Y-23560298D01*
G36*
X92074013Y-27603665D02*
G01*
X92221338Y-27824153D01*
X92408847Y-28011662D01*
X92532001Y-28093950D01*
X92532001Y-28161652D01*
X91879521Y-28814133D01*
X91656273Y-28756332D01*
X90906605Y-29506000D01*
X90920748Y-29520143D01*
X90741143Y-29699748D01*
X90727000Y-29685605D01*
X90712858Y-29699748D01*
X90533253Y-29520143D01*
X90547395Y-29506000D01*
X89797727Y-28756332D01*
X89562817Y-28817152D01*
X89454794Y-29048934D01*
X89379987Y-28868335D01*
X89232662Y-28647847D01*
X89045153Y-28460338D01*
X88824665Y-28313013D01*
X88638740Y-28236000D01*
X88824665Y-28158987D01*
X89045153Y-28011662D01*
X89232662Y-27824153D01*
X89379987Y-27603665D01*
X89457000Y-27417740D01*
X89534013Y-27603665D01*
X89681338Y-27824153D01*
X89868847Y-28011662D01*
X90089335Y-28158987D01*
X90277600Y-28236969D01*
X90141720Y-28286458D01*
X90038152Y-28341817D01*
X89977332Y-28576727D01*
X90727000Y-29326395D01*
X91476668Y-28576727D01*
X91415848Y-28341817D01*
X91184066Y-28233794D01*
X91364665Y-28158987D01*
X91585153Y-28011662D01*
X91772662Y-27824153D01*
X91919987Y-27603665D01*
X91997000Y-27417740D01*
X92074013Y-27603665D01*
X92074013Y-27603665D01*
G37*
X92074013Y-27603665D02*
X92221338Y-27824153D01*
X92408847Y-28011662D01*
X92532001Y-28093950D01*
X92532001Y-28161652D01*
X91879521Y-28814133D01*
X91656273Y-28756332D01*
X90906605Y-29506000D01*
X90920748Y-29520143D01*
X90741143Y-29699748D01*
X90727000Y-29685605D01*
X90712858Y-29699748D01*
X90533253Y-29520143D01*
X90547395Y-29506000D01*
X89797727Y-28756332D01*
X89562817Y-28817152D01*
X89454794Y-29048934D01*
X89379987Y-28868335D01*
X89232662Y-28647847D01*
X89045153Y-28460338D01*
X88824665Y-28313013D01*
X88638740Y-28236000D01*
X88824665Y-28158987D01*
X89045153Y-28011662D01*
X89232662Y-27824153D01*
X89379987Y-27603665D01*
X89457000Y-27417740D01*
X89534013Y-27603665D01*
X89681338Y-27824153D01*
X89868847Y-28011662D01*
X90089335Y-28158987D01*
X90277600Y-28236969D01*
X90141720Y-28286458D01*
X90038152Y-28341817D01*
X89977332Y-28576727D01*
X90727000Y-29326395D01*
X91476668Y-28576727D01*
X91415848Y-28341817D01*
X91184066Y-28233794D01*
X91364665Y-28158987D01*
X91585153Y-28011662D01*
X91772662Y-27824153D01*
X91919987Y-27603665D01*
X91997000Y-27417740D01*
X92074013Y-27603665D01*
G36*
X121496815Y-25559185D02*
G01*
X121593506Y-25638537D01*
X121703820Y-25697502D01*
X121823518Y-25733812D01*
X121841482Y-25735581D01*
X121728392Y-25828392D01*
X121549068Y-26046899D01*
X121415818Y-26296192D01*
X121333764Y-26566691D01*
X121306057Y-26848000D01*
X121333764Y-27129309D01*
X121415818Y-27399808D01*
X121491287Y-27541000D01*
X119974237Y-27541000D01*
X119999246Y-27488087D01*
X120039904Y-27354039D01*
X119917915Y-27132000D01*
X118775000Y-27132000D01*
X118775000Y-27152000D01*
X118521000Y-27152000D01*
X118521000Y-27132000D01*
X117378085Y-27132000D01*
X117256096Y-27354039D01*
X117296754Y-27488087D01*
X117321763Y-27541000D01*
X116709105Y-27541000D01*
X116673000Y-27537444D01*
X116528915Y-27551635D01*
X116390366Y-27593663D01*
X116266751Y-27659737D01*
X116262680Y-27661913D01*
X116150762Y-27753762D01*
X116127746Y-27781807D01*
X115417150Y-28492404D01*
X115274089Y-28396814D01*
X115103929Y-28326332D01*
X114938715Y-28293469D01*
X112831929Y-26186682D01*
X112945967Y-26247637D01*
X113042486Y-26276916D01*
X113084514Y-26289665D01*
X113098732Y-26291065D01*
X113192495Y-26300300D01*
X113192502Y-26300300D01*
X113228599Y-26303855D01*
X113264696Y-26300300D01*
X117401498Y-26300300D01*
X117296754Y-26521913D01*
X117256096Y-26655961D01*
X117378085Y-26878000D01*
X118521000Y-26878000D01*
X118521000Y-26858000D01*
X118775000Y-26858000D01*
X118775000Y-26878000D01*
X119917915Y-26878000D01*
X120039904Y-26655961D01*
X119999246Y-26521913D01*
X119894502Y-26300300D01*
X120354295Y-26300300D01*
X120390400Y-26303856D01*
X120426505Y-26300300D01*
X120534485Y-26289665D01*
X120673033Y-26247637D01*
X120800720Y-26179387D01*
X120912638Y-26087538D01*
X120935658Y-26059488D01*
X121469385Y-25525761D01*
X121496815Y-25559185D01*
X121496815Y-25559185D01*
G37*
X121496815Y-25559185D02*
X121593506Y-25638537D01*
X121703820Y-25697502D01*
X121823518Y-25733812D01*
X121841482Y-25735581D01*
X121728392Y-25828392D01*
X121549068Y-26046899D01*
X121415818Y-26296192D01*
X121333764Y-26566691D01*
X121306057Y-26848000D01*
X121333764Y-27129309D01*
X121415818Y-27399808D01*
X121491287Y-27541000D01*
X119974237Y-27541000D01*
X119999246Y-27488087D01*
X120039904Y-27354039D01*
X119917915Y-27132000D01*
X118775000Y-27132000D01*
X118775000Y-27152000D01*
X118521000Y-27152000D01*
X118521000Y-27132000D01*
X117378085Y-27132000D01*
X117256096Y-27354039D01*
X117296754Y-27488087D01*
X117321763Y-27541000D01*
X116709105Y-27541000D01*
X116673000Y-27537444D01*
X116528915Y-27551635D01*
X116390366Y-27593663D01*
X116266751Y-27659737D01*
X116262680Y-27661913D01*
X116150762Y-27753762D01*
X116127746Y-27781807D01*
X115417150Y-28492404D01*
X115274089Y-28396814D01*
X115103929Y-28326332D01*
X114938715Y-28293469D01*
X112831929Y-26186682D01*
X112945967Y-26247637D01*
X113042486Y-26276916D01*
X113084514Y-26289665D01*
X113098732Y-26291065D01*
X113192495Y-26300300D01*
X113192502Y-26300300D01*
X113228599Y-26303855D01*
X113264696Y-26300300D01*
X117401498Y-26300300D01*
X117296754Y-26521913D01*
X117256096Y-26655961D01*
X117378085Y-26878000D01*
X118521000Y-26878000D01*
X118521000Y-26858000D01*
X118775000Y-26858000D01*
X118775000Y-26878000D01*
X119917915Y-26878000D01*
X120039904Y-26655961D01*
X119999246Y-26521913D01*
X119894502Y-26300300D01*
X120354295Y-26300300D01*
X120390400Y-26303856D01*
X120426505Y-26300300D01*
X120534485Y-26289665D01*
X120673033Y-26247637D01*
X120800720Y-26179387D01*
X120912638Y-26087538D01*
X120935658Y-26059488D01*
X121469385Y-25525761D01*
X121496815Y-25559185D01*
M02*
