G04 #@! TF.GenerationSoftware,KiCad,Pcbnew,(5.1.2-1)-1*
G04 #@! TF.CreationDate,2019-11-02T17:06:47+00:00*
G04 #@! TF.ProjectId,A500 FastRAM,41353030-2046-4617-9374-52414d2e6b69,rev?*
G04 #@! TF.SameCoordinates,Original*
G04 #@! TF.FileFunction,Copper,L2,Bot*
G04 #@! TF.FilePolarity,Positive*
%FSLAX46Y46*%
G04 Gerber Fmt 4.6, Leading zero omitted, Abs format (unit mm)*
G04 Created by KiCad (PCBNEW (5.1.2-1)-1) date 2019-11-02 17:06:47*
%MOMM*%
%LPD*%
G04 APERTURE LIST*
%ADD10C,1.600000*%
%ADD11O,1.600000X1.600000*%
%ADD12R,1.727200X1.727200*%
%ADD13O,1.727200X1.727200*%
%ADD14R,1.422400X1.422400*%
%ADD15C,1.422400*%
%ADD16R,1.600000X1.600000*%
%ADD17O,2.400000X1.600000*%
%ADD18R,2.400000X1.600000*%
%ADD19C,0.800000*%
%ADD20C,0.600000*%
%ADD21C,0.381000*%
%ADD22C,0.200000*%
%ADD23C,0.254000*%
G04 APERTURE END LIST*
D10*
X79932000Y-34713000D03*
D11*
X79932000Y-42213000D03*
X83107000Y-32053000D03*
D10*
X83107000Y-24553000D03*
D11*
X79932000Y-32053000D03*
D10*
X79932000Y-24553000D03*
X83107000Y-34713000D03*
D11*
X83107000Y-42213000D03*
D10*
X113538000Y-58420000D03*
D11*
X121038000Y-58420000D03*
X121661000Y-89745000D03*
D10*
X114161000Y-89745000D03*
X114161000Y-92920000D03*
D11*
X121661000Y-92920000D03*
X130358000Y-58420000D03*
D10*
X137858000Y-58420000D03*
X135671000Y-89745000D03*
D11*
X143171000Y-89745000D03*
X143171000Y-92920000D03*
D10*
X135671000Y-92920000D03*
X127254000Y-102000000D03*
D11*
X127254000Y-94500000D03*
X121651000Y-124083000D03*
D10*
X114151000Y-124083000D03*
X114151000Y-127258000D03*
D11*
X121651000Y-127258000D03*
X130619000Y-94500000D03*
D10*
X130619000Y-102000000D03*
X135661000Y-124083000D03*
D11*
X143161000Y-124083000D03*
X143161000Y-127258000D03*
D10*
X135661000Y-127258000D03*
D12*
X146000000Y-37000000D03*
D13*
X143460000Y-37000000D03*
X146000000Y-34460000D03*
X143460000Y-34460000D03*
X146000000Y-31920000D03*
X143460000Y-31920000D03*
X146000000Y-29380000D03*
X143460000Y-29380000D03*
X146000000Y-26840000D03*
X143460000Y-26840000D03*
D10*
X134796000Y-42079000D03*
D11*
X134796000Y-34459000D03*
X134796000Y-24299000D03*
D10*
X134796000Y-31919000D03*
X137971000Y-36999000D03*
D11*
X137971000Y-29379000D03*
D10*
X130366000Y-46990000D03*
D11*
X130366000Y-54490000D03*
D14*
X98347000Y-26966000D03*
D15*
X95807000Y-26966000D03*
X93267000Y-26966000D03*
X100887000Y-26966000D03*
X103427000Y-26966000D03*
X95807000Y-24426000D03*
X93267000Y-24426000D03*
X90727000Y-24426000D03*
X98347000Y-24426000D03*
X100887000Y-24426000D03*
X90727000Y-26966000D03*
X90727000Y-29506000D03*
X90727000Y-32046000D03*
X90727000Y-34586000D03*
X90727000Y-37126000D03*
X88187000Y-26966000D03*
X88187000Y-29506000D03*
X88187000Y-32046000D03*
X88187000Y-34586000D03*
X88187000Y-37126000D03*
X88187000Y-39666000D03*
X90727000Y-39666000D03*
X93267000Y-39666000D03*
X95807000Y-39666000D03*
X98347000Y-39666000D03*
X100887000Y-39666000D03*
X105967000Y-39666000D03*
X90727000Y-42206000D03*
X93267000Y-42206000D03*
X95807000Y-42206000D03*
X98347000Y-42206000D03*
X100887000Y-42206000D03*
X103427000Y-42206000D03*
X103427000Y-39666000D03*
X103427000Y-37126000D03*
X103427000Y-34586000D03*
X103427000Y-32046000D03*
X103427000Y-29506000D03*
X103427000Y-24426000D03*
X105967000Y-37126000D03*
X105967000Y-34586000D03*
X105967000Y-32046000D03*
X105967000Y-29506000D03*
X105967000Y-26966000D03*
D16*
X111028000Y-24465000D03*
D11*
X118648000Y-42245000D03*
X111028000Y-27005000D03*
X118648000Y-39705000D03*
X111028000Y-29545000D03*
X118648000Y-37165000D03*
X111028000Y-32085000D03*
X118648000Y-34625000D03*
X111028000Y-34625000D03*
X118648000Y-32085000D03*
X111028000Y-37165000D03*
X118648000Y-29545000D03*
X111028000Y-39705000D03*
X118648000Y-27005000D03*
X111028000Y-42245000D03*
X118648000Y-24465000D03*
X130368000Y-24308000D03*
X122748000Y-42088000D03*
X130368000Y-26848000D03*
X122748000Y-39548000D03*
X130368000Y-29388000D03*
X122748000Y-37008000D03*
X130368000Y-31928000D03*
X122748000Y-34468000D03*
X130368000Y-34468000D03*
X122748000Y-31928000D03*
X130368000Y-37008000D03*
X122748000Y-29388000D03*
X130368000Y-39548000D03*
X122748000Y-26848000D03*
X130368000Y-42088000D03*
D16*
X122748000Y-24308000D03*
X121158000Y-46990000D03*
D11*
X113538000Y-54610000D03*
X118618000Y-46990000D03*
X116078000Y-54610000D03*
X116078000Y-46990000D03*
X118618000Y-54610000D03*
X113538000Y-46990000D03*
X121158000Y-54610000D03*
D17*
X80140000Y-127000000D03*
X103000000Y-48260000D03*
X80140000Y-124460000D03*
X103000000Y-50800000D03*
X80140000Y-121920000D03*
X103000000Y-53340000D03*
X80140000Y-119380000D03*
X103000000Y-55880000D03*
X80140000Y-116840000D03*
X103000000Y-58420000D03*
X80140000Y-114300000D03*
X103000000Y-60960000D03*
X80140000Y-111760000D03*
X103000000Y-63500000D03*
X80140000Y-109220000D03*
X103000000Y-66040000D03*
X80140000Y-106680000D03*
X103000000Y-68580000D03*
X80140000Y-104140000D03*
X103000000Y-71120000D03*
X80140000Y-101600000D03*
X103000000Y-73660000D03*
X80140000Y-99060000D03*
X103000000Y-76200000D03*
X80140000Y-96520000D03*
X103000000Y-78740000D03*
X80140000Y-93980000D03*
X103000000Y-81280000D03*
X80140000Y-91440000D03*
X103000000Y-83820000D03*
X80140000Y-88900000D03*
X103000000Y-86360000D03*
X80140000Y-86360000D03*
X103000000Y-88900000D03*
X80140000Y-83820000D03*
X103000000Y-91440000D03*
X80140000Y-81280000D03*
X103000000Y-93980000D03*
X80140000Y-78740000D03*
X103000000Y-96520000D03*
X80140000Y-76200000D03*
X103000000Y-99060000D03*
X80140000Y-73660000D03*
X103000000Y-101600000D03*
X80140000Y-71120000D03*
X103000000Y-104140000D03*
X80140000Y-68580000D03*
X103000000Y-106680000D03*
X80140000Y-66040000D03*
X103000000Y-109220000D03*
X80140000Y-63500000D03*
X103000000Y-111760000D03*
X80140000Y-60960000D03*
X103000000Y-114300000D03*
X80140000Y-58420000D03*
X103000000Y-116840000D03*
X80140000Y-55880000D03*
X103000000Y-119380000D03*
X80140000Y-53340000D03*
X103000000Y-121920000D03*
X80140000Y-50800000D03*
X103000000Y-124460000D03*
X80140000Y-48260000D03*
D18*
X103000000Y-127000000D03*
X107000000Y-127000000D03*
D17*
X84140000Y-48260000D03*
X107000000Y-124460000D03*
X84140000Y-50800000D03*
X107000000Y-121920000D03*
X84140000Y-53340000D03*
X107000000Y-119380000D03*
X84140000Y-55880000D03*
X107000000Y-116840000D03*
X84140000Y-58420000D03*
X107000000Y-114300000D03*
X84140000Y-60960000D03*
X107000000Y-111760000D03*
X84140000Y-63500000D03*
X107000000Y-109220000D03*
X84140000Y-66040000D03*
X107000000Y-106680000D03*
X84140000Y-68580000D03*
X107000000Y-104140000D03*
X84140000Y-71120000D03*
X107000000Y-101600000D03*
X84140000Y-73660000D03*
X107000000Y-99060000D03*
X84140000Y-76200000D03*
X107000000Y-96520000D03*
X84140000Y-78740000D03*
X107000000Y-93980000D03*
X84140000Y-81280000D03*
X107000000Y-91440000D03*
X84140000Y-83820000D03*
X107000000Y-88900000D03*
X84140000Y-86360000D03*
X107000000Y-86360000D03*
X84140000Y-88900000D03*
X107000000Y-83820000D03*
X84140000Y-91440000D03*
X107000000Y-81280000D03*
X84140000Y-93980000D03*
X107000000Y-78740000D03*
X84140000Y-96520000D03*
X107000000Y-76200000D03*
X84140000Y-99060000D03*
X107000000Y-73660000D03*
X84140000Y-101600000D03*
X107000000Y-71120000D03*
X84140000Y-104140000D03*
X107000000Y-68580000D03*
X84140000Y-106680000D03*
X107000000Y-66040000D03*
X84140000Y-109220000D03*
X107000000Y-63500000D03*
X84140000Y-111760000D03*
X107000000Y-60960000D03*
X84140000Y-114300000D03*
X107000000Y-58420000D03*
X84140000Y-116840000D03*
X107000000Y-55880000D03*
X84140000Y-119380000D03*
X107000000Y-53340000D03*
X84140000Y-121920000D03*
X107000000Y-50800000D03*
X84140000Y-124460000D03*
X107000000Y-48260000D03*
X84140000Y-127000000D03*
D19*
X119732200Y-118606600D03*
X127047800Y-113964500D03*
D20*
X108081100Y-22543300D03*
X133496800Y-70086500D03*
X115408600Y-69653800D03*
X133283800Y-103080700D03*
X115168700Y-103347800D03*
X97674100Y-38007100D03*
X89508800Y-36910300D03*
X114976700Y-101556400D03*
X133465100Y-100250900D03*
X132568400Y-99020100D03*
X108926500Y-32126700D03*
X106978600Y-41892900D03*
X131954200Y-99581000D03*
X114995400Y-100269800D03*
X110878000Y-100909200D03*
X102377800Y-21251100D03*
X130976500Y-87564600D03*
X110049600Y-100945600D03*
X133303500Y-98252100D03*
X115003700Y-99039800D03*
X109277900Y-97171100D03*
X131567800Y-96078600D03*
X133315300Y-96078600D03*
X114962800Y-96470100D03*
X128628300Y-40195900D03*
X129346900Y-33625000D03*
X133310500Y-76806200D03*
X116397700Y-77593900D03*
X129857300Y-104934900D03*
X116416500Y-106627500D03*
X124088600Y-48103300D03*
X126586000Y-48283700D03*
X116725700Y-32044100D03*
X117197600Y-52108600D03*
X92311700Y-45016000D03*
X117354000Y-41153400D03*
X88481800Y-68999700D03*
X91659900Y-32959300D03*
X121304800Y-63110100D03*
X145931500Y-63110100D03*
X145948000Y-96861600D03*
X121333800Y-96888100D03*
X142694900Y-97530300D03*
X124581500Y-98034800D03*
X119889700Y-98100500D03*
X120476500Y-67644600D03*
X78072600Y-46116800D03*
X149314000Y-94350500D03*
X145736000Y-66279700D03*
X124616800Y-100851800D03*
X142694900Y-100916200D03*
X146744200Y-94338800D03*
X121346600Y-69193200D03*
X145939100Y-69376300D03*
X142449600Y-103334300D03*
X121405600Y-103967000D03*
X120736000Y-84470700D03*
X146239900Y-85705700D03*
X124379100Y-105369900D03*
X142700600Y-104639400D03*
X142023200Y-105788800D03*
X121514500Y-106668900D03*
X121346700Y-71958600D03*
X145953800Y-72875400D03*
X121353500Y-73327000D03*
X146105300Y-74535800D03*
X141533600Y-106990300D03*
X124557900Y-107011300D03*
X116487300Y-75627100D03*
X133283800Y-74781300D03*
X132754400Y-107934300D03*
X114986500Y-111715000D03*
X133497500Y-72649200D03*
X115159200Y-72218600D03*
X133205100Y-107211900D03*
X111906600Y-112481500D03*
X111768000Y-113507900D03*
X116752000Y-109995800D03*
X131365100Y-107693500D03*
X142789600Y-110346000D03*
X145754700Y-77690900D03*
X124558400Y-110709600D03*
X121342200Y-77369900D03*
X128694100Y-77400500D03*
X115114200Y-77851700D03*
X118106200Y-73139500D03*
X115069700Y-50045700D03*
X112140300Y-48454300D03*
X139614300Y-59242700D03*
X112866200Y-22150400D03*
X145925500Y-76207700D03*
X125945000Y-110856100D03*
X141917400Y-110856100D03*
X129294300Y-73973900D03*
X128090500Y-29753400D03*
X121329500Y-74177900D03*
D19*
X125517000Y-21057500D03*
D20*
X118911300Y-82346700D03*
X124559600Y-119799900D03*
X142715500Y-86172600D03*
X138860500Y-109501300D03*
X124568600Y-85581400D03*
X111481900Y-71869400D03*
X111029300Y-47475500D03*
X128955500Y-113820400D03*
X142784100Y-118193700D03*
X125429000Y-40333600D03*
X124576900Y-84700000D03*
X142691900Y-84824300D03*
X128755900Y-85129200D03*
X112140100Y-85328800D03*
X133141500Y-82160900D03*
X125800100Y-80479200D03*
X120349600Y-37096600D03*
X124550200Y-115471800D03*
X140122700Y-113342200D03*
X139433400Y-82538700D03*
X125640900Y-79329200D03*
X124549700Y-113081200D03*
X141024100Y-111708200D03*
X125197600Y-62598900D03*
X138082900Y-62463600D03*
X139363100Y-84523600D03*
X142708400Y-83419500D03*
X127747200Y-84523600D03*
X124561500Y-113918300D03*
X140744600Y-112582000D03*
X124579300Y-79529000D03*
X140773900Y-83024700D03*
X129840400Y-78114800D03*
X118827100Y-86791700D03*
X137016500Y-86791700D03*
X96599400Y-74784100D03*
X112143300Y-82801400D03*
X136467700Y-83920000D03*
X115158900Y-83423800D03*
X118442100Y-83490600D03*
X129634700Y-81279800D03*
D21*
X121651000Y-124083000D02*
X121651000Y-122892200D01*
X119732200Y-118606600D02*
X119732200Y-120973400D01*
X119732200Y-120973400D02*
X121651000Y-122892200D01*
X83107000Y-42213000D02*
X84297800Y-42213000D01*
X95807000Y-42206000D02*
X94705000Y-43308000D01*
X94705000Y-43308000D02*
X85392800Y-43308000D01*
X85392800Y-43308000D02*
X84297800Y-42213000D01*
X103427000Y-39666000D02*
X102242100Y-40850900D01*
X102242100Y-40850900D02*
X97162100Y-40850900D01*
X97162100Y-40850900D02*
X95807000Y-42206000D01*
X121557200Y-42088000D02*
X120376100Y-40906900D01*
X120376100Y-40906900D02*
X118084500Y-40906900D01*
X118084500Y-40906900D02*
X117640200Y-40462600D01*
X117640200Y-40462600D02*
X114001200Y-40462600D01*
X114001200Y-40462600D02*
X112218800Y-42245000D01*
X100887000Y-24426000D02*
X99449100Y-25863900D01*
X99449100Y-25863900D02*
X95281300Y-25863900D01*
X95281300Y-25863900D02*
X94537000Y-26608200D01*
X94537000Y-26608200D02*
X94537000Y-27301700D01*
X94537000Y-27301700D02*
X92332700Y-29506000D01*
X92332700Y-29506000D02*
X90727000Y-29506000D01*
X109837200Y-42245000D02*
X108775700Y-41183500D01*
X108775700Y-41183500D02*
X104944500Y-41183500D01*
X104944500Y-41183500D02*
X103427000Y-39666000D01*
X130368000Y-26848000D02*
X129177200Y-26848000D01*
X118648000Y-27005000D02*
X119985000Y-27005000D01*
X119985000Y-27005000D02*
X121405300Y-25584700D01*
X121405300Y-25584700D02*
X127913900Y-25584700D01*
X127913900Y-25584700D02*
X129177200Y-26848000D01*
X143161000Y-127258000D02*
X141970200Y-127258000D01*
X121651000Y-127258000D02*
X122841800Y-127258000D01*
X122841800Y-127258000D02*
X124099100Y-128515300D01*
X124099100Y-128515300D02*
X140712900Y-128515300D01*
X140712900Y-128515300D02*
X141970200Y-127258000D01*
X110645000Y-90954200D02*
X119261000Y-90954200D01*
X119261000Y-90954200D02*
X120470200Y-89745000D01*
X108590800Y-88900000D02*
X110645000Y-90954200D01*
X85730800Y-99060000D02*
X89540800Y-95250000D01*
X89540800Y-95250000D02*
X107895900Y-95250000D01*
X107895900Y-95250000D02*
X110645000Y-92500900D01*
X110645000Y-92500900D02*
X110645000Y-90954200D01*
X90727000Y-29506000D02*
X89457000Y-28236000D01*
X89457000Y-28236000D02*
X86790000Y-28236000D01*
X86790000Y-28236000D02*
X83107000Y-24553000D01*
X83107000Y-24553000D02*
X79932000Y-24553000D01*
X121038000Y-58420000D02*
X130358000Y-58420000D01*
X130368000Y-26848000D02*
X131558800Y-26848000D01*
X131558800Y-26848000D02*
X142197600Y-26848000D01*
X142197600Y-26848000D02*
X142205600Y-26840000D01*
X130619000Y-94500000D02*
X131809800Y-94500000D01*
X141980200Y-92920000D02*
X140400200Y-94500000D01*
X140400200Y-94500000D02*
X131809800Y-94500000D01*
X111028000Y-42245000D02*
X109837200Y-42245000D01*
X143171000Y-92920000D02*
X141980200Y-92920000D01*
X83107000Y-42213000D02*
X79932000Y-42213000D01*
X130619000Y-94500000D02*
X127254000Y-94500000D01*
X111028000Y-42245000D02*
X112218800Y-42245000D01*
X143460000Y-26840000D02*
X142205600Y-26840000D01*
X122748000Y-42088000D02*
X121557200Y-42088000D01*
X118618000Y-46990000D02*
X121158000Y-46990000D01*
X84140000Y-99060000D02*
X85730800Y-99060000D01*
X80140000Y-99060000D02*
X84140000Y-99060000D01*
X107000000Y-88900000D02*
X108590800Y-88900000D01*
X107000000Y-88900000D02*
X103000000Y-88900000D01*
X121661000Y-89745000D02*
X120470200Y-89745000D01*
X134796000Y-55800800D02*
X135238800Y-55800800D01*
X135238800Y-55800800D02*
X137858000Y-58420000D01*
X119808800Y-54610000D02*
X119808800Y-54982200D01*
X119808800Y-54982200D02*
X120627400Y-55800800D01*
X120627400Y-55800800D02*
X134796000Y-55800800D01*
X134796000Y-42079000D02*
X134796000Y-55800800D01*
X118618000Y-54610000D02*
X119808800Y-54610000D01*
X116078000Y-54610000D02*
X118618000Y-54610000D01*
X128508300Y-118999200D02*
X128508300Y-115425000D01*
X128508300Y-115425000D02*
X127047800Y-113964500D01*
X137971000Y-35094000D02*
X137971000Y-36999000D01*
X134796000Y-31919000D02*
X137971000Y-35094000D01*
X143460000Y-34460000D02*
X138605000Y-34460000D01*
X138605000Y-34460000D02*
X137971000Y-35094000D01*
X135671000Y-89745000D02*
X133880400Y-91535600D01*
X133880400Y-91535600D02*
X115545400Y-91535600D01*
X115545400Y-91535600D02*
X114161000Y-92920000D01*
X114151000Y-124083000D02*
X115375500Y-125307500D01*
X115375500Y-125307500D02*
X122200000Y-125307500D01*
X122200000Y-125307500D02*
X128508300Y-118999200D01*
X128508300Y-118999200D02*
X130577200Y-118999200D01*
X130577200Y-118999200D02*
X135661000Y-124083000D01*
X95807000Y-39666000D02*
X94461200Y-38320200D01*
X94461200Y-38320200D02*
X89381200Y-38320200D01*
X89381200Y-38320200D02*
X88187000Y-37126000D01*
X95807000Y-26966000D02*
X99617000Y-30776000D01*
X99617000Y-30776000D02*
X104697000Y-30776000D01*
X104697000Y-30776000D02*
X105967000Y-32046000D01*
X135661000Y-124083000D02*
X135661000Y-127258000D01*
X127254000Y-102000000D02*
X130619000Y-102000000D01*
X79932000Y-32053000D02*
X81122800Y-32053000D01*
X83107000Y-32648400D02*
X81718200Y-32648400D01*
X81718200Y-32648400D02*
X81122800Y-32053000D01*
X83107000Y-32648400D02*
X83107000Y-33243800D01*
X83107000Y-32053000D02*
X83107000Y-32648400D01*
X83107000Y-34713000D02*
X83107000Y-33243800D01*
X88187000Y-37126000D02*
X85520000Y-37126000D01*
X85520000Y-37126000D02*
X83107000Y-34713000D01*
X116078000Y-54610000D02*
X113538000Y-54610000D01*
D22*
X103427000Y-37126000D02*
X104688400Y-35864600D01*
X104688400Y-35864600D02*
X114132100Y-35864600D01*
X114132100Y-35864600D02*
X116637900Y-33358800D01*
X116637900Y-33358800D02*
X128764200Y-33358800D01*
X128764200Y-33358800D02*
X129098300Y-33024700D01*
X129098300Y-33024700D02*
X129595600Y-33024700D01*
X129595600Y-33024700D02*
X129929700Y-33358800D01*
X129929700Y-33358800D02*
X132595500Y-33358800D01*
X132595500Y-33358800D02*
X133695700Y-34459000D01*
X134796000Y-34459000D02*
X133695700Y-34459000D01*
X134796000Y-34459000D02*
X134796000Y-35559300D01*
X146000000Y-37000000D02*
X144836100Y-37000000D01*
X134796000Y-35559300D02*
X137400600Y-38163900D01*
X137400600Y-38163900D02*
X143963300Y-38163900D01*
X143963300Y-38163900D02*
X144836100Y-37291100D01*
X144836100Y-37291100D02*
X144836100Y-37000000D01*
X146000000Y-33296100D02*
X146271300Y-33296100D01*
X146271300Y-33296100D02*
X147163900Y-32403500D01*
X147163900Y-32403500D02*
X147163900Y-26326400D01*
X147163900Y-26326400D02*
X143062400Y-22224900D01*
X143062400Y-22224900D02*
X117413500Y-22224900D01*
X117413500Y-22224900D02*
X116879000Y-22759400D01*
X116879000Y-22759400D02*
X108297200Y-22759400D01*
X108297200Y-22759400D02*
X108081100Y-22543300D01*
X146000000Y-34460000D02*
X146000000Y-33296100D01*
X146000000Y-31920000D02*
X144836100Y-31920000D01*
X88187000Y-34586000D02*
X89198600Y-33574400D01*
X89198600Y-33574400D02*
X106464600Y-33574400D01*
X106464600Y-33574400D02*
X106684000Y-33355000D01*
X106684000Y-33355000D02*
X112544900Y-33355000D01*
X112544900Y-33355000D02*
X115170500Y-30729400D01*
X115170500Y-30729400D02*
X143916800Y-30729400D01*
X143916800Y-30729400D02*
X144836100Y-31648700D01*
X144836100Y-31648700D02*
X144836100Y-31920000D01*
X88187000Y-26966000D02*
X89715400Y-25437600D01*
X89715400Y-25437600D02*
X91149500Y-25437600D01*
X91149500Y-25437600D02*
X92154200Y-24432900D01*
X92154200Y-24432900D02*
X92154200Y-24044200D01*
X92154200Y-24044200D02*
X93038600Y-23159800D01*
X93038600Y-23159800D02*
X118908500Y-23159800D01*
X118908500Y-23159800D02*
X119443000Y-22625300D01*
X119443000Y-22625300D02*
X140892700Y-22625300D01*
X140892700Y-22625300D02*
X144836100Y-26568700D01*
X144836100Y-26568700D02*
X144836100Y-26840000D01*
X137971000Y-29379000D02*
X139071300Y-29379000D01*
X139071300Y-29379000D02*
X140340300Y-28110000D01*
X140340300Y-28110000D02*
X143863600Y-28110000D01*
X143863600Y-28110000D02*
X144836100Y-27137500D01*
X144836100Y-27137500D02*
X144836100Y-26840000D01*
X146000000Y-26840000D02*
X144836100Y-26840000D01*
X133496800Y-70086500D02*
X115841300Y-70086500D01*
X115841300Y-70086500D02*
X115408600Y-69653800D01*
X133283800Y-103080700D02*
X133016700Y-103347800D01*
X133016700Y-103347800D02*
X115168700Y-103347800D01*
X107000000Y-127000000D02*
X103000000Y-127000000D01*
X89508800Y-36910300D02*
X90313400Y-36105700D01*
X90313400Y-36105700D02*
X95772700Y-36105700D01*
X95772700Y-36105700D02*
X97674100Y-38007100D01*
X117547700Y-37165000D02*
X116158200Y-38554500D01*
X116158200Y-38554500D02*
X99458500Y-38554500D01*
X99458500Y-38554500D02*
X98347000Y-39666000D01*
X118648000Y-37165000D02*
X117547700Y-37165000D01*
X80140000Y-48260000D02*
X84140000Y-48260000D01*
X132568400Y-99020100D02*
X132568400Y-100250200D01*
X132568400Y-100250200D02*
X133464400Y-100250200D01*
X133464400Y-100250200D02*
X133465100Y-100250900D01*
X114976700Y-101556400D02*
X116282900Y-100250200D01*
X116282900Y-100250200D02*
X132568400Y-100250200D01*
X107000000Y-124460000D02*
X103000000Y-124460000D01*
X98347000Y-43243500D02*
X105628000Y-43243500D01*
X105628000Y-43243500D02*
X106978600Y-41892900D01*
X108926500Y-32126700D02*
X110096600Y-30956600D01*
X110096600Y-30956600D02*
X111500800Y-30956600D01*
X111500800Y-30956600D02*
X112912400Y-29545000D01*
X112912400Y-29545000D02*
X118648000Y-29545000D01*
X85640300Y-50800000D02*
X92382100Y-44058200D01*
X92382100Y-44058200D02*
X97532300Y-44058200D01*
X97532300Y-44058200D02*
X98347000Y-43243500D01*
X98347000Y-43243500D02*
X98347000Y-42206000D01*
X84140000Y-50800000D02*
X85640300Y-50800000D01*
X80140000Y-50800000D02*
X84140000Y-50800000D01*
X114995400Y-100269800D02*
X115684200Y-99581000D01*
X115684200Y-99581000D02*
X131954200Y-99581000D01*
X110878000Y-100909200D02*
X114356000Y-100909200D01*
X114356000Y-100909200D02*
X114995400Y-100269800D01*
X107000000Y-121920000D02*
X103000000Y-121920000D01*
X78639700Y-53340000D02*
X78639700Y-46398700D01*
X78639700Y-46398700D02*
X78672900Y-46365500D01*
X78672900Y-46365500D02*
X78672900Y-42461600D01*
X78672900Y-42461600D02*
X78191700Y-41980400D01*
X78191700Y-41980400D02*
X78191700Y-23855400D01*
X78191700Y-23855400D02*
X80796000Y-21251100D01*
X80796000Y-21251100D02*
X102377800Y-21251100D01*
X80140000Y-53340000D02*
X78639700Y-53340000D01*
X80140000Y-53340000D02*
X84140000Y-53340000D01*
X133303500Y-98252100D02*
X145406700Y-98252100D01*
X145406700Y-98252100D02*
X146548400Y-97110400D01*
X146548400Y-97110400D02*
X146548400Y-96561600D01*
X146548400Y-96561600D02*
X144458300Y-94471500D01*
X144458300Y-94471500D02*
X144458300Y-92593000D01*
X144458300Y-92593000D02*
X139429900Y-87564600D01*
X139429900Y-87564600D02*
X130976500Y-87564600D01*
X115003700Y-99039800D02*
X111898500Y-99039800D01*
X111898500Y-99039800D02*
X110049600Y-100888700D01*
X110049600Y-100888700D02*
X110049600Y-100945600D01*
X115003700Y-99039800D02*
X131479300Y-99039800D01*
X131479300Y-99039800D02*
X132267000Y-98252100D01*
X132267000Y-98252100D02*
X133303500Y-98252100D01*
X107000000Y-119380000D02*
X103000000Y-119380000D01*
X85640300Y-55880000D02*
X90766600Y-55880000D01*
X90766600Y-55880000D02*
X102511900Y-44134700D01*
X102511900Y-44134700D02*
X112026700Y-44134700D01*
X112026700Y-44134700D02*
X112777400Y-43384000D01*
X112777400Y-43384000D02*
X123243100Y-43384000D01*
X123243100Y-43384000D02*
X126030600Y-40596500D01*
X126030600Y-40596500D02*
X126030600Y-38622900D01*
X126030600Y-38622900D02*
X122976000Y-35568300D01*
X122976000Y-35568300D02*
X122748000Y-35568300D01*
X84140000Y-55880000D02*
X85640300Y-55880000D01*
X80140000Y-55880000D02*
X84140000Y-55880000D01*
X122748000Y-34468000D02*
X122748000Y-35568300D01*
X114962800Y-96470100D02*
X114261800Y-97171100D01*
X114261800Y-97171100D02*
X109277900Y-97171100D01*
X131567800Y-96078600D02*
X133315300Y-96078600D01*
X114962800Y-96470100D02*
X115354300Y-96078600D01*
X115354300Y-96078600D02*
X131567800Y-96078600D01*
X107000000Y-116840000D02*
X103000000Y-116840000D01*
X130368000Y-38108300D02*
X129756700Y-38108300D01*
X129756700Y-38108300D02*
X123680300Y-44184700D01*
X123680300Y-44184700D02*
X113391900Y-44184700D01*
X113391900Y-44184700D02*
X112241000Y-45335600D01*
X112241000Y-45335600D02*
X102726100Y-45335600D01*
X102726100Y-45335600D02*
X89641800Y-58419900D01*
X89641800Y-58419900D02*
X85640300Y-58419900D01*
X85640300Y-58419900D02*
X85640300Y-58420000D01*
X130368000Y-37008000D02*
X130368000Y-38108300D01*
X84140000Y-58420000D02*
X85640300Y-58420000D01*
X80140000Y-58420000D02*
X84140000Y-58420000D01*
X84140000Y-60960000D02*
X80140000Y-60960000D01*
X128628300Y-40195900D02*
X123936100Y-44888100D01*
X123936100Y-44888100D02*
X113254800Y-44888100D01*
X113254800Y-44888100D02*
X112406900Y-45736000D01*
X112406900Y-45736000D02*
X103029600Y-45736000D01*
X103029600Y-45736000D02*
X87805600Y-60960000D01*
X87805600Y-60960000D02*
X84140000Y-60960000D01*
X129346900Y-33625000D02*
X126430900Y-36541000D01*
X126430900Y-36541000D02*
X126430900Y-40777200D01*
X126430900Y-40777200D02*
X123423700Y-43784400D01*
X123423700Y-43784400D02*
X113226000Y-43784400D01*
X113226000Y-43784400D02*
X112075100Y-44935300D01*
X112075100Y-44935300D02*
X102560300Y-44935300D01*
X102560300Y-44935300D02*
X90345600Y-57150000D01*
X90345600Y-57150000D02*
X79423900Y-57150000D01*
X79423900Y-57150000D02*
X78639700Y-57934200D01*
X78639700Y-57934200D02*
X78639700Y-63500000D01*
X80140000Y-63500000D02*
X78639700Y-63500000D01*
X84140000Y-63500000D02*
X80140000Y-63500000D01*
X85640300Y-66040000D02*
X102150300Y-49530000D01*
X102150300Y-49530000D02*
X107751200Y-49530000D01*
X107751200Y-49530000D02*
X111144800Y-46136400D01*
X111144800Y-46136400D02*
X112572600Y-46136400D01*
X112572600Y-46136400D02*
X113400700Y-45308300D01*
X113400700Y-45308300D02*
X124374000Y-45308300D01*
X124374000Y-45308300D02*
X129267700Y-40414600D01*
X129267700Y-40414600D02*
X129267700Y-39548000D01*
X130368000Y-39548000D02*
X129267700Y-39548000D01*
X84140000Y-66040000D02*
X85640300Y-66040000D01*
X80140000Y-66040000D02*
X84140000Y-66040000D01*
X133310500Y-76806200D02*
X133221500Y-76717200D01*
X133221500Y-76717200D02*
X117274400Y-76717200D01*
X117274400Y-76717200D02*
X116397700Y-77593900D01*
X108500300Y-106680000D02*
X116364000Y-106680000D01*
X116364000Y-106680000D02*
X116416500Y-106627500D01*
X129857300Y-104934900D02*
X129658500Y-104736100D01*
X129658500Y-104736100D02*
X118307900Y-104736100D01*
X118307900Y-104736100D02*
X116416500Y-106627500D01*
X107000000Y-106680000D02*
X108500300Y-106680000D01*
X103000000Y-106680000D02*
X107000000Y-106680000D01*
X85640300Y-68580000D02*
X99610300Y-54610000D01*
X99610300Y-54610000D02*
X107695900Y-54610000D01*
X107695900Y-54610000D02*
X110797700Y-51508200D01*
X110797700Y-51508200D02*
X120683700Y-51508200D01*
X120683700Y-51508200D02*
X124088600Y-48103300D01*
X84140000Y-68580000D02*
X85640300Y-68580000D01*
X80140000Y-68580000D02*
X84140000Y-68580000D01*
X84140000Y-71120000D02*
X85640300Y-71120000D01*
X85640300Y-71120000D02*
X85640300Y-70979300D01*
X85640300Y-70979300D02*
X96929600Y-59690000D01*
X96929600Y-59690000D02*
X107695500Y-59690000D01*
X107695500Y-59690000D02*
X110736200Y-56649300D01*
X110736200Y-56649300D02*
X110736200Y-55226900D01*
X110736200Y-55226900D02*
X113053900Y-52909200D01*
X113053900Y-52909200D02*
X121960500Y-52909200D01*
X121960500Y-52909200D02*
X126586000Y-48283700D01*
X81640300Y-71120000D02*
X84140000Y-71120000D01*
X80140000Y-71120000D02*
X81640300Y-71120000D01*
X78639700Y-73660000D02*
X78639700Y-70600800D01*
X78639700Y-70600800D02*
X79220900Y-70019600D01*
X79220900Y-70019600D02*
X85176700Y-70019600D01*
X85176700Y-70019600D02*
X98046300Y-57150000D01*
X98046300Y-57150000D02*
X107766300Y-57150000D01*
X107766300Y-57150000D02*
X112807700Y-52108600D01*
X112807700Y-52108600D02*
X117197600Y-52108600D01*
X80140000Y-73660000D02*
X78639700Y-73660000D01*
X80140000Y-73660000D02*
X84140000Y-73660000D01*
X118648000Y-32085000D02*
X117547700Y-32085000D01*
X116725700Y-32044100D02*
X117506800Y-32044100D01*
X117506800Y-32044100D02*
X117547700Y-32085000D01*
X117354000Y-41153400D02*
X114441700Y-41153400D01*
X114441700Y-41153400D02*
X111925200Y-43669900D01*
X111925200Y-43669900D02*
X102410400Y-43669900D01*
X102410400Y-43669900D02*
X101064300Y-45016000D01*
X101064300Y-45016000D02*
X92311700Y-45016000D01*
X84140000Y-76200000D02*
X80140000Y-76200000D01*
X111028000Y-37165000D02*
X109927700Y-37165000D01*
X93267000Y-42206000D02*
X94764400Y-40708600D01*
X94764400Y-40708600D02*
X96205200Y-40708600D01*
X96205200Y-40708600D02*
X96891600Y-40022200D01*
X96891600Y-40022200D02*
X96891600Y-39680100D01*
X96891600Y-39680100D02*
X98424900Y-38146800D01*
X98424900Y-38146800D02*
X108945900Y-38146800D01*
X108945900Y-38146800D02*
X109927700Y-37165000D01*
X84140000Y-78740000D02*
X80140000Y-78740000D01*
X109927700Y-29545000D02*
X106359600Y-33113100D01*
X106359600Y-33113100D02*
X91813700Y-33113100D01*
X91813700Y-33113100D02*
X91659900Y-32959300D01*
X84140000Y-81280000D02*
X85640300Y-81280000D01*
X85640300Y-81280000D02*
X85640300Y-71841200D01*
X85640300Y-71841200D02*
X88481800Y-68999700D01*
X111028000Y-29545000D02*
X109927700Y-29545000D01*
X107000000Y-91440000D02*
X103000000Y-91440000D01*
X84140000Y-83820000D02*
X80140000Y-83820000D01*
X84140000Y-86360000D02*
X80140000Y-86360000D01*
X84140000Y-91440000D02*
X80140000Y-91440000D01*
X84140000Y-93980000D02*
X80140000Y-93980000D01*
X84140000Y-96520000D02*
X80140000Y-96520000D01*
X121304800Y-63110100D02*
X121413500Y-63218800D01*
X121413500Y-63218800D02*
X145822800Y-63218800D01*
X145822800Y-63218800D02*
X145931500Y-63110100D01*
X121333800Y-96888100D02*
X121360300Y-96861600D01*
X121360300Y-96861600D02*
X145948000Y-96861600D01*
X121333800Y-96888100D02*
X120250800Y-96888100D01*
X120250800Y-96888100D02*
X119348900Y-97790000D01*
X119348900Y-97790000D02*
X89450300Y-97790000D01*
X89450300Y-97790000D02*
X85640300Y-101600000D01*
X84140000Y-101600000D02*
X85640300Y-101600000D01*
X80140000Y-101600000D02*
X84140000Y-101600000D01*
X142694900Y-97530300D02*
X125086000Y-97530300D01*
X125086000Y-97530300D02*
X124581500Y-98034800D01*
X119889700Y-98100500D02*
X124515800Y-98100500D01*
X124515800Y-98100500D02*
X124581500Y-98034800D01*
X85640300Y-104140000D02*
X89363600Y-100416700D01*
X89363600Y-100416700D02*
X109729600Y-100416700D01*
X109729600Y-100416700D02*
X111955700Y-98190600D01*
X111955700Y-98190600D02*
X119799600Y-98190600D01*
X119799600Y-98190600D02*
X119889700Y-98100500D01*
X84140000Y-104140000D02*
X85640300Y-104140000D01*
X80140000Y-104140000D02*
X84140000Y-104140000D01*
X145213800Y-66801900D02*
X121319200Y-66801900D01*
X121319200Y-66801900D02*
X120476500Y-67644600D01*
X78639700Y-82419200D02*
X86210100Y-82419200D01*
X86210100Y-82419200D02*
X94447300Y-74182000D01*
X94447300Y-74182000D02*
X99027600Y-74182000D01*
X99027600Y-74182000D02*
X99617600Y-74772000D01*
X99617600Y-74772000D02*
X109520000Y-74772000D01*
X109520000Y-74772000D02*
X113337400Y-70954600D01*
X113337400Y-70954600D02*
X113337400Y-70850000D01*
X113337400Y-70850000D02*
X116542800Y-67644600D01*
X116542800Y-67644600D02*
X120476500Y-67644600D01*
X145213800Y-66801900D02*
X149314000Y-70902100D01*
X149314000Y-70902100D02*
X149314000Y-94350500D01*
X145736000Y-66279700D02*
X145213800Y-66801900D01*
X78072600Y-46116800D02*
X78072600Y-81852100D01*
X78072600Y-81852100D02*
X78639700Y-82419200D01*
X78639700Y-106680000D02*
X78639700Y-82419200D01*
X80140000Y-106680000D02*
X78639700Y-106680000D01*
X80140000Y-106680000D02*
X84140000Y-106680000D01*
X85640300Y-109220000D02*
X91923200Y-102937100D01*
X91923200Y-102937100D02*
X114717000Y-102937100D01*
X114717000Y-102937100D02*
X116802300Y-100851800D01*
X116802300Y-100851800D02*
X124616800Y-100851800D01*
X142694900Y-100916200D02*
X143308700Y-100916200D01*
X143308700Y-100916200D02*
X146948700Y-97276200D01*
X146948700Y-97276200D02*
X146948700Y-94543300D01*
X146948700Y-94543300D02*
X146744200Y-94338800D01*
X124616800Y-100851800D02*
X142630500Y-100851800D01*
X142630500Y-100851800D02*
X142694900Y-100916200D01*
X84140000Y-109220000D02*
X85640300Y-109220000D01*
X80140000Y-109220000D02*
X84140000Y-109220000D01*
X121346600Y-69193200D02*
X121529700Y-69376300D01*
X121529700Y-69376300D02*
X145939100Y-69376300D01*
X121405600Y-103967000D02*
X141816900Y-103967000D01*
X141816900Y-103967000D02*
X142449600Y-103334300D01*
X85640300Y-111760000D02*
X91820700Y-105579600D01*
X91820700Y-105579600D02*
X113743700Y-105579600D01*
X113743700Y-105579600D02*
X115356300Y-103967000D01*
X115356300Y-103967000D02*
X121405600Y-103967000D01*
X84140000Y-111760000D02*
X85640300Y-111760000D01*
X80140000Y-111760000D02*
X84140000Y-111760000D01*
X145083200Y-86862400D02*
X137936200Y-86862400D01*
X137936200Y-86862400D02*
X137265200Y-86191400D01*
X137265200Y-86191400D02*
X122456700Y-86191400D01*
X122456700Y-86191400D02*
X120736000Y-84470700D01*
X146239900Y-85705700D02*
X145083200Y-86862400D01*
X142700600Y-104639400D02*
X147349000Y-99991000D01*
X147349000Y-99991000D02*
X147349000Y-89128200D01*
X147349000Y-89128200D02*
X145083200Y-86862400D01*
X124379100Y-105562200D02*
X140921500Y-105562200D01*
X140921500Y-105562200D02*
X141844300Y-104639400D01*
X141844300Y-104639400D02*
X142700600Y-104639400D01*
X85640300Y-114300000D02*
X92091300Y-107849000D01*
X92091300Y-107849000D02*
X118415600Y-107849000D01*
X118415600Y-107849000D02*
X120702400Y-105562200D01*
X120702400Y-105562200D02*
X124379100Y-105562200D01*
X124379100Y-105562200D02*
X124379100Y-105369900D01*
X84140000Y-114300000D02*
X85640300Y-114300000D01*
X80140000Y-114300000D02*
X84140000Y-114300000D01*
X121514500Y-106668900D02*
X122029200Y-106154200D01*
X122029200Y-106154200D02*
X141657800Y-106154200D01*
X141657800Y-106154200D02*
X142023200Y-105788800D01*
X85640300Y-116840000D02*
X91845100Y-110635200D01*
X91845100Y-110635200D02*
X108171800Y-110635200D01*
X108171800Y-110635200D02*
X110557600Y-108249400D01*
X110557600Y-108249400D02*
X119934000Y-108249400D01*
X119934000Y-108249400D02*
X121514500Y-106668900D01*
X121346700Y-71958600D02*
X145037000Y-71958600D01*
X145037000Y-71958600D02*
X145953800Y-72875400D01*
X84140000Y-116840000D02*
X85640300Y-116840000D01*
X80140000Y-116840000D02*
X84140000Y-116840000D01*
X107000000Y-55880000D02*
X103000000Y-55880000D01*
X121353500Y-73327000D02*
X144896500Y-73327000D01*
X144896500Y-73327000D02*
X146105300Y-74535800D01*
X124557900Y-107011300D02*
X124960100Y-106609100D01*
X124960100Y-106609100D02*
X141152400Y-106609100D01*
X141152400Y-106609100D02*
X141533600Y-106990300D01*
X85640300Y-119380000D02*
X91924000Y-113096300D01*
X91924000Y-113096300D02*
X107621200Y-113096300D01*
X107621200Y-113096300D02*
X112067700Y-108649800D01*
X112067700Y-108649800D02*
X120780000Y-108649800D01*
X120780000Y-108649800D02*
X122418500Y-107011300D01*
X122418500Y-107011300D02*
X124557900Y-107011300D01*
X84140000Y-119380000D02*
X85640300Y-119380000D01*
X80140000Y-119380000D02*
X84140000Y-119380000D01*
X107000000Y-53340000D02*
X103000000Y-53340000D01*
X133283800Y-74781300D02*
X117333100Y-74781300D01*
X117333100Y-74781300D02*
X116487300Y-75627100D01*
X114986500Y-111715000D02*
X122029100Y-111715000D01*
X122029100Y-111715000D02*
X124681300Y-109062800D01*
X124681300Y-109062800D02*
X131625900Y-109062800D01*
X131625900Y-109062800D02*
X132754400Y-107934300D01*
X80140000Y-121920000D02*
X78639700Y-121920000D01*
X78639700Y-121920000D02*
X78639700Y-127462800D01*
X78639700Y-127462800D02*
X79303300Y-128126400D01*
X79303300Y-128126400D02*
X93066200Y-128126400D01*
X93066200Y-128126400D02*
X100542600Y-120650000D01*
X100542600Y-120650000D02*
X107717400Y-120650000D01*
X107717400Y-120650000D02*
X114986500Y-113380900D01*
X114986500Y-113380900D02*
X114986500Y-111715000D01*
X80140000Y-121920000D02*
X84140000Y-121920000D01*
X107000000Y-50800000D02*
X103000000Y-50800000D01*
X133497500Y-72649200D02*
X118464900Y-72649200D01*
X118464900Y-72649200D02*
X118034300Y-72218600D01*
X118034300Y-72218600D02*
X115159200Y-72218600D01*
X111906600Y-112481500D02*
X115337900Y-109050200D01*
X115337900Y-109050200D02*
X120945700Y-109050200D01*
X120945700Y-109050200D02*
X122338900Y-107657000D01*
X122338900Y-107657000D02*
X128584100Y-107657000D01*
X128584100Y-107657000D02*
X129157200Y-107083900D01*
X129157200Y-107083900D02*
X133077100Y-107083900D01*
X133077100Y-107083900D02*
X133205100Y-107211900D01*
X84140000Y-124460000D02*
X85640300Y-124460000D01*
X85640300Y-124460000D02*
X94530300Y-115570000D01*
X94530300Y-115570000D02*
X108818100Y-115570000D01*
X108818100Y-115570000D02*
X111906600Y-112481500D01*
X80140000Y-124460000D02*
X84140000Y-124460000D01*
X107000000Y-48260000D02*
X103000000Y-48260000D01*
X111821600Y-113561500D02*
X111768000Y-113507900D01*
X85640300Y-127000000D02*
X94530300Y-118110000D01*
X94530300Y-118110000D02*
X107742300Y-118110000D01*
X107742300Y-118110000D02*
X111821600Y-114030700D01*
X111821600Y-114030700D02*
X111821600Y-113561500D01*
X111821600Y-113561500D02*
X115387300Y-109995800D01*
X115387300Y-109995800D02*
X116752000Y-109995800D01*
X84140000Y-127000000D02*
X85640300Y-127000000D01*
X80140000Y-127000000D02*
X84140000Y-127000000D01*
X131365100Y-107693500D02*
X130837800Y-108220800D01*
X130837800Y-108220800D02*
X123215700Y-108220800D01*
X123215700Y-108220800D02*
X121440700Y-109995800D01*
X121440700Y-109995800D02*
X116752000Y-109995800D01*
X121647700Y-24308000D02*
X120390400Y-25565300D01*
X120390400Y-25565300D02*
X113228600Y-25565300D01*
X113228600Y-25565300D02*
X112128300Y-24465000D01*
X111028000Y-24465000D02*
X112128300Y-24465000D01*
X122748000Y-24308000D02*
X121647700Y-24308000D01*
X107000000Y-114300000D02*
X103000000Y-114300000D01*
X107000000Y-111760000D02*
X103000000Y-111760000D01*
X142789600Y-110234100D02*
X142789600Y-110346000D01*
X145754700Y-77690900D02*
X148149600Y-80085800D01*
X148149600Y-80085800D02*
X148149600Y-104874100D01*
X148149600Y-104874100D02*
X142789600Y-110234100D01*
X142789600Y-110234100D02*
X125033900Y-110234100D01*
X125033900Y-110234100D02*
X124558400Y-110709600D01*
X128694100Y-77400500D02*
X128700100Y-77406500D01*
X128700100Y-77406500D02*
X145470300Y-77406500D01*
X145470300Y-77406500D02*
X145754700Y-77690900D01*
X121342200Y-77369900D02*
X121372800Y-77400500D01*
X121372800Y-77400500D02*
X128694100Y-77400500D01*
X118106200Y-73139500D02*
X115114200Y-76131500D01*
X115114200Y-76131500D02*
X115114200Y-77851700D01*
X112140300Y-48454300D02*
X113731700Y-50045700D01*
X113731700Y-50045700D02*
X115069700Y-50045700D01*
X139614300Y-59242700D02*
X139614300Y-45538000D01*
X139614300Y-45538000D02*
X147564300Y-37588000D01*
X147564300Y-37588000D02*
X147564300Y-26129300D01*
X147564300Y-26129300D02*
X143242900Y-21807900D01*
X143242900Y-21807900D02*
X113208700Y-21807900D01*
X113208700Y-21807900D02*
X112866200Y-22150400D01*
X141917400Y-110856100D02*
X142068400Y-111007100D01*
X142068400Y-111007100D02*
X142977500Y-111007100D01*
X142977500Y-111007100D02*
X148550000Y-105434600D01*
X148550000Y-105434600D02*
X148550000Y-78832200D01*
X148550000Y-78832200D02*
X145925500Y-76207700D01*
X125945000Y-110856100D02*
X141917400Y-110856100D01*
X129294300Y-73973900D02*
X143691700Y-73973900D01*
X143691700Y-73973900D02*
X145925500Y-76207700D01*
X121329500Y-74177900D02*
X121533500Y-73973900D01*
X121533500Y-73973900D02*
X129294300Y-73973900D01*
X105967000Y-26966000D02*
X107119000Y-28118000D01*
X107119000Y-28118000D02*
X126455100Y-28118000D01*
X126455100Y-28118000D02*
X128090500Y-29753400D01*
X107000000Y-83820000D02*
X103000000Y-83820000D01*
D21*
X125517000Y-21057500D02*
X108133900Y-21057500D01*
X108133900Y-21057500D02*
X107235400Y-21956000D01*
X107235400Y-21956000D02*
X80785400Y-21956000D01*
X80785400Y-21956000D02*
X78682600Y-24058800D01*
X78682600Y-24058800D02*
X78682600Y-33463600D01*
X78682600Y-33463600D02*
X79932000Y-34713000D01*
X130368000Y-24308000D02*
X129177200Y-24308000D01*
X118648000Y-24465000D02*
X119838800Y-24465000D01*
X119838800Y-24465000D02*
X121186700Y-23117100D01*
X121186700Y-23117100D02*
X127986300Y-23117100D01*
X127986300Y-23117100D02*
X129177200Y-24308000D01*
X84140000Y-88900000D02*
X85730800Y-88900000D01*
X85730800Y-88900000D02*
X90810800Y-93980000D01*
X90810800Y-93980000D02*
X103000000Y-93980000D01*
X80140000Y-88900000D02*
X84140000Y-88900000D01*
X116078000Y-46990000D02*
X117268800Y-46990000D01*
X117268800Y-46990000D02*
X117268800Y-46617800D01*
X117268800Y-46617800D02*
X118087400Y-45799200D01*
X118087400Y-45799200D02*
X129175200Y-45799200D01*
X129175200Y-45799200D02*
X130366000Y-46990000D01*
X113538000Y-46990000D02*
X116078000Y-46990000D01*
X107000000Y-93980000D02*
X103000000Y-93980000D01*
D22*
X118911300Y-82346700D02*
X121333900Y-82346700D01*
X121333900Y-82346700D02*
X124568600Y-85581400D01*
X142715500Y-86172600D02*
X142324400Y-85781500D01*
X142324400Y-85781500D02*
X124768700Y-85781500D01*
X124768700Y-85781500D02*
X124568600Y-85581400D01*
X142715500Y-86172600D02*
X143811200Y-85076900D01*
X143811200Y-85076900D02*
X146511500Y-85076900D01*
X146511500Y-85076900D02*
X147749300Y-86314700D01*
X147749300Y-86314700D02*
X147749300Y-101663400D01*
X147749300Y-101663400D02*
X139911400Y-109501300D01*
X139911400Y-109501300D02*
X138860500Y-109501300D01*
X138860500Y-109501300D02*
X124890900Y-109501300D01*
X124890900Y-109501300D02*
X123938400Y-110453800D01*
X123938400Y-110453800D02*
X123938400Y-119178700D01*
X123938400Y-119178700D02*
X124559600Y-119799900D01*
X111481900Y-71869400D02*
X111481900Y-55047500D01*
X111481900Y-55047500D02*
X113019800Y-53509600D01*
X113019800Y-53509600D02*
X122209100Y-53509600D01*
X122209100Y-53509600D02*
X127198600Y-48520100D01*
X127198600Y-48520100D02*
X127198600Y-48014400D01*
X127198600Y-48014400D02*
X126686000Y-47501800D01*
X126686000Y-47501800D02*
X122701200Y-47501800D01*
X122701200Y-47501800D02*
X122077500Y-48125500D01*
X122077500Y-48125500D02*
X112660500Y-48125500D01*
X112660500Y-48125500D02*
X112010500Y-47475500D01*
X112010500Y-47475500D02*
X111029300Y-47475500D01*
X128955500Y-113820400D02*
X133328800Y-118193700D01*
X133328800Y-118193700D02*
X142784100Y-118193700D01*
X128755900Y-85129200D02*
X142387000Y-85129200D01*
X142387000Y-85129200D02*
X142691900Y-84824300D01*
X124576900Y-84700000D02*
X125006100Y-85129200D01*
X125006100Y-85129200D02*
X128755900Y-85129200D01*
X119748300Y-34625000D02*
X119748300Y-35645100D01*
X119748300Y-35645100D02*
X122381200Y-38278000D01*
X122381200Y-38278000D02*
X123373400Y-38278000D01*
X123373400Y-38278000D02*
X125429000Y-40333600D01*
X118648000Y-34625000D02*
X119748300Y-34625000D01*
X125800100Y-80479200D02*
X116989700Y-80479200D01*
X116989700Y-80479200D02*
X112140100Y-85328800D01*
X133141500Y-82160900D02*
X131459800Y-80479200D01*
X131459800Y-80479200D02*
X125800100Y-80479200D01*
X112128300Y-39705000D02*
X115820800Y-39705000D01*
X115820800Y-39705000D02*
X117248000Y-38277800D01*
X117248000Y-38277800D02*
X119168400Y-38277800D01*
X119168400Y-38277800D02*
X120349600Y-37096600D01*
X111028000Y-39705000D02*
X112128300Y-39705000D01*
X140122700Y-113342200D02*
X140000600Y-113220100D01*
X140000600Y-113220100D02*
X126801900Y-113220100D01*
X126801900Y-113220100D02*
X124550200Y-115471800D01*
X139433400Y-82538700D02*
X136223900Y-79329200D01*
X136223900Y-79329200D02*
X125640900Y-79329200D01*
X141024100Y-111708200D02*
X125922700Y-111708200D01*
X125922700Y-111708200D02*
X124549700Y-113081200D01*
X138082900Y-62463600D02*
X125332900Y-62463600D01*
X125332900Y-62463600D02*
X125197600Y-62598900D01*
X130368000Y-34468000D02*
X130368000Y-35568300D01*
X130368000Y-35568300D02*
X130505500Y-35568300D01*
X130505500Y-35568300D02*
X139006400Y-44069200D01*
X139006400Y-44069200D02*
X139006400Y-61540100D01*
X139006400Y-61540100D02*
X138082900Y-62463600D01*
X139363100Y-84523600D02*
X127747200Y-84523600D01*
X142708400Y-83419500D02*
X141604300Y-84523600D01*
X141604300Y-84523600D02*
X139363100Y-84523600D01*
X140744600Y-112582000D02*
X126873900Y-112582000D01*
X126873900Y-112582000D02*
X125537600Y-113918300D01*
X125537600Y-113918300D02*
X124561500Y-113918300D01*
X129840400Y-78114800D02*
X135864000Y-78114800D01*
X135864000Y-78114800D02*
X140773900Y-83024700D01*
X129840400Y-78114800D02*
X125993500Y-78114800D01*
X125993500Y-78114800D02*
X124579300Y-79529000D01*
X111394400Y-83550300D02*
X111394400Y-85457700D01*
X111394400Y-85457700D02*
X112728300Y-86791600D01*
X112728300Y-86791600D02*
X118827100Y-86791600D01*
X118827100Y-86791600D02*
X118827100Y-86791700D01*
X118827100Y-86791700D02*
X137016500Y-86791700D01*
X112143300Y-82801400D02*
X111394400Y-83550300D01*
X111394400Y-83550300D02*
X107854100Y-80010000D01*
X107854100Y-80010000D02*
X101825300Y-80010000D01*
X101825300Y-80010000D02*
X96599400Y-74784100D01*
X129634700Y-81279800D02*
X129634700Y-81279900D01*
X129634700Y-81279900D02*
X119129200Y-81279900D01*
X119129200Y-81279900D02*
X118226700Y-82182400D01*
X118226700Y-82182400D02*
X118226700Y-83275200D01*
X118226700Y-83275200D02*
X118442100Y-83490600D01*
X129634700Y-81279800D02*
X132274900Y-83920000D01*
X132274900Y-83920000D02*
X136467700Y-83920000D01*
X118226700Y-83275200D02*
X115307500Y-83275200D01*
X115307500Y-83275200D02*
X115158900Y-83423800D01*
X107000000Y-104140000D02*
X103000000Y-104140000D01*
X107000000Y-101600000D02*
X103000000Y-101600000D01*
X107000000Y-99060000D02*
X103000000Y-99060000D01*
X107000000Y-96520000D02*
X103000000Y-96520000D01*
X107000000Y-86360000D02*
X103000000Y-86360000D01*
X107000000Y-81280000D02*
X103000000Y-81280000D01*
X107000000Y-78740000D02*
X103000000Y-78740000D01*
X107000000Y-76200000D02*
X105499700Y-76200000D01*
X105499700Y-76200000D02*
X103000000Y-76200000D01*
X107000000Y-73660000D02*
X105499700Y-73660000D01*
X105499700Y-73660000D02*
X103000000Y-73660000D01*
X107000000Y-71120000D02*
X103000000Y-71120000D01*
X107000000Y-68580000D02*
X103000000Y-68580000D01*
X107000000Y-66040000D02*
X103000000Y-66040000D01*
X107000000Y-63500000D02*
X103000000Y-63500000D01*
X107000000Y-60960000D02*
X103000000Y-60960000D01*
X107000000Y-58420000D02*
X103000000Y-58420000D01*
D23*
G36*
X123203401Y-119142585D02*
G01*
X123199844Y-119178700D01*
X123214035Y-119322785D01*
X123255672Y-119460041D01*
X123256064Y-119461333D01*
X123324314Y-119589020D01*
X123416163Y-119700938D01*
X123444208Y-119723954D01*
X123627668Y-119907415D01*
X123660532Y-120072629D01*
X123731014Y-120242789D01*
X123833338Y-120395928D01*
X123963572Y-120526162D01*
X124116711Y-120628486D01*
X124286871Y-120698968D01*
X124467511Y-120734900D01*
X124651689Y-120734900D01*
X124832329Y-120698968D01*
X125002489Y-120628486D01*
X125155628Y-120526162D01*
X125285862Y-120395928D01*
X125388186Y-120242789D01*
X125458668Y-120072629D01*
X125494600Y-119891989D01*
X125494600Y-119707811D01*
X125458668Y-119527171D01*
X125388186Y-119357011D01*
X125285862Y-119203872D01*
X125155628Y-119073638D01*
X125002489Y-118971314D01*
X124832329Y-118900832D01*
X124673400Y-118869219D01*
X124673400Y-116400612D01*
X124822929Y-116370868D01*
X124993089Y-116300386D01*
X125146228Y-116198062D01*
X125276462Y-116067828D01*
X125378786Y-115914689D01*
X125449268Y-115744529D01*
X125482132Y-115579315D01*
X126340518Y-114720929D01*
X126388026Y-114768437D01*
X126557544Y-114881705D01*
X126745902Y-114959726D01*
X126907796Y-114991928D01*
X127682801Y-115766935D01*
X127682800Y-118657267D01*
X122918128Y-123421940D01*
X122882037Y-123345580D01*
X122714519Y-123119586D01*
X122506131Y-122930615D01*
X122264881Y-122785930D01*
X122000040Y-122691091D01*
X121778000Y-122812376D01*
X121778000Y-123956000D01*
X121798000Y-123956000D01*
X121798000Y-124210000D01*
X121778000Y-124210000D01*
X121778000Y-124230000D01*
X121524000Y-124230000D01*
X121524000Y-124210000D01*
X120381085Y-124210000D01*
X120259096Y-124432039D01*
X120274250Y-124482000D01*
X115717433Y-124482000D01*
X115565056Y-124329624D01*
X115586000Y-124224335D01*
X115586000Y-123941665D01*
X115544685Y-123733961D01*
X120259096Y-123733961D01*
X120381085Y-123956000D01*
X121524000Y-123956000D01*
X121524000Y-122812376D01*
X121301960Y-122691091D01*
X121037119Y-122785930D01*
X120795869Y-122930615D01*
X120587481Y-123119586D01*
X120419963Y-123345580D01*
X120299754Y-123599913D01*
X120259096Y-123733961D01*
X115544685Y-123733961D01*
X115530853Y-123664426D01*
X115422680Y-123403273D01*
X115265637Y-123168241D01*
X115065759Y-122968363D01*
X114830727Y-122811320D01*
X114569574Y-122703147D01*
X114292335Y-122648000D01*
X114009665Y-122648000D01*
X113732426Y-122703147D01*
X113471273Y-122811320D01*
X113236241Y-122968363D01*
X113036363Y-123168241D01*
X112879320Y-123403273D01*
X112771147Y-123664426D01*
X112716000Y-123941665D01*
X112716000Y-124224335D01*
X112771147Y-124501574D01*
X112879320Y-124762727D01*
X113036363Y-124997759D01*
X113236241Y-125197637D01*
X113471273Y-125354680D01*
X113732426Y-125462853D01*
X114009665Y-125518000D01*
X114292335Y-125518000D01*
X114397624Y-125497056D01*
X114763106Y-125862539D01*
X114788959Y-125894041D01*
X114820459Y-125919892D01*
X114914657Y-125997199D01*
X115058066Y-126073853D01*
X115213674Y-126121056D01*
X115334947Y-126133000D01*
X115334950Y-126133000D01*
X115375500Y-126136994D01*
X115416050Y-126133000D01*
X120765670Y-126133000D01*
X120587481Y-126294586D01*
X120419963Y-126520580D01*
X120299754Y-126774913D01*
X120259096Y-126908961D01*
X120381085Y-127131000D01*
X121524000Y-127131000D01*
X121524000Y-127111000D01*
X121778000Y-127111000D01*
X121778000Y-127131000D01*
X122920915Y-127131000D01*
X123042904Y-126908961D01*
X123002246Y-126774913D01*
X122882037Y-126520580D01*
X122714519Y-126294586D01*
X122506131Y-126105615D01*
X122474757Y-126086799D01*
X122517434Y-126073853D01*
X122660842Y-125997199D01*
X122786541Y-125894041D01*
X122812398Y-125862534D01*
X128850233Y-119824700D01*
X130235268Y-119824700D01*
X134246943Y-123836377D01*
X134226000Y-123941665D01*
X134226000Y-124224335D01*
X134281147Y-124501574D01*
X134389320Y-124762727D01*
X134546363Y-124997759D01*
X134746241Y-125197637D01*
X134835500Y-125257278D01*
X134835501Y-126083722D01*
X134746241Y-126143363D01*
X134546363Y-126343241D01*
X134389320Y-126578273D01*
X134281147Y-126839426D01*
X134226000Y-127116665D01*
X134226000Y-127399335D01*
X134281147Y-127676574D01*
X134389320Y-127937727D01*
X134546363Y-128172759D01*
X134713604Y-128340000D01*
X122583748Y-128340000D01*
X122714519Y-128221414D01*
X122882037Y-127995420D01*
X123002246Y-127741087D01*
X123042904Y-127607039D01*
X122920915Y-127385000D01*
X121778000Y-127385000D01*
X121778000Y-127405000D01*
X121524000Y-127405000D01*
X121524000Y-127385000D01*
X120381085Y-127385000D01*
X120259096Y-127607039D01*
X120299754Y-127741087D01*
X120419963Y-127995420D01*
X120587481Y-128221414D01*
X120718252Y-128340000D01*
X115098396Y-128340000D01*
X115265637Y-128172759D01*
X115422680Y-127937727D01*
X115530853Y-127676574D01*
X115586000Y-127399335D01*
X115586000Y-127116665D01*
X115530853Y-126839426D01*
X115422680Y-126578273D01*
X115265637Y-126343241D01*
X115065759Y-126143363D01*
X114830727Y-125986320D01*
X114569574Y-125878147D01*
X114292335Y-125823000D01*
X114009665Y-125823000D01*
X113732426Y-125878147D01*
X113471273Y-125986320D01*
X113236241Y-126143363D01*
X113036363Y-126343241D01*
X112879320Y-126578273D01*
X112771147Y-126839426D01*
X112716000Y-127116665D01*
X112716000Y-127399335D01*
X112771147Y-127676574D01*
X112879320Y-127937727D01*
X113036363Y-128172759D01*
X113203604Y-128340000D01*
X108536790Y-128340000D01*
X108554494Y-128330537D01*
X108651185Y-128251185D01*
X108730537Y-128154494D01*
X108789502Y-128044180D01*
X108825812Y-127924482D01*
X108838072Y-127800000D01*
X108838072Y-126200000D01*
X108825812Y-126075518D01*
X108789502Y-125955820D01*
X108730537Y-125845506D01*
X108651185Y-125748815D01*
X108554494Y-125669463D01*
X108444180Y-125610498D01*
X108324482Y-125574188D01*
X108306518Y-125572419D01*
X108419608Y-125479608D01*
X108598932Y-125261101D01*
X108732182Y-125011808D01*
X108814236Y-124741309D01*
X108841943Y-124460000D01*
X108814236Y-124178691D01*
X108732182Y-123908192D01*
X108598932Y-123658899D01*
X108419608Y-123440392D01*
X108201101Y-123261068D01*
X108068142Y-123190000D01*
X108201101Y-123118932D01*
X108419608Y-122939608D01*
X108598932Y-122721101D01*
X108732182Y-122471808D01*
X108814236Y-122201309D01*
X108841943Y-121920000D01*
X108814236Y-121638691D01*
X108732182Y-121368192D01*
X108598932Y-121118899D01*
X108458754Y-120948092D01*
X115480698Y-113926149D01*
X115508737Y-113903138D01*
X115531750Y-113875097D01*
X115531753Y-113875094D01*
X115600587Y-113791220D01*
X115626715Y-113742338D01*
X115668837Y-113663533D01*
X115710865Y-113524985D01*
X115721500Y-113417005D01*
X115721500Y-113417004D01*
X115725056Y-113380900D01*
X115721500Y-113344795D01*
X115721500Y-112450000D01*
X121992995Y-112450000D01*
X122029100Y-112453556D01*
X122065205Y-112450000D01*
X122173185Y-112439365D01*
X122311733Y-112397337D01*
X122439420Y-112329087D01*
X122551338Y-112237238D01*
X122574359Y-112209188D01*
X123203400Y-111580146D01*
X123203401Y-119142585D01*
X123203401Y-119142585D01*
G37*
X123203401Y-119142585D02*
X123199844Y-119178700D01*
X123214035Y-119322785D01*
X123255672Y-119460041D01*
X123256064Y-119461333D01*
X123324314Y-119589020D01*
X123416163Y-119700938D01*
X123444208Y-119723954D01*
X123627668Y-119907415D01*
X123660532Y-120072629D01*
X123731014Y-120242789D01*
X123833338Y-120395928D01*
X123963572Y-120526162D01*
X124116711Y-120628486D01*
X124286871Y-120698968D01*
X124467511Y-120734900D01*
X124651689Y-120734900D01*
X124832329Y-120698968D01*
X125002489Y-120628486D01*
X125155628Y-120526162D01*
X125285862Y-120395928D01*
X125388186Y-120242789D01*
X125458668Y-120072629D01*
X125494600Y-119891989D01*
X125494600Y-119707811D01*
X125458668Y-119527171D01*
X125388186Y-119357011D01*
X125285862Y-119203872D01*
X125155628Y-119073638D01*
X125002489Y-118971314D01*
X124832329Y-118900832D01*
X124673400Y-118869219D01*
X124673400Y-116400612D01*
X124822929Y-116370868D01*
X124993089Y-116300386D01*
X125146228Y-116198062D01*
X125276462Y-116067828D01*
X125378786Y-115914689D01*
X125449268Y-115744529D01*
X125482132Y-115579315D01*
X126340518Y-114720929D01*
X126388026Y-114768437D01*
X126557544Y-114881705D01*
X126745902Y-114959726D01*
X126907796Y-114991928D01*
X127682801Y-115766935D01*
X127682800Y-118657267D01*
X122918128Y-123421940D01*
X122882037Y-123345580D01*
X122714519Y-123119586D01*
X122506131Y-122930615D01*
X122264881Y-122785930D01*
X122000040Y-122691091D01*
X121778000Y-122812376D01*
X121778000Y-123956000D01*
X121798000Y-123956000D01*
X121798000Y-124210000D01*
X121778000Y-124210000D01*
X121778000Y-124230000D01*
X121524000Y-124230000D01*
X121524000Y-124210000D01*
X120381085Y-124210000D01*
X120259096Y-124432039D01*
X120274250Y-124482000D01*
X115717433Y-124482000D01*
X115565056Y-124329624D01*
X115586000Y-124224335D01*
X115586000Y-123941665D01*
X115544685Y-123733961D01*
X120259096Y-123733961D01*
X120381085Y-123956000D01*
X121524000Y-123956000D01*
X121524000Y-122812376D01*
X121301960Y-122691091D01*
X121037119Y-122785930D01*
X120795869Y-122930615D01*
X120587481Y-123119586D01*
X120419963Y-123345580D01*
X120299754Y-123599913D01*
X120259096Y-123733961D01*
X115544685Y-123733961D01*
X115530853Y-123664426D01*
X115422680Y-123403273D01*
X115265637Y-123168241D01*
X115065759Y-122968363D01*
X114830727Y-122811320D01*
X114569574Y-122703147D01*
X114292335Y-122648000D01*
X114009665Y-122648000D01*
X113732426Y-122703147D01*
X113471273Y-122811320D01*
X113236241Y-122968363D01*
X113036363Y-123168241D01*
X112879320Y-123403273D01*
X112771147Y-123664426D01*
X112716000Y-123941665D01*
X112716000Y-124224335D01*
X112771147Y-124501574D01*
X112879320Y-124762727D01*
X113036363Y-124997759D01*
X113236241Y-125197637D01*
X113471273Y-125354680D01*
X113732426Y-125462853D01*
X114009665Y-125518000D01*
X114292335Y-125518000D01*
X114397624Y-125497056D01*
X114763106Y-125862539D01*
X114788959Y-125894041D01*
X114820459Y-125919892D01*
X114914657Y-125997199D01*
X115058066Y-126073853D01*
X115213674Y-126121056D01*
X115334947Y-126133000D01*
X115334950Y-126133000D01*
X115375500Y-126136994D01*
X115416050Y-126133000D01*
X120765670Y-126133000D01*
X120587481Y-126294586D01*
X120419963Y-126520580D01*
X120299754Y-126774913D01*
X120259096Y-126908961D01*
X120381085Y-127131000D01*
X121524000Y-127131000D01*
X121524000Y-127111000D01*
X121778000Y-127111000D01*
X121778000Y-127131000D01*
X122920915Y-127131000D01*
X123042904Y-126908961D01*
X123002246Y-126774913D01*
X122882037Y-126520580D01*
X122714519Y-126294586D01*
X122506131Y-126105615D01*
X122474757Y-126086799D01*
X122517434Y-126073853D01*
X122660842Y-125997199D01*
X122786541Y-125894041D01*
X122812398Y-125862534D01*
X128850233Y-119824700D01*
X130235268Y-119824700D01*
X134246943Y-123836377D01*
X134226000Y-123941665D01*
X134226000Y-124224335D01*
X134281147Y-124501574D01*
X134389320Y-124762727D01*
X134546363Y-124997759D01*
X134746241Y-125197637D01*
X134835500Y-125257278D01*
X134835501Y-126083722D01*
X134746241Y-126143363D01*
X134546363Y-126343241D01*
X134389320Y-126578273D01*
X134281147Y-126839426D01*
X134226000Y-127116665D01*
X134226000Y-127399335D01*
X134281147Y-127676574D01*
X134389320Y-127937727D01*
X134546363Y-128172759D01*
X134713604Y-128340000D01*
X122583748Y-128340000D01*
X122714519Y-128221414D01*
X122882037Y-127995420D01*
X123002246Y-127741087D01*
X123042904Y-127607039D01*
X122920915Y-127385000D01*
X121778000Y-127385000D01*
X121778000Y-127405000D01*
X121524000Y-127405000D01*
X121524000Y-127385000D01*
X120381085Y-127385000D01*
X120259096Y-127607039D01*
X120299754Y-127741087D01*
X120419963Y-127995420D01*
X120587481Y-128221414D01*
X120718252Y-128340000D01*
X115098396Y-128340000D01*
X115265637Y-128172759D01*
X115422680Y-127937727D01*
X115530853Y-127676574D01*
X115586000Y-127399335D01*
X115586000Y-127116665D01*
X115530853Y-126839426D01*
X115422680Y-126578273D01*
X115265637Y-126343241D01*
X115065759Y-126143363D01*
X114830727Y-125986320D01*
X114569574Y-125878147D01*
X114292335Y-125823000D01*
X114009665Y-125823000D01*
X113732426Y-125878147D01*
X113471273Y-125986320D01*
X113236241Y-126143363D01*
X113036363Y-126343241D01*
X112879320Y-126578273D01*
X112771147Y-126839426D01*
X112716000Y-127116665D01*
X112716000Y-127399335D01*
X112771147Y-127676574D01*
X112879320Y-127937727D01*
X113036363Y-128172759D01*
X113203604Y-128340000D01*
X108536790Y-128340000D01*
X108554494Y-128330537D01*
X108651185Y-128251185D01*
X108730537Y-128154494D01*
X108789502Y-128044180D01*
X108825812Y-127924482D01*
X108838072Y-127800000D01*
X108838072Y-126200000D01*
X108825812Y-126075518D01*
X108789502Y-125955820D01*
X108730537Y-125845506D01*
X108651185Y-125748815D01*
X108554494Y-125669463D01*
X108444180Y-125610498D01*
X108324482Y-125574188D01*
X108306518Y-125572419D01*
X108419608Y-125479608D01*
X108598932Y-125261101D01*
X108732182Y-125011808D01*
X108814236Y-124741309D01*
X108841943Y-124460000D01*
X108814236Y-124178691D01*
X108732182Y-123908192D01*
X108598932Y-123658899D01*
X108419608Y-123440392D01*
X108201101Y-123261068D01*
X108068142Y-123190000D01*
X108201101Y-123118932D01*
X108419608Y-122939608D01*
X108598932Y-122721101D01*
X108732182Y-122471808D01*
X108814236Y-122201309D01*
X108841943Y-121920000D01*
X108814236Y-121638691D01*
X108732182Y-121368192D01*
X108598932Y-121118899D01*
X108458754Y-120948092D01*
X115480698Y-113926149D01*
X115508737Y-113903138D01*
X115531750Y-113875097D01*
X115531753Y-113875094D01*
X115600587Y-113791220D01*
X115626715Y-113742338D01*
X115668837Y-113663533D01*
X115710865Y-113524985D01*
X115721500Y-113417005D01*
X115721500Y-113417004D01*
X115725056Y-113380900D01*
X115721500Y-113344795D01*
X115721500Y-112450000D01*
X121992995Y-112450000D01*
X122029100Y-112453556D01*
X122065205Y-112450000D01*
X122173185Y-112439365D01*
X122311733Y-112397337D01*
X122439420Y-112329087D01*
X122551338Y-112237238D01*
X122574359Y-112209188D01*
X123203400Y-111580146D01*
X123203401Y-119142585D01*
G36*
X149340000Y-128340000D02*
G01*
X144093748Y-128340000D01*
X144224519Y-128221414D01*
X144392037Y-127995420D01*
X144512246Y-127741087D01*
X144552904Y-127607039D01*
X144430915Y-127385000D01*
X143288000Y-127385000D01*
X143288000Y-127405000D01*
X143034000Y-127405000D01*
X143034000Y-127385000D01*
X141891085Y-127385000D01*
X141769096Y-127607039D01*
X141809754Y-127741087D01*
X141929963Y-127995420D01*
X142097481Y-128221414D01*
X142228252Y-128340000D01*
X136608396Y-128340000D01*
X136775637Y-128172759D01*
X136932680Y-127937727D01*
X137040853Y-127676574D01*
X137096000Y-127399335D01*
X137096000Y-127116665D01*
X137054685Y-126908961D01*
X141769096Y-126908961D01*
X141891085Y-127131000D01*
X143034000Y-127131000D01*
X143034000Y-125987376D01*
X143288000Y-125987376D01*
X143288000Y-127131000D01*
X144430915Y-127131000D01*
X144552904Y-126908961D01*
X144512246Y-126774913D01*
X144392037Y-126520580D01*
X144224519Y-126294586D01*
X144016131Y-126105615D01*
X143774881Y-125960930D01*
X143510040Y-125866091D01*
X143288000Y-125987376D01*
X143034000Y-125987376D01*
X142811960Y-125866091D01*
X142547119Y-125960930D01*
X142305869Y-126105615D01*
X142097481Y-126294586D01*
X141929963Y-126520580D01*
X141809754Y-126774913D01*
X141769096Y-126908961D01*
X137054685Y-126908961D01*
X137040853Y-126839426D01*
X136932680Y-126578273D01*
X136775637Y-126343241D01*
X136575759Y-126143363D01*
X136486500Y-126083722D01*
X136486500Y-125257278D01*
X136575759Y-125197637D01*
X136775637Y-124997759D01*
X136932680Y-124762727D01*
X137040853Y-124501574D01*
X137054684Y-124432039D01*
X141769096Y-124432039D01*
X141809754Y-124566087D01*
X141929963Y-124820420D01*
X142097481Y-125046414D01*
X142305869Y-125235385D01*
X142547119Y-125380070D01*
X142811960Y-125474909D01*
X143034000Y-125353624D01*
X143034000Y-124210000D01*
X143288000Y-124210000D01*
X143288000Y-125353624D01*
X143510040Y-125474909D01*
X143774881Y-125380070D01*
X144016131Y-125235385D01*
X144224519Y-125046414D01*
X144392037Y-124820420D01*
X144512246Y-124566087D01*
X144552904Y-124432039D01*
X144430915Y-124210000D01*
X143288000Y-124210000D01*
X143034000Y-124210000D01*
X141891085Y-124210000D01*
X141769096Y-124432039D01*
X137054684Y-124432039D01*
X137096000Y-124224335D01*
X137096000Y-123941665D01*
X137054685Y-123733961D01*
X141769096Y-123733961D01*
X141891085Y-123956000D01*
X143034000Y-123956000D01*
X143034000Y-122812376D01*
X143288000Y-122812376D01*
X143288000Y-123956000D01*
X144430915Y-123956000D01*
X144552904Y-123733961D01*
X144512246Y-123599913D01*
X144392037Y-123345580D01*
X144224519Y-123119586D01*
X144016131Y-122930615D01*
X143774881Y-122785930D01*
X143510040Y-122691091D01*
X143288000Y-122812376D01*
X143034000Y-122812376D01*
X142811960Y-122691091D01*
X142547119Y-122785930D01*
X142305869Y-122930615D01*
X142097481Y-123119586D01*
X141929963Y-123345580D01*
X141809754Y-123599913D01*
X141769096Y-123733961D01*
X137054685Y-123733961D01*
X137040853Y-123664426D01*
X136932680Y-123403273D01*
X136775637Y-123168241D01*
X136575759Y-122968363D01*
X136340727Y-122811320D01*
X136079574Y-122703147D01*
X135802335Y-122648000D01*
X135519665Y-122648000D01*
X135414377Y-122668943D01*
X131189598Y-118444166D01*
X131163741Y-118412659D01*
X131038042Y-118309501D01*
X130894634Y-118232847D01*
X130739026Y-118185644D01*
X130617753Y-118173700D01*
X130617750Y-118173700D01*
X130577200Y-118169706D01*
X130536650Y-118173700D01*
X129333800Y-118173700D01*
X129333800Y-115465550D01*
X129337794Y-115425000D01*
X129333800Y-115384447D01*
X129321856Y-115263174D01*
X129305757Y-115210104D01*
X132783546Y-118687893D01*
X132806562Y-118715938D01*
X132918480Y-118807787D01*
X133046167Y-118876037D01*
X133142686Y-118905316D01*
X133184714Y-118918065D01*
X133198932Y-118919465D01*
X133292695Y-118928700D01*
X133292702Y-118928700D01*
X133328799Y-118932255D01*
X133364896Y-118928700D01*
X142201149Y-118928700D01*
X142341211Y-119022286D01*
X142511371Y-119092768D01*
X142692011Y-119128700D01*
X142876189Y-119128700D01*
X143056829Y-119092768D01*
X143226989Y-119022286D01*
X143380128Y-118919962D01*
X143510362Y-118789728D01*
X143612686Y-118636589D01*
X143683168Y-118466429D01*
X143719100Y-118285789D01*
X143719100Y-118101611D01*
X143683168Y-117920971D01*
X143612686Y-117750811D01*
X143510362Y-117597672D01*
X143380128Y-117467438D01*
X143226989Y-117365114D01*
X143056829Y-117294632D01*
X142876189Y-117258700D01*
X142692011Y-117258700D01*
X142511371Y-117294632D01*
X142341211Y-117365114D01*
X142201149Y-117458700D01*
X133633247Y-117458700D01*
X130129646Y-113955100D01*
X139413310Y-113955100D01*
X139526672Y-114068462D01*
X139679811Y-114170786D01*
X139849971Y-114241268D01*
X140030611Y-114277200D01*
X140214789Y-114277200D01*
X140395429Y-114241268D01*
X140565589Y-114170786D01*
X140718728Y-114068462D01*
X140848962Y-113938228D01*
X140951286Y-113785089D01*
X141021768Y-113614929D01*
X141051184Y-113467045D01*
X141187489Y-113410586D01*
X141340628Y-113308262D01*
X141470862Y-113178028D01*
X141573186Y-113024889D01*
X141643668Y-112854729D01*
X141679600Y-112674089D01*
X141679600Y-112489911D01*
X141660533Y-112394057D01*
X141750362Y-112304228D01*
X141852686Y-112151089D01*
X141923168Y-111980929D01*
X141959100Y-111800289D01*
X141959100Y-111791100D01*
X142009489Y-111791100D01*
X142190129Y-111755168D01*
X142221678Y-111742100D01*
X142941395Y-111742100D01*
X142977500Y-111745656D01*
X143013605Y-111742100D01*
X143121585Y-111731465D01*
X143260133Y-111689437D01*
X143387820Y-111621187D01*
X143499738Y-111529338D01*
X143522759Y-111501287D01*
X149044198Y-105979849D01*
X149072237Y-105956838D01*
X149095250Y-105928797D01*
X149095253Y-105928794D01*
X149131411Y-105884735D01*
X149164087Y-105844920D01*
X149232337Y-105717233D01*
X149268365Y-105598465D01*
X149274365Y-105578686D01*
X149288556Y-105434601D01*
X149285000Y-105398496D01*
X149285000Y-95285500D01*
X149340000Y-95285500D01*
X149340000Y-128340000D01*
X149340000Y-128340000D01*
G37*
X149340000Y-128340000D02*
X144093748Y-128340000D01*
X144224519Y-128221414D01*
X144392037Y-127995420D01*
X144512246Y-127741087D01*
X144552904Y-127607039D01*
X144430915Y-127385000D01*
X143288000Y-127385000D01*
X143288000Y-127405000D01*
X143034000Y-127405000D01*
X143034000Y-127385000D01*
X141891085Y-127385000D01*
X141769096Y-127607039D01*
X141809754Y-127741087D01*
X141929963Y-127995420D01*
X142097481Y-128221414D01*
X142228252Y-128340000D01*
X136608396Y-128340000D01*
X136775637Y-128172759D01*
X136932680Y-127937727D01*
X137040853Y-127676574D01*
X137096000Y-127399335D01*
X137096000Y-127116665D01*
X137054685Y-126908961D01*
X141769096Y-126908961D01*
X141891085Y-127131000D01*
X143034000Y-127131000D01*
X143034000Y-125987376D01*
X143288000Y-125987376D01*
X143288000Y-127131000D01*
X144430915Y-127131000D01*
X144552904Y-126908961D01*
X144512246Y-126774913D01*
X144392037Y-126520580D01*
X144224519Y-126294586D01*
X144016131Y-126105615D01*
X143774881Y-125960930D01*
X143510040Y-125866091D01*
X143288000Y-125987376D01*
X143034000Y-125987376D01*
X142811960Y-125866091D01*
X142547119Y-125960930D01*
X142305869Y-126105615D01*
X142097481Y-126294586D01*
X141929963Y-126520580D01*
X141809754Y-126774913D01*
X141769096Y-126908961D01*
X137054685Y-126908961D01*
X137040853Y-126839426D01*
X136932680Y-126578273D01*
X136775637Y-126343241D01*
X136575759Y-126143363D01*
X136486500Y-126083722D01*
X136486500Y-125257278D01*
X136575759Y-125197637D01*
X136775637Y-124997759D01*
X136932680Y-124762727D01*
X137040853Y-124501574D01*
X137054684Y-124432039D01*
X141769096Y-124432039D01*
X141809754Y-124566087D01*
X141929963Y-124820420D01*
X142097481Y-125046414D01*
X142305869Y-125235385D01*
X142547119Y-125380070D01*
X142811960Y-125474909D01*
X143034000Y-125353624D01*
X143034000Y-124210000D01*
X143288000Y-124210000D01*
X143288000Y-125353624D01*
X143510040Y-125474909D01*
X143774881Y-125380070D01*
X144016131Y-125235385D01*
X144224519Y-125046414D01*
X144392037Y-124820420D01*
X144512246Y-124566087D01*
X144552904Y-124432039D01*
X144430915Y-124210000D01*
X143288000Y-124210000D01*
X143034000Y-124210000D01*
X141891085Y-124210000D01*
X141769096Y-124432039D01*
X137054684Y-124432039D01*
X137096000Y-124224335D01*
X137096000Y-123941665D01*
X137054685Y-123733961D01*
X141769096Y-123733961D01*
X141891085Y-123956000D01*
X143034000Y-123956000D01*
X143034000Y-122812376D01*
X143288000Y-122812376D01*
X143288000Y-123956000D01*
X144430915Y-123956000D01*
X144552904Y-123733961D01*
X144512246Y-123599913D01*
X144392037Y-123345580D01*
X144224519Y-123119586D01*
X144016131Y-122930615D01*
X143774881Y-122785930D01*
X143510040Y-122691091D01*
X143288000Y-122812376D01*
X143034000Y-122812376D01*
X142811960Y-122691091D01*
X142547119Y-122785930D01*
X142305869Y-122930615D01*
X142097481Y-123119586D01*
X141929963Y-123345580D01*
X141809754Y-123599913D01*
X141769096Y-123733961D01*
X137054685Y-123733961D01*
X137040853Y-123664426D01*
X136932680Y-123403273D01*
X136775637Y-123168241D01*
X136575759Y-122968363D01*
X136340727Y-122811320D01*
X136079574Y-122703147D01*
X135802335Y-122648000D01*
X135519665Y-122648000D01*
X135414377Y-122668943D01*
X131189598Y-118444166D01*
X131163741Y-118412659D01*
X131038042Y-118309501D01*
X130894634Y-118232847D01*
X130739026Y-118185644D01*
X130617753Y-118173700D01*
X130617750Y-118173700D01*
X130577200Y-118169706D01*
X130536650Y-118173700D01*
X129333800Y-118173700D01*
X129333800Y-115465550D01*
X129337794Y-115425000D01*
X129333800Y-115384447D01*
X129321856Y-115263174D01*
X129305757Y-115210104D01*
X132783546Y-118687893D01*
X132806562Y-118715938D01*
X132918480Y-118807787D01*
X133046167Y-118876037D01*
X133142686Y-118905316D01*
X133184714Y-118918065D01*
X133198932Y-118919465D01*
X133292695Y-118928700D01*
X133292702Y-118928700D01*
X133328799Y-118932255D01*
X133364896Y-118928700D01*
X142201149Y-118928700D01*
X142341211Y-119022286D01*
X142511371Y-119092768D01*
X142692011Y-119128700D01*
X142876189Y-119128700D01*
X143056829Y-119092768D01*
X143226989Y-119022286D01*
X143380128Y-118919962D01*
X143510362Y-118789728D01*
X143612686Y-118636589D01*
X143683168Y-118466429D01*
X143719100Y-118285789D01*
X143719100Y-118101611D01*
X143683168Y-117920971D01*
X143612686Y-117750811D01*
X143510362Y-117597672D01*
X143380128Y-117467438D01*
X143226989Y-117365114D01*
X143056829Y-117294632D01*
X142876189Y-117258700D01*
X142692011Y-117258700D01*
X142511371Y-117294632D01*
X142341211Y-117365114D01*
X142201149Y-117458700D01*
X133633247Y-117458700D01*
X130129646Y-113955100D01*
X139413310Y-113955100D01*
X139526672Y-114068462D01*
X139679811Y-114170786D01*
X139849971Y-114241268D01*
X140030611Y-114277200D01*
X140214789Y-114277200D01*
X140395429Y-114241268D01*
X140565589Y-114170786D01*
X140718728Y-114068462D01*
X140848962Y-113938228D01*
X140951286Y-113785089D01*
X141021768Y-113614929D01*
X141051184Y-113467045D01*
X141187489Y-113410586D01*
X141340628Y-113308262D01*
X141470862Y-113178028D01*
X141573186Y-113024889D01*
X141643668Y-112854729D01*
X141679600Y-112674089D01*
X141679600Y-112489911D01*
X141660533Y-112394057D01*
X141750362Y-112304228D01*
X141852686Y-112151089D01*
X141923168Y-111980929D01*
X141959100Y-111800289D01*
X141959100Y-111791100D01*
X142009489Y-111791100D01*
X142190129Y-111755168D01*
X142221678Y-111742100D01*
X142941395Y-111742100D01*
X142977500Y-111745656D01*
X143013605Y-111742100D01*
X143121585Y-111731465D01*
X143260133Y-111689437D01*
X143387820Y-111621187D01*
X143499738Y-111529338D01*
X143522759Y-111501287D01*
X149044198Y-105979849D01*
X149072237Y-105956838D01*
X149095250Y-105928797D01*
X149095253Y-105928794D01*
X149131411Y-105884735D01*
X149164087Y-105844920D01*
X149232337Y-105717233D01*
X149268365Y-105598465D01*
X149274365Y-105578686D01*
X149288556Y-105434601D01*
X149285000Y-105398496D01*
X149285000Y-95285500D01*
X149340000Y-95285500D01*
X149340000Y-128340000D01*
G36*
X90198411Y-94535045D02*
G01*
X90224259Y-94566541D01*
X90255755Y-94592389D01*
X90255758Y-94592392D01*
X90349957Y-94669699D01*
X90434709Y-94715000D01*
X90493366Y-94746353D01*
X90648974Y-94793556D01*
X90770247Y-94805500D01*
X90770249Y-94805500D01*
X90810800Y-94809494D01*
X90851350Y-94805500D01*
X101421092Y-94805500D01*
X101580392Y-94999608D01*
X101798899Y-95178932D01*
X101931858Y-95250000D01*
X101798899Y-95321068D01*
X101580392Y-95500392D01*
X101401068Y-95718899D01*
X101267818Y-95968192D01*
X101185764Y-96238691D01*
X101158057Y-96520000D01*
X101185764Y-96801309D01*
X101262719Y-97055000D01*
X89486405Y-97055000D01*
X89450300Y-97051444D01*
X89306215Y-97065635D01*
X89167666Y-97107663D01*
X89040403Y-97175687D01*
X89039980Y-97175913D01*
X88928062Y-97267762D01*
X88905046Y-97295807D01*
X85587038Y-100613816D01*
X85559608Y-100580392D01*
X85341101Y-100401068D01*
X85213259Y-100332735D01*
X85442839Y-100182601D01*
X85644500Y-99984895D01*
X85803715Y-99751646D01*
X85914367Y-99491818D01*
X85931904Y-99409039D01*
X85809915Y-99187000D01*
X84267000Y-99187000D01*
X84267000Y-99207000D01*
X84013000Y-99207000D01*
X84013000Y-99187000D01*
X82470085Y-99187000D01*
X82348096Y-99409039D01*
X82365633Y-99491818D01*
X82476285Y-99751646D01*
X82635500Y-99984895D01*
X82837161Y-100182601D01*
X83066741Y-100332735D01*
X82938899Y-100401068D01*
X82720392Y-100580392D01*
X82541068Y-100798899D01*
X82505736Y-100865000D01*
X81774264Y-100865000D01*
X81738932Y-100798899D01*
X81559608Y-100580392D01*
X81341101Y-100401068D01*
X81213259Y-100332735D01*
X81442839Y-100182601D01*
X81644500Y-99984895D01*
X81803715Y-99751646D01*
X81914367Y-99491818D01*
X81931904Y-99409039D01*
X81809915Y-99187000D01*
X80267000Y-99187000D01*
X80267000Y-99207000D01*
X80013000Y-99207000D01*
X80013000Y-99187000D01*
X79993000Y-99187000D01*
X79993000Y-98933000D01*
X80013000Y-98933000D01*
X80013000Y-98913000D01*
X80267000Y-98913000D01*
X80267000Y-98933000D01*
X81809915Y-98933000D01*
X81931904Y-98710961D01*
X81914367Y-98628182D01*
X81803715Y-98368354D01*
X81644500Y-98135105D01*
X81442839Y-97937399D01*
X81213259Y-97787265D01*
X81341101Y-97718932D01*
X81559608Y-97539608D01*
X81738932Y-97321101D01*
X81774264Y-97255000D01*
X82505736Y-97255000D01*
X82541068Y-97321101D01*
X82720392Y-97539608D01*
X82938899Y-97718932D01*
X83066741Y-97787265D01*
X82837161Y-97937399D01*
X82635500Y-98135105D01*
X82476285Y-98368354D01*
X82365633Y-98628182D01*
X82348096Y-98710961D01*
X82470085Y-98933000D01*
X84013000Y-98933000D01*
X84013000Y-98913000D01*
X84267000Y-98913000D01*
X84267000Y-98933000D01*
X85809915Y-98933000D01*
X85931904Y-98710961D01*
X85914367Y-98628182D01*
X85803715Y-98368354D01*
X85644500Y-98135105D01*
X85442839Y-97937399D01*
X85213259Y-97787265D01*
X85341101Y-97718932D01*
X85559608Y-97539608D01*
X85738932Y-97321101D01*
X85872182Y-97071808D01*
X85954236Y-96801309D01*
X85981943Y-96520000D01*
X85954236Y-96238691D01*
X85872182Y-95968192D01*
X85738932Y-95718899D01*
X85559608Y-95500392D01*
X85341101Y-95321068D01*
X85208142Y-95250000D01*
X85341101Y-95178932D01*
X85559608Y-94999608D01*
X85738932Y-94781101D01*
X85872182Y-94531808D01*
X85954236Y-94261309D01*
X85981943Y-93980000D01*
X85954236Y-93698691D01*
X85872182Y-93428192D01*
X85738932Y-93178899D01*
X85559608Y-92960392D01*
X85341101Y-92781068D01*
X85208142Y-92710000D01*
X85341101Y-92638932D01*
X85559608Y-92459608D01*
X85738932Y-92241101D01*
X85872182Y-91991808D01*
X85954236Y-91721309D01*
X85981943Y-91440000D01*
X85954236Y-91158691D01*
X85872182Y-90888192D01*
X85738932Y-90638899D01*
X85559608Y-90420392D01*
X85341101Y-90241068D01*
X85208142Y-90170000D01*
X85341101Y-90098932D01*
X85559608Y-89919608D01*
X85570141Y-89906773D01*
X90198411Y-94535045D01*
X90198411Y-94535045D01*
G37*
X90198411Y-94535045D02*
X90224259Y-94566541D01*
X90255755Y-94592389D01*
X90255758Y-94592392D01*
X90349957Y-94669699D01*
X90434709Y-94715000D01*
X90493366Y-94746353D01*
X90648974Y-94793556D01*
X90770247Y-94805500D01*
X90770249Y-94805500D01*
X90810800Y-94809494D01*
X90851350Y-94805500D01*
X101421092Y-94805500D01*
X101580392Y-94999608D01*
X101798899Y-95178932D01*
X101931858Y-95250000D01*
X101798899Y-95321068D01*
X101580392Y-95500392D01*
X101401068Y-95718899D01*
X101267818Y-95968192D01*
X101185764Y-96238691D01*
X101158057Y-96520000D01*
X101185764Y-96801309D01*
X101262719Y-97055000D01*
X89486405Y-97055000D01*
X89450300Y-97051444D01*
X89306215Y-97065635D01*
X89167666Y-97107663D01*
X89040403Y-97175687D01*
X89039980Y-97175913D01*
X88928062Y-97267762D01*
X88905046Y-97295807D01*
X85587038Y-100613816D01*
X85559608Y-100580392D01*
X85341101Y-100401068D01*
X85213259Y-100332735D01*
X85442839Y-100182601D01*
X85644500Y-99984895D01*
X85803715Y-99751646D01*
X85914367Y-99491818D01*
X85931904Y-99409039D01*
X85809915Y-99187000D01*
X84267000Y-99187000D01*
X84267000Y-99207000D01*
X84013000Y-99207000D01*
X84013000Y-99187000D01*
X82470085Y-99187000D01*
X82348096Y-99409039D01*
X82365633Y-99491818D01*
X82476285Y-99751646D01*
X82635500Y-99984895D01*
X82837161Y-100182601D01*
X83066741Y-100332735D01*
X82938899Y-100401068D01*
X82720392Y-100580392D01*
X82541068Y-100798899D01*
X82505736Y-100865000D01*
X81774264Y-100865000D01*
X81738932Y-100798899D01*
X81559608Y-100580392D01*
X81341101Y-100401068D01*
X81213259Y-100332735D01*
X81442839Y-100182601D01*
X81644500Y-99984895D01*
X81803715Y-99751646D01*
X81914367Y-99491818D01*
X81931904Y-99409039D01*
X81809915Y-99187000D01*
X80267000Y-99187000D01*
X80267000Y-99207000D01*
X80013000Y-99207000D01*
X80013000Y-99187000D01*
X79993000Y-99187000D01*
X79993000Y-98933000D01*
X80013000Y-98933000D01*
X80013000Y-98913000D01*
X80267000Y-98913000D01*
X80267000Y-98933000D01*
X81809915Y-98933000D01*
X81931904Y-98710961D01*
X81914367Y-98628182D01*
X81803715Y-98368354D01*
X81644500Y-98135105D01*
X81442839Y-97937399D01*
X81213259Y-97787265D01*
X81341101Y-97718932D01*
X81559608Y-97539608D01*
X81738932Y-97321101D01*
X81774264Y-97255000D01*
X82505736Y-97255000D01*
X82541068Y-97321101D01*
X82720392Y-97539608D01*
X82938899Y-97718932D01*
X83066741Y-97787265D01*
X82837161Y-97937399D01*
X82635500Y-98135105D01*
X82476285Y-98368354D01*
X82365633Y-98628182D01*
X82348096Y-98710961D01*
X82470085Y-98933000D01*
X84013000Y-98933000D01*
X84013000Y-98913000D01*
X84267000Y-98913000D01*
X84267000Y-98933000D01*
X85809915Y-98933000D01*
X85931904Y-98710961D01*
X85914367Y-98628182D01*
X85803715Y-98368354D01*
X85644500Y-98135105D01*
X85442839Y-97937399D01*
X85213259Y-97787265D01*
X85341101Y-97718932D01*
X85559608Y-97539608D01*
X85738932Y-97321101D01*
X85872182Y-97071808D01*
X85954236Y-96801309D01*
X85981943Y-96520000D01*
X85954236Y-96238691D01*
X85872182Y-95968192D01*
X85738932Y-95718899D01*
X85559608Y-95500392D01*
X85341101Y-95321068D01*
X85208142Y-95250000D01*
X85341101Y-95178932D01*
X85559608Y-94999608D01*
X85738932Y-94781101D01*
X85872182Y-94531808D01*
X85954236Y-94261309D01*
X85981943Y-93980000D01*
X85954236Y-93698691D01*
X85872182Y-93428192D01*
X85738932Y-93178899D01*
X85559608Y-92960392D01*
X85341101Y-92781068D01*
X85208142Y-92710000D01*
X85341101Y-92638932D01*
X85559608Y-92459608D01*
X85738932Y-92241101D01*
X85872182Y-91991808D01*
X85954236Y-91721309D01*
X85981943Y-91440000D01*
X85954236Y-91158691D01*
X85872182Y-90888192D01*
X85738932Y-90638899D01*
X85559608Y-90420392D01*
X85341101Y-90241068D01*
X85208142Y-90170000D01*
X85341101Y-90098932D01*
X85559608Y-89919608D01*
X85570141Y-89906773D01*
X90198411Y-94535045D01*
G36*
X95700332Y-75056829D02*
G01*
X95770814Y-75226989D01*
X95873138Y-75380128D01*
X96003372Y-75510362D01*
X96156511Y-75612686D01*
X96326671Y-75683168D01*
X96491886Y-75716032D01*
X101280046Y-80504193D01*
X101303062Y-80532238D01*
X101331571Y-80555635D01*
X101351368Y-80571882D01*
X101267818Y-80728192D01*
X101185764Y-80998691D01*
X101158057Y-81280000D01*
X101185764Y-81561309D01*
X101267818Y-81831808D01*
X101401068Y-82081101D01*
X101580392Y-82299608D01*
X101798899Y-82478932D01*
X101931858Y-82550000D01*
X101798899Y-82621068D01*
X101580392Y-82800392D01*
X101401068Y-83018899D01*
X101267818Y-83268192D01*
X101185764Y-83538691D01*
X101158057Y-83820000D01*
X101185764Y-84101309D01*
X101267818Y-84371808D01*
X101401068Y-84621101D01*
X101580392Y-84839608D01*
X101798899Y-85018932D01*
X101931858Y-85090000D01*
X101798899Y-85161068D01*
X101580392Y-85340392D01*
X101401068Y-85558899D01*
X101267818Y-85808192D01*
X101185764Y-86078691D01*
X101158057Y-86360000D01*
X101185764Y-86641309D01*
X101267818Y-86911808D01*
X101401068Y-87161101D01*
X101580392Y-87379608D01*
X101798899Y-87558932D01*
X101926741Y-87627265D01*
X101697161Y-87777399D01*
X101495500Y-87975105D01*
X101336285Y-88208354D01*
X101225633Y-88468182D01*
X101208096Y-88550961D01*
X101330085Y-88773000D01*
X102873000Y-88773000D01*
X102873000Y-88753000D01*
X103127000Y-88753000D01*
X103127000Y-88773000D01*
X104669915Y-88773000D01*
X104791904Y-88550961D01*
X104774367Y-88468182D01*
X104663715Y-88208354D01*
X104504500Y-87975105D01*
X104302839Y-87777399D01*
X104073259Y-87627265D01*
X104201101Y-87558932D01*
X104419608Y-87379608D01*
X104598932Y-87161101D01*
X104634264Y-87095000D01*
X105365736Y-87095000D01*
X105401068Y-87161101D01*
X105580392Y-87379608D01*
X105798899Y-87558932D01*
X105926741Y-87627265D01*
X105697161Y-87777399D01*
X105495500Y-87975105D01*
X105336285Y-88208354D01*
X105225633Y-88468182D01*
X105208096Y-88550961D01*
X105330085Y-88773000D01*
X106873000Y-88773000D01*
X106873000Y-88753000D01*
X107127000Y-88753000D01*
X107127000Y-88773000D01*
X108669915Y-88773000D01*
X108791904Y-88550961D01*
X108774367Y-88468182D01*
X108663715Y-88208354D01*
X108504500Y-87975105D01*
X108302839Y-87777399D01*
X108073259Y-87627265D01*
X108201101Y-87558932D01*
X108419608Y-87379608D01*
X108598932Y-87161101D01*
X108732182Y-86911808D01*
X108814236Y-86641309D01*
X108841943Y-86360000D01*
X108814236Y-86078691D01*
X108732182Y-85808192D01*
X108598932Y-85558899D01*
X108419608Y-85340392D01*
X108201101Y-85161068D01*
X108068142Y-85090000D01*
X108201101Y-85018932D01*
X108419608Y-84839608D01*
X108598932Y-84621101D01*
X108732182Y-84371808D01*
X108814236Y-84101309D01*
X108841943Y-83820000D01*
X108814236Y-83538691D01*
X108732182Y-83268192D01*
X108598932Y-83018899D01*
X108419608Y-82800392D01*
X108201101Y-82621068D01*
X108068142Y-82550000D01*
X108201101Y-82478932D01*
X108419608Y-82299608D01*
X108598932Y-82081101D01*
X108698840Y-81894186D01*
X110659400Y-83854747D01*
X110659401Y-85421585D01*
X110655844Y-85457700D01*
X110670035Y-85601785D01*
X110700015Y-85700613D01*
X110712064Y-85740333D01*
X110780314Y-85868020D01*
X110872163Y-85979938D01*
X110900208Y-86002954D01*
X112183046Y-87285793D01*
X112206062Y-87313838D01*
X112317980Y-87405687D01*
X112445667Y-87473937D01*
X112584215Y-87515965D01*
X112692195Y-87526600D01*
X112692204Y-87526600D01*
X112728299Y-87530155D01*
X112764394Y-87526600D01*
X118244000Y-87526600D01*
X118384211Y-87620286D01*
X118554371Y-87690768D01*
X118735011Y-87726700D01*
X118919189Y-87726700D01*
X119099829Y-87690768D01*
X119269989Y-87620286D01*
X119410051Y-87526700D01*
X130041500Y-87526700D01*
X130041500Y-87656689D01*
X130077432Y-87837329D01*
X130147914Y-88007489D01*
X130250238Y-88160628D01*
X130380472Y-88290862D01*
X130533611Y-88393186D01*
X130703771Y-88463668D01*
X130884411Y-88499600D01*
X131068589Y-88499600D01*
X131249229Y-88463668D01*
X131419389Y-88393186D01*
X131559451Y-88299600D01*
X139125454Y-88299600D01*
X142489398Y-91663544D01*
X142315869Y-91767615D01*
X142107481Y-91956586D01*
X141939963Y-92182580D01*
X141819754Y-92436913D01*
X141779096Y-92570961D01*
X141901085Y-92793000D01*
X143044000Y-92793000D01*
X143044000Y-92773000D01*
X143298000Y-92773000D01*
X143298000Y-92793000D01*
X143318000Y-92793000D01*
X143318000Y-93047000D01*
X143298000Y-93047000D01*
X143298000Y-94190624D01*
X143520040Y-94311909D01*
X143723300Y-94239122D01*
X143723300Y-94435395D01*
X143719744Y-94471500D01*
X143723300Y-94507604D01*
X143733935Y-94615584D01*
X143775963Y-94754132D01*
X143844213Y-94881819D01*
X143936062Y-94993737D01*
X143964108Y-95016754D01*
X145073953Y-96126600D01*
X134250300Y-96126600D01*
X134250300Y-95986511D01*
X134214368Y-95805871D01*
X134143886Y-95635711D01*
X134041562Y-95482572D01*
X133911328Y-95352338D01*
X133758189Y-95250014D01*
X133588029Y-95179532D01*
X133407389Y-95143600D01*
X133223211Y-95143600D01*
X133042571Y-95179532D01*
X132872411Y-95250014D01*
X132732349Y-95343600D01*
X132150751Y-95343600D01*
X132010689Y-95250014D01*
X131869500Y-95191532D01*
X131916070Y-95113881D01*
X132010909Y-94849040D01*
X131889624Y-94627000D01*
X130746000Y-94627000D01*
X130746000Y-94647000D01*
X130492000Y-94647000D01*
X130492000Y-94627000D01*
X129348376Y-94627000D01*
X129227091Y-94849040D01*
X129321930Y-95113881D01*
X129459700Y-95343600D01*
X128413300Y-95343600D01*
X128551070Y-95113881D01*
X128645909Y-94849040D01*
X128524624Y-94627000D01*
X127381000Y-94627000D01*
X127381000Y-94647000D01*
X127127000Y-94647000D01*
X127127000Y-94627000D01*
X125983376Y-94627000D01*
X125862091Y-94849040D01*
X125956930Y-95113881D01*
X126094700Y-95343600D01*
X115390405Y-95343600D01*
X115354300Y-95340044D01*
X115210215Y-95354235D01*
X115071666Y-95396263D01*
X115036612Y-95415000D01*
X114943980Y-95464513D01*
X114853894Y-95538445D01*
X114690071Y-95571032D01*
X114519911Y-95641514D01*
X114366772Y-95743838D01*
X114236538Y-95874072D01*
X114134214Y-96027211D01*
X114063732Y-96197371D01*
X114030868Y-96362585D01*
X113957354Y-96436100D01*
X109860851Y-96436100D01*
X109720789Y-96342514D01*
X109550629Y-96272032D01*
X109369989Y-96236100D01*
X109185811Y-96236100D01*
X109005171Y-96272032D01*
X108835011Y-96342514D01*
X108825113Y-96349127D01*
X108814236Y-96238691D01*
X108732182Y-95968192D01*
X108598932Y-95718899D01*
X108419608Y-95500392D01*
X108201101Y-95321068D01*
X108068142Y-95250000D01*
X108201101Y-95178932D01*
X108419608Y-94999608D01*
X108598932Y-94781101D01*
X108732182Y-94531808D01*
X108814236Y-94261309D01*
X108841943Y-93980000D01*
X108814236Y-93698691D01*
X108732182Y-93428192D01*
X108598932Y-93178899D01*
X108419608Y-92960392D01*
X108201101Y-92781068D01*
X108068142Y-92710000D01*
X108201101Y-92638932D01*
X108419608Y-92459608D01*
X108598932Y-92241101D01*
X108732182Y-91991808D01*
X108814236Y-91721309D01*
X108841943Y-91440000D01*
X108814236Y-91158691D01*
X108732182Y-90888192D01*
X108598932Y-90638899D01*
X108419608Y-90420392D01*
X108201101Y-90241068D01*
X108073259Y-90172735D01*
X108302839Y-90022601D01*
X108504500Y-89824895D01*
X108655510Y-89603665D01*
X112726000Y-89603665D01*
X112726000Y-89886335D01*
X112781147Y-90163574D01*
X112889320Y-90424727D01*
X113046363Y-90659759D01*
X113246241Y-90859637D01*
X113481273Y-91016680D01*
X113742426Y-91124853D01*
X114019665Y-91180000D01*
X114302335Y-91180000D01*
X114579574Y-91124853D01*
X114840727Y-91016680D01*
X115033037Y-90888183D01*
X115033026Y-90888192D01*
X114958859Y-90949059D01*
X114933008Y-90980559D01*
X114407624Y-91505944D01*
X114302335Y-91485000D01*
X114019665Y-91485000D01*
X113742426Y-91540147D01*
X113481273Y-91648320D01*
X113246241Y-91805363D01*
X113046363Y-92005241D01*
X112889320Y-92240273D01*
X112781147Y-92501426D01*
X112726000Y-92778665D01*
X112726000Y-93061335D01*
X112781147Y-93338574D01*
X112889320Y-93599727D01*
X113046363Y-93834759D01*
X113246241Y-94034637D01*
X113481273Y-94191680D01*
X113742426Y-94299853D01*
X114019665Y-94355000D01*
X114302335Y-94355000D01*
X114579574Y-94299853D01*
X114840727Y-94191680D01*
X115075759Y-94034637D01*
X115275637Y-93834759D01*
X115432680Y-93599727D01*
X115540853Y-93338574D01*
X115554684Y-93269039D01*
X120269096Y-93269039D01*
X120309754Y-93403087D01*
X120429963Y-93657420D01*
X120597481Y-93883414D01*
X120805869Y-94072385D01*
X121047119Y-94217070D01*
X121311960Y-94311909D01*
X121534000Y-94190624D01*
X121534000Y-93047000D01*
X121788000Y-93047000D01*
X121788000Y-94190624D01*
X122010040Y-94311909D01*
X122274881Y-94217070D01*
X122385113Y-94150960D01*
X125862091Y-94150960D01*
X125983376Y-94373000D01*
X127127000Y-94373000D01*
X127127000Y-93230085D01*
X127381000Y-93230085D01*
X127381000Y-94373000D01*
X128524624Y-94373000D01*
X128645909Y-94150960D01*
X129227091Y-94150960D01*
X129348376Y-94373000D01*
X130492000Y-94373000D01*
X130492000Y-93230085D01*
X130746000Y-93230085D01*
X130746000Y-94373000D01*
X131889624Y-94373000D01*
X132010909Y-94150960D01*
X131916070Y-93886119D01*
X131771385Y-93644869D01*
X131582414Y-93436481D01*
X131356420Y-93268963D01*
X131102087Y-93148754D01*
X130968039Y-93108096D01*
X130746000Y-93230085D01*
X130492000Y-93230085D01*
X130269961Y-93108096D01*
X130135913Y-93148754D01*
X129881580Y-93268963D01*
X129655586Y-93436481D01*
X129466615Y-93644869D01*
X129321930Y-93886119D01*
X129227091Y-94150960D01*
X128645909Y-94150960D01*
X128551070Y-93886119D01*
X128406385Y-93644869D01*
X128217414Y-93436481D01*
X127991420Y-93268963D01*
X127737087Y-93148754D01*
X127603039Y-93108096D01*
X127381000Y-93230085D01*
X127127000Y-93230085D01*
X126904961Y-93108096D01*
X126770913Y-93148754D01*
X126516580Y-93268963D01*
X126290586Y-93436481D01*
X126101615Y-93644869D01*
X125956930Y-93886119D01*
X125862091Y-94150960D01*
X122385113Y-94150960D01*
X122516131Y-94072385D01*
X122724519Y-93883414D01*
X122892037Y-93657420D01*
X123012246Y-93403087D01*
X123052904Y-93269039D01*
X122930915Y-93047000D01*
X121788000Y-93047000D01*
X121534000Y-93047000D01*
X120391085Y-93047000D01*
X120269096Y-93269039D01*
X115554684Y-93269039D01*
X115596000Y-93061335D01*
X115596000Y-92778665D01*
X115575056Y-92673376D01*
X115887333Y-92361100D01*
X120345587Y-92361100D01*
X120309754Y-92436913D01*
X120269096Y-92570961D01*
X120391085Y-92793000D01*
X121534000Y-92793000D01*
X121534000Y-92773000D01*
X121788000Y-92773000D01*
X121788000Y-92793000D01*
X122930915Y-92793000D01*
X123052904Y-92570961D01*
X123012246Y-92436913D01*
X122976413Y-92361100D01*
X133839850Y-92361100D01*
X133880400Y-92365094D01*
X133920950Y-92361100D01*
X133920953Y-92361100D01*
X134042226Y-92349156D01*
X134197834Y-92301953D01*
X134341242Y-92225299D01*
X134466941Y-92122141D01*
X134492798Y-92090634D01*
X134512409Y-92071023D01*
X134399320Y-92240273D01*
X134291147Y-92501426D01*
X134236000Y-92778665D01*
X134236000Y-93061335D01*
X134291147Y-93338574D01*
X134399320Y-93599727D01*
X134556363Y-93834759D01*
X134756241Y-94034637D01*
X134991273Y-94191680D01*
X135252426Y-94299853D01*
X135529665Y-94355000D01*
X135812335Y-94355000D01*
X136089574Y-94299853D01*
X136350727Y-94191680D01*
X136585759Y-94034637D01*
X136785637Y-93834759D01*
X136942680Y-93599727D01*
X137050853Y-93338574D01*
X137064684Y-93269039D01*
X141779096Y-93269039D01*
X141819754Y-93403087D01*
X141939963Y-93657420D01*
X142107481Y-93883414D01*
X142315869Y-94072385D01*
X142557119Y-94217070D01*
X142821960Y-94311909D01*
X143044000Y-94190624D01*
X143044000Y-93047000D01*
X141901085Y-93047000D01*
X141779096Y-93269039D01*
X137064684Y-93269039D01*
X137106000Y-93061335D01*
X137106000Y-92778665D01*
X137050853Y-92501426D01*
X136942680Y-92240273D01*
X136785637Y-92005241D01*
X136585759Y-91805363D01*
X136350727Y-91648320D01*
X136089574Y-91540147D01*
X135812335Y-91485000D01*
X135529665Y-91485000D01*
X135252426Y-91540147D01*
X134991273Y-91648320D01*
X134822024Y-91761408D01*
X135424377Y-91159057D01*
X135529665Y-91180000D01*
X135812335Y-91180000D01*
X136089574Y-91124853D01*
X136350727Y-91016680D01*
X136585759Y-90859637D01*
X136785637Y-90659759D01*
X136942680Y-90424727D01*
X137050853Y-90163574D01*
X137106000Y-89886335D01*
X137106000Y-89603665D01*
X137050853Y-89326426D01*
X136942680Y-89065273D01*
X136785637Y-88830241D01*
X136585759Y-88630363D01*
X136350727Y-88473320D01*
X136089574Y-88365147D01*
X135812335Y-88310000D01*
X135529665Y-88310000D01*
X135252426Y-88365147D01*
X134991273Y-88473320D01*
X134756241Y-88630363D01*
X134556363Y-88830241D01*
X134399320Y-89065273D01*
X134291147Y-89326426D01*
X134236000Y-89603665D01*
X134236000Y-89886335D01*
X134256943Y-89991623D01*
X133538468Y-90710100D01*
X122722660Y-90710100D01*
X122724519Y-90708414D01*
X122892037Y-90482420D01*
X123012246Y-90228087D01*
X123052904Y-90094039D01*
X122930915Y-89872000D01*
X121788000Y-89872000D01*
X121788000Y-89892000D01*
X121534000Y-89892000D01*
X121534000Y-89872000D01*
X120391085Y-89872000D01*
X120269096Y-90094039D01*
X120309754Y-90228087D01*
X120429963Y-90482420D01*
X120597481Y-90708414D01*
X120599340Y-90710100D01*
X115585950Y-90710100D01*
X115545399Y-90706106D01*
X115504849Y-90710100D01*
X115504847Y-90710100D01*
X115383574Y-90722044D01*
X115227966Y-90769247D01*
X115134511Y-90819201D01*
X115095165Y-90840231D01*
X115275637Y-90659759D01*
X115432680Y-90424727D01*
X115540853Y-90163574D01*
X115596000Y-89886335D01*
X115596000Y-89603665D01*
X115554685Y-89395961D01*
X120269096Y-89395961D01*
X120391085Y-89618000D01*
X121534000Y-89618000D01*
X121534000Y-88474376D01*
X121788000Y-88474376D01*
X121788000Y-89618000D01*
X122930915Y-89618000D01*
X123052904Y-89395961D01*
X123012246Y-89261913D01*
X122892037Y-89007580D01*
X122724519Y-88781586D01*
X122516131Y-88592615D01*
X122274881Y-88447930D01*
X122010040Y-88353091D01*
X121788000Y-88474376D01*
X121534000Y-88474376D01*
X121311960Y-88353091D01*
X121047119Y-88447930D01*
X120805869Y-88592615D01*
X120597481Y-88781586D01*
X120429963Y-89007580D01*
X120309754Y-89261913D01*
X120269096Y-89395961D01*
X115554685Y-89395961D01*
X115540853Y-89326426D01*
X115432680Y-89065273D01*
X115275637Y-88830241D01*
X115075759Y-88630363D01*
X114840727Y-88473320D01*
X114579574Y-88365147D01*
X114302335Y-88310000D01*
X114019665Y-88310000D01*
X113742426Y-88365147D01*
X113481273Y-88473320D01*
X113246241Y-88630363D01*
X113046363Y-88830241D01*
X112889320Y-89065273D01*
X112781147Y-89326426D01*
X112726000Y-89603665D01*
X108655510Y-89603665D01*
X108663715Y-89591646D01*
X108774367Y-89331818D01*
X108791904Y-89249039D01*
X108669915Y-89027000D01*
X107127000Y-89027000D01*
X107127000Y-89047000D01*
X106873000Y-89047000D01*
X106873000Y-89027000D01*
X105330085Y-89027000D01*
X105208096Y-89249039D01*
X105225633Y-89331818D01*
X105336285Y-89591646D01*
X105495500Y-89824895D01*
X105697161Y-90022601D01*
X105926741Y-90172735D01*
X105798899Y-90241068D01*
X105580392Y-90420392D01*
X105401068Y-90638899D01*
X105365736Y-90705000D01*
X104634264Y-90705000D01*
X104598932Y-90638899D01*
X104419608Y-90420392D01*
X104201101Y-90241068D01*
X104073259Y-90172735D01*
X104302839Y-90022601D01*
X104504500Y-89824895D01*
X104663715Y-89591646D01*
X104774367Y-89331818D01*
X104791904Y-89249039D01*
X104669915Y-89027000D01*
X103127000Y-89027000D01*
X103127000Y-89047000D01*
X102873000Y-89047000D01*
X102873000Y-89027000D01*
X101330085Y-89027000D01*
X101208096Y-89249039D01*
X101225633Y-89331818D01*
X101336285Y-89591646D01*
X101495500Y-89824895D01*
X101697161Y-90022601D01*
X101926741Y-90172735D01*
X101798899Y-90241068D01*
X101580392Y-90420392D01*
X101401068Y-90638899D01*
X101267818Y-90888192D01*
X101185764Y-91158691D01*
X101158057Y-91440000D01*
X101185764Y-91721309D01*
X101267818Y-91991808D01*
X101401068Y-92241101D01*
X101580392Y-92459608D01*
X101798899Y-92638932D01*
X101931858Y-92710000D01*
X101798899Y-92781068D01*
X101580392Y-92960392D01*
X101421092Y-93154500D01*
X91152734Y-93154500D01*
X86343198Y-88344966D01*
X86317341Y-88313459D01*
X86191642Y-88210301D01*
X86048234Y-88133647D01*
X85892626Y-88086444D01*
X85771353Y-88074500D01*
X85771350Y-88074500D01*
X85730800Y-88070506D01*
X85716765Y-88071888D01*
X85559608Y-87880392D01*
X85341101Y-87701068D01*
X85208142Y-87630000D01*
X85341101Y-87558932D01*
X85559608Y-87379608D01*
X85738932Y-87161101D01*
X85872182Y-86911808D01*
X85954236Y-86641309D01*
X85981943Y-86360000D01*
X85954236Y-86078691D01*
X85872182Y-85808192D01*
X85738932Y-85558899D01*
X85559608Y-85340392D01*
X85341101Y-85161068D01*
X85208142Y-85090000D01*
X85341101Y-85018932D01*
X85559608Y-84839608D01*
X85738932Y-84621101D01*
X85872182Y-84371808D01*
X85954236Y-84101309D01*
X85981943Y-83820000D01*
X85954236Y-83538691D01*
X85872182Y-83268192D01*
X85811252Y-83154200D01*
X86173995Y-83154200D01*
X86210100Y-83157756D01*
X86246205Y-83154200D01*
X86354185Y-83143565D01*
X86492733Y-83101537D01*
X86620420Y-83033287D01*
X86732338Y-82941438D01*
X86755359Y-82913387D01*
X94751747Y-74917000D01*
X95672518Y-74917000D01*
X95700332Y-75056829D01*
X95700332Y-75056829D01*
G37*
X95700332Y-75056829D02*
X95770814Y-75226989D01*
X95873138Y-75380128D01*
X96003372Y-75510362D01*
X96156511Y-75612686D01*
X96326671Y-75683168D01*
X96491886Y-75716032D01*
X101280046Y-80504193D01*
X101303062Y-80532238D01*
X101331571Y-80555635D01*
X101351368Y-80571882D01*
X101267818Y-80728192D01*
X101185764Y-80998691D01*
X101158057Y-81280000D01*
X101185764Y-81561309D01*
X101267818Y-81831808D01*
X101401068Y-82081101D01*
X101580392Y-82299608D01*
X101798899Y-82478932D01*
X101931858Y-82550000D01*
X101798899Y-82621068D01*
X101580392Y-82800392D01*
X101401068Y-83018899D01*
X101267818Y-83268192D01*
X101185764Y-83538691D01*
X101158057Y-83820000D01*
X101185764Y-84101309D01*
X101267818Y-84371808D01*
X101401068Y-84621101D01*
X101580392Y-84839608D01*
X101798899Y-85018932D01*
X101931858Y-85090000D01*
X101798899Y-85161068D01*
X101580392Y-85340392D01*
X101401068Y-85558899D01*
X101267818Y-85808192D01*
X101185764Y-86078691D01*
X101158057Y-86360000D01*
X101185764Y-86641309D01*
X101267818Y-86911808D01*
X101401068Y-87161101D01*
X101580392Y-87379608D01*
X101798899Y-87558932D01*
X101926741Y-87627265D01*
X101697161Y-87777399D01*
X101495500Y-87975105D01*
X101336285Y-88208354D01*
X101225633Y-88468182D01*
X101208096Y-88550961D01*
X101330085Y-88773000D01*
X102873000Y-88773000D01*
X102873000Y-88753000D01*
X103127000Y-88753000D01*
X103127000Y-88773000D01*
X104669915Y-88773000D01*
X104791904Y-88550961D01*
X104774367Y-88468182D01*
X104663715Y-88208354D01*
X104504500Y-87975105D01*
X104302839Y-87777399D01*
X104073259Y-87627265D01*
X104201101Y-87558932D01*
X104419608Y-87379608D01*
X104598932Y-87161101D01*
X104634264Y-87095000D01*
X105365736Y-87095000D01*
X105401068Y-87161101D01*
X105580392Y-87379608D01*
X105798899Y-87558932D01*
X105926741Y-87627265D01*
X105697161Y-87777399D01*
X105495500Y-87975105D01*
X105336285Y-88208354D01*
X105225633Y-88468182D01*
X105208096Y-88550961D01*
X105330085Y-88773000D01*
X106873000Y-88773000D01*
X106873000Y-88753000D01*
X107127000Y-88753000D01*
X107127000Y-88773000D01*
X108669915Y-88773000D01*
X108791904Y-88550961D01*
X108774367Y-88468182D01*
X108663715Y-88208354D01*
X108504500Y-87975105D01*
X108302839Y-87777399D01*
X108073259Y-87627265D01*
X108201101Y-87558932D01*
X108419608Y-87379608D01*
X108598932Y-87161101D01*
X108732182Y-86911808D01*
X108814236Y-86641309D01*
X108841943Y-86360000D01*
X108814236Y-86078691D01*
X108732182Y-85808192D01*
X108598932Y-85558899D01*
X108419608Y-85340392D01*
X108201101Y-85161068D01*
X108068142Y-85090000D01*
X108201101Y-85018932D01*
X108419608Y-84839608D01*
X108598932Y-84621101D01*
X108732182Y-84371808D01*
X108814236Y-84101309D01*
X108841943Y-83820000D01*
X108814236Y-83538691D01*
X108732182Y-83268192D01*
X108598932Y-83018899D01*
X108419608Y-82800392D01*
X108201101Y-82621068D01*
X108068142Y-82550000D01*
X108201101Y-82478932D01*
X108419608Y-82299608D01*
X108598932Y-82081101D01*
X108698840Y-81894186D01*
X110659400Y-83854747D01*
X110659401Y-85421585D01*
X110655844Y-85457700D01*
X110670035Y-85601785D01*
X110700015Y-85700613D01*
X110712064Y-85740333D01*
X110780314Y-85868020D01*
X110872163Y-85979938D01*
X110900208Y-86002954D01*
X112183046Y-87285793D01*
X112206062Y-87313838D01*
X112317980Y-87405687D01*
X112445667Y-87473937D01*
X112584215Y-87515965D01*
X112692195Y-87526600D01*
X112692204Y-87526600D01*
X112728299Y-87530155D01*
X112764394Y-87526600D01*
X118244000Y-87526600D01*
X118384211Y-87620286D01*
X118554371Y-87690768D01*
X118735011Y-87726700D01*
X118919189Y-87726700D01*
X119099829Y-87690768D01*
X119269989Y-87620286D01*
X119410051Y-87526700D01*
X130041500Y-87526700D01*
X130041500Y-87656689D01*
X130077432Y-87837329D01*
X130147914Y-88007489D01*
X130250238Y-88160628D01*
X130380472Y-88290862D01*
X130533611Y-88393186D01*
X130703771Y-88463668D01*
X130884411Y-88499600D01*
X131068589Y-88499600D01*
X131249229Y-88463668D01*
X131419389Y-88393186D01*
X131559451Y-88299600D01*
X139125454Y-88299600D01*
X142489398Y-91663544D01*
X142315869Y-91767615D01*
X142107481Y-91956586D01*
X141939963Y-92182580D01*
X141819754Y-92436913D01*
X141779096Y-92570961D01*
X141901085Y-92793000D01*
X143044000Y-92793000D01*
X143044000Y-92773000D01*
X143298000Y-92773000D01*
X143298000Y-92793000D01*
X143318000Y-92793000D01*
X143318000Y-93047000D01*
X143298000Y-93047000D01*
X143298000Y-94190624D01*
X143520040Y-94311909D01*
X143723300Y-94239122D01*
X143723300Y-94435395D01*
X143719744Y-94471500D01*
X143723300Y-94507604D01*
X143733935Y-94615584D01*
X143775963Y-94754132D01*
X143844213Y-94881819D01*
X143936062Y-94993737D01*
X143964108Y-95016754D01*
X145073953Y-96126600D01*
X134250300Y-96126600D01*
X134250300Y-95986511D01*
X134214368Y-95805871D01*
X134143886Y-95635711D01*
X134041562Y-95482572D01*
X133911328Y-95352338D01*
X133758189Y-95250014D01*
X133588029Y-95179532D01*
X133407389Y-95143600D01*
X133223211Y-95143600D01*
X133042571Y-95179532D01*
X132872411Y-95250014D01*
X132732349Y-95343600D01*
X132150751Y-95343600D01*
X132010689Y-95250014D01*
X131869500Y-95191532D01*
X131916070Y-95113881D01*
X132010909Y-94849040D01*
X131889624Y-94627000D01*
X130746000Y-94627000D01*
X130746000Y-94647000D01*
X130492000Y-94647000D01*
X130492000Y-94627000D01*
X129348376Y-94627000D01*
X129227091Y-94849040D01*
X129321930Y-95113881D01*
X129459700Y-95343600D01*
X128413300Y-95343600D01*
X128551070Y-95113881D01*
X128645909Y-94849040D01*
X128524624Y-94627000D01*
X127381000Y-94627000D01*
X127381000Y-94647000D01*
X127127000Y-94647000D01*
X127127000Y-94627000D01*
X125983376Y-94627000D01*
X125862091Y-94849040D01*
X125956930Y-95113881D01*
X126094700Y-95343600D01*
X115390405Y-95343600D01*
X115354300Y-95340044D01*
X115210215Y-95354235D01*
X115071666Y-95396263D01*
X115036612Y-95415000D01*
X114943980Y-95464513D01*
X114853894Y-95538445D01*
X114690071Y-95571032D01*
X114519911Y-95641514D01*
X114366772Y-95743838D01*
X114236538Y-95874072D01*
X114134214Y-96027211D01*
X114063732Y-96197371D01*
X114030868Y-96362585D01*
X113957354Y-96436100D01*
X109860851Y-96436100D01*
X109720789Y-96342514D01*
X109550629Y-96272032D01*
X109369989Y-96236100D01*
X109185811Y-96236100D01*
X109005171Y-96272032D01*
X108835011Y-96342514D01*
X108825113Y-96349127D01*
X108814236Y-96238691D01*
X108732182Y-95968192D01*
X108598932Y-95718899D01*
X108419608Y-95500392D01*
X108201101Y-95321068D01*
X108068142Y-95250000D01*
X108201101Y-95178932D01*
X108419608Y-94999608D01*
X108598932Y-94781101D01*
X108732182Y-94531808D01*
X108814236Y-94261309D01*
X108841943Y-93980000D01*
X108814236Y-93698691D01*
X108732182Y-93428192D01*
X108598932Y-93178899D01*
X108419608Y-92960392D01*
X108201101Y-92781068D01*
X108068142Y-92710000D01*
X108201101Y-92638932D01*
X108419608Y-92459608D01*
X108598932Y-92241101D01*
X108732182Y-91991808D01*
X108814236Y-91721309D01*
X108841943Y-91440000D01*
X108814236Y-91158691D01*
X108732182Y-90888192D01*
X108598932Y-90638899D01*
X108419608Y-90420392D01*
X108201101Y-90241068D01*
X108073259Y-90172735D01*
X108302839Y-90022601D01*
X108504500Y-89824895D01*
X108655510Y-89603665D01*
X112726000Y-89603665D01*
X112726000Y-89886335D01*
X112781147Y-90163574D01*
X112889320Y-90424727D01*
X113046363Y-90659759D01*
X113246241Y-90859637D01*
X113481273Y-91016680D01*
X113742426Y-91124853D01*
X114019665Y-91180000D01*
X114302335Y-91180000D01*
X114579574Y-91124853D01*
X114840727Y-91016680D01*
X115033037Y-90888183D01*
X115033026Y-90888192D01*
X114958859Y-90949059D01*
X114933008Y-90980559D01*
X114407624Y-91505944D01*
X114302335Y-91485000D01*
X114019665Y-91485000D01*
X113742426Y-91540147D01*
X113481273Y-91648320D01*
X113246241Y-91805363D01*
X113046363Y-92005241D01*
X112889320Y-92240273D01*
X112781147Y-92501426D01*
X112726000Y-92778665D01*
X112726000Y-93061335D01*
X112781147Y-93338574D01*
X112889320Y-93599727D01*
X113046363Y-93834759D01*
X113246241Y-94034637D01*
X113481273Y-94191680D01*
X113742426Y-94299853D01*
X114019665Y-94355000D01*
X114302335Y-94355000D01*
X114579574Y-94299853D01*
X114840727Y-94191680D01*
X115075759Y-94034637D01*
X115275637Y-93834759D01*
X115432680Y-93599727D01*
X115540853Y-93338574D01*
X115554684Y-93269039D01*
X120269096Y-93269039D01*
X120309754Y-93403087D01*
X120429963Y-93657420D01*
X120597481Y-93883414D01*
X120805869Y-94072385D01*
X121047119Y-94217070D01*
X121311960Y-94311909D01*
X121534000Y-94190624D01*
X121534000Y-93047000D01*
X121788000Y-93047000D01*
X121788000Y-94190624D01*
X122010040Y-94311909D01*
X122274881Y-94217070D01*
X122385113Y-94150960D01*
X125862091Y-94150960D01*
X125983376Y-94373000D01*
X127127000Y-94373000D01*
X127127000Y-93230085D01*
X127381000Y-93230085D01*
X127381000Y-94373000D01*
X128524624Y-94373000D01*
X128645909Y-94150960D01*
X129227091Y-94150960D01*
X129348376Y-94373000D01*
X130492000Y-94373000D01*
X130492000Y-93230085D01*
X130746000Y-93230085D01*
X130746000Y-94373000D01*
X131889624Y-94373000D01*
X132010909Y-94150960D01*
X131916070Y-93886119D01*
X131771385Y-93644869D01*
X131582414Y-93436481D01*
X131356420Y-93268963D01*
X131102087Y-93148754D01*
X130968039Y-93108096D01*
X130746000Y-93230085D01*
X130492000Y-93230085D01*
X130269961Y-93108096D01*
X130135913Y-93148754D01*
X129881580Y-93268963D01*
X129655586Y-93436481D01*
X129466615Y-93644869D01*
X129321930Y-93886119D01*
X129227091Y-94150960D01*
X128645909Y-94150960D01*
X128551070Y-93886119D01*
X128406385Y-93644869D01*
X128217414Y-93436481D01*
X127991420Y-93268963D01*
X127737087Y-93148754D01*
X127603039Y-93108096D01*
X127381000Y-93230085D01*
X127127000Y-93230085D01*
X126904961Y-93108096D01*
X126770913Y-93148754D01*
X126516580Y-93268963D01*
X126290586Y-93436481D01*
X126101615Y-93644869D01*
X125956930Y-93886119D01*
X125862091Y-94150960D01*
X122385113Y-94150960D01*
X122516131Y-94072385D01*
X122724519Y-93883414D01*
X122892037Y-93657420D01*
X123012246Y-93403087D01*
X123052904Y-93269039D01*
X122930915Y-93047000D01*
X121788000Y-93047000D01*
X121534000Y-93047000D01*
X120391085Y-93047000D01*
X120269096Y-93269039D01*
X115554684Y-93269039D01*
X115596000Y-93061335D01*
X115596000Y-92778665D01*
X115575056Y-92673376D01*
X115887333Y-92361100D01*
X120345587Y-92361100D01*
X120309754Y-92436913D01*
X120269096Y-92570961D01*
X120391085Y-92793000D01*
X121534000Y-92793000D01*
X121534000Y-92773000D01*
X121788000Y-92773000D01*
X121788000Y-92793000D01*
X122930915Y-92793000D01*
X123052904Y-92570961D01*
X123012246Y-92436913D01*
X122976413Y-92361100D01*
X133839850Y-92361100D01*
X133880400Y-92365094D01*
X133920950Y-92361100D01*
X133920953Y-92361100D01*
X134042226Y-92349156D01*
X134197834Y-92301953D01*
X134341242Y-92225299D01*
X134466941Y-92122141D01*
X134492798Y-92090634D01*
X134512409Y-92071023D01*
X134399320Y-92240273D01*
X134291147Y-92501426D01*
X134236000Y-92778665D01*
X134236000Y-93061335D01*
X134291147Y-93338574D01*
X134399320Y-93599727D01*
X134556363Y-93834759D01*
X134756241Y-94034637D01*
X134991273Y-94191680D01*
X135252426Y-94299853D01*
X135529665Y-94355000D01*
X135812335Y-94355000D01*
X136089574Y-94299853D01*
X136350727Y-94191680D01*
X136585759Y-94034637D01*
X136785637Y-93834759D01*
X136942680Y-93599727D01*
X137050853Y-93338574D01*
X137064684Y-93269039D01*
X141779096Y-93269039D01*
X141819754Y-93403087D01*
X141939963Y-93657420D01*
X142107481Y-93883414D01*
X142315869Y-94072385D01*
X142557119Y-94217070D01*
X142821960Y-94311909D01*
X143044000Y-94190624D01*
X143044000Y-93047000D01*
X141901085Y-93047000D01*
X141779096Y-93269039D01*
X137064684Y-93269039D01*
X137106000Y-93061335D01*
X137106000Y-92778665D01*
X137050853Y-92501426D01*
X136942680Y-92240273D01*
X136785637Y-92005241D01*
X136585759Y-91805363D01*
X136350727Y-91648320D01*
X136089574Y-91540147D01*
X135812335Y-91485000D01*
X135529665Y-91485000D01*
X135252426Y-91540147D01*
X134991273Y-91648320D01*
X134822024Y-91761408D01*
X135424377Y-91159057D01*
X135529665Y-91180000D01*
X135812335Y-91180000D01*
X136089574Y-91124853D01*
X136350727Y-91016680D01*
X136585759Y-90859637D01*
X136785637Y-90659759D01*
X136942680Y-90424727D01*
X137050853Y-90163574D01*
X137106000Y-89886335D01*
X137106000Y-89603665D01*
X137050853Y-89326426D01*
X136942680Y-89065273D01*
X136785637Y-88830241D01*
X136585759Y-88630363D01*
X136350727Y-88473320D01*
X136089574Y-88365147D01*
X135812335Y-88310000D01*
X135529665Y-88310000D01*
X135252426Y-88365147D01*
X134991273Y-88473320D01*
X134756241Y-88630363D01*
X134556363Y-88830241D01*
X134399320Y-89065273D01*
X134291147Y-89326426D01*
X134236000Y-89603665D01*
X134236000Y-89886335D01*
X134256943Y-89991623D01*
X133538468Y-90710100D01*
X122722660Y-90710100D01*
X122724519Y-90708414D01*
X122892037Y-90482420D01*
X123012246Y-90228087D01*
X123052904Y-90094039D01*
X122930915Y-89872000D01*
X121788000Y-89872000D01*
X121788000Y-89892000D01*
X121534000Y-89892000D01*
X121534000Y-89872000D01*
X120391085Y-89872000D01*
X120269096Y-90094039D01*
X120309754Y-90228087D01*
X120429963Y-90482420D01*
X120597481Y-90708414D01*
X120599340Y-90710100D01*
X115585950Y-90710100D01*
X115545399Y-90706106D01*
X115504849Y-90710100D01*
X115504847Y-90710100D01*
X115383574Y-90722044D01*
X115227966Y-90769247D01*
X115134511Y-90819201D01*
X115095165Y-90840231D01*
X115275637Y-90659759D01*
X115432680Y-90424727D01*
X115540853Y-90163574D01*
X115596000Y-89886335D01*
X115596000Y-89603665D01*
X115554685Y-89395961D01*
X120269096Y-89395961D01*
X120391085Y-89618000D01*
X121534000Y-89618000D01*
X121534000Y-88474376D01*
X121788000Y-88474376D01*
X121788000Y-89618000D01*
X122930915Y-89618000D01*
X123052904Y-89395961D01*
X123012246Y-89261913D01*
X122892037Y-89007580D01*
X122724519Y-88781586D01*
X122516131Y-88592615D01*
X122274881Y-88447930D01*
X122010040Y-88353091D01*
X121788000Y-88474376D01*
X121534000Y-88474376D01*
X121311960Y-88353091D01*
X121047119Y-88447930D01*
X120805869Y-88592615D01*
X120597481Y-88781586D01*
X120429963Y-89007580D01*
X120309754Y-89261913D01*
X120269096Y-89395961D01*
X115554685Y-89395961D01*
X115540853Y-89326426D01*
X115432680Y-89065273D01*
X115275637Y-88830241D01*
X115075759Y-88630363D01*
X114840727Y-88473320D01*
X114579574Y-88365147D01*
X114302335Y-88310000D01*
X114019665Y-88310000D01*
X113742426Y-88365147D01*
X113481273Y-88473320D01*
X113246241Y-88630363D01*
X113046363Y-88830241D01*
X112889320Y-89065273D01*
X112781147Y-89326426D01*
X112726000Y-89603665D01*
X108655510Y-89603665D01*
X108663715Y-89591646D01*
X108774367Y-89331818D01*
X108791904Y-89249039D01*
X108669915Y-89027000D01*
X107127000Y-89027000D01*
X107127000Y-89047000D01*
X106873000Y-89047000D01*
X106873000Y-89027000D01*
X105330085Y-89027000D01*
X105208096Y-89249039D01*
X105225633Y-89331818D01*
X105336285Y-89591646D01*
X105495500Y-89824895D01*
X105697161Y-90022601D01*
X105926741Y-90172735D01*
X105798899Y-90241068D01*
X105580392Y-90420392D01*
X105401068Y-90638899D01*
X105365736Y-90705000D01*
X104634264Y-90705000D01*
X104598932Y-90638899D01*
X104419608Y-90420392D01*
X104201101Y-90241068D01*
X104073259Y-90172735D01*
X104302839Y-90022601D01*
X104504500Y-89824895D01*
X104663715Y-89591646D01*
X104774367Y-89331818D01*
X104791904Y-89249039D01*
X104669915Y-89027000D01*
X103127000Y-89027000D01*
X103127000Y-89047000D01*
X102873000Y-89047000D01*
X102873000Y-89027000D01*
X101330085Y-89027000D01*
X101208096Y-89249039D01*
X101225633Y-89331818D01*
X101336285Y-89591646D01*
X101495500Y-89824895D01*
X101697161Y-90022601D01*
X101926741Y-90172735D01*
X101798899Y-90241068D01*
X101580392Y-90420392D01*
X101401068Y-90638899D01*
X101267818Y-90888192D01*
X101185764Y-91158691D01*
X101158057Y-91440000D01*
X101185764Y-91721309D01*
X101267818Y-91991808D01*
X101401068Y-92241101D01*
X101580392Y-92459608D01*
X101798899Y-92638932D01*
X101931858Y-92710000D01*
X101798899Y-92781068D01*
X101580392Y-92960392D01*
X101421092Y-93154500D01*
X91152734Y-93154500D01*
X86343198Y-88344966D01*
X86317341Y-88313459D01*
X86191642Y-88210301D01*
X86048234Y-88133647D01*
X85892626Y-88086444D01*
X85771353Y-88074500D01*
X85771350Y-88074500D01*
X85730800Y-88070506D01*
X85716765Y-88071888D01*
X85559608Y-87880392D01*
X85341101Y-87701068D01*
X85208142Y-87630000D01*
X85341101Y-87558932D01*
X85559608Y-87379608D01*
X85738932Y-87161101D01*
X85872182Y-86911808D01*
X85954236Y-86641309D01*
X85981943Y-86360000D01*
X85954236Y-86078691D01*
X85872182Y-85808192D01*
X85738932Y-85558899D01*
X85559608Y-85340392D01*
X85341101Y-85161068D01*
X85208142Y-85090000D01*
X85341101Y-85018932D01*
X85559608Y-84839608D01*
X85738932Y-84621101D01*
X85872182Y-84371808D01*
X85954236Y-84101309D01*
X85981943Y-83820000D01*
X85954236Y-83538691D01*
X85872182Y-83268192D01*
X85811252Y-83154200D01*
X86173995Y-83154200D01*
X86210100Y-83157756D01*
X86246205Y-83154200D01*
X86354185Y-83143565D01*
X86492733Y-83101537D01*
X86620420Y-83033287D01*
X86732338Y-82941438D01*
X86755359Y-82913387D01*
X94751747Y-74917000D01*
X95672518Y-74917000D01*
X95700332Y-75056829D01*
G36*
X146614001Y-89432648D02*
G01*
X146614001Y-93411381D01*
X146471471Y-93439732D01*
X146301311Y-93510214D01*
X146148172Y-93612538D01*
X146017938Y-93742772D01*
X145915614Y-93895911D01*
X145845132Y-94066071D01*
X145809200Y-94246711D01*
X145809200Y-94430889D01*
X145845132Y-94611529D01*
X145915614Y-94781689D01*
X146017938Y-94934828D01*
X146148172Y-95065062D01*
X146213701Y-95108847D01*
X146213701Y-95187454D01*
X145193300Y-94167054D01*
X145193300Y-92629094D01*
X145196855Y-92592999D01*
X145193300Y-92556904D01*
X145193300Y-92556895D01*
X145182665Y-92448915D01*
X145140637Y-92310367D01*
X145072387Y-92182680D01*
X144980538Y-92070762D01*
X144952493Y-92047746D01*
X143886108Y-90981361D01*
X144026131Y-90897385D01*
X144234519Y-90708414D01*
X144402037Y-90482420D01*
X144522246Y-90228087D01*
X144562904Y-90094039D01*
X144440915Y-89872000D01*
X143298000Y-89872000D01*
X143298000Y-89892000D01*
X143044000Y-89892000D01*
X143044000Y-89872000D01*
X143024000Y-89872000D01*
X143024000Y-89618000D01*
X143044000Y-89618000D01*
X143044000Y-88474376D01*
X143298000Y-88474376D01*
X143298000Y-89618000D01*
X144440915Y-89618000D01*
X144562904Y-89395961D01*
X144522246Y-89261913D01*
X144402037Y-89007580D01*
X144234519Y-88781586D01*
X144026131Y-88592615D01*
X143784881Y-88447930D01*
X143520040Y-88353091D01*
X143298000Y-88474376D01*
X143044000Y-88474376D01*
X142821960Y-88353091D01*
X142557119Y-88447930D01*
X142315869Y-88592615D01*
X142107481Y-88781586D01*
X141939963Y-89007580D01*
X141931093Y-89026347D01*
X140502146Y-87597400D01*
X144778754Y-87597400D01*
X146614001Y-89432648D01*
X146614001Y-89432648D01*
G37*
X146614001Y-89432648D02*
X146614001Y-93411381D01*
X146471471Y-93439732D01*
X146301311Y-93510214D01*
X146148172Y-93612538D01*
X146017938Y-93742772D01*
X145915614Y-93895911D01*
X145845132Y-94066071D01*
X145809200Y-94246711D01*
X145809200Y-94430889D01*
X145845132Y-94611529D01*
X145915614Y-94781689D01*
X146017938Y-94934828D01*
X146148172Y-95065062D01*
X146213701Y-95108847D01*
X146213701Y-95187454D01*
X145193300Y-94167054D01*
X145193300Y-92629094D01*
X145196855Y-92592999D01*
X145193300Y-92556904D01*
X145193300Y-92556895D01*
X145182665Y-92448915D01*
X145140637Y-92310367D01*
X145072387Y-92182680D01*
X144980538Y-92070762D01*
X144952493Y-92047746D01*
X143886108Y-90981361D01*
X144026131Y-90897385D01*
X144234519Y-90708414D01*
X144402037Y-90482420D01*
X144522246Y-90228087D01*
X144562904Y-90094039D01*
X144440915Y-89872000D01*
X143298000Y-89872000D01*
X143298000Y-89892000D01*
X143044000Y-89892000D01*
X143044000Y-89872000D01*
X143024000Y-89872000D01*
X143024000Y-89618000D01*
X143044000Y-89618000D01*
X143044000Y-88474376D01*
X143298000Y-88474376D01*
X143298000Y-89618000D01*
X144440915Y-89618000D01*
X144562904Y-89395961D01*
X144522246Y-89261913D01*
X144402037Y-89007580D01*
X144234519Y-88781586D01*
X144026131Y-88592615D01*
X143784881Y-88447930D01*
X143520040Y-88353091D01*
X143298000Y-88474376D01*
X143044000Y-88474376D01*
X142821960Y-88353091D01*
X142557119Y-88447930D01*
X142315869Y-88592615D01*
X142107481Y-88781586D01*
X141939963Y-89007580D01*
X141931093Y-89026347D01*
X140502146Y-87597400D01*
X144778754Y-87597400D01*
X146614001Y-89432648D01*
G36*
X112339068Y-55411101D02*
G01*
X112518392Y-55629608D01*
X112736899Y-55808932D01*
X112986192Y-55942182D01*
X113256691Y-56024236D01*
X113467508Y-56045000D01*
X113608492Y-56045000D01*
X113819309Y-56024236D01*
X114089808Y-55942182D01*
X114339101Y-55808932D01*
X114557608Y-55629608D01*
X114716908Y-55435500D01*
X114899092Y-55435500D01*
X115058392Y-55629608D01*
X115276899Y-55808932D01*
X115526192Y-55942182D01*
X115796691Y-56024236D01*
X116007508Y-56045000D01*
X116148492Y-56045000D01*
X116359309Y-56024236D01*
X116629808Y-55942182D01*
X116879101Y-55808932D01*
X117097608Y-55629608D01*
X117256908Y-55435500D01*
X117439092Y-55435500D01*
X117598392Y-55629608D01*
X117816899Y-55808932D01*
X118066192Y-55942182D01*
X118336691Y-56024236D01*
X118547508Y-56045000D01*
X118688492Y-56045000D01*
X118899309Y-56024236D01*
X119169808Y-55942182D01*
X119419101Y-55808932D01*
X119446013Y-55786846D01*
X120015006Y-56355839D01*
X120040859Y-56387341D01*
X120104996Y-56439977D01*
X120166557Y-56490499D01*
X120194091Y-56505216D01*
X120309966Y-56567153D01*
X120465574Y-56614356D01*
X120586847Y-56626300D01*
X120586849Y-56626300D01*
X120627399Y-56630294D01*
X120667950Y-56626300D01*
X134755447Y-56626300D01*
X134796000Y-56630294D01*
X134836553Y-56626300D01*
X134896868Y-56626300D01*
X136443944Y-58173376D01*
X136423000Y-58278665D01*
X136423000Y-58561335D01*
X136478147Y-58838574D01*
X136586320Y-59099727D01*
X136743363Y-59334759D01*
X136943241Y-59534637D01*
X137178273Y-59691680D01*
X137439426Y-59799853D01*
X137716665Y-59855000D01*
X137999335Y-59855000D01*
X138271401Y-59800882D01*
X138271401Y-61235652D01*
X137975385Y-61531668D01*
X137810171Y-61564532D01*
X137640011Y-61635014D01*
X137499949Y-61728600D01*
X125539782Y-61728600D01*
X125470329Y-61699832D01*
X125289689Y-61663900D01*
X125105511Y-61663900D01*
X124924871Y-61699832D01*
X124754711Y-61770314D01*
X124601572Y-61872638D01*
X124471338Y-62002872D01*
X124369014Y-62156011D01*
X124298532Y-62326171D01*
X124267177Y-62483800D01*
X122000790Y-62483800D01*
X121900828Y-62383838D01*
X121747689Y-62281514D01*
X121577529Y-62211032D01*
X121396889Y-62175100D01*
X121212711Y-62175100D01*
X121032071Y-62211032D01*
X120861911Y-62281514D01*
X120708772Y-62383838D01*
X120578538Y-62514072D01*
X120476214Y-62667211D01*
X120405732Y-62837371D01*
X120369800Y-63018011D01*
X120369800Y-63202189D01*
X120405732Y-63382829D01*
X120476214Y-63552989D01*
X120578538Y-63706128D01*
X120708772Y-63836362D01*
X120861911Y-63938686D01*
X121032071Y-64009168D01*
X121212711Y-64045100D01*
X121396889Y-64045100D01*
X121577529Y-64009168D01*
X121711200Y-63953800D01*
X145525100Y-63953800D01*
X145658771Y-64009168D01*
X145839411Y-64045100D01*
X146023589Y-64045100D01*
X146204229Y-64009168D01*
X146374389Y-63938686D01*
X146527528Y-63836362D01*
X146657762Y-63706128D01*
X146760086Y-63552989D01*
X146830568Y-63382829D01*
X146866500Y-63202189D01*
X146866500Y-63018011D01*
X146830568Y-62837371D01*
X146760086Y-62667211D01*
X146657762Y-62514072D01*
X146527528Y-62383838D01*
X146374389Y-62281514D01*
X146204229Y-62211032D01*
X146023589Y-62175100D01*
X145839411Y-62175100D01*
X145658771Y-62211032D01*
X145488611Y-62281514D01*
X145335472Y-62383838D01*
X145235510Y-62483800D01*
X139102147Y-62483800D01*
X139500593Y-62085354D01*
X139528638Y-62062338D01*
X139620487Y-61950420D01*
X139688737Y-61822733D01*
X139730765Y-61684185D01*
X139741400Y-61576205D01*
X139741400Y-61576196D01*
X139744955Y-61540101D01*
X139741400Y-61504006D01*
X139741400Y-60170736D01*
X139887029Y-60141768D01*
X140057189Y-60071286D01*
X140210328Y-59968962D01*
X140340562Y-59838728D01*
X140442886Y-59685589D01*
X140513368Y-59515429D01*
X140549300Y-59334789D01*
X140549300Y-59150611D01*
X140513368Y-58969971D01*
X140442886Y-58799811D01*
X140349300Y-58659749D01*
X140349300Y-56660000D01*
X149340001Y-56660000D01*
X149340001Y-69888654D01*
X146394668Y-66943322D01*
X146462262Y-66875728D01*
X146564586Y-66722589D01*
X146635068Y-66552429D01*
X146671000Y-66371789D01*
X146671000Y-66187611D01*
X146635068Y-66006971D01*
X146564586Y-65836811D01*
X146462262Y-65683672D01*
X146332028Y-65553438D01*
X146178889Y-65451114D01*
X146008729Y-65380632D01*
X145828089Y-65344700D01*
X145643911Y-65344700D01*
X145463271Y-65380632D01*
X145293111Y-65451114D01*
X145139972Y-65553438D01*
X145009738Y-65683672D01*
X144907414Y-65836811D01*
X144836932Y-66006971D01*
X144825011Y-66066900D01*
X121355305Y-66066900D01*
X121319200Y-66063344D01*
X121283095Y-66066900D01*
X121175115Y-66077535D01*
X121036567Y-66119563D01*
X120908880Y-66187813D01*
X120796962Y-66279662D01*
X120773946Y-66307707D01*
X120368985Y-66712668D01*
X120203771Y-66745532D01*
X120033611Y-66816014D01*
X119893549Y-66909600D01*
X116578896Y-66909600D01*
X116542799Y-66906045D01*
X116506702Y-66909600D01*
X116506695Y-66909600D01*
X116417976Y-66918338D01*
X116398714Y-66920235D01*
X116356686Y-66932984D01*
X116260167Y-66962263D01*
X116132480Y-67030513D01*
X116020562Y-67122362D01*
X115997546Y-67150407D01*
X112843208Y-70304746D01*
X112815163Y-70327762D01*
X112723313Y-70439680D01*
X112655063Y-70567367D01*
X112641946Y-70610607D01*
X112216900Y-71035653D01*
X112216900Y-58980416D01*
X112266320Y-59099727D01*
X112423363Y-59334759D01*
X112623241Y-59534637D01*
X112858273Y-59691680D01*
X113119426Y-59799853D01*
X113396665Y-59855000D01*
X113679335Y-59855000D01*
X113956574Y-59799853D01*
X114217727Y-59691680D01*
X114452759Y-59534637D01*
X114652637Y-59334759D01*
X114809680Y-59099727D01*
X114917853Y-58838574D01*
X114931684Y-58769039D01*
X119646096Y-58769039D01*
X119686754Y-58903087D01*
X119806963Y-59157420D01*
X119974481Y-59383414D01*
X120182869Y-59572385D01*
X120424119Y-59717070D01*
X120688960Y-59811909D01*
X120911000Y-59690624D01*
X120911000Y-58547000D01*
X121165000Y-58547000D01*
X121165000Y-59690624D01*
X121387040Y-59811909D01*
X121651881Y-59717070D01*
X121893131Y-59572385D01*
X122101519Y-59383414D01*
X122269037Y-59157420D01*
X122389246Y-58903087D01*
X122429904Y-58769039D01*
X128966096Y-58769039D01*
X129006754Y-58903087D01*
X129126963Y-59157420D01*
X129294481Y-59383414D01*
X129502869Y-59572385D01*
X129744119Y-59717070D01*
X130008960Y-59811909D01*
X130231000Y-59690624D01*
X130231000Y-58547000D01*
X130485000Y-58547000D01*
X130485000Y-59690624D01*
X130707040Y-59811909D01*
X130971881Y-59717070D01*
X131213131Y-59572385D01*
X131421519Y-59383414D01*
X131589037Y-59157420D01*
X131709246Y-58903087D01*
X131749904Y-58769039D01*
X131627915Y-58547000D01*
X130485000Y-58547000D01*
X130231000Y-58547000D01*
X129088085Y-58547000D01*
X128966096Y-58769039D01*
X122429904Y-58769039D01*
X122307915Y-58547000D01*
X121165000Y-58547000D01*
X120911000Y-58547000D01*
X119768085Y-58547000D01*
X119646096Y-58769039D01*
X114931684Y-58769039D01*
X114973000Y-58561335D01*
X114973000Y-58278665D01*
X114931685Y-58070961D01*
X119646096Y-58070961D01*
X119768085Y-58293000D01*
X120911000Y-58293000D01*
X120911000Y-57149376D01*
X121165000Y-57149376D01*
X121165000Y-58293000D01*
X122307915Y-58293000D01*
X122429904Y-58070961D01*
X128966096Y-58070961D01*
X129088085Y-58293000D01*
X130231000Y-58293000D01*
X130231000Y-57149376D01*
X130485000Y-57149376D01*
X130485000Y-58293000D01*
X131627915Y-58293000D01*
X131749904Y-58070961D01*
X131709246Y-57936913D01*
X131589037Y-57682580D01*
X131421519Y-57456586D01*
X131213131Y-57267615D01*
X130971881Y-57122930D01*
X130707040Y-57028091D01*
X130485000Y-57149376D01*
X130231000Y-57149376D01*
X130008960Y-57028091D01*
X129744119Y-57122930D01*
X129502869Y-57267615D01*
X129294481Y-57456586D01*
X129126963Y-57682580D01*
X129006754Y-57936913D01*
X128966096Y-58070961D01*
X122429904Y-58070961D01*
X122389246Y-57936913D01*
X122269037Y-57682580D01*
X122101519Y-57456586D01*
X121893131Y-57267615D01*
X121651881Y-57122930D01*
X121387040Y-57028091D01*
X121165000Y-57149376D01*
X120911000Y-57149376D01*
X120688960Y-57028091D01*
X120424119Y-57122930D01*
X120182869Y-57267615D01*
X119974481Y-57456586D01*
X119806963Y-57682580D01*
X119686754Y-57936913D01*
X119646096Y-58070961D01*
X114931685Y-58070961D01*
X114917853Y-58001426D01*
X114809680Y-57740273D01*
X114652637Y-57505241D01*
X114452759Y-57305363D01*
X114217727Y-57148320D01*
X113956574Y-57040147D01*
X113679335Y-56985000D01*
X113396665Y-56985000D01*
X113119426Y-57040147D01*
X112858273Y-57148320D01*
X112623241Y-57305363D01*
X112423363Y-57505241D01*
X112266320Y-57740273D01*
X112216900Y-57859584D01*
X112216900Y-55351946D01*
X112275908Y-55292938D01*
X112339068Y-55411101D01*
X112339068Y-55411101D01*
G37*
X112339068Y-55411101D02*
X112518392Y-55629608D01*
X112736899Y-55808932D01*
X112986192Y-55942182D01*
X113256691Y-56024236D01*
X113467508Y-56045000D01*
X113608492Y-56045000D01*
X113819309Y-56024236D01*
X114089808Y-55942182D01*
X114339101Y-55808932D01*
X114557608Y-55629608D01*
X114716908Y-55435500D01*
X114899092Y-55435500D01*
X115058392Y-55629608D01*
X115276899Y-55808932D01*
X115526192Y-55942182D01*
X115796691Y-56024236D01*
X116007508Y-56045000D01*
X116148492Y-56045000D01*
X116359309Y-56024236D01*
X116629808Y-55942182D01*
X116879101Y-55808932D01*
X117097608Y-55629608D01*
X117256908Y-55435500D01*
X117439092Y-55435500D01*
X117598392Y-55629608D01*
X117816899Y-55808932D01*
X118066192Y-55942182D01*
X118336691Y-56024236D01*
X118547508Y-56045000D01*
X118688492Y-56045000D01*
X118899309Y-56024236D01*
X119169808Y-55942182D01*
X119419101Y-55808932D01*
X119446013Y-55786846D01*
X120015006Y-56355839D01*
X120040859Y-56387341D01*
X120104996Y-56439977D01*
X120166557Y-56490499D01*
X120194091Y-56505216D01*
X120309966Y-56567153D01*
X120465574Y-56614356D01*
X120586847Y-56626300D01*
X120586849Y-56626300D01*
X120627399Y-56630294D01*
X120667950Y-56626300D01*
X134755447Y-56626300D01*
X134796000Y-56630294D01*
X134836553Y-56626300D01*
X134896868Y-56626300D01*
X136443944Y-58173376D01*
X136423000Y-58278665D01*
X136423000Y-58561335D01*
X136478147Y-58838574D01*
X136586320Y-59099727D01*
X136743363Y-59334759D01*
X136943241Y-59534637D01*
X137178273Y-59691680D01*
X137439426Y-59799853D01*
X137716665Y-59855000D01*
X137999335Y-59855000D01*
X138271401Y-59800882D01*
X138271401Y-61235652D01*
X137975385Y-61531668D01*
X137810171Y-61564532D01*
X137640011Y-61635014D01*
X137499949Y-61728600D01*
X125539782Y-61728600D01*
X125470329Y-61699832D01*
X125289689Y-61663900D01*
X125105511Y-61663900D01*
X124924871Y-61699832D01*
X124754711Y-61770314D01*
X124601572Y-61872638D01*
X124471338Y-62002872D01*
X124369014Y-62156011D01*
X124298532Y-62326171D01*
X124267177Y-62483800D01*
X122000790Y-62483800D01*
X121900828Y-62383838D01*
X121747689Y-62281514D01*
X121577529Y-62211032D01*
X121396889Y-62175100D01*
X121212711Y-62175100D01*
X121032071Y-62211032D01*
X120861911Y-62281514D01*
X120708772Y-62383838D01*
X120578538Y-62514072D01*
X120476214Y-62667211D01*
X120405732Y-62837371D01*
X120369800Y-63018011D01*
X120369800Y-63202189D01*
X120405732Y-63382829D01*
X120476214Y-63552989D01*
X120578538Y-63706128D01*
X120708772Y-63836362D01*
X120861911Y-63938686D01*
X121032071Y-64009168D01*
X121212711Y-64045100D01*
X121396889Y-64045100D01*
X121577529Y-64009168D01*
X121711200Y-63953800D01*
X145525100Y-63953800D01*
X145658771Y-64009168D01*
X145839411Y-64045100D01*
X146023589Y-64045100D01*
X146204229Y-64009168D01*
X146374389Y-63938686D01*
X146527528Y-63836362D01*
X146657762Y-63706128D01*
X146760086Y-63552989D01*
X146830568Y-63382829D01*
X146866500Y-63202189D01*
X146866500Y-63018011D01*
X146830568Y-62837371D01*
X146760086Y-62667211D01*
X146657762Y-62514072D01*
X146527528Y-62383838D01*
X146374389Y-62281514D01*
X146204229Y-62211032D01*
X146023589Y-62175100D01*
X145839411Y-62175100D01*
X145658771Y-62211032D01*
X145488611Y-62281514D01*
X145335472Y-62383838D01*
X145235510Y-62483800D01*
X139102147Y-62483800D01*
X139500593Y-62085354D01*
X139528638Y-62062338D01*
X139620487Y-61950420D01*
X139688737Y-61822733D01*
X139730765Y-61684185D01*
X139741400Y-61576205D01*
X139741400Y-61576196D01*
X139744955Y-61540101D01*
X139741400Y-61504006D01*
X139741400Y-60170736D01*
X139887029Y-60141768D01*
X140057189Y-60071286D01*
X140210328Y-59968962D01*
X140340562Y-59838728D01*
X140442886Y-59685589D01*
X140513368Y-59515429D01*
X140549300Y-59334789D01*
X140549300Y-59150611D01*
X140513368Y-58969971D01*
X140442886Y-58799811D01*
X140349300Y-58659749D01*
X140349300Y-56660000D01*
X149340001Y-56660000D01*
X149340001Y-69888654D01*
X146394668Y-66943322D01*
X146462262Y-66875728D01*
X146564586Y-66722589D01*
X146635068Y-66552429D01*
X146671000Y-66371789D01*
X146671000Y-66187611D01*
X146635068Y-66006971D01*
X146564586Y-65836811D01*
X146462262Y-65683672D01*
X146332028Y-65553438D01*
X146178889Y-65451114D01*
X146008729Y-65380632D01*
X145828089Y-65344700D01*
X145643911Y-65344700D01*
X145463271Y-65380632D01*
X145293111Y-65451114D01*
X145139972Y-65553438D01*
X145009738Y-65683672D01*
X144907414Y-65836811D01*
X144836932Y-66006971D01*
X144825011Y-66066900D01*
X121355305Y-66066900D01*
X121319200Y-66063344D01*
X121283095Y-66066900D01*
X121175115Y-66077535D01*
X121036567Y-66119563D01*
X120908880Y-66187813D01*
X120796962Y-66279662D01*
X120773946Y-66307707D01*
X120368985Y-66712668D01*
X120203771Y-66745532D01*
X120033611Y-66816014D01*
X119893549Y-66909600D01*
X116578896Y-66909600D01*
X116542799Y-66906045D01*
X116506702Y-66909600D01*
X116506695Y-66909600D01*
X116417976Y-66918338D01*
X116398714Y-66920235D01*
X116356686Y-66932984D01*
X116260167Y-66962263D01*
X116132480Y-67030513D01*
X116020562Y-67122362D01*
X115997546Y-67150407D01*
X112843208Y-70304746D01*
X112815163Y-70327762D01*
X112723313Y-70439680D01*
X112655063Y-70567367D01*
X112641946Y-70610607D01*
X112216900Y-71035653D01*
X112216900Y-58980416D01*
X112266320Y-59099727D01*
X112423363Y-59334759D01*
X112623241Y-59534637D01*
X112858273Y-59691680D01*
X113119426Y-59799853D01*
X113396665Y-59855000D01*
X113679335Y-59855000D01*
X113956574Y-59799853D01*
X114217727Y-59691680D01*
X114452759Y-59534637D01*
X114652637Y-59334759D01*
X114809680Y-59099727D01*
X114917853Y-58838574D01*
X114931684Y-58769039D01*
X119646096Y-58769039D01*
X119686754Y-58903087D01*
X119806963Y-59157420D01*
X119974481Y-59383414D01*
X120182869Y-59572385D01*
X120424119Y-59717070D01*
X120688960Y-59811909D01*
X120911000Y-59690624D01*
X120911000Y-58547000D01*
X121165000Y-58547000D01*
X121165000Y-59690624D01*
X121387040Y-59811909D01*
X121651881Y-59717070D01*
X121893131Y-59572385D01*
X122101519Y-59383414D01*
X122269037Y-59157420D01*
X122389246Y-58903087D01*
X122429904Y-58769039D01*
X128966096Y-58769039D01*
X129006754Y-58903087D01*
X129126963Y-59157420D01*
X129294481Y-59383414D01*
X129502869Y-59572385D01*
X129744119Y-59717070D01*
X130008960Y-59811909D01*
X130231000Y-59690624D01*
X130231000Y-58547000D01*
X130485000Y-58547000D01*
X130485000Y-59690624D01*
X130707040Y-59811909D01*
X130971881Y-59717070D01*
X131213131Y-59572385D01*
X131421519Y-59383414D01*
X131589037Y-59157420D01*
X131709246Y-58903087D01*
X131749904Y-58769039D01*
X131627915Y-58547000D01*
X130485000Y-58547000D01*
X130231000Y-58547000D01*
X129088085Y-58547000D01*
X128966096Y-58769039D01*
X122429904Y-58769039D01*
X122307915Y-58547000D01*
X121165000Y-58547000D01*
X120911000Y-58547000D01*
X119768085Y-58547000D01*
X119646096Y-58769039D01*
X114931684Y-58769039D01*
X114973000Y-58561335D01*
X114973000Y-58278665D01*
X114931685Y-58070961D01*
X119646096Y-58070961D01*
X119768085Y-58293000D01*
X120911000Y-58293000D01*
X120911000Y-57149376D01*
X121165000Y-57149376D01*
X121165000Y-58293000D01*
X122307915Y-58293000D01*
X122429904Y-58070961D01*
X128966096Y-58070961D01*
X129088085Y-58293000D01*
X130231000Y-58293000D01*
X130231000Y-57149376D01*
X130485000Y-57149376D01*
X130485000Y-58293000D01*
X131627915Y-58293000D01*
X131749904Y-58070961D01*
X131709246Y-57936913D01*
X131589037Y-57682580D01*
X131421519Y-57456586D01*
X131213131Y-57267615D01*
X130971881Y-57122930D01*
X130707040Y-57028091D01*
X130485000Y-57149376D01*
X130231000Y-57149376D01*
X130008960Y-57028091D01*
X129744119Y-57122930D01*
X129502869Y-57267615D01*
X129294481Y-57456586D01*
X129126963Y-57682580D01*
X129006754Y-57936913D01*
X128966096Y-58070961D01*
X122429904Y-58070961D01*
X122389246Y-57936913D01*
X122269037Y-57682580D01*
X122101519Y-57456586D01*
X121893131Y-57267615D01*
X121651881Y-57122930D01*
X121387040Y-57028091D01*
X121165000Y-57149376D01*
X120911000Y-57149376D01*
X120688960Y-57028091D01*
X120424119Y-57122930D01*
X120182869Y-57267615D01*
X119974481Y-57456586D01*
X119806963Y-57682580D01*
X119686754Y-57936913D01*
X119646096Y-58070961D01*
X114931685Y-58070961D01*
X114917853Y-58001426D01*
X114809680Y-57740273D01*
X114652637Y-57505241D01*
X114452759Y-57305363D01*
X114217727Y-57148320D01*
X113956574Y-57040147D01*
X113679335Y-56985000D01*
X113396665Y-56985000D01*
X113119426Y-57040147D01*
X112858273Y-57148320D01*
X112623241Y-57305363D01*
X112423363Y-57505241D01*
X112266320Y-57740273D01*
X112216900Y-57859584D01*
X112216900Y-55351946D01*
X112275908Y-55292938D01*
X112339068Y-55411101D01*
G36*
X134560487Y-40662733D02*
G01*
X134377426Y-40699147D01*
X134116273Y-40807320D01*
X133881241Y-40964363D01*
X133681363Y-41164241D01*
X133524320Y-41399273D01*
X133416147Y-41660426D01*
X133361000Y-41937665D01*
X133361000Y-42220335D01*
X133416147Y-42497574D01*
X133524320Y-42758727D01*
X133681363Y-42993759D01*
X133881241Y-43193637D01*
X133970500Y-43253278D01*
X133970501Y-54975300D01*
X131709115Y-54975300D01*
X131757909Y-54839040D01*
X131636624Y-54617000D01*
X130493000Y-54617000D01*
X130493000Y-54637000D01*
X130239000Y-54637000D01*
X130239000Y-54617000D01*
X129095376Y-54617000D01*
X128974091Y-54839040D01*
X129022885Y-54975300D01*
X122546758Y-54975300D01*
X122572236Y-54891309D01*
X122599943Y-54610000D01*
X122572236Y-54328691D01*
X122525309Y-54173990D01*
X122587104Y-54140960D01*
X128974091Y-54140960D01*
X129095376Y-54363000D01*
X130239000Y-54363000D01*
X130239000Y-53220085D01*
X130493000Y-53220085D01*
X130493000Y-54363000D01*
X131636624Y-54363000D01*
X131757909Y-54140960D01*
X131663070Y-53876119D01*
X131518385Y-53634869D01*
X131329414Y-53426481D01*
X131103420Y-53258963D01*
X130849087Y-53138754D01*
X130715039Y-53098096D01*
X130493000Y-53220085D01*
X130239000Y-53220085D01*
X130016961Y-53098096D01*
X129882913Y-53138754D01*
X129628580Y-53258963D01*
X129402586Y-53426481D01*
X129213615Y-53634869D01*
X129068930Y-53876119D01*
X128974091Y-54140960D01*
X122587104Y-54140960D01*
X122619420Y-54123687D01*
X122731338Y-54031838D01*
X122754359Y-54003787D01*
X127692797Y-49065349D01*
X127720837Y-49042338D01*
X127743850Y-49014297D01*
X127743853Y-49014294D01*
X127812687Y-48930420D01*
X127880937Y-48802734D01*
X127922965Y-48664185D01*
X127937156Y-48520100D01*
X127933600Y-48483995D01*
X127933600Y-48050505D01*
X127937156Y-48014400D01*
X127922965Y-47870315D01*
X127916705Y-47849680D01*
X127880937Y-47731767D01*
X127812687Y-47604080D01*
X127720838Y-47492162D01*
X127692792Y-47469146D01*
X127231258Y-47007612D01*
X127208238Y-46979562D01*
X127096320Y-46887713D01*
X126968633Y-46819463D01*
X126830085Y-46777435D01*
X126722105Y-46766800D01*
X126686000Y-46763244D01*
X126649895Y-46766800D01*
X122737305Y-46766800D01*
X122701200Y-46763244D01*
X122557114Y-46777435D01*
X122515086Y-46790184D01*
X122503573Y-46793677D01*
X122593000Y-46704250D01*
X122593475Y-46624700D01*
X128833268Y-46624700D01*
X128951944Y-46743376D01*
X128931000Y-46848665D01*
X128931000Y-47131335D01*
X128986147Y-47408574D01*
X129094320Y-47669727D01*
X129251363Y-47904759D01*
X129451241Y-48104637D01*
X129686273Y-48261680D01*
X129947426Y-48369853D01*
X130224665Y-48425000D01*
X130507335Y-48425000D01*
X130784574Y-48369853D01*
X131045727Y-48261680D01*
X131280759Y-48104637D01*
X131480637Y-47904759D01*
X131637680Y-47669727D01*
X131745853Y-47408574D01*
X131801000Y-47131335D01*
X131801000Y-46848665D01*
X131745853Y-46571426D01*
X131637680Y-46310273D01*
X131480637Y-46075241D01*
X131280759Y-45875363D01*
X131045727Y-45718320D01*
X130784574Y-45610147D01*
X130507335Y-45555000D01*
X130224665Y-45555000D01*
X130119376Y-45575944D01*
X129787598Y-45244165D01*
X129761741Y-45212659D01*
X129636042Y-45109501D01*
X129492634Y-45032847D01*
X129337026Y-44985644D01*
X129215753Y-44973700D01*
X129215750Y-44973700D01*
X129175200Y-44969706D01*
X129134650Y-44973700D01*
X125748046Y-44973700D01*
X128970619Y-41751128D01*
X128953764Y-41806691D01*
X128926057Y-42088000D01*
X128953764Y-42369309D01*
X129035818Y-42639808D01*
X129169068Y-42889101D01*
X129348392Y-43107608D01*
X129566899Y-43286932D01*
X129816192Y-43420182D01*
X130086691Y-43502236D01*
X130297508Y-43523000D01*
X130438492Y-43523000D01*
X130649309Y-43502236D01*
X130919808Y-43420182D01*
X131169101Y-43286932D01*
X131387608Y-43107608D01*
X131566932Y-42889101D01*
X131700182Y-42639808D01*
X131782236Y-42369309D01*
X131809943Y-42088000D01*
X131782236Y-41806691D01*
X131700182Y-41536192D01*
X131566932Y-41286899D01*
X131387608Y-41068392D01*
X131169101Y-40889068D01*
X131036142Y-40818000D01*
X131169101Y-40746932D01*
X131387608Y-40567608D01*
X131566932Y-40349101D01*
X131700182Y-40099808D01*
X131782236Y-39829309D01*
X131809943Y-39548000D01*
X131782236Y-39266691D01*
X131700182Y-38996192D01*
X131566932Y-38746899D01*
X131387608Y-38528392D01*
X131169101Y-38349068D01*
X131077835Y-38300285D01*
X131092365Y-38252385D01*
X131092826Y-38247702D01*
X131169101Y-38206932D01*
X131387608Y-38027608D01*
X131566932Y-37809101D01*
X131615671Y-37717917D01*
X134560487Y-40662733D01*
X134560487Y-40662733D01*
G37*
X134560487Y-40662733D02*
X134377426Y-40699147D01*
X134116273Y-40807320D01*
X133881241Y-40964363D01*
X133681363Y-41164241D01*
X133524320Y-41399273D01*
X133416147Y-41660426D01*
X133361000Y-41937665D01*
X133361000Y-42220335D01*
X133416147Y-42497574D01*
X133524320Y-42758727D01*
X133681363Y-42993759D01*
X133881241Y-43193637D01*
X133970500Y-43253278D01*
X133970501Y-54975300D01*
X131709115Y-54975300D01*
X131757909Y-54839040D01*
X131636624Y-54617000D01*
X130493000Y-54617000D01*
X130493000Y-54637000D01*
X130239000Y-54637000D01*
X130239000Y-54617000D01*
X129095376Y-54617000D01*
X128974091Y-54839040D01*
X129022885Y-54975300D01*
X122546758Y-54975300D01*
X122572236Y-54891309D01*
X122599943Y-54610000D01*
X122572236Y-54328691D01*
X122525309Y-54173990D01*
X122587104Y-54140960D01*
X128974091Y-54140960D01*
X129095376Y-54363000D01*
X130239000Y-54363000D01*
X130239000Y-53220085D01*
X130493000Y-53220085D01*
X130493000Y-54363000D01*
X131636624Y-54363000D01*
X131757909Y-54140960D01*
X131663070Y-53876119D01*
X131518385Y-53634869D01*
X131329414Y-53426481D01*
X131103420Y-53258963D01*
X130849087Y-53138754D01*
X130715039Y-53098096D01*
X130493000Y-53220085D01*
X130239000Y-53220085D01*
X130016961Y-53098096D01*
X129882913Y-53138754D01*
X129628580Y-53258963D01*
X129402586Y-53426481D01*
X129213615Y-53634869D01*
X129068930Y-53876119D01*
X128974091Y-54140960D01*
X122587104Y-54140960D01*
X122619420Y-54123687D01*
X122731338Y-54031838D01*
X122754359Y-54003787D01*
X127692797Y-49065349D01*
X127720837Y-49042338D01*
X127743850Y-49014297D01*
X127743853Y-49014294D01*
X127812687Y-48930420D01*
X127880937Y-48802734D01*
X127922965Y-48664185D01*
X127937156Y-48520100D01*
X127933600Y-48483995D01*
X127933600Y-48050505D01*
X127937156Y-48014400D01*
X127922965Y-47870315D01*
X127916705Y-47849680D01*
X127880937Y-47731767D01*
X127812687Y-47604080D01*
X127720838Y-47492162D01*
X127692792Y-47469146D01*
X127231258Y-47007612D01*
X127208238Y-46979562D01*
X127096320Y-46887713D01*
X126968633Y-46819463D01*
X126830085Y-46777435D01*
X126722105Y-46766800D01*
X126686000Y-46763244D01*
X126649895Y-46766800D01*
X122737305Y-46766800D01*
X122701200Y-46763244D01*
X122557114Y-46777435D01*
X122515086Y-46790184D01*
X122503573Y-46793677D01*
X122593000Y-46704250D01*
X122593475Y-46624700D01*
X128833268Y-46624700D01*
X128951944Y-46743376D01*
X128931000Y-46848665D01*
X128931000Y-47131335D01*
X128986147Y-47408574D01*
X129094320Y-47669727D01*
X129251363Y-47904759D01*
X129451241Y-48104637D01*
X129686273Y-48261680D01*
X129947426Y-48369853D01*
X130224665Y-48425000D01*
X130507335Y-48425000D01*
X130784574Y-48369853D01*
X131045727Y-48261680D01*
X131280759Y-48104637D01*
X131480637Y-47904759D01*
X131637680Y-47669727D01*
X131745853Y-47408574D01*
X131801000Y-47131335D01*
X131801000Y-46848665D01*
X131745853Y-46571426D01*
X131637680Y-46310273D01*
X131480637Y-46075241D01*
X131280759Y-45875363D01*
X131045727Y-45718320D01*
X130784574Y-45610147D01*
X130507335Y-45555000D01*
X130224665Y-45555000D01*
X130119376Y-45575944D01*
X129787598Y-45244165D01*
X129761741Y-45212659D01*
X129636042Y-45109501D01*
X129492634Y-45032847D01*
X129337026Y-44985644D01*
X129215753Y-44973700D01*
X129215750Y-44973700D01*
X129175200Y-44969706D01*
X129134650Y-44973700D01*
X125748046Y-44973700D01*
X128970619Y-41751128D01*
X128953764Y-41806691D01*
X128926057Y-42088000D01*
X128953764Y-42369309D01*
X129035818Y-42639808D01*
X129169068Y-42889101D01*
X129348392Y-43107608D01*
X129566899Y-43286932D01*
X129816192Y-43420182D01*
X130086691Y-43502236D01*
X130297508Y-43523000D01*
X130438492Y-43523000D01*
X130649309Y-43502236D01*
X130919808Y-43420182D01*
X131169101Y-43286932D01*
X131387608Y-43107608D01*
X131566932Y-42889101D01*
X131700182Y-42639808D01*
X131782236Y-42369309D01*
X131809943Y-42088000D01*
X131782236Y-41806691D01*
X131700182Y-41536192D01*
X131566932Y-41286899D01*
X131387608Y-41068392D01*
X131169101Y-40889068D01*
X131036142Y-40818000D01*
X131169101Y-40746932D01*
X131387608Y-40567608D01*
X131566932Y-40349101D01*
X131700182Y-40099808D01*
X131782236Y-39829309D01*
X131809943Y-39548000D01*
X131782236Y-39266691D01*
X131700182Y-38996192D01*
X131566932Y-38746899D01*
X131387608Y-38528392D01*
X131169101Y-38349068D01*
X131077835Y-38300285D01*
X131092365Y-38252385D01*
X131092826Y-38247702D01*
X131169101Y-38206932D01*
X131387608Y-38027608D01*
X131566932Y-37809101D01*
X131615671Y-37717917D01*
X134560487Y-40662733D01*
G36*
X81105810Y-33203444D02*
G01*
X81131659Y-33234941D01*
X81163155Y-33260789D01*
X81163158Y-33260792D01*
X81257357Y-33338099D01*
X81383691Y-33405626D01*
X81400766Y-33414753D01*
X81556374Y-33461956D01*
X81677647Y-33473900D01*
X81677649Y-33473900D01*
X81718200Y-33477894D01*
X81758750Y-33473900D01*
X82281501Y-33473900D01*
X82281501Y-33538722D01*
X82192241Y-33598363D01*
X81992363Y-33798241D01*
X81835320Y-34033273D01*
X81727147Y-34294426D01*
X81672000Y-34571665D01*
X81672000Y-34854335D01*
X81727147Y-35131574D01*
X81835320Y-35392727D01*
X81992363Y-35627759D01*
X82192241Y-35827637D01*
X82427273Y-35984680D01*
X82688426Y-36092853D01*
X82965665Y-36148000D01*
X83248335Y-36148000D01*
X83353624Y-36127056D01*
X84907606Y-37681039D01*
X84933459Y-37712541D01*
X85059158Y-37815699D01*
X85202566Y-37892353D01*
X85358174Y-37939556D01*
X85479447Y-37951500D01*
X85479449Y-37951500D01*
X85519999Y-37955494D01*
X85560550Y-37951500D01*
X87119520Y-37951500D01*
X87141338Y-37984153D01*
X87328847Y-38171662D01*
X87549335Y-38318987D01*
X87735260Y-38396000D01*
X87549335Y-38473013D01*
X87328847Y-38620338D01*
X87141338Y-38807847D01*
X86994013Y-39028335D01*
X86892533Y-39273328D01*
X86840800Y-39533411D01*
X86840800Y-39798589D01*
X86892533Y-40058672D01*
X86994013Y-40303665D01*
X87141338Y-40524153D01*
X87328847Y-40711662D01*
X87549335Y-40858987D01*
X87794328Y-40960467D01*
X88054411Y-41012200D01*
X88319589Y-41012200D01*
X88579672Y-40960467D01*
X88824665Y-40858987D01*
X89045153Y-40711662D01*
X89232662Y-40524153D01*
X89379987Y-40303665D01*
X89457000Y-40117740D01*
X89534013Y-40303665D01*
X89681338Y-40524153D01*
X89868847Y-40711662D01*
X90089335Y-40858987D01*
X90275260Y-40936000D01*
X90089335Y-41013013D01*
X89868847Y-41160338D01*
X89681338Y-41347847D01*
X89534013Y-41568335D01*
X89432533Y-41813328D01*
X89380800Y-42073411D01*
X89380800Y-42338589D01*
X89432533Y-42598672D01*
X89534013Y-42843665D01*
X89681338Y-43064153D01*
X89868847Y-43251662D01*
X90089335Y-43398987D01*
X90334328Y-43500467D01*
X90594411Y-43552200D01*
X90859589Y-43552200D01*
X91119672Y-43500467D01*
X91364665Y-43398987D01*
X91585153Y-43251662D01*
X91772662Y-43064153D01*
X91919987Y-42843665D01*
X91997000Y-42657740D01*
X92074013Y-42843665D01*
X92221338Y-43064153D01*
X92408847Y-43251662D01*
X92515911Y-43323200D01*
X92418205Y-43323200D01*
X92382100Y-43319644D01*
X92238014Y-43333835D01*
X92201753Y-43344835D01*
X92099467Y-43375863D01*
X91971780Y-43444113D01*
X91859862Y-43535962D01*
X91836846Y-43564007D01*
X85587038Y-49813816D01*
X85559608Y-49780392D01*
X85341101Y-49601068D01*
X85208142Y-49530000D01*
X85341101Y-49458932D01*
X85559608Y-49279608D01*
X85738932Y-49061101D01*
X85872182Y-48811808D01*
X85954236Y-48541309D01*
X85981943Y-48260000D01*
X85954236Y-47978691D01*
X85872182Y-47708192D01*
X85738932Y-47458899D01*
X85559608Y-47240392D01*
X85341101Y-47061068D01*
X85091808Y-46927818D01*
X84821309Y-46845764D01*
X84610492Y-46825000D01*
X83669508Y-46825000D01*
X83458691Y-46845764D01*
X83188192Y-46927818D01*
X82938899Y-47061068D01*
X82720392Y-47240392D01*
X82541068Y-47458899D01*
X82505736Y-47525000D01*
X81774264Y-47525000D01*
X81738932Y-47458899D01*
X81559608Y-47240392D01*
X81341101Y-47061068D01*
X81091808Y-46927818D01*
X80821309Y-46845764D01*
X80610492Y-46825000D01*
X79669508Y-46825000D01*
X79458691Y-46845764D01*
X79374700Y-46871242D01*
X79374700Y-46583972D01*
X79397265Y-46509585D01*
X79407900Y-46401605D01*
X79407900Y-46401604D01*
X79411456Y-46365500D01*
X79407900Y-46329395D01*
X79407900Y-43544861D01*
X79448913Y-43564246D01*
X79582961Y-43604904D01*
X79805000Y-43482915D01*
X79805000Y-42340000D01*
X80059000Y-42340000D01*
X80059000Y-43482915D01*
X80281039Y-43604904D01*
X80415087Y-43564246D01*
X80669420Y-43444037D01*
X80895414Y-43276519D01*
X81084385Y-43068131D01*
X81229070Y-42826881D01*
X81323909Y-42562040D01*
X81715091Y-42562040D01*
X81809930Y-42826881D01*
X81954615Y-43068131D01*
X82143586Y-43276519D01*
X82369580Y-43444037D01*
X82623913Y-43564246D01*
X82757961Y-43604904D01*
X82980000Y-43482915D01*
X82980000Y-42340000D01*
X83234000Y-42340000D01*
X83234000Y-43482915D01*
X83456039Y-43604904D01*
X83590087Y-43564246D01*
X83844420Y-43444037D01*
X84070414Y-43276519D01*
X84259385Y-43068131D01*
X84404070Y-42826881D01*
X84498909Y-42562040D01*
X84377624Y-42340000D01*
X83234000Y-42340000D01*
X82980000Y-42340000D01*
X81836376Y-42340000D01*
X81715091Y-42562040D01*
X81323909Y-42562040D01*
X81202624Y-42340000D01*
X80059000Y-42340000D01*
X79805000Y-42340000D01*
X79785000Y-42340000D01*
X79785000Y-42086000D01*
X79805000Y-42086000D01*
X79805000Y-40943085D01*
X80059000Y-40943085D01*
X80059000Y-42086000D01*
X81202624Y-42086000D01*
X81323909Y-41863960D01*
X81715091Y-41863960D01*
X81836376Y-42086000D01*
X82980000Y-42086000D01*
X82980000Y-40943085D01*
X83234000Y-40943085D01*
X83234000Y-42086000D01*
X84377624Y-42086000D01*
X84498909Y-41863960D01*
X84404070Y-41599119D01*
X84259385Y-41357869D01*
X84070414Y-41149481D01*
X83844420Y-40981963D01*
X83590087Y-40861754D01*
X83456039Y-40821096D01*
X83234000Y-40943085D01*
X82980000Y-40943085D01*
X82757961Y-40821096D01*
X82623913Y-40861754D01*
X82369580Y-40981963D01*
X82143586Y-41149481D01*
X81954615Y-41357869D01*
X81809930Y-41599119D01*
X81715091Y-41863960D01*
X81323909Y-41863960D01*
X81229070Y-41599119D01*
X81084385Y-41357869D01*
X80895414Y-41149481D01*
X80669420Y-40981963D01*
X80415087Y-40861754D01*
X80281039Y-40821096D01*
X80059000Y-40943085D01*
X79805000Y-40943085D01*
X79582961Y-40821096D01*
X79448913Y-40861754D01*
X79194580Y-40981963D01*
X78968586Y-41149481D01*
X78926700Y-41195671D01*
X78926700Y-35737096D01*
X79017241Y-35827637D01*
X79252273Y-35984680D01*
X79513426Y-36092853D01*
X79790665Y-36148000D01*
X80073335Y-36148000D01*
X80350574Y-36092853D01*
X80611727Y-35984680D01*
X80846759Y-35827637D01*
X81046637Y-35627759D01*
X81203680Y-35392727D01*
X81311853Y-35131574D01*
X81367000Y-34854335D01*
X81367000Y-34571665D01*
X81311853Y-34294426D01*
X81203680Y-34033273D01*
X81046637Y-33798241D01*
X80846759Y-33598363D01*
X80611727Y-33441320D01*
X80479415Y-33386515D01*
X80483808Y-33385182D01*
X80733101Y-33251932D01*
X80951608Y-33072608D01*
X80962141Y-33059774D01*
X81105810Y-33203444D01*
X81105810Y-33203444D01*
G37*
X81105810Y-33203444D02*
X81131659Y-33234941D01*
X81163155Y-33260789D01*
X81163158Y-33260792D01*
X81257357Y-33338099D01*
X81383691Y-33405626D01*
X81400766Y-33414753D01*
X81556374Y-33461956D01*
X81677647Y-33473900D01*
X81677649Y-33473900D01*
X81718200Y-33477894D01*
X81758750Y-33473900D01*
X82281501Y-33473900D01*
X82281501Y-33538722D01*
X82192241Y-33598363D01*
X81992363Y-33798241D01*
X81835320Y-34033273D01*
X81727147Y-34294426D01*
X81672000Y-34571665D01*
X81672000Y-34854335D01*
X81727147Y-35131574D01*
X81835320Y-35392727D01*
X81992363Y-35627759D01*
X82192241Y-35827637D01*
X82427273Y-35984680D01*
X82688426Y-36092853D01*
X82965665Y-36148000D01*
X83248335Y-36148000D01*
X83353624Y-36127056D01*
X84907606Y-37681039D01*
X84933459Y-37712541D01*
X85059158Y-37815699D01*
X85202566Y-37892353D01*
X85358174Y-37939556D01*
X85479447Y-37951500D01*
X85479449Y-37951500D01*
X85519999Y-37955494D01*
X85560550Y-37951500D01*
X87119520Y-37951500D01*
X87141338Y-37984153D01*
X87328847Y-38171662D01*
X87549335Y-38318987D01*
X87735260Y-38396000D01*
X87549335Y-38473013D01*
X87328847Y-38620338D01*
X87141338Y-38807847D01*
X86994013Y-39028335D01*
X86892533Y-39273328D01*
X86840800Y-39533411D01*
X86840800Y-39798589D01*
X86892533Y-40058672D01*
X86994013Y-40303665D01*
X87141338Y-40524153D01*
X87328847Y-40711662D01*
X87549335Y-40858987D01*
X87794328Y-40960467D01*
X88054411Y-41012200D01*
X88319589Y-41012200D01*
X88579672Y-40960467D01*
X88824665Y-40858987D01*
X89045153Y-40711662D01*
X89232662Y-40524153D01*
X89379987Y-40303665D01*
X89457000Y-40117740D01*
X89534013Y-40303665D01*
X89681338Y-40524153D01*
X89868847Y-40711662D01*
X90089335Y-40858987D01*
X90275260Y-40936000D01*
X90089335Y-41013013D01*
X89868847Y-41160338D01*
X89681338Y-41347847D01*
X89534013Y-41568335D01*
X89432533Y-41813328D01*
X89380800Y-42073411D01*
X89380800Y-42338589D01*
X89432533Y-42598672D01*
X89534013Y-42843665D01*
X89681338Y-43064153D01*
X89868847Y-43251662D01*
X90089335Y-43398987D01*
X90334328Y-43500467D01*
X90594411Y-43552200D01*
X90859589Y-43552200D01*
X91119672Y-43500467D01*
X91364665Y-43398987D01*
X91585153Y-43251662D01*
X91772662Y-43064153D01*
X91919987Y-42843665D01*
X91997000Y-42657740D01*
X92074013Y-42843665D01*
X92221338Y-43064153D01*
X92408847Y-43251662D01*
X92515911Y-43323200D01*
X92418205Y-43323200D01*
X92382100Y-43319644D01*
X92238014Y-43333835D01*
X92201753Y-43344835D01*
X92099467Y-43375863D01*
X91971780Y-43444113D01*
X91859862Y-43535962D01*
X91836846Y-43564007D01*
X85587038Y-49813816D01*
X85559608Y-49780392D01*
X85341101Y-49601068D01*
X85208142Y-49530000D01*
X85341101Y-49458932D01*
X85559608Y-49279608D01*
X85738932Y-49061101D01*
X85872182Y-48811808D01*
X85954236Y-48541309D01*
X85981943Y-48260000D01*
X85954236Y-47978691D01*
X85872182Y-47708192D01*
X85738932Y-47458899D01*
X85559608Y-47240392D01*
X85341101Y-47061068D01*
X85091808Y-46927818D01*
X84821309Y-46845764D01*
X84610492Y-46825000D01*
X83669508Y-46825000D01*
X83458691Y-46845764D01*
X83188192Y-46927818D01*
X82938899Y-47061068D01*
X82720392Y-47240392D01*
X82541068Y-47458899D01*
X82505736Y-47525000D01*
X81774264Y-47525000D01*
X81738932Y-47458899D01*
X81559608Y-47240392D01*
X81341101Y-47061068D01*
X81091808Y-46927818D01*
X80821309Y-46845764D01*
X80610492Y-46825000D01*
X79669508Y-46825000D01*
X79458691Y-46845764D01*
X79374700Y-46871242D01*
X79374700Y-46583972D01*
X79397265Y-46509585D01*
X79407900Y-46401605D01*
X79407900Y-46401604D01*
X79411456Y-46365500D01*
X79407900Y-46329395D01*
X79407900Y-43544861D01*
X79448913Y-43564246D01*
X79582961Y-43604904D01*
X79805000Y-43482915D01*
X79805000Y-42340000D01*
X80059000Y-42340000D01*
X80059000Y-43482915D01*
X80281039Y-43604904D01*
X80415087Y-43564246D01*
X80669420Y-43444037D01*
X80895414Y-43276519D01*
X81084385Y-43068131D01*
X81229070Y-42826881D01*
X81323909Y-42562040D01*
X81715091Y-42562040D01*
X81809930Y-42826881D01*
X81954615Y-43068131D01*
X82143586Y-43276519D01*
X82369580Y-43444037D01*
X82623913Y-43564246D01*
X82757961Y-43604904D01*
X82980000Y-43482915D01*
X82980000Y-42340000D01*
X83234000Y-42340000D01*
X83234000Y-43482915D01*
X83456039Y-43604904D01*
X83590087Y-43564246D01*
X83844420Y-43444037D01*
X84070414Y-43276519D01*
X84259385Y-43068131D01*
X84404070Y-42826881D01*
X84498909Y-42562040D01*
X84377624Y-42340000D01*
X83234000Y-42340000D01*
X82980000Y-42340000D01*
X81836376Y-42340000D01*
X81715091Y-42562040D01*
X81323909Y-42562040D01*
X81202624Y-42340000D01*
X80059000Y-42340000D01*
X79805000Y-42340000D01*
X79785000Y-42340000D01*
X79785000Y-42086000D01*
X79805000Y-42086000D01*
X79805000Y-40943085D01*
X80059000Y-40943085D01*
X80059000Y-42086000D01*
X81202624Y-42086000D01*
X81323909Y-41863960D01*
X81715091Y-41863960D01*
X81836376Y-42086000D01*
X82980000Y-42086000D01*
X82980000Y-40943085D01*
X83234000Y-40943085D01*
X83234000Y-42086000D01*
X84377624Y-42086000D01*
X84498909Y-41863960D01*
X84404070Y-41599119D01*
X84259385Y-41357869D01*
X84070414Y-41149481D01*
X83844420Y-40981963D01*
X83590087Y-40861754D01*
X83456039Y-40821096D01*
X83234000Y-40943085D01*
X82980000Y-40943085D01*
X82757961Y-40821096D01*
X82623913Y-40861754D01*
X82369580Y-40981963D01*
X82143586Y-41149481D01*
X81954615Y-41357869D01*
X81809930Y-41599119D01*
X81715091Y-41863960D01*
X81323909Y-41863960D01*
X81229070Y-41599119D01*
X81084385Y-41357869D01*
X80895414Y-41149481D01*
X80669420Y-40981963D01*
X80415087Y-40861754D01*
X80281039Y-40821096D01*
X80059000Y-40943085D01*
X79805000Y-40943085D01*
X79582961Y-40821096D01*
X79448913Y-40861754D01*
X79194580Y-40981963D01*
X78968586Y-41149481D01*
X78926700Y-41195671D01*
X78926700Y-35737096D01*
X79017241Y-35827637D01*
X79252273Y-35984680D01*
X79513426Y-36092853D01*
X79790665Y-36148000D01*
X80073335Y-36148000D01*
X80350574Y-36092853D01*
X80611727Y-35984680D01*
X80846759Y-35827637D01*
X81046637Y-35627759D01*
X81203680Y-35392727D01*
X81311853Y-35131574D01*
X81367000Y-34854335D01*
X81367000Y-34571665D01*
X81311853Y-34294426D01*
X81203680Y-34033273D01*
X81046637Y-33798241D01*
X80846759Y-33598363D01*
X80611727Y-33441320D01*
X80479415Y-33386515D01*
X80483808Y-33385182D01*
X80733101Y-33251932D01*
X80951608Y-33072608D01*
X80962141Y-33059774D01*
X81105810Y-33203444D01*
G36*
X118745000Y-46863000D02*
G01*
X121031000Y-46863000D01*
X121031000Y-46843000D01*
X121285000Y-46843000D01*
X121285000Y-46863000D01*
X121305000Y-46863000D01*
X121305000Y-47117000D01*
X121285000Y-47117000D01*
X121285000Y-47137000D01*
X121031000Y-47137000D01*
X121031000Y-47117000D01*
X118745000Y-47117000D01*
X118745000Y-47137000D01*
X118491000Y-47137000D01*
X118491000Y-47117000D01*
X118471000Y-47117000D01*
X118471000Y-46863000D01*
X118491000Y-46863000D01*
X118491000Y-46843000D01*
X118745000Y-46843000D01*
X118745000Y-46863000D01*
X118745000Y-46863000D01*
G37*
X118745000Y-46863000D02*
X121031000Y-46863000D01*
X121031000Y-46843000D01*
X121285000Y-46843000D01*
X121285000Y-46863000D01*
X121305000Y-46863000D01*
X121305000Y-47117000D01*
X121285000Y-47117000D01*
X121285000Y-47137000D01*
X121031000Y-47137000D01*
X121031000Y-47117000D01*
X118745000Y-47117000D01*
X118745000Y-47137000D01*
X118491000Y-47137000D01*
X118491000Y-47117000D01*
X118471000Y-47117000D01*
X118471000Y-46863000D01*
X118491000Y-46863000D01*
X118491000Y-46843000D01*
X118745000Y-46843000D01*
X118745000Y-46863000D01*
G36*
X97488847Y-40711662D02*
G01*
X97709335Y-40858987D01*
X97895260Y-40936000D01*
X97709335Y-41013013D01*
X97488847Y-41160338D01*
X97301338Y-41347847D01*
X97154013Y-41568335D01*
X97076031Y-41756600D01*
X97026542Y-41620720D01*
X96971183Y-41517152D01*
X96736273Y-41456332D01*
X95986605Y-42206000D01*
X96736273Y-42955668D01*
X96971183Y-42894848D01*
X97079206Y-42663066D01*
X97154013Y-42843665D01*
X97301338Y-43064153D01*
X97394119Y-43156934D01*
X97227854Y-43323200D01*
X96508012Y-43323200D01*
X96556668Y-43135273D01*
X95807000Y-42385605D01*
X95057332Y-43135273D01*
X95105988Y-43323200D01*
X94018089Y-43323200D01*
X94125153Y-43251662D01*
X94312662Y-43064153D01*
X94459987Y-42843665D01*
X94537969Y-42655400D01*
X94587458Y-42791280D01*
X94642817Y-42894848D01*
X94877727Y-42955668D01*
X95627395Y-42206000D01*
X95613253Y-42191858D01*
X95792858Y-42012253D01*
X95807000Y-42026395D01*
X96422700Y-41410695D01*
X96487833Y-41390937D01*
X96615520Y-41322687D01*
X96727438Y-41230838D01*
X96750458Y-41202788D01*
X97365216Y-40588031D01*
X97488847Y-40711662D01*
X97488847Y-40711662D01*
G37*
X97488847Y-40711662D02*
X97709335Y-40858987D01*
X97895260Y-40936000D01*
X97709335Y-41013013D01*
X97488847Y-41160338D01*
X97301338Y-41347847D01*
X97154013Y-41568335D01*
X97076031Y-41756600D01*
X97026542Y-41620720D01*
X96971183Y-41517152D01*
X96736273Y-41456332D01*
X95986605Y-42206000D01*
X96736273Y-42955668D01*
X96971183Y-42894848D01*
X97079206Y-42663066D01*
X97154013Y-42843665D01*
X97301338Y-43064153D01*
X97394119Y-43156934D01*
X97227854Y-43323200D01*
X96508012Y-43323200D01*
X96556668Y-43135273D01*
X95807000Y-42385605D01*
X95057332Y-43135273D01*
X95105988Y-43323200D01*
X94018089Y-43323200D01*
X94125153Y-43251662D01*
X94312662Y-43064153D01*
X94459987Y-42843665D01*
X94537969Y-42655400D01*
X94587458Y-42791280D01*
X94642817Y-42894848D01*
X94877727Y-42955668D01*
X95627395Y-42206000D01*
X95613253Y-42191858D01*
X95792858Y-42012253D01*
X95807000Y-42026395D01*
X96422700Y-41410695D01*
X96487833Y-41390937D01*
X96615520Y-41322687D01*
X96727438Y-41230838D01*
X96750458Y-41202788D01*
X97365216Y-40588031D01*
X97488847Y-40711662D01*
G36*
X109613764Y-39423691D02*
G01*
X109586057Y-39705000D01*
X109613764Y-39986309D01*
X109695818Y-40256808D01*
X109829068Y-40506101D01*
X110008392Y-40724608D01*
X110226899Y-40903932D01*
X110364682Y-40977579D01*
X110172869Y-41092615D01*
X109964481Y-41281586D01*
X109796963Y-41507580D01*
X109676754Y-41761913D01*
X109636096Y-41895961D01*
X109758085Y-42118000D01*
X110901000Y-42118000D01*
X110901000Y-42098000D01*
X111155000Y-42098000D01*
X111155000Y-42118000D01*
X111175000Y-42118000D01*
X111175000Y-42372000D01*
X111155000Y-42372000D01*
X111155000Y-42392000D01*
X110901000Y-42392000D01*
X110901000Y-42372000D01*
X109758085Y-42372000D01*
X109636096Y-42594039D01*
X109676754Y-42728087D01*
X109774503Y-42934900D01*
X106976047Y-42934900D01*
X107086115Y-42824832D01*
X107251329Y-42791968D01*
X107421489Y-42721486D01*
X107574628Y-42619162D01*
X107704862Y-42488928D01*
X107807186Y-42335789D01*
X107877668Y-42165629D01*
X107913600Y-41984989D01*
X107913600Y-41800811D01*
X107877668Y-41620171D01*
X107807186Y-41450011D01*
X107704862Y-41296872D01*
X107574628Y-41166638D01*
X107421489Y-41064314D01*
X107251329Y-40993832D01*
X107070689Y-40957900D01*
X106886511Y-40957900D01*
X106705871Y-40993832D01*
X106535711Y-41064314D01*
X106382572Y-41166638D01*
X106252338Y-41296872D01*
X106150014Y-41450011D01*
X106079532Y-41620171D01*
X106046668Y-41785385D01*
X105323554Y-42508500D01*
X104739403Y-42508500D01*
X104773200Y-42338589D01*
X104773200Y-42073411D01*
X104721467Y-41813328D01*
X104619987Y-41568335D01*
X104472662Y-41347847D01*
X104285153Y-41160338D01*
X104064665Y-41013013D01*
X103876400Y-40935031D01*
X104012280Y-40885542D01*
X104115848Y-40830183D01*
X104176668Y-40595273D01*
X103427000Y-39845605D01*
X102677332Y-40595273D01*
X102738152Y-40830183D01*
X102969934Y-40938206D01*
X102789335Y-41013013D01*
X102568847Y-41160338D01*
X102381338Y-41347847D01*
X102234013Y-41568335D01*
X102157000Y-41754260D01*
X102079987Y-41568335D01*
X101932662Y-41347847D01*
X101745153Y-41160338D01*
X101524665Y-41013013D01*
X101338740Y-40936000D01*
X101524665Y-40858987D01*
X101745153Y-40711662D01*
X101932662Y-40524153D01*
X102079987Y-40303665D01*
X102157969Y-40115400D01*
X102207458Y-40251280D01*
X102262817Y-40354848D01*
X102497727Y-40415668D01*
X103247395Y-39666000D01*
X103233253Y-39651858D01*
X103412858Y-39472253D01*
X103427000Y-39486395D01*
X103441143Y-39472253D01*
X103620748Y-39651858D01*
X103606605Y-39666000D01*
X104356273Y-40415668D01*
X104591183Y-40354848D01*
X104699206Y-40123066D01*
X104774013Y-40303665D01*
X104921338Y-40524153D01*
X105108847Y-40711662D01*
X105329335Y-40858987D01*
X105574328Y-40960467D01*
X105834411Y-41012200D01*
X106099589Y-41012200D01*
X106359672Y-40960467D01*
X106604665Y-40858987D01*
X106825153Y-40711662D01*
X107012662Y-40524153D01*
X107159987Y-40303665D01*
X107261467Y-40058672D01*
X107313200Y-39798589D01*
X107313200Y-39533411D01*
X107264684Y-39289500D01*
X109654470Y-39289500D01*
X109613764Y-39423691D01*
X109613764Y-39423691D01*
G37*
X109613764Y-39423691D02*
X109586057Y-39705000D01*
X109613764Y-39986309D01*
X109695818Y-40256808D01*
X109829068Y-40506101D01*
X110008392Y-40724608D01*
X110226899Y-40903932D01*
X110364682Y-40977579D01*
X110172869Y-41092615D01*
X109964481Y-41281586D01*
X109796963Y-41507580D01*
X109676754Y-41761913D01*
X109636096Y-41895961D01*
X109758085Y-42118000D01*
X110901000Y-42118000D01*
X110901000Y-42098000D01*
X111155000Y-42098000D01*
X111155000Y-42118000D01*
X111175000Y-42118000D01*
X111175000Y-42372000D01*
X111155000Y-42372000D01*
X111155000Y-42392000D01*
X110901000Y-42392000D01*
X110901000Y-42372000D01*
X109758085Y-42372000D01*
X109636096Y-42594039D01*
X109676754Y-42728087D01*
X109774503Y-42934900D01*
X106976047Y-42934900D01*
X107086115Y-42824832D01*
X107251329Y-42791968D01*
X107421489Y-42721486D01*
X107574628Y-42619162D01*
X107704862Y-42488928D01*
X107807186Y-42335789D01*
X107877668Y-42165629D01*
X107913600Y-41984989D01*
X107913600Y-41800811D01*
X107877668Y-41620171D01*
X107807186Y-41450011D01*
X107704862Y-41296872D01*
X107574628Y-41166638D01*
X107421489Y-41064314D01*
X107251329Y-40993832D01*
X107070689Y-40957900D01*
X106886511Y-40957900D01*
X106705871Y-40993832D01*
X106535711Y-41064314D01*
X106382572Y-41166638D01*
X106252338Y-41296872D01*
X106150014Y-41450011D01*
X106079532Y-41620171D01*
X106046668Y-41785385D01*
X105323554Y-42508500D01*
X104739403Y-42508500D01*
X104773200Y-42338589D01*
X104773200Y-42073411D01*
X104721467Y-41813328D01*
X104619987Y-41568335D01*
X104472662Y-41347847D01*
X104285153Y-41160338D01*
X104064665Y-41013013D01*
X103876400Y-40935031D01*
X104012280Y-40885542D01*
X104115848Y-40830183D01*
X104176668Y-40595273D01*
X103427000Y-39845605D01*
X102677332Y-40595273D01*
X102738152Y-40830183D01*
X102969934Y-40938206D01*
X102789335Y-41013013D01*
X102568847Y-41160338D01*
X102381338Y-41347847D01*
X102234013Y-41568335D01*
X102157000Y-41754260D01*
X102079987Y-41568335D01*
X101932662Y-41347847D01*
X101745153Y-41160338D01*
X101524665Y-41013013D01*
X101338740Y-40936000D01*
X101524665Y-40858987D01*
X101745153Y-40711662D01*
X101932662Y-40524153D01*
X102079987Y-40303665D01*
X102157969Y-40115400D01*
X102207458Y-40251280D01*
X102262817Y-40354848D01*
X102497727Y-40415668D01*
X103247395Y-39666000D01*
X103233253Y-39651858D01*
X103412858Y-39472253D01*
X103427000Y-39486395D01*
X103441143Y-39472253D01*
X103620748Y-39651858D01*
X103606605Y-39666000D01*
X104356273Y-40415668D01*
X104591183Y-40354848D01*
X104699206Y-40123066D01*
X104774013Y-40303665D01*
X104921338Y-40524153D01*
X105108847Y-40711662D01*
X105329335Y-40858987D01*
X105574328Y-40960467D01*
X105834411Y-41012200D01*
X106099589Y-41012200D01*
X106359672Y-40960467D01*
X106604665Y-40858987D01*
X106825153Y-40711662D01*
X107012662Y-40524153D01*
X107159987Y-40303665D01*
X107261467Y-40058672D01*
X107313200Y-39798589D01*
X107313200Y-39533411D01*
X107264684Y-39289500D01*
X109654470Y-39289500D01*
X109613764Y-39423691D01*
G36*
X121666978Y-38603225D02*
G01*
X121549068Y-38746899D01*
X121415818Y-38996192D01*
X121333764Y-39266691D01*
X121306057Y-39548000D01*
X121333764Y-39829309D01*
X121415818Y-40099808D01*
X121549068Y-40349101D01*
X121728392Y-40567608D01*
X121946899Y-40746932D01*
X122084682Y-40820579D01*
X121892869Y-40935615D01*
X121684481Y-41124586D01*
X121516963Y-41350580D01*
X121396754Y-41604913D01*
X121356096Y-41738961D01*
X121478085Y-41961000D01*
X122621000Y-41961000D01*
X122621000Y-41941000D01*
X122875000Y-41941000D01*
X122875000Y-41961000D01*
X122895000Y-41961000D01*
X122895000Y-42215000D01*
X122875000Y-42215000D01*
X122875000Y-42235000D01*
X122621000Y-42235000D01*
X122621000Y-42215000D01*
X121478085Y-42215000D01*
X121356096Y-42437039D01*
X121396754Y-42571087D01*
X121433579Y-42649000D01*
X120025019Y-42649000D01*
X120062236Y-42526309D01*
X120089943Y-42245000D01*
X120062236Y-41963691D01*
X119980182Y-41693192D01*
X119846932Y-41443899D01*
X119667608Y-41225392D01*
X119449101Y-41046068D01*
X119316142Y-40975000D01*
X119449101Y-40903932D01*
X119667608Y-40724608D01*
X119846932Y-40506101D01*
X119980182Y-40256808D01*
X120062236Y-39986309D01*
X120089943Y-39705000D01*
X120062236Y-39423691D01*
X119980182Y-39153192D01*
X119846932Y-38903899D01*
X119727399Y-38758247D01*
X120457115Y-38028532D01*
X120622329Y-37995668D01*
X120792489Y-37925186D01*
X120910252Y-37846499D01*
X121666978Y-38603225D01*
X121666978Y-38603225D01*
G37*
X121666978Y-38603225D02*
X121549068Y-38746899D01*
X121415818Y-38996192D01*
X121333764Y-39266691D01*
X121306057Y-39548000D01*
X121333764Y-39829309D01*
X121415818Y-40099808D01*
X121549068Y-40349101D01*
X121728392Y-40567608D01*
X121946899Y-40746932D01*
X122084682Y-40820579D01*
X121892869Y-40935615D01*
X121684481Y-41124586D01*
X121516963Y-41350580D01*
X121396754Y-41604913D01*
X121356096Y-41738961D01*
X121478085Y-41961000D01*
X122621000Y-41961000D01*
X122621000Y-41941000D01*
X122875000Y-41941000D01*
X122875000Y-41961000D01*
X122895000Y-41961000D01*
X122895000Y-42215000D01*
X122875000Y-42215000D01*
X122875000Y-42235000D01*
X122621000Y-42235000D01*
X122621000Y-42215000D01*
X121478085Y-42215000D01*
X121356096Y-42437039D01*
X121396754Y-42571087D01*
X121433579Y-42649000D01*
X120025019Y-42649000D01*
X120062236Y-42526309D01*
X120089943Y-42245000D01*
X120062236Y-41963691D01*
X119980182Y-41693192D01*
X119846932Y-41443899D01*
X119667608Y-41225392D01*
X119449101Y-41046068D01*
X119316142Y-40975000D01*
X119449101Y-40903932D01*
X119667608Y-40724608D01*
X119846932Y-40506101D01*
X119980182Y-40256808D01*
X120062236Y-39986309D01*
X120089943Y-39705000D01*
X120062236Y-39423691D01*
X119980182Y-39153192D01*
X119846932Y-38903899D01*
X119727399Y-38758247D01*
X120457115Y-38028532D01*
X120622329Y-37995668D01*
X120792489Y-37925186D01*
X120910252Y-37846499D01*
X121666978Y-38603225D01*
G36*
X114159067Y-40471063D02*
G01*
X114031380Y-40539313D01*
X113919462Y-40631162D01*
X113896446Y-40659207D01*
X112437656Y-42117998D01*
X112297916Y-42117998D01*
X112419904Y-41895961D01*
X112379246Y-41761913D01*
X112259037Y-41507580D01*
X112091519Y-41281586D01*
X111883131Y-41092615D01*
X111691318Y-40977579D01*
X111829101Y-40903932D01*
X112047608Y-40724608D01*
X112226932Y-40506101D01*
X112262264Y-40440000D01*
X114261468Y-40440000D01*
X114159067Y-40471063D01*
X114159067Y-40471063D01*
G37*
X114159067Y-40471063D02*
X114031380Y-40539313D01*
X113919462Y-40631162D01*
X113896446Y-40659207D01*
X112437656Y-42117998D01*
X112297916Y-42117998D01*
X112419904Y-41895961D01*
X112379246Y-41761913D01*
X112259037Y-41507580D01*
X112091519Y-41281586D01*
X111883131Y-41092615D01*
X111691318Y-40977579D01*
X111829101Y-40903932D01*
X112047608Y-40724608D01*
X112226932Y-40506101D01*
X112262264Y-40440000D01*
X114261468Y-40440000D01*
X114159067Y-40471063D01*
G36*
X142207931Y-35296606D02*
G01*
X142395203Y-35524797D01*
X142623394Y-35712069D01*
X142667910Y-35735863D01*
X142571512Y-35793183D01*
X142353146Y-35989707D01*
X142177316Y-36225056D01*
X142050778Y-36490186D01*
X142005042Y-36640974D01*
X142126183Y-36873000D01*
X143333000Y-36873000D01*
X143333000Y-36853000D01*
X143587000Y-36853000D01*
X143587000Y-36873000D01*
X143607000Y-36873000D01*
X143607000Y-37127000D01*
X143587000Y-37127000D01*
X143587000Y-37147000D01*
X143333000Y-37147000D01*
X143333000Y-37127000D01*
X142126183Y-37127000D01*
X142005042Y-37359026D01*
X142026236Y-37428900D01*
X139346162Y-37428900D01*
X139350853Y-37417574D01*
X139406000Y-37140335D01*
X139406000Y-36857665D01*
X139350853Y-36580426D01*
X139242680Y-36319273D01*
X139085637Y-36084241D01*
X138885759Y-35884363D01*
X138796500Y-35824722D01*
X138796500Y-35435932D01*
X138946933Y-35285500D01*
X142201995Y-35285500D01*
X142207931Y-35296606D01*
X142207931Y-35296606D01*
G37*
X142207931Y-35296606D02*
X142395203Y-35524797D01*
X142623394Y-35712069D01*
X142667910Y-35735863D01*
X142571512Y-35793183D01*
X142353146Y-35989707D01*
X142177316Y-36225056D01*
X142050778Y-36490186D01*
X142005042Y-36640974D01*
X142126183Y-36873000D01*
X143333000Y-36873000D01*
X143333000Y-36853000D01*
X143587000Y-36853000D01*
X143587000Y-36873000D01*
X143607000Y-36873000D01*
X143607000Y-37127000D01*
X143587000Y-37127000D01*
X143587000Y-37147000D01*
X143333000Y-37147000D01*
X143333000Y-37127000D01*
X142126183Y-37127000D01*
X142005042Y-37359026D01*
X142026236Y-37428900D01*
X139346162Y-37428900D01*
X139350853Y-37417574D01*
X139406000Y-37140335D01*
X139406000Y-36857665D01*
X139350853Y-36580426D01*
X139242680Y-36319273D01*
X139085637Y-36084241D01*
X138885759Y-35884363D01*
X138796500Y-35824722D01*
X138796500Y-35435932D01*
X138946933Y-35285500D01*
X142201995Y-35285500D01*
X142207931Y-35296606D01*
G36*
X91681884Y-23477069D02*
G01*
X91585153Y-23380338D01*
X91364665Y-23233013D01*
X91119672Y-23131533D01*
X90859589Y-23079800D01*
X90594411Y-23079800D01*
X90334328Y-23131533D01*
X90089335Y-23233013D01*
X89868847Y-23380338D01*
X89681338Y-23567847D01*
X89534013Y-23788335D01*
X89432533Y-24033328D01*
X89380800Y-24293411D01*
X89380800Y-24558589D01*
X89421155Y-24761470D01*
X89305080Y-24823513D01*
X89193162Y-24915362D01*
X89170146Y-24943407D01*
X88464858Y-25648695D01*
X88319589Y-25619800D01*
X88054411Y-25619800D01*
X87794328Y-25671533D01*
X87549335Y-25773013D01*
X87328847Y-25920338D01*
X87141338Y-26107847D01*
X86994013Y-26328335D01*
X86892533Y-26573328D01*
X86840800Y-26833411D01*
X86840800Y-27098589D01*
X86892533Y-27358672D01*
X86994013Y-27603665D01*
X87141338Y-27824153D01*
X87328847Y-28011662D01*
X87549335Y-28158987D01*
X87735260Y-28236000D01*
X87549335Y-28313013D01*
X87328847Y-28460338D01*
X87141338Y-28647847D01*
X86994013Y-28868335D01*
X86892533Y-29113328D01*
X86840800Y-29373411D01*
X86840800Y-29638589D01*
X86892533Y-29898672D01*
X86994013Y-30143665D01*
X87141338Y-30364153D01*
X87328847Y-30551662D01*
X87549335Y-30698987D01*
X87735260Y-30776000D01*
X87549335Y-30853013D01*
X87328847Y-31000338D01*
X87141338Y-31187847D01*
X86994013Y-31408335D01*
X86892533Y-31653328D01*
X86840800Y-31913411D01*
X86840800Y-32178589D01*
X86892533Y-32438672D01*
X86994013Y-32683665D01*
X87141338Y-32904153D01*
X87328847Y-33091662D01*
X87549335Y-33238987D01*
X87735260Y-33316000D01*
X87549335Y-33393013D01*
X87328847Y-33540338D01*
X87141338Y-33727847D01*
X86994013Y-33948335D01*
X86892533Y-34193328D01*
X86840800Y-34453411D01*
X86840800Y-34718589D01*
X86892533Y-34978672D01*
X86994013Y-35223665D01*
X87141338Y-35444153D01*
X87328847Y-35631662D01*
X87549335Y-35778987D01*
X87735260Y-35856000D01*
X87549335Y-35933013D01*
X87328847Y-36080338D01*
X87141338Y-36267847D01*
X87119520Y-36300500D01*
X85861933Y-36300500D01*
X84521056Y-34959624D01*
X84542000Y-34854335D01*
X84542000Y-34571665D01*
X84486853Y-34294426D01*
X84378680Y-34033273D01*
X84221637Y-33798241D01*
X84021759Y-33598363D01*
X83932500Y-33538722D01*
X83932500Y-33231908D01*
X84126608Y-33072608D01*
X84305932Y-32854101D01*
X84439182Y-32604808D01*
X84521236Y-32334309D01*
X84548943Y-32053000D01*
X84521236Y-31771691D01*
X84439182Y-31501192D01*
X84305932Y-31251899D01*
X84126608Y-31033392D01*
X83908101Y-30854068D01*
X83658808Y-30720818D01*
X83388309Y-30638764D01*
X83177492Y-30618000D01*
X83036508Y-30618000D01*
X82825691Y-30638764D01*
X82555192Y-30720818D01*
X82305899Y-30854068D01*
X82087392Y-31033392D01*
X81908068Y-31251899D01*
X81774818Y-31501192D01*
X81766348Y-31529115D01*
X81735197Y-31497965D01*
X81709341Y-31466459D01*
X81583642Y-31363301D01*
X81440234Y-31286647D01*
X81284626Y-31239444D01*
X81163353Y-31227500D01*
X81163350Y-31227500D01*
X81122800Y-31223506D01*
X81108765Y-31224888D01*
X80951608Y-31033392D01*
X80733101Y-30854068D01*
X80483808Y-30720818D01*
X80213309Y-30638764D01*
X80002492Y-30618000D01*
X79861508Y-30618000D01*
X79650691Y-30638764D01*
X79508100Y-30682018D01*
X79508100Y-25926138D01*
X79720184Y-25979300D01*
X80002512Y-25993217D01*
X80282130Y-25951787D01*
X80548292Y-25856603D01*
X80673514Y-25789671D01*
X80745097Y-25545702D01*
X82293903Y-25545702D01*
X82365486Y-25789671D01*
X82620996Y-25910571D01*
X82895184Y-25979300D01*
X83177512Y-25993217D01*
X83457130Y-25951787D01*
X83723292Y-25856603D01*
X83848514Y-25789671D01*
X83920097Y-25545702D01*
X83107000Y-24732605D01*
X82293903Y-25545702D01*
X80745097Y-25545702D01*
X79932000Y-24732605D01*
X79917858Y-24746748D01*
X79738253Y-24567143D01*
X79752395Y-24553000D01*
X80111605Y-24553000D01*
X80924702Y-25366097D01*
X81168671Y-25294514D01*
X81289571Y-25039004D01*
X81358300Y-24764816D01*
X81365265Y-24623512D01*
X81666783Y-24623512D01*
X81708213Y-24903130D01*
X81803397Y-25169292D01*
X81870329Y-25294514D01*
X82114298Y-25366097D01*
X82927395Y-24553000D01*
X83286605Y-24553000D01*
X84099702Y-25366097D01*
X84343671Y-25294514D01*
X84464571Y-25039004D01*
X84533300Y-24764816D01*
X84547217Y-24482488D01*
X84505787Y-24202870D01*
X84410603Y-23936708D01*
X84343671Y-23811486D01*
X84099702Y-23739903D01*
X83286605Y-24553000D01*
X82927395Y-24553000D01*
X82114298Y-23739903D01*
X81870329Y-23811486D01*
X81749429Y-24066996D01*
X81680700Y-24341184D01*
X81666783Y-24623512D01*
X81365265Y-24623512D01*
X81372217Y-24482488D01*
X81330787Y-24202870D01*
X81235603Y-23936708D01*
X81168671Y-23811486D01*
X80924702Y-23739903D01*
X80111605Y-24553000D01*
X79752395Y-24553000D01*
X79738253Y-24538858D01*
X79917858Y-24359253D01*
X79932000Y-24373395D01*
X80745097Y-23560298D01*
X82293903Y-23560298D01*
X83107000Y-24373395D01*
X83920097Y-23560298D01*
X83848514Y-23316329D01*
X83593004Y-23195429D01*
X83318816Y-23126700D01*
X83036488Y-23112783D01*
X82756870Y-23154213D01*
X82490708Y-23249397D01*
X82365486Y-23316329D01*
X82293903Y-23560298D01*
X80745097Y-23560298D01*
X80673514Y-23316329D01*
X80618524Y-23290309D01*
X81127333Y-22781500D01*
X92377453Y-22781500D01*
X91681884Y-23477069D01*
X91681884Y-23477069D01*
G37*
X91681884Y-23477069D02*
X91585153Y-23380338D01*
X91364665Y-23233013D01*
X91119672Y-23131533D01*
X90859589Y-23079800D01*
X90594411Y-23079800D01*
X90334328Y-23131533D01*
X90089335Y-23233013D01*
X89868847Y-23380338D01*
X89681338Y-23567847D01*
X89534013Y-23788335D01*
X89432533Y-24033328D01*
X89380800Y-24293411D01*
X89380800Y-24558589D01*
X89421155Y-24761470D01*
X89305080Y-24823513D01*
X89193162Y-24915362D01*
X89170146Y-24943407D01*
X88464858Y-25648695D01*
X88319589Y-25619800D01*
X88054411Y-25619800D01*
X87794328Y-25671533D01*
X87549335Y-25773013D01*
X87328847Y-25920338D01*
X87141338Y-26107847D01*
X86994013Y-26328335D01*
X86892533Y-26573328D01*
X86840800Y-26833411D01*
X86840800Y-27098589D01*
X86892533Y-27358672D01*
X86994013Y-27603665D01*
X87141338Y-27824153D01*
X87328847Y-28011662D01*
X87549335Y-28158987D01*
X87735260Y-28236000D01*
X87549335Y-28313013D01*
X87328847Y-28460338D01*
X87141338Y-28647847D01*
X86994013Y-28868335D01*
X86892533Y-29113328D01*
X86840800Y-29373411D01*
X86840800Y-29638589D01*
X86892533Y-29898672D01*
X86994013Y-30143665D01*
X87141338Y-30364153D01*
X87328847Y-30551662D01*
X87549335Y-30698987D01*
X87735260Y-30776000D01*
X87549335Y-30853013D01*
X87328847Y-31000338D01*
X87141338Y-31187847D01*
X86994013Y-31408335D01*
X86892533Y-31653328D01*
X86840800Y-31913411D01*
X86840800Y-32178589D01*
X86892533Y-32438672D01*
X86994013Y-32683665D01*
X87141338Y-32904153D01*
X87328847Y-33091662D01*
X87549335Y-33238987D01*
X87735260Y-33316000D01*
X87549335Y-33393013D01*
X87328847Y-33540338D01*
X87141338Y-33727847D01*
X86994013Y-33948335D01*
X86892533Y-34193328D01*
X86840800Y-34453411D01*
X86840800Y-34718589D01*
X86892533Y-34978672D01*
X86994013Y-35223665D01*
X87141338Y-35444153D01*
X87328847Y-35631662D01*
X87549335Y-35778987D01*
X87735260Y-35856000D01*
X87549335Y-35933013D01*
X87328847Y-36080338D01*
X87141338Y-36267847D01*
X87119520Y-36300500D01*
X85861933Y-36300500D01*
X84521056Y-34959624D01*
X84542000Y-34854335D01*
X84542000Y-34571665D01*
X84486853Y-34294426D01*
X84378680Y-34033273D01*
X84221637Y-33798241D01*
X84021759Y-33598363D01*
X83932500Y-33538722D01*
X83932500Y-33231908D01*
X84126608Y-33072608D01*
X84305932Y-32854101D01*
X84439182Y-32604808D01*
X84521236Y-32334309D01*
X84548943Y-32053000D01*
X84521236Y-31771691D01*
X84439182Y-31501192D01*
X84305932Y-31251899D01*
X84126608Y-31033392D01*
X83908101Y-30854068D01*
X83658808Y-30720818D01*
X83388309Y-30638764D01*
X83177492Y-30618000D01*
X83036508Y-30618000D01*
X82825691Y-30638764D01*
X82555192Y-30720818D01*
X82305899Y-30854068D01*
X82087392Y-31033392D01*
X81908068Y-31251899D01*
X81774818Y-31501192D01*
X81766348Y-31529115D01*
X81735197Y-31497965D01*
X81709341Y-31466459D01*
X81583642Y-31363301D01*
X81440234Y-31286647D01*
X81284626Y-31239444D01*
X81163353Y-31227500D01*
X81163350Y-31227500D01*
X81122800Y-31223506D01*
X81108765Y-31224888D01*
X80951608Y-31033392D01*
X80733101Y-30854068D01*
X80483808Y-30720818D01*
X80213309Y-30638764D01*
X80002492Y-30618000D01*
X79861508Y-30618000D01*
X79650691Y-30638764D01*
X79508100Y-30682018D01*
X79508100Y-25926138D01*
X79720184Y-25979300D01*
X80002512Y-25993217D01*
X80282130Y-25951787D01*
X80548292Y-25856603D01*
X80673514Y-25789671D01*
X80745097Y-25545702D01*
X82293903Y-25545702D01*
X82365486Y-25789671D01*
X82620996Y-25910571D01*
X82895184Y-25979300D01*
X83177512Y-25993217D01*
X83457130Y-25951787D01*
X83723292Y-25856603D01*
X83848514Y-25789671D01*
X83920097Y-25545702D01*
X83107000Y-24732605D01*
X82293903Y-25545702D01*
X80745097Y-25545702D01*
X79932000Y-24732605D01*
X79917858Y-24746748D01*
X79738253Y-24567143D01*
X79752395Y-24553000D01*
X80111605Y-24553000D01*
X80924702Y-25366097D01*
X81168671Y-25294514D01*
X81289571Y-25039004D01*
X81358300Y-24764816D01*
X81365265Y-24623512D01*
X81666783Y-24623512D01*
X81708213Y-24903130D01*
X81803397Y-25169292D01*
X81870329Y-25294514D01*
X82114298Y-25366097D01*
X82927395Y-24553000D01*
X83286605Y-24553000D01*
X84099702Y-25366097D01*
X84343671Y-25294514D01*
X84464571Y-25039004D01*
X84533300Y-24764816D01*
X84547217Y-24482488D01*
X84505787Y-24202870D01*
X84410603Y-23936708D01*
X84343671Y-23811486D01*
X84099702Y-23739903D01*
X83286605Y-24553000D01*
X82927395Y-24553000D01*
X82114298Y-23739903D01*
X81870329Y-23811486D01*
X81749429Y-24066996D01*
X81680700Y-24341184D01*
X81666783Y-24623512D01*
X81365265Y-24623512D01*
X81372217Y-24482488D01*
X81330787Y-24202870D01*
X81235603Y-23936708D01*
X81168671Y-23811486D01*
X80924702Y-23739903D01*
X80111605Y-24553000D01*
X79752395Y-24553000D01*
X79738253Y-24538858D01*
X79917858Y-24359253D01*
X79932000Y-24373395D01*
X80745097Y-23560298D01*
X82293903Y-23560298D01*
X83107000Y-24373395D01*
X83920097Y-23560298D01*
X83848514Y-23316329D01*
X83593004Y-23195429D01*
X83318816Y-23126700D01*
X83036488Y-23112783D01*
X82756870Y-23154213D01*
X82490708Y-23249397D01*
X82365486Y-23316329D01*
X82293903Y-23560298D01*
X80745097Y-23560298D01*
X80673514Y-23316329D01*
X80618524Y-23290309D01*
X81127333Y-22781500D01*
X92377453Y-22781500D01*
X91681884Y-23477069D01*
G36*
X94614013Y-27603665D02*
G01*
X94761338Y-27824153D01*
X94948847Y-28011662D01*
X95169335Y-28158987D01*
X95414328Y-28260467D01*
X95674411Y-28312200D01*
X95939589Y-28312200D01*
X95978106Y-28304539D01*
X99004611Y-31331045D01*
X99030459Y-31362541D01*
X99061955Y-31388389D01*
X99061958Y-31388392D01*
X99156157Y-31465699D01*
X99282427Y-31533192D01*
X99299566Y-31542353D01*
X99455174Y-31589556D01*
X99576447Y-31601500D01*
X99576449Y-31601500D01*
X99617000Y-31605494D01*
X99657550Y-31601500D01*
X102154001Y-31601500D01*
X102132533Y-31653328D01*
X102080800Y-31913411D01*
X102080800Y-32178589D01*
X102120485Y-32378100D01*
X92396070Y-32378100D01*
X92386162Y-32363272D01*
X92255928Y-32233038D01*
X92102789Y-32130714D01*
X92073200Y-32118458D01*
X92073200Y-31913411D01*
X92021467Y-31653328D01*
X91919987Y-31408335D01*
X91772662Y-31187847D01*
X91585153Y-31000338D01*
X91364665Y-30853013D01*
X91176400Y-30775031D01*
X91312280Y-30725542D01*
X91415848Y-30670183D01*
X91476668Y-30435273D01*
X90727000Y-29685605D01*
X89977332Y-30435273D01*
X90038152Y-30670183D01*
X90269934Y-30778206D01*
X90089335Y-30853013D01*
X89868847Y-31000338D01*
X89681338Y-31187847D01*
X89534013Y-31408335D01*
X89457000Y-31594260D01*
X89379987Y-31408335D01*
X89232662Y-31187847D01*
X89045153Y-31000338D01*
X88824665Y-30853013D01*
X88638740Y-30776000D01*
X88824665Y-30698987D01*
X89045153Y-30551662D01*
X89232662Y-30364153D01*
X89379987Y-30143665D01*
X89457969Y-29955400D01*
X89507458Y-30091280D01*
X89562817Y-30194848D01*
X89797727Y-30255668D01*
X90547395Y-29506000D01*
X90906605Y-29506000D01*
X91656273Y-30255668D01*
X91891183Y-30194848D01*
X92003202Y-29954491D01*
X92066176Y-29696898D01*
X92077687Y-29431970D01*
X92037291Y-29169887D01*
X91946542Y-28920720D01*
X91891183Y-28817152D01*
X91656273Y-28756332D01*
X90906605Y-29506000D01*
X90547395Y-29506000D01*
X89797727Y-28756332D01*
X89562817Y-28817152D01*
X89454794Y-29048934D01*
X89379987Y-28868335D01*
X89232662Y-28647847D01*
X89045153Y-28460338D01*
X88824665Y-28313013D01*
X88638740Y-28236000D01*
X88824665Y-28158987D01*
X89045153Y-28011662D01*
X89232662Y-27824153D01*
X89379987Y-27603665D01*
X89457000Y-27417740D01*
X89534013Y-27603665D01*
X89681338Y-27824153D01*
X89868847Y-28011662D01*
X90089335Y-28158987D01*
X90277600Y-28236969D01*
X90141720Y-28286458D01*
X90038152Y-28341817D01*
X89977332Y-28576727D01*
X90727000Y-29326395D01*
X91476668Y-28576727D01*
X91415848Y-28341817D01*
X91184066Y-28233794D01*
X91364665Y-28158987D01*
X91585153Y-28011662D01*
X91772662Y-27824153D01*
X91919987Y-27603665D01*
X91997000Y-27417740D01*
X92074013Y-27603665D01*
X92221338Y-27824153D01*
X92408847Y-28011662D01*
X92629335Y-28158987D01*
X92874328Y-28260467D01*
X93134411Y-28312200D01*
X93399589Y-28312200D01*
X93659672Y-28260467D01*
X93904665Y-28158987D01*
X94125153Y-28011662D01*
X94312662Y-27824153D01*
X94459987Y-27603665D01*
X94537000Y-27417740D01*
X94614013Y-27603665D01*
X94614013Y-27603665D01*
G37*
X94614013Y-27603665D02*
X94761338Y-27824153D01*
X94948847Y-28011662D01*
X95169335Y-28158987D01*
X95414328Y-28260467D01*
X95674411Y-28312200D01*
X95939589Y-28312200D01*
X95978106Y-28304539D01*
X99004611Y-31331045D01*
X99030459Y-31362541D01*
X99061955Y-31388389D01*
X99061958Y-31388392D01*
X99156157Y-31465699D01*
X99282427Y-31533192D01*
X99299566Y-31542353D01*
X99455174Y-31589556D01*
X99576447Y-31601500D01*
X99576449Y-31601500D01*
X99617000Y-31605494D01*
X99657550Y-31601500D01*
X102154001Y-31601500D01*
X102132533Y-31653328D01*
X102080800Y-31913411D01*
X102080800Y-32178589D01*
X102120485Y-32378100D01*
X92396070Y-32378100D01*
X92386162Y-32363272D01*
X92255928Y-32233038D01*
X92102789Y-32130714D01*
X92073200Y-32118458D01*
X92073200Y-31913411D01*
X92021467Y-31653328D01*
X91919987Y-31408335D01*
X91772662Y-31187847D01*
X91585153Y-31000338D01*
X91364665Y-30853013D01*
X91176400Y-30775031D01*
X91312280Y-30725542D01*
X91415848Y-30670183D01*
X91476668Y-30435273D01*
X90727000Y-29685605D01*
X89977332Y-30435273D01*
X90038152Y-30670183D01*
X90269934Y-30778206D01*
X90089335Y-30853013D01*
X89868847Y-31000338D01*
X89681338Y-31187847D01*
X89534013Y-31408335D01*
X89457000Y-31594260D01*
X89379987Y-31408335D01*
X89232662Y-31187847D01*
X89045153Y-31000338D01*
X88824665Y-30853013D01*
X88638740Y-30776000D01*
X88824665Y-30698987D01*
X89045153Y-30551662D01*
X89232662Y-30364153D01*
X89379987Y-30143665D01*
X89457969Y-29955400D01*
X89507458Y-30091280D01*
X89562817Y-30194848D01*
X89797727Y-30255668D01*
X90547395Y-29506000D01*
X90906605Y-29506000D01*
X91656273Y-30255668D01*
X91891183Y-30194848D01*
X92003202Y-29954491D01*
X92066176Y-29696898D01*
X92077687Y-29431970D01*
X92037291Y-29169887D01*
X91946542Y-28920720D01*
X91891183Y-28817152D01*
X91656273Y-28756332D01*
X90906605Y-29506000D01*
X90547395Y-29506000D01*
X89797727Y-28756332D01*
X89562817Y-28817152D01*
X89454794Y-29048934D01*
X89379987Y-28868335D01*
X89232662Y-28647847D01*
X89045153Y-28460338D01*
X88824665Y-28313013D01*
X88638740Y-28236000D01*
X88824665Y-28158987D01*
X89045153Y-28011662D01*
X89232662Y-27824153D01*
X89379987Y-27603665D01*
X89457000Y-27417740D01*
X89534013Y-27603665D01*
X89681338Y-27824153D01*
X89868847Y-28011662D01*
X90089335Y-28158987D01*
X90277600Y-28236969D01*
X90141720Y-28286458D01*
X90038152Y-28341817D01*
X89977332Y-28576727D01*
X90727000Y-29326395D01*
X91476668Y-28576727D01*
X91415848Y-28341817D01*
X91184066Y-28233794D01*
X91364665Y-28158987D01*
X91585153Y-28011662D01*
X91772662Y-27824153D01*
X91919987Y-27603665D01*
X91997000Y-27417740D01*
X92074013Y-27603665D01*
X92221338Y-27824153D01*
X92408847Y-28011662D01*
X92629335Y-28158987D01*
X92874328Y-28260467D01*
X93134411Y-28312200D01*
X93399589Y-28312200D01*
X93659672Y-28260467D01*
X93904665Y-28158987D01*
X94125153Y-28011662D01*
X94312662Y-27824153D01*
X94459987Y-27603665D01*
X94537000Y-27417740D01*
X94614013Y-27603665D01*
G36*
X133597068Y-23497899D02*
G01*
X133463818Y-23747192D01*
X133381764Y-24017691D01*
X133354057Y-24299000D01*
X133381764Y-24580309D01*
X133463818Y-24850808D01*
X133597068Y-25100101D01*
X133776392Y-25318608D01*
X133994899Y-25497932D01*
X134244192Y-25631182D01*
X134514691Y-25713236D01*
X134725508Y-25734000D01*
X134866492Y-25734000D01*
X135077309Y-25713236D01*
X135347808Y-25631182D01*
X135597101Y-25497932D01*
X135815608Y-25318608D01*
X135994932Y-25100101D01*
X136128182Y-24850808D01*
X136210236Y-24580309D01*
X136237943Y-24299000D01*
X136210236Y-24017691D01*
X136128182Y-23747192D01*
X135994932Y-23497899D01*
X135882007Y-23360300D01*
X140588254Y-23360300D01*
X142753138Y-25525185D01*
X142571512Y-25633183D01*
X142353146Y-25829707D01*
X142177316Y-26065056D01*
X142050778Y-26330186D01*
X142005042Y-26480974D01*
X142126183Y-26713000D01*
X143333000Y-26713000D01*
X143333000Y-26693000D01*
X143587000Y-26693000D01*
X143587000Y-26713000D01*
X143607000Y-26713000D01*
X143607000Y-26967000D01*
X143587000Y-26967000D01*
X143587000Y-26987000D01*
X143333000Y-26987000D01*
X143333000Y-26967000D01*
X142126183Y-26967000D01*
X142005042Y-27199026D01*
X142050778Y-27349814D01*
X142062798Y-27375000D01*
X140376404Y-27375000D01*
X140340299Y-27371444D01*
X140196214Y-27385635D01*
X140169842Y-27393635D01*
X140057667Y-27427663D01*
X139929980Y-27495913D01*
X139818062Y-27587762D01*
X139795046Y-27615807D01*
X139018038Y-28392816D01*
X138990608Y-28359392D01*
X138772101Y-28180068D01*
X138522808Y-28046818D01*
X138252309Y-27964764D01*
X138041492Y-27944000D01*
X137900508Y-27944000D01*
X137689691Y-27964764D01*
X137419192Y-28046818D01*
X137169899Y-28180068D01*
X136951392Y-28359392D01*
X136772068Y-28577899D01*
X136638818Y-28827192D01*
X136556764Y-29097691D01*
X136529057Y-29379000D01*
X136556764Y-29660309D01*
X136638818Y-29930808D01*
X136672809Y-29994400D01*
X131671002Y-29994400D01*
X131700182Y-29939808D01*
X131782236Y-29669309D01*
X131809943Y-29388000D01*
X131782236Y-29106691D01*
X131700182Y-28836192D01*
X131566932Y-28586899D01*
X131387608Y-28368392D01*
X131169101Y-28189068D01*
X131031318Y-28115421D01*
X131223131Y-28000385D01*
X131431519Y-27811414D01*
X131599037Y-27585420D01*
X131719246Y-27331087D01*
X131759904Y-27197039D01*
X131637915Y-26975000D01*
X130495000Y-26975000D01*
X130495000Y-26995000D01*
X130241000Y-26995000D01*
X130241000Y-26975000D01*
X129098085Y-26975000D01*
X128976096Y-27197039D01*
X129016754Y-27331087D01*
X129136963Y-27585420D01*
X129304481Y-27811414D01*
X129512869Y-28000385D01*
X129704682Y-28115421D01*
X129566899Y-28189068D01*
X129348392Y-28368392D01*
X129169068Y-28586899D01*
X129035818Y-28836192D01*
X128953764Y-29106691D01*
X128930884Y-29338994D01*
X128919086Y-29310511D01*
X128816762Y-29157372D01*
X128686528Y-29027138D01*
X128533389Y-28924814D01*
X128363229Y-28854332D01*
X128198015Y-28821469D01*
X127000358Y-27623812D01*
X126977338Y-27595762D01*
X126865420Y-27503913D01*
X126737733Y-27435663D01*
X126599185Y-27393635D01*
X126491205Y-27383000D01*
X126455100Y-27379444D01*
X126418995Y-27383000D01*
X124085281Y-27383000D01*
X124162236Y-27129309D01*
X124189943Y-26848000D01*
X124162236Y-26566691D01*
X124080182Y-26296192D01*
X123946932Y-26046899D01*
X123767608Y-25828392D01*
X123654518Y-25735581D01*
X123672482Y-25733812D01*
X123792180Y-25697502D01*
X123902494Y-25638537D01*
X123999185Y-25559185D01*
X124078537Y-25462494D01*
X124137502Y-25352180D01*
X124173812Y-25232482D01*
X124186072Y-25108000D01*
X124186072Y-23942600D01*
X127644368Y-23942600D01*
X128564806Y-24863039D01*
X128590659Y-24894541D01*
X128650203Y-24943407D01*
X128716357Y-24997699D01*
X128793633Y-25039004D01*
X128859766Y-25074353D01*
X129015374Y-25121556D01*
X129136647Y-25133500D01*
X129136649Y-25133500D01*
X129177200Y-25137494D01*
X129191235Y-25136112D01*
X129348392Y-25327608D01*
X129566899Y-25506932D01*
X129704682Y-25580579D01*
X129512869Y-25695615D01*
X129304481Y-25884586D01*
X129136963Y-26110580D01*
X129016754Y-26364913D01*
X128976096Y-26498961D01*
X129098085Y-26721000D01*
X130241000Y-26721000D01*
X130241000Y-26701000D01*
X130495000Y-26701000D01*
X130495000Y-26721000D01*
X131637915Y-26721000D01*
X131759904Y-26498961D01*
X131719246Y-26364913D01*
X131599037Y-26110580D01*
X131431519Y-25884586D01*
X131223131Y-25695615D01*
X131031318Y-25580579D01*
X131169101Y-25506932D01*
X131387608Y-25327608D01*
X131566932Y-25109101D01*
X131700182Y-24859808D01*
X131782236Y-24589309D01*
X131809943Y-24308000D01*
X131782236Y-24026691D01*
X131700182Y-23756192D01*
X131566932Y-23506899D01*
X131446621Y-23360300D01*
X133709993Y-23360300D01*
X133597068Y-23497899D01*
X133597068Y-23497899D01*
G37*
X133597068Y-23497899D02*
X133463818Y-23747192D01*
X133381764Y-24017691D01*
X133354057Y-24299000D01*
X133381764Y-24580309D01*
X133463818Y-24850808D01*
X133597068Y-25100101D01*
X133776392Y-25318608D01*
X133994899Y-25497932D01*
X134244192Y-25631182D01*
X134514691Y-25713236D01*
X134725508Y-25734000D01*
X134866492Y-25734000D01*
X135077309Y-25713236D01*
X135347808Y-25631182D01*
X135597101Y-25497932D01*
X135815608Y-25318608D01*
X135994932Y-25100101D01*
X136128182Y-24850808D01*
X136210236Y-24580309D01*
X136237943Y-24299000D01*
X136210236Y-24017691D01*
X136128182Y-23747192D01*
X135994932Y-23497899D01*
X135882007Y-23360300D01*
X140588254Y-23360300D01*
X142753138Y-25525185D01*
X142571512Y-25633183D01*
X142353146Y-25829707D01*
X142177316Y-26065056D01*
X142050778Y-26330186D01*
X142005042Y-26480974D01*
X142126183Y-26713000D01*
X143333000Y-26713000D01*
X143333000Y-26693000D01*
X143587000Y-26693000D01*
X143587000Y-26713000D01*
X143607000Y-26713000D01*
X143607000Y-26967000D01*
X143587000Y-26967000D01*
X143587000Y-26987000D01*
X143333000Y-26987000D01*
X143333000Y-26967000D01*
X142126183Y-26967000D01*
X142005042Y-27199026D01*
X142050778Y-27349814D01*
X142062798Y-27375000D01*
X140376404Y-27375000D01*
X140340299Y-27371444D01*
X140196214Y-27385635D01*
X140169842Y-27393635D01*
X140057667Y-27427663D01*
X139929980Y-27495913D01*
X139818062Y-27587762D01*
X139795046Y-27615807D01*
X139018038Y-28392816D01*
X138990608Y-28359392D01*
X138772101Y-28180068D01*
X138522808Y-28046818D01*
X138252309Y-27964764D01*
X138041492Y-27944000D01*
X137900508Y-27944000D01*
X137689691Y-27964764D01*
X137419192Y-28046818D01*
X137169899Y-28180068D01*
X136951392Y-28359392D01*
X136772068Y-28577899D01*
X136638818Y-28827192D01*
X136556764Y-29097691D01*
X136529057Y-29379000D01*
X136556764Y-29660309D01*
X136638818Y-29930808D01*
X136672809Y-29994400D01*
X131671002Y-29994400D01*
X131700182Y-29939808D01*
X131782236Y-29669309D01*
X131809943Y-29388000D01*
X131782236Y-29106691D01*
X131700182Y-28836192D01*
X131566932Y-28586899D01*
X131387608Y-28368392D01*
X131169101Y-28189068D01*
X131031318Y-28115421D01*
X131223131Y-28000385D01*
X131431519Y-27811414D01*
X131599037Y-27585420D01*
X131719246Y-27331087D01*
X131759904Y-27197039D01*
X131637915Y-26975000D01*
X130495000Y-26975000D01*
X130495000Y-26995000D01*
X130241000Y-26995000D01*
X130241000Y-26975000D01*
X129098085Y-26975000D01*
X128976096Y-27197039D01*
X129016754Y-27331087D01*
X129136963Y-27585420D01*
X129304481Y-27811414D01*
X129512869Y-28000385D01*
X129704682Y-28115421D01*
X129566899Y-28189068D01*
X129348392Y-28368392D01*
X129169068Y-28586899D01*
X129035818Y-28836192D01*
X128953764Y-29106691D01*
X128930884Y-29338994D01*
X128919086Y-29310511D01*
X128816762Y-29157372D01*
X128686528Y-29027138D01*
X128533389Y-28924814D01*
X128363229Y-28854332D01*
X128198015Y-28821469D01*
X127000358Y-27623812D01*
X126977338Y-27595762D01*
X126865420Y-27503913D01*
X126737733Y-27435663D01*
X126599185Y-27393635D01*
X126491205Y-27383000D01*
X126455100Y-27379444D01*
X126418995Y-27383000D01*
X124085281Y-27383000D01*
X124162236Y-27129309D01*
X124189943Y-26848000D01*
X124162236Y-26566691D01*
X124080182Y-26296192D01*
X123946932Y-26046899D01*
X123767608Y-25828392D01*
X123654518Y-25735581D01*
X123672482Y-25733812D01*
X123792180Y-25697502D01*
X123902494Y-25638537D01*
X123999185Y-25559185D01*
X124078537Y-25462494D01*
X124137502Y-25352180D01*
X124173812Y-25232482D01*
X124186072Y-25108000D01*
X124186072Y-23942600D01*
X127644368Y-23942600D01*
X128564806Y-24863039D01*
X128590659Y-24894541D01*
X128650203Y-24943407D01*
X128716357Y-24997699D01*
X128793633Y-25039004D01*
X128859766Y-25074353D01*
X129015374Y-25121556D01*
X129136647Y-25133500D01*
X129136649Y-25133500D01*
X129177200Y-25137494D01*
X129191235Y-25136112D01*
X129348392Y-25327608D01*
X129566899Y-25506932D01*
X129704682Y-25580579D01*
X129512869Y-25695615D01*
X129304481Y-25884586D01*
X129136963Y-26110580D01*
X129016754Y-26364913D01*
X128976096Y-26498961D01*
X129098085Y-26721000D01*
X130241000Y-26721000D01*
X130241000Y-26701000D01*
X130495000Y-26701000D01*
X130495000Y-26721000D01*
X131637915Y-26721000D01*
X131759904Y-26498961D01*
X131719246Y-26364913D01*
X131599037Y-26110580D01*
X131431519Y-25884586D01*
X131223131Y-25695615D01*
X131031318Y-25580579D01*
X131169101Y-25506932D01*
X131387608Y-25327608D01*
X131566932Y-25109101D01*
X131700182Y-24859808D01*
X131782236Y-24589309D01*
X131809943Y-24308000D01*
X131782236Y-24026691D01*
X131700182Y-23756192D01*
X131566932Y-23506899D01*
X131446621Y-23360300D01*
X133709993Y-23360300D01*
X133597068Y-23497899D01*
G36*
X121496815Y-25559185D02*
G01*
X121593506Y-25638537D01*
X121703820Y-25697502D01*
X121823518Y-25733812D01*
X121841482Y-25735581D01*
X121728392Y-25828392D01*
X121549068Y-26046899D01*
X121415818Y-26296192D01*
X121333764Y-26566691D01*
X121306057Y-26848000D01*
X121333764Y-27129309D01*
X121410719Y-27383000D01*
X120031120Y-27383000D01*
X120039904Y-27354039D01*
X119917915Y-27132000D01*
X118775000Y-27132000D01*
X118775000Y-27152000D01*
X118521000Y-27152000D01*
X118521000Y-27132000D01*
X117378085Y-27132000D01*
X117256096Y-27354039D01*
X117264880Y-27383000D01*
X112412905Y-27383000D01*
X112442236Y-27286309D01*
X112469943Y-27005000D01*
X112442236Y-26723691D01*
X112360182Y-26453192D01*
X112226932Y-26203899D01*
X112047608Y-25985392D01*
X111934518Y-25892581D01*
X111952482Y-25890812D01*
X112072180Y-25854502D01*
X112182494Y-25795537D01*
X112279185Y-25716185D01*
X112306615Y-25682761D01*
X112683346Y-26059493D01*
X112706362Y-26087538D01*
X112818280Y-26179387D01*
X112945967Y-26247637D01*
X113030844Y-26273384D01*
X113084514Y-26289665D01*
X113098732Y-26291065D01*
X113192495Y-26300300D01*
X113192502Y-26300300D01*
X113228599Y-26303855D01*
X113264696Y-26300300D01*
X117401498Y-26300300D01*
X117296754Y-26521913D01*
X117256096Y-26655961D01*
X117378085Y-26878000D01*
X118521000Y-26878000D01*
X118521000Y-26858000D01*
X118775000Y-26858000D01*
X118775000Y-26878000D01*
X119917915Y-26878000D01*
X120039904Y-26655961D01*
X119999246Y-26521913D01*
X119894502Y-26300300D01*
X120354295Y-26300300D01*
X120390400Y-26303856D01*
X120426505Y-26300300D01*
X120534485Y-26289665D01*
X120673033Y-26247637D01*
X120800720Y-26179387D01*
X120912638Y-26087538D01*
X120935658Y-26059488D01*
X121469385Y-25525761D01*
X121496815Y-25559185D01*
X121496815Y-25559185D01*
G37*
X121496815Y-25559185D02*
X121593506Y-25638537D01*
X121703820Y-25697502D01*
X121823518Y-25733812D01*
X121841482Y-25735581D01*
X121728392Y-25828392D01*
X121549068Y-26046899D01*
X121415818Y-26296192D01*
X121333764Y-26566691D01*
X121306057Y-26848000D01*
X121333764Y-27129309D01*
X121410719Y-27383000D01*
X120031120Y-27383000D01*
X120039904Y-27354039D01*
X119917915Y-27132000D01*
X118775000Y-27132000D01*
X118775000Y-27152000D01*
X118521000Y-27152000D01*
X118521000Y-27132000D01*
X117378085Y-27132000D01*
X117256096Y-27354039D01*
X117264880Y-27383000D01*
X112412905Y-27383000D01*
X112442236Y-27286309D01*
X112469943Y-27005000D01*
X112442236Y-26723691D01*
X112360182Y-26453192D01*
X112226932Y-26203899D01*
X112047608Y-25985392D01*
X111934518Y-25892581D01*
X111952482Y-25890812D01*
X112072180Y-25854502D01*
X112182494Y-25795537D01*
X112279185Y-25716185D01*
X112306615Y-25682761D01*
X112683346Y-26059493D01*
X112706362Y-26087538D01*
X112818280Y-26179387D01*
X112945967Y-26247637D01*
X113030844Y-26273384D01*
X113084514Y-26289665D01*
X113098732Y-26291065D01*
X113192495Y-26300300D01*
X113192502Y-26300300D01*
X113228599Y-26303855D01*
X113264696Y-26300300D01*
X117401498Y-26300300D01*
X117296754Y-26521913D01*
X117256096Y-26655961D01*
X117378085Y-26878000D01*
X118521000Y-26878000D01*
X118521000Y-26858000D01*
X118775000Y-26858000D01*
X118775000Y-26878000D01*
X119917915Y-26878000D01*
X120039904Y-26655961D01*
X119999246Y-26521913D01*
X119894502Y-26300300D01*
X120354295Y-26300300D01*
X120390400Y-26303856D01*
X120426505Y-26300300D01*
X120534485Y-26289665D01*
X120673033Y-26247637D01*
X120800720Y-26179387D01*
X120912638Y-26087538D01*
X120935658Y-26059488D01*
X121469385Y-25525761D01*
X121496815Y-25559185D01*
G36*
X94614013Y-25063665D02*
G01*
X94761338Y-25284153D01*
X94948847Y-25471662D01*
X95169335Y-25618987D01*
X95355260Y-25696000D01*
X95169335Y-25773013D01*
X94948847Y-25920338D01*
X94761338Y-26107847D01*
X94614013Y-26328335D01*
X94537000Y-26514260D01*
X94459987Y-26328335D01*
X94312662Y-26107847D01*
X94125153Y-25920338D01*
X93904665Y-25773013D01*
X93718740Y-25696000D01*
X93904665Y-25618987D01*
X94125153Y-25471662D01*
X94312662Y-25284153D01*
X94459987Y-25063665D01*
X94537000Y-24877740D01*
X94614013Y-25063665D01*
X94614013Y-25063665D01*
G37*
X94614013Y-25063665D02*
X94761338Y-25284153D01*
X94948847Y-25471662D01*
X95169335Y-25618987D01*
X95355260Y-25696000D01*
X95169335Y-25773013D01*
X94948847Y-25920338D01*
X94761338Y-26107847D01*
X94614013Y-26328335D01*
X94537000Y-26514260D01*
X94459987Y-26328335D01*
X94312662Y-26107847D01*
X94125153Y-25920338D01*
X93904665Y-25773013D01*
X93718740Y-25696000D01*
X93904665Y-25618987D01*
X94125153Y-25471662D01*
X94312662Y-25284153D01*
X94459987Y-25063665D01*
X94537000Y-24877740D01*
X94614013Y-25063665D01*
G36*
X101080748Y-24411858D02*
G01*
X101066605Y-24426000D01*
X101816273Y-25175668D01*
X102051183Y-25114848D01*
X102159206Y-24883066D01*
X102234013Y-25063665D01*
X102381338Y-25284153D01*
X102568847Y-25471662D01*
X102789335Y-25618987D01*
X102975260Y-25696000D01*
X102789335Y-25773013D01*
X102568847Y-25920338D01*
X102381338Y-26107847D01*
X102234013Y-26328335D01*
X102157000Y-26514260D01*
X102079987Y-26328335D01*
X101932662Y-26107847D01*
X101745153Y-25920338D01*
X101524665Y-25773013D01*
X101336400Y-25695031D01*
X101472280Y-25645542D01*
X101575848Y-25590183D01*
X101636668Y-25355273D01*
X100887000Y-24605605D01*
X100137332Y-25355273D01*
X100198152Y-25590183D01*
X100429934Y-25698206D01*
X100249335Y-25773013D01*
X100028847Y-25920338D01*
X99841338Y-26107847D01*
X99696272Y-26324954D01*
X99696272Y-26254800D01*
X99684012Y-26130318D01*
X99647702Y-26010620D01*
X99588737Y-25900306D01*
X99509385Y-25803615D01*
X99412694Y-25724263D01*
X99302380Y-25665298D01*
X99182682Y-25628988D01*
X99058200Y-25616728D01*
X98988046Y-25616728D01*
X99205153Y-25471662D01*
X99392662Y-25284153D01*
X99539987Y-25063665D01*
X99617969Y-24875400D01*
X99667458Y-25011280D01*
X99722817Y-25114848D01*
X99957727Y-25175668D01*
X100707395Y-24426000D01*
X100693253Y-24411858D01*
X100872858Y-24232253D01*
X100887000Y-24246395D01*
X100901143Y-24232253D01*
X101080748Y-24411858D01*
X101080748Y-24411858D01*
G37*
X101080748Y-24411858D02*
X101066605Y-24426000D01*
X101816273Y-25175668D01*
X102051183Y-25114848D01*
X102159206Y-24883066D01*
X102234013Y-25063665D01*
X102381338Y-25284153D01*
X102568847Y-25471662D01*
X102789335Y-25618987D01*
X102975260Y-25696000D01*
X102789335Y-25773013D01*
X102568847Y-25920338D01*
X102381338Y-26107847D01*
X102234013Y-26328335D01*
X102157000Y-26514260D01*
X102079987Y-26328335D01*
X101932662Y-26107847D01*
X101745153Y-25920338D01*
X101524665Y-25773013D01*
X101336400Y-25695031D01*
X101472280Y-25645542D01*
X101575848Y-25590183D01*
X101636668Y-25355273D01*
X100887000Y-24605605D01*
X100137332Y-25355273D01*
X100198152Y-25590183D01*
X100429934Y-25698206D01*
X100249335Y-25773013D01*
X100028847Y-25920338D01*
X99841338Y-26107847D01*
X99696272Y-26324954D01*
X99696272Y-26254800D01*
X99684012Y-26130318D01*
X99647702Y-26010620D01*
X99588737Y-25900306D01*
X99509385Y-25803615D01*
X99412694Y-25724263D01*
X99302380Y-25665298D01*
X99182682Y-25628988D01*
X99058200Y-25616728D01*
X98988046Y-25616728D01*
X99205153Y-25471662D01*
X99392662Y-25284153D01*
X99539987Y-25063665D01*
X99617969Y-24875400D01*
X99667458Y-25011280D01*
X99722817Y-25114848D01*
X99957727Y-25175668D01*
X100707395Y-24426000D01*
X100693253Y-24411858D01*
X100872858Y-24232253D01*
X100887000Y-24246395D01*
X100901143Y-24232253D01*
X101080748Y-24411858D01*
M02*
