M48
; DRILL file {KiCad (5.1.2-1)-1} date Saturday, 02 November 2019 at 17:06:45
; FORMAT={3:3/ absolute / metric / suppress leading zeros}
; #@! TF.CreationDate,2019-11-02T17:06:45+00:00
; #@! TF.GenerationSoftware,Kicad,Pcbnew,(5.1.2-1)-1
FMAT,2
METRIC,TZ
T1C0.300
T2C0.400
T3C0.800
T4C1.016
%
G90
G05
T1
X78073Y-46117
X88482Y-69000
X89509Y-36910
X91660Y-32959
X92312Y-45016
X96599Y-74784
X97674Y-38007
X102378Y-21251
X106979Y-41893
X108081Y-22543
X108926Y-32127
X109278Y-97171
X110050Y-100946
X110878Y-100909
X111029Y-47476
X111482Y-71869
X111768Y-113508
X111907Y-112482
X112140Y-85329
X112140Y-48454
X112143Y-82801
X112866Y-22150
X114963Y-96470
X114977Y-101556
X114987Y-111715
X114995Y-100270
X115004Y-99040
X115070Y-50046
X115114Y-77852
X115159Y-83424
X115159Y-72219
X115169Y-103348
X115409Y-69654
X116398Y-77594
X116417Y-106628
X116487Y-75627
X116726Y-32044
X116752Y-109996
X117198Y-52109
X117354Y-41153
X118106Y-73140
X118442Y-83491
X118827Y-86792
X118911Y-82347
X119890Y-98101
X120350Y-37097
X120477Y-67645
X120736Y-84471
X121305Y-63110
X121330Y-74178
X121334Y-96888
X121342Y-77370
X121347Y-69193
X121347Y-71959
X121353Y-73327
X121406Y-103967
X121515Y-106669
X124089Y-48103
X124379Y-105370
X124550Y-113081
X124550Y-115472
X124558Y-107011
X124558Y-110710
X124560Y-119800
X124562Y-113918
X124569Y-85581
X124577Y-84700
X124579Y-79529
X124581Y-98035
X124617Y-100852
X125198Y-62599
X125429Y-40334
X125641Y-79329
X125800Y-80479
X125945Y-110856
X126586Y-48284
X127747Y-84524
X128091Y-29753
X128628Y-40196
X128694Y-77401
X128756Y-85129
X128956Y-113820
X129294Y-73974
X129347Y-33625
X129635Y-81280
X129840Y-78115
X129857Y-104935
X130976Y-87565
X131365Y-107693
X131568Y-96079
X131954Y-99581
X132568Y-99020
X132754Y-107934
X133142Y-82161
X133205Y-107212
X133284Y-74781
X133284Y-103081
X133304Y-98252
X133311Y-76806
X133315Y-96079
X133465Y-100251
X133497Y-70087
X133498Y-72649
X136468Y-83920
X137017Y-86792
X138083Y-62464
X138861Y-109501
X139363Y-84524
X139433Y-82539
X139614Y-59243
X140123Y-113342
X140745Y-112582
X140774Y-83025
X141024Y-111708
X141534Y-106990
X141917Y-110856
X142023Y-105789
X142450Y-103334
X142692Y-84824
X142695Y-97530
X142695Y-100916
X142701Y-104639
X142708Y-83419
X142716Y-86173
X142784Y-118194
X142790Y-110346
X145736Y-66280
X145755Y-77691
X145926Y-76208
X145932Y-63110
X145939Y-69376
X145948Y-96862
X145954Y-72875
X146105Y-74536
X146240Y-85706
X146744Y-94339
X149314Y-94351
T2
X119732Y-118607
X125517Y-21058
X127048Y-113965
T3
X114151Y-124083
X121651Y-124083
X114161Y-92920
X121661Y-92920
X130619Y-94500
X130619Y-102000
X134796Y-34459
X134796Y-42079
X135671Y-89745
X143171Y-89745
X83107Y-34713
X83107Y-42213
X111028Y-24465
X111028Y-27005
X111028Y-29545
X111028Y-32085
X111028Y-34625
X111028Y-37165
X111028Y-39705
X111028Y-42245
X118648Y-24465
X118648Y-27005
X118648Y-29545
X118648Y-32085
X118648Y-34625
X118648Y-37165
X118648Y-39705
X118648Y-42245
X79932Y-24553
X79932Y-32053
X83107Y-24553
X83107Y-32053
X79932Y-34713
X79932Y-42213
X127254Y-94500
X127254Y-102000
X122748Y-24308
X122748Y-26848
X122748Y-29388
X122748Y-31928
X122748Y-34468
X122748Y-37008
X122748Y-39548
X122748Y-42088
X130368Y-24308
X130368Y-26848
X130368Y-29388
X130368Y-31928
X130368Y-34468
X130368Y-37008
X130368Y-39548
X130368Y-42088
X135661Y-127258
X143161Y-127258
X84140Y-48260
X84140Y-50800
X84140Y-53340
X84140Y-55880
X84140Y-58420
X84140Y-60960
X84140Y-63500
X84140Y-66040
X84140Y-68580
X84140Y-71120
X84140Y-73660
X84140Y-76200
X84140Y-78740
X84140Y-81280
X84140Y-83820
X84140Y-86360
X84140Y-88900
X84140Y-91440
X84140Y-93980
X84140Y-96520
X84140Y-99060
X84140Y-101600
X84140Y-104140
X84140Y-106680
X84140Y-109220
X84140Y-111760
X84140Y-114300
X84140Y-116840
X84140Y-119380
X84140Y-121920
X84140Y-124460
X84140Y-127000
X107000Y-48260
X107000Y-50800
X107000Y-53340
X107000Y-55880
X107000Y-58420
X107000Y-60960
X107000Y-63500
X107000Y-66040
X107000Y-68580
X107000Y-71120
X107000Y-73660
X107000Y-76200
X107000Y-78740
X107000Y-81280
X107000Y-83820
X107000Y-86360
X107000Y-88900
X107000Y-91440
X107000Y-93980
X107000Y-96520
X107000Y-99060
X107000Y-101600
X107000Y-104140
X107000Y-106680
X107000Y-109220
X107000Y-111760
X107000Y-114300
X107000Y-116840
X107000Y-119380
X107000Y-121920
X107000Y-124460
X107000Y-127000
X114161Y-89745
X121661Y-89745
X130366Y-46990
X130366Y-54490
X137971Y-29379
X137971Y-36999
X114151Y-127258
X121651Y-127258
X134796Y-24299
X134796Y-31919
X130358Y-58420
X137858Y-58420
X113538Y-46990
X113538Y-54610
X116078Y-46990
X116078Y-54610
X118618Y-46990
X118618Y-54610
X121158Y-46990
X121158Y-54610
X135671Y-92920
X143171Y-92920
X88187Y-26966
X88187Y-29506
X88187Y-32046
X88187Y-34586
X88187Y-37126
X88187Y-39666
X90727Y-24426
X90727Y-26966
X90727Y-29506
X90727Y-32046
X90727Y-34586
X90727Y-37126
X90727Y-39666
X90727Y-42206
X93267Y-24426
X93267Y-26966
X93267Y-39666
X93267Y-42206
X95807Y-24426
X95807Y-26966
X95807Y-39666
X95807Y-42206
X98347Y-24426
X98347Y-26966
X98347Y-39666
X98347Y-42206
X100887Y-24426
X100887Y-26966
X100887Y-39666
X100887Y-42206
X103427Y-24426
X103427Y-26966
X103427Y-29506
X103427Y-32046
X103427Y-34586
X103427Y-37126
X103427Y-39666
X103427Y-42206
X105967Y-26966
X105967Y-29506
X105967Y-32046
X105967Y-34586
X105967Y-37126
X105967Y-39666
X135661Y-124083
X143161Y-124083
X80140Y-48260
X80140Y-50800
X80140Y-53340
X80140Y-55880
X80140Y-58420
X80140Y-60960
X80140Y-63500
X80140Y-66040
X80140Y-68580
X80140Y-71120
X80140Y-73660
X80140Y-76200
X80140Y-78740
X80140Y-81280
X80140Y-83820
X80140Y-86360
X80140Y-88900
X80140Y-91440
X80140Y-93980
X80140Y-96520
X80140Y-99060
X80140Y-101600
X80140Y-104140
X80140Y-106680
X80140Y-109220
X80140Y-111760
X80140Y-114300
X80140Y-116840
X80140Y-119380
X80140Y-121920
X80140Y-124460
X80140Y-127000
X103000Y-48260
X103000Y-50800
X103000Y-53340
X103000Y-55880
X103000Y-58420
X103000Y-60960
X103000Y-63500
X103000Y-66040
X103000Y-68580
X103000Y-71120
X103000Y-73660
X103000Y-76200
X103000Y-78740
X103000Y-81280
X103000Y-83820
X103000Y-86360
X103000Y-88900
X103000Y-91440
X103000Y-93980
X103000Y-96520
X103000Y-99060
X103000Y-101600
X103000Y-104140
X103000Y-106680
X103000Y-109220
X103000Y-111760
X103000Y-114300
X103000Y-116840
X103000Y-119380
X103000Y-121920
X103000Y-124460
X103000Y-127000
X113538Y-58420
X121038Y-58420
T4
X143460Y-26840
X143460Y-29380
X143460Y-31920
X143460Y-34460
X143460Y-37000
X146000Y-26840
X146000Y-29380
X146000Y-31920
X146000Y-34460
X146000Y-37000
T0
M30
